<svg width="581" height="378" viewBox="0 0 581 378" fill="none" xmlns="http://www.w3.org/2000/svg">
<path d="M130.445 48.3594H76.853L76.1382 55.7285H130.445V48.3594Z" stroke="#263238" stroke-width="1.80875" stroke-miterlimit="10"/>
<path d="M130.445 55.7285H76.853L76.1382 63.0977H130.445V55.7285Z" stroke="#263238" stroke-width="1.80875" stroke-miterlimit="10"/>
<path d="M130.445 63.0986H76.853L76.1382 70.4678H130.445V63.0986Z" stroke="#263238" stroke-width="1.80875" stroke-miterlimit="10"/>
<path d="M130.445 70.4668H76.853L76.1382 77.836H130.445V70.4668Z" stroke="#263238" stroke-width="1.80875" stroke-miterlimit="10"/>
<path d="M130.445 77.8359H76.853L76.1382 85.1966H130.445V77.8359Z" stroke="#263238" stroke-width="1.80875" stroke-miterlimit="10"/>
<path d="M130.445 85.1973H76.853L76.1382 92.5664H130.445V85.1973Z" stroke="#263238" stroke-width="1.80875" stroke-miterlimit="10"/>
<path d="M130.445 92.5654H76.853L76.1382 99.9346H130.445V92.5654Z" stroke="#263238" stroke-width="1.80875" stroke-miterlimit="10"/>
<path d="M130.445 99.9346H76.853L76.1382 107.304H130.445V99.9346Z" stroke="#263238" stroke-width="1.80875" stroke-miterlimit="10"/>
<path d="M130.445 107.305H76.853L76.1382 114.674H130.445V107.305Z" stroke="#263238" stroke-width="1.80875" stroke-miterlimit="10"/>
<path d="M130.445 114.674H76.853L76.1382 122.043H130.445V114.674Z" stroke="#263238" stroke-width="1.80875" stroke-miterlimit="10"/>
<path d="M130.445 122.042H76.853L76.1382 129.411H130.445V122.042Z" stroke="#263238" stroke-width="1.80875" stroke-miterlimit="10"/>
<path d="M130.445 129.411H76.853L76.1382 136.78H130.445V129.411Z" stroke="#263238" stroke-width="1.80875" stroke-miterlimit="10"/>
<path d="M130.445 136.781H76.853L76.1382 144.15H130.445V136.781Z" stroke="#263238" stroke-width="1.80875" stroke-miterlimit="10"/>
<path d="M130.445 144.149H76.853L76.1382 151.519H130.445V144.149Z" stroke="#263238" stroke-width="1.80875" stroke-miterlimit="10"/>
<path d="M130.445 151.519H76.853L76.1382 158.888H130.445V151.519Z" stroke="#263238" stroke-width="1.80875" stroke-miterlimit="10"/>
<path d="M130.445 158.871H76.853L76.1382 166.24H130.445V158.871Z" stroke="#263238" stroke-width="1.80875" stroke-miterlimit="10"/>
<path d="M130.445 166.231H76.853L76.1382 173.601H130.445V166.231Z" stroke="#263238" stroke-width="1.80875" stroke-miterlimit="10"/>
<path d="M130.445 173.584H76.853L76.1382 180.953H130.445V173.584Z" stroke="#263238" stroke-width="1.80875" stroke-miterlimit="10"/>
<path d="M130.445 180.944H76.853L76.1382 188.314H130.445V180.944Z" stroke="#263238" stroke-width="1.80875" stroke-miterlimit="10"/>
<path d="M130.445 188.297H76.853L76.1382 195.666H130.445V188.297Z" stroke="#263238" stroke-width="1.80875" stroke-miterlimit="10"/>
<path d="M130.445 195.657H76.853L76.1382 203.018H130.445V195.657Z" stroke="#263238" stroke-width="1.80875" stroke-miterlimit="10"/>
<path d="M185.544 48.3594H131.943L131.237 55.7285H185.544V48.3594Z" stroke="#263238" stroke-width="1.80875" stroke-miterlimit="10"/>
<path d="M185.544 55.7285H131.943L131.237 63.0977H185.544V55.7285Z" stroke="#263238" stroke-width="1.80875" stroke-miterlimit="10"/>
<path d="M185.544 63.0986H131.943L131.237 70.4678H185.544V63.0986Z" stroke="#263238" stroke-width="1.80875" stroke-miterlimit="10"/>
<path d="M185.544 70.4668H131.943L131.237 77.836H185.544V70.4668Z" stroke="#263238" stroke-width="1.80875" stroke-miterlimit="10"/>
<path d="M185.544 77.8359H131.943L131.237 85.1966H185.544V77.8359Z" stroke="#263238" stroke-width="1.80875" stroke-miterlimit="10"/>
<path d="M185.544 85.1973H131.943L131.237 92.5664H185.544V85.1973Z" stroke="#263238" stroke-width="1.80875" stroke-miterlimit="10"/>
<path d="M185.544 92.5654H131.943L131.237 99.9346H185.544V92.5654Z" stroke="#263238" stroke-width="1.80875" stroke-miterlimit="10"/>
<path d="M185.544 99.9346H131.943L131.237 107.304H185.544V99.9346Z" stroke="#263238" stroke-width="1.80875" stroke-miterlimit="10"/>
<path d="M185.544 107.305H131.943L131.237 114.674H185.544V107.305Z" stroke="#263238" stroke-width="1.80875" stroke-miterlimit="10"/>
<path d="M185.544 114.674H131.943L131.237 122.043H185.544V114.674Z" stroke="#263238" stroke-width="1.80875" stroke-miterlimit="10"/>
<path d="M185.544 122.042H131.943L131.237 129.411H185.544V122.042Z" stroke="#263238" stroke-width="1.80875" stroke-miterlimit="10"/>
<path d="M185.544 129.411H131.943L131.237 136.78H185.544V129.411Z" stroke="#263238" stroke-width="1.80875" stroke-miterlimit="10"/>
<path d="M185.544 136.781H131.943L131.237 144.15H185.544V136.781Z" stroke="#263238" stroke-width="1.80875" stroke-miterlimit="10"/>
<path d="M185.544 144.149H131.943L131.237 151.519H185.544V144.149Z" stroke="#263238" stroke-width="1.80875" stroke-miterlimit="10"/>
<path d="M185.544 151.519H131.943L131.237 158.888H185.544V151.519Z" stroke="#263238" stroke-width="1.80875" stroke-miterlimit="10"/>
<path d="M185.544 158.871H131.943L131.237 166.24H185.544V158.871Z" stroke="#263238" stroke-width="1.80875" stroke-miterlimit="10"/>
<path d="M185.544 166.231H131.943L131.237 173.601H185.544V166.231Z" stroke="#263238" stroke-width="1.80875" stroke-miterlimit="10"/>
<path d="M185.544 173.584H131.943L131.237 180.953H185.544V173.584Z" stroke="#263238" stroke-width="1.80875" stroke-miterlimit="10"/>
<path d="M185.544 180.944H131.943L131.237 188.314H185.544V180.944Z" stroke="#263238" stroke-width="1.80875" stroke-miterlimit="10"/>
<path d="M185.544 188.297H131.943L131.237 195.666H185.544V188.297Z" stroke="#263238" stroke-width="1.80875" stroke-miterlimit="10"/>
<path d="M185.544 195.657H131.943L131.237 203.018H185.544V195.657Z" stroke="#263238" stroke-width="1.80875" stroke-miterlimit="10"/>
<path d="M188.224 42.6494H74.8872V48.2061H188.224V42.6494Z" stroke="#263238" stroke-width="1.80875" stroke-miterlimit="10"/>
<path d="M188.224 48.2148V146.107" stroke="#263238" stroke-width="1.80875" stroke-miterlimit="10"/>
<path d="M186.99 48.3682V115.533" stroke="#263238" stroke-width="1.80875" stroke-miterlimit="10"/>
<path d="M189.033 145.895H187.509V148.388H189.033V145.895Z" fill="#263238" stroke="#263238" stroke-width="1.80875" stroke-miterlimit="10"/>
<path d="M187.654 115.006H186.131V117.499H187.654V115.006Z" fill="#263238" stroke="#263238" stroke-width="1.80875" stroke-miterlimit="10"/>
<path d="M458.237 48.3594H404.636L403.93 55.7285H458.237V48.3594Z" stroke="#263238" stroke-width="1.80875" stroke-miterlimit="10"/>
<path d="M458.237 55.7285H404.636L403.93 63.0977H458.237V55.7285Z" stroke="#263238" stroke-width="1.80875" stroke-miterlimit="10"/>
<path d="M458.237 63.0986H404.636L403.93 70.4678H458.237V63.0986Z" stroke="#263238" stroke-width="1.80875" stroke-miterlimit="10"/>
<path d="M458.237 70.4668H404.636L403.93 77.836H458.237V70.4668Z" stroke="#263238" stroke-width="1.80875" stroke-miterlimit="10"/>
<path d="M458.237 77.8359H404.636L403.93 85.1966H458.237V77.8359Z" stroke="#263238" stroke-width="1.80875" stroke-miterlimit="10"/>
<path d="M458.237 85.1973H404.636L403.93 92.5664H458.237V85.1973Z" stroke="#263238" stroke-width="1.80875" stroke-miterlimit="10"/>
<path d="M458.237 92.5654H404.636L403.93 99.9346H458.237V92.5654Z" stroke="#263238" stroke-width="1.80875" stroke-miterlimit="10"/>
<path d="M458.237 99.9346H404.636L403.93 107.304H458.237V99.9346Z" stroke="#263238" stroke-width="1.80875" stroke-miterlimit="10"/>
<path d="M458.237 107.305H404.636L403.93 114.674H458.237V107.305Z" stroke="#263238" stroke-width="1.80875" stroke-miterlimit="10"/>
<path d="M458.237 114.674H404.636L403.93 122.043H458.237V114.674Z" stroke="#263238" stroke-width="1.80875" stroke-miterlimit="10"/>
<path d="M458.237 122.042H404.636L403.93 129.411H458.237V122.042Z" stroke="#263238" stroke-width="1.80875" stroke-miterlimit="10"/>
<path d="M458.237 129.411H404.636L403.93 136.78H458.237V129.411Z" stroke="#263238" stroke-width="1.80875" stroke-miterlimit="10"/>
<path d="M458.237 136.781H404.636L403.93 144.15H458.237V136.781Z" stroke="#263238" stroke-width="1.80875" stroke-miterlimit="10"/>
<path d="M458.237 144.149H404.636L403.93 151.519H458.237V144.149Z" stroke="#263238" stroke-width="1.80875" stroke-miterlimit="10"/>
<path d="M458.237 151.519H404.636L403.93 158.888H458.237V151.519Z" stroke="#263238" stroke-width="1.80875" stroke-miterlimit="10"/>
<path d="M458.237 158.871H404.636L403.93 166.24H458.237V158.871Z" stroke="#263238" stroke-width="1.80875" stroke-miterlimit="10"/>
<path d="M458.237 166.231H404.636L403.93 173.601H458.237V166.231Z" stroke="#263238" stroke-width="1.80875" stroke-miterlimit="10"/>
<path d="M458.237 173.584H404.636L403.93 180.953H458.237V173.584Z" stroke="#263238" stroke-width="1.80875" stroke-miterlimit="10"/>
<path d="M458.237 180.944H404.636L403.93 188.314H458.237V180.944Z" stroke="#263238" stroke-width="1.80875" stroke-miterlimit="10"/>
<path d="M458.237 188.297H404.636L403.93 195.666H458.237V188.297Z" stroke="#263238" stroke-width="1.80875" stroke-miterlimit="10"/>
<path d="M458.237 195.657H404.636L403.93 203.018H458.237V195.657Z" stroke="#263238" stroke-width="1.80875" stroke-miterlimit="10"/>
<path d="M513.336 48.3594H459.735L459.029 55.7285H513.336V48.3594Z" stroke="#263238" stroke-width="1.80875" stroke-miterlimit="10"/>
<path d="M513.336 55.7285H459.735L459.029 63.0977H513.336V55.7285Z" stroke="#263238" stroke-width="1.80875" stroke-miterlimit="10"/>
<path d="M513.336 63.0986H459.735L459.029 70.4678H513.336V63.0986Z" stroke="#263238" stroke-width="1.80875" stroke-miterlimit="10"/>
<path d="M513.336 70.4668H459.735L459.029 77.836H513.336V70.4668Z" stroke="#263238" stroke-width="1.80875" stroke-miterlimit="10"/>
<path d="M513.336 77.8359H459.735L459.029 85.1966H513.336V77.8359Z" stroke="#263238" stroke-width="1.80875" stroke-miterlimit="10"/>
<path d="M513.336 85.1973H459.735L459.029 92.5664H513.336V85.1973Z" stroke="#263238" stroke-width="1.80875" stroke-miterlimit="10"/>
<path d="M513.336 92.5654H459.735L459.029 99.9346H513.336V92.5654Z" stroke="#263238" stroke-width="1.80875" stroke-miterlimit="10"/>
<path d="M513.336 99.9346H459.735L459.029 107.304H513.336V99.9346Z" stroke="#263238" stroke-width="1.80875" stroke-miterlimit="10"/>
<path d="M513.336 107.305H459.735L459.029 114.674H513.336V107.305Z" stroke="#263238" stroke-width="1.80875" stroke-miterlimit="10"/>
<path d="M513.336 114.674H459.735L459.029 122.043H513.336V114.674Z" stroke="#263238" stroke-width="1.80875" stroke-miterlimit="10"/>
<path d="M513.336 122.042H459.735L459.029 129.411H513.336V122.042Z" stroke="#263238" stroke-width="1.80875" stroke-miterlimit="10"/>
<path d="M513.336 129.411H459.735L459.029 136.78H513.336V129.411Z" stroke="#263238" stroke-width="1.80875" stroke-miterlimit="10"/>
<path d="M513.336 136.781H459.735L459.029 144.15H513.336V136.781Z" stroke="#263238" stroke-width="1.80875" stroke-miterlimit="10"/>
<path d="M513.336 144.149H459.735L459.029 151.519H513.336V144.149Z" stroke="#263238" stroke-width="1.80875" stroke-miterlimit="10"/>
<path d="M513.336 151.519H459.735L459.029 158.888H513.336V151.519Z" stroke="#263238" stroke-width="1.80875" stroke-miterlimit="10"/>
<path d="M513.336 158.871H459.735L459.029 166.24H513.336V158.871Z" stroke="#263238" stroke-width="1.80875" stroke-miterlimit="10"/>
<path d="M513.336 166.231H459.735L459.029 173.601H513.336V166.231Z" stroke="#263238" stroke-width="1.80875" stroke-miterlimit="10"/>
<path d="M513.336 173.584H459.735L459.029 180.953H513.336V173.584Z" stroke="#263238" stroke-width="1.80875" stroke-miterlimit="10"/>
<path d="M513.336 180.944H459.735L459.029 188.314H513.336V180.944Z" stroke="#263238" stroke-width="1.80875" stroke-miterlimit="10"/>
<path d="M513.336 188.297H459.735L459.029 195.666H513.336V188.297Z" stroke="#263238" stroke-width="1.80875" stroke-miterlimit="10"/>
<path d="M513.336 195.657H459.735L459.029 203.018H513.336V195.657Z" stroke="#263238" stroke-width="1.80875" stroke-miterlimit="10"/>
<path d="M516.016 42.6494H402.679V48.2061H516.016V42.6494Z" stroke="#263238" stroke-width="1.80875" stroke-miterlimit="10"/>
<path d="M516.016 48.2148V146.107" stroke="#263238" stroke-width="1.80875" stroke-miterlimit="10"/>
<path d="M514.782 48.3682V115.533" stroke="#263238" stroke-width="1.80875" stroke-miterlimit="10"/>
<path d="M516.816 145.895H515.292V148.388H516.816V145.895Z" fill="#263238" stroke="#263238" stroke-width="1.80875" stroke-miterlimit="10"/>
<path d="M515.446 115.006H513.923V117.499H515.446V115.006Z" fill="#263238" stroke="#263238" stroke-width="1.80875" stroke-miterlimit="10"/>
<path d="M22.6819 284.292C22.5108 283.521 22.2657 282.769 21.9501 282.046C21.6201 281.221 21.2423 280.417 20.8184 279.637C20.0864 278.3 19.2499 277.022 18.3166 275.817C18.2862 275.773 18.2411 275.742 18.1897 275.729C18.1383 275.716 18.084 275.722 18.0366 275.746C17.9891 275.77 17.9518 275.81 17.9314 275.858C17.9109 275.907 17.9087 275.962 17.9252 276.012C18.0528 276.523 18.2145 277.204 18.4102 277.97C18.6059 278.735 18.7506 279.612 18.9208 280.522C19.2952 282.224 19.542 284.096 19.8568 285.407C20.0525 286.215 20.2483 286.981 20.4184 287.679C20.5709 288.288 20.7584 288.887 20.9801 289.474L19.2782 287.951C18.7251 287.441 18.1039 287.007 17.5167 286.522C17.8269 285.738 17.9152 284.884 17.772 284.054C17.6 282.626 17.2335 281.229 16.6828 279.901C16.3558 279.17 15.9835 278.459 15.5681 277.774C15.0812 277.016 14.5528 276.286 13.9853 275.587C13.0042 274.366 11.9101 273.241 10.7177 272.226C10.6798 272.189 10.6299 272.167 10.5772 272.164C10.5244 272.16 10.4722 272.176 10.43 272.208C10.3878 272.24 10.3585 272.286 10.3473 272.337C10.336 272.389 10.3437 272.443 10.3688 272.489C10.6071 272.983 10.9219 273.613 11.2198 274.345C11.5176 275.076 11.875 275.893 12.2324 276.736C12.8621 278.387 13.5343 280.139 14.0279 281.416C14.3512 282.199 14.6661 282.922 14.9724 283.56C15.2787 284.198 15.534 284.803 15.8233 285.262L14.4278 284.309L12.9982 283.458C12.9194 283.167 12.777 282.897 12.5813 282.667C12.2849 282.333 11.9572 282.028 11.6027 281.756C10.6036 280.996 9.48883 280.401 8.30102 279.995C6.89442 279.534 5.4244 279.295 3.94419 279.289C2.66592 279.262 1.38904 279.388 0.140478 279.663C-0.0552388 279.714 -0.03822 280.054 0.140478 280.105C1.29918 280.457 2.4358 280.878 3.54425 281.365C4.8547 281.901 6.19068 282.565 7.27138 282.939C9.50936 283.79 11.5261 284.284 12.4962 284.122L13.9087 284.973C14.3767 285.262 14.8277 285.586 15.2787 285.892C14.6885 285.824 14.094 285.801 13.5003 285.824C12.7916 285.878 12.0869 285.974 11.3899 286.113C10.6982 286.259 10.0227 286.472 9.3732 286.751C8.65147 287.037 7.9518 287.375 7.27989 287.764C6.60764 288.155 5.97794 288.555 5.45036 288.93C4.92278 289.304 4.46327 289.696 4.13991 289.976C3.98674 290.104 3.98674 290.41 4.13991 290.368C4.78662 290.172 5.89285 289.925 7.17777 289.679L9.16047 289.33C9.8242 289.236 10.4794 289.125 11.0666 288.989C12.4196 288.691 13.7045 288.436 14.7852 288.138C15.5747 287.961 16.3211 287.629 16.9806 287.16C17.5423 287.619 18.1294 288.011 18.6825 288.53L20.2908 289.993C19.7085 289.845 19.1173 289.734 18.5208 289.662C17.816 289.566 17.1034 289.54 16.3935 289.585C14.9058 289.689 13.4396 289.998 12.0367 290.504C11.2963 290.759 10.6071 291.023 9.99439 291.295C9.38171 291.568 8.86264 291.848 8.47972 292.061C8.30102 292.155 8.24996 292.453 8.41164 292.444C9.12643 292.376 10.2837 292.393 11.6282 292.376C12.3004 292.376 12.9812 292.419 13.679 292.419H15.6532C17.0147 292.419 18.4017 292.265 19.4909 292.155C20.3068 292.123 21.1069 291.92 21.8395 291.559C22.8569 292.601 23.8198 293.694 24.7242 294.835C23.5067 294.332 22.2226 294.008 20.912 293.874C19.412 293.753 17.9028 293.819 16.419 294.069C15.1262 294.285 13.8496 294.59 12.5983 294.98C12.4026 295.048 12.309 295.337 12.4791 295.354L15.7383 295.873C17.0402 296.163 18.5804 296.375 19.7717 296.554C21.056 296.719 22.3488 296.807 23.6435 296.818C24.4571 296.901 25.279 296.805 26.0517 296.537L27.3536 298.299L28.562 300.12C27.3999 299.486 26.1535 299.022 24.8604 298.741C23.3719 298.413 21.8482 298.273 20.3248 298.324C19.0061 298.351 17.6903 298.459 16.385 298.647C16.1722 298.647 16.0531 298.954 16.2063 299.005C16.9126 299.243 18.0954 299.626 19.4399 300.035C20.7531 300.53 22.0942 300.947 23.4563 301.285C24.7132 301.606 25.9894 301.844 27.277 302C28.0857 302.155 28.9178 302.137 29.7192 301.949L30.8255 303.838L31.8381 305.77C30.7471 305.021 29.5552 304.431 28.2982 304.017C26.8473 303.56 25.3479 303.275 23.8307 303.166C22.4961 303.035 21.1551 302.981 19.8143 303.004C19.61 303.004 19.4484 303.277 19.61 303.353C20.3419 303.66 21.4566 304.204 22.7756 304.8C24.0348 305.407 25.3242 305.95 26.6388 306.425C27.8556 306.873 29.1007 307.239 30.366 307.523C31.1463 307.769 31.9705 307.845 32.7826 307.744C33.4208 309.055 33.9484 310.416 34.4845 311.769C33.4784 310.912 32.3623 310.194 31.1658 309.633C29.7729 309.021 28.3137 308.573 26.8175 308.297C25.5086 308.03 24.1842 307.845 22.8521 307.744C22.6479 307.744 22.4607 307.974 22.6139 308.067C23.3031 308.442 24.3158 309.106 25.6007 309.769C26.8856 310.433 28.1535 311.241 29.2257 311.786C31.7785 312.969 34.2037 313.939 35.1823 313.777L35.8205 315.862L36.3566 317.981C35.4773 316.986 34.4566 316.126 33.3272 315.428C32.0224 314.666 30.6349 314.055 29.1917 313.607C27.922 313.213 26.6324 312.887 25.3284 312.628C25.1242 312.628 24.9114 312.816 25.0476 312.918C25.6262 313.377 26.7495 314.118 27.7876 314.952C28.8258 315.785 30.0937 316.653 31.1488 317.334C33.523 318.806 35.8205 320.066 36.7991 320.049C37.0704 321.467 37.241 322.903 37.3097 324.346C37.3097 324.525 37.5054 324.661 37.7436 324.661C37.7942 324.667 37.8454 324.662 37.8941 324.648C37.9429 324.633 37.9881 324.609 38.0272 324.576C38.0662 324.543 38.0981 324.503 38.1211 324.458C38.144 324.412 38.1575 324.363 38.1606 324.312C38.0918 322.832 37.9155 321.359 37.633 319.904C38.5605 319.649 40.305 317.538 41.4878 314.501C42.0359 312.954 42.4014 311.349 42.577 309.718C42.7509 308.27 42.8389 306.812 42.8408 305.353C42.8408 305.123 42.5174 305.081 42.4153 305.293C41.9983 306.229 41.3006 307.753 40.5688 309.361C39.837 310.969 39.0541 312.577 38.5435 313.845C38.0225 315.148 37.5792 316.481 37.216 317.836C37.0459 317.104 36.8501 316.373 36.6629 315.641L36.0077 313.479C36.692 313.009 37.236 312.362 37.582 311.607C38.2598 310.366 38.7719 309.042 39.1051 307.667C39.4701 306.079 39.6556 304.455 39.6583 302.826C39.6613 301.384 39.5846 299.944 39.4285 298.511C39.4285 298.282 39.0711 298.282 39.003 298.511C38.7137 299.473 38.1521 301.064 37.599 302.766C37.0459 304.468 36.4332 306.17 36.1183 307.429C35.7424 308.781 35.4581 310.157 35.2674 311.548C34.7228 310.144 34.1697 308.731 33.5144 307.37C34.1494 306.818 34.6253 306.107 34.893 305.31C35.4062 303.996 35.7715 302.629 35.9822 301.234C36.1489 299.628 36.1489 298.008 35.9822 296.401C35.8428 294.972 35.627 293.552 35.3355 292.146C35.2844 291.925 34.9525 291.959 34.9015 292.189C34.7143 293.167 34.3143 294.827 33.9399 296.512C33.5655 298.196 33.1485 299.958 32.9528 301.294C32.7466 302.678 32.6272 304.073 32.5954 305.472L31.5403 303.464L30.4 301.515C30.9712 300.903 31.3653 300.147 31.5403 299.328C31.9129 297.97 32.1355 296.574 32.204 295.167C32.205 293.554 32.0511 291.944 31.7445 290.359C31.3701 288.657 30.8935 287.109 30.5872 286.105C30.5191 285.883 30.1702 285.951 30.1617 286.181C30.0511 287.211 29.8809 288.896 29.7022 290.657C29.5235 292.419 29.2427 294.189 29.2087 295.516C29.1449 296.914 29.1677 298.316 29.2768 299.711L28.0344 297.822L26.6899 296.01C27.1901 295.333 27.5067 294.539 27.6089 293.704C27.8431 292.298 27.9059 290.869 27.7961 289.449C27.6251 287.804 27.2536 286.187 26.6899 284.632C26.1696 283.231 25.573 281.859 24.9029 280.522C24.8741 280.482 24.833 280.452 24.7856 280.436C24.7382 280.421 24.6871 280.422 24.6401 280.438C24.5931 280.454 24.5526 280.486 24.5248 280.527C24.497 280.568 24.4834 280.617 24.4859 280.667C24.571 281.714 24.6306 283.45 24.7072 285.194C24.7838 286.939 24.7072 288.811 24.8689 290.13C24.9533 291.536 25.1324 292.934 25.405 294.316C24.4349 293.15 23.4818 291.976 22.4096 290.912C22.8264 290.182 23.0381 289.353 23.0223 288.513C23.0951 287.097 22.9806 285.678 22.6819 284.292Z" fill="#80B7DB"/>
<path d="M55.0431 248.638C56.3025 247.089 57.9788 244.978 59.468 242.962L63.3142 237.941C63.5185 237.686 63.3142 237.346 63.1015 237.499C61.9868 238.188 60.2338 239.405 58.3362 240.834C56.5141 242.255 54.8069 243.817 53.2306 245.506C51.753 247.229 50.4236 249.073 49.2567 251.02L50.4054 246.936L50.9926 244.893L51.6733 242.885C52.6434 243.004 55.5792 240.571 58.9574 237.337C61.8676 234.503 66.1904 229.491 68.2327 227.449C68.4624 227.211 68.3263 226.853 68.0625 226.99C66.3288 227.863 64.6417 228.826 63.0079 229.874C62.0208 230.512 60.9741 231.185 60.0381 231.9C59.1021 232.614 58.2171 233.355 57.4853 234.052C56.5799 234.874 55.7273 235.753 54.9325 236.682C54.1836 237.533 53.5114 238.384 52.9583 239.15C53.7241 237.226 54.4049 235.261 55.2388 233.363C56.1643 232.468 56.9247 231.416 57.4853 230.257C58.4724 228.683 59.5105 226.59 60.6848 224.301C61.1869 223.296 61.7145 222.114 62.2846 220.897L63.1355 219.008C63.4249 218.37 63.7142 217.74 63.9865 217.11C65.1182 214.6 66.216 212.243 66.9478 210.839C67.1094 210.524 66.8371 210.32 66.5819 210.592C64.9782 212.334 63.4753 214.167 62.0804 216.08L60.8465 217.782C60.4636 218.387 60.0721 218.982 59.6977 219.561C59.0105 220.657 58.3855 221.79 57.8257 222.956C56.8546 224.88 56.0214 226.871 55.3324 228.913C54.8923 230.167 54.6232 231.475 54.5325 232.802L53.9028 234.257L53.3327 235.737L52.1924 238.707C52.286 237.78 52.3456 236.733 52.3796 235.593C52.4137 234.452 52.3796 233.218 52.3796 231.959C52.3796 230.895 52.3286 229.704 52.235 228.445C52.1414 227.185 52.0733 225.892 51.9882 224.658C51.7755 222.105 51.6478 219.799 51.5287 218.352C51.5287 218.021 51.1202 218.148 51.0266 218.523C50.8394 219.323 50.6012 220.378 50.3203 221.578C50.0395 222.777 49.8438 224.13 49.6141 225.526C49.3843 226.922 49.2397 228.343 49.1035 229.687C48.9744 230.911 48.9204 232.141 48.9418 233.372C49.0099 238.307 49.9715 242.043 50.7969 242.621L50.1672 244.553C49.9544 245.225 49.7757 245.898 49.58 246.57L48.4653 250.629C48.4511 248.373 48.309 246.12 48.0398 243.881C47.8781 241.787 47.3846 239.133 46.9761 236.648C46.5677 234.163 46.1507 231.789 45.9125 230.402C45.8614 230.087 45.4785 230.249 45.4189 230.615C45.2147 232.265 44.8403 234.929 44.6701 237.737C44.4771 240.367 44.5055 243.008 44.7552 245.634C44.9473 247.731 45.3638 249.803 45.9976 251.812C46.5251 253.394 47.0612 254.415 47.5037 254.671L47.0357 256.704L46.6698 258.772L45.955 262.899C45.7119 260.654 45.3311 258.426 44.8147 256.228C44.4403 254.152 43.7255 251.565 43.0278 249.106C42.33 246.646 41.8024 244.391 41.4195 242.987C41.3259 242.664 40.9685 242.868 40.9515 243.243C40.7558 246.57 40.7217 254.075 41.8024 258.321C42.8065 263.163 44.602 266.635 45.5125 267.018C45.1211 269.783 45.0785 272.583 44.9424 275.374C44.7382 274.464 44.4659 273.451 44.0914 272.353C43.9213 271.8 43.7426 271.239 43.5468 270.651C43.3511 270.064 43.1554 269.477 42.9852 268.873C42.3811 266.848 41.3514 264.346 40.4324 261.972C39.5134 259.598 38.7305 257.385 38.1859 256.015C38.0668 255.7 37.7349 255.939 37.7604 256.322C37.82 257.172 37.8966 258.253 37.9902 259.496C38.073 260.844 38.2263 262.188 38.4497 263.521C38.6795 264.933 38.9347 266.363 39.207 267.69C39.3517 268.354 39.4793 269.001 39.6495 269.605C39.8197 270.209 40.0154 270.779 40.1941 271.307C40.8809 273.298 41.7349 275.228 42.747 277.076C43.5979 278.48 44.3552 279.365 44.8403 279.51C44.8403 282.292 44.8403 285.083 44.8998 287.866C44.2329 285.72 43.4344 283.617 42.5087 281.569C42.1002 280.607 41.5812 279.544 41.011 278.455L40.1175 276.804C39.8282 276.234 39.5474 275.663 39.2666 275.102C38.0753 272.813 36.9691 270.694 36.3053 269.409C36.1436 269.111 35.8458 269.409 35.9139 269.775C36.2287 271.477 36.7648 274.149 37.4201 276.88C38.1095 279.357 38.9565 281.787 39.9559 284.156C41.8875 288.581 44.0319 291.738 45.0105 292.002C45.0956 294.784 45.2147 297.558 45.3508 300.341C44.625 298.224 43.7725 296.152 42.798 294.137C40.732 290.191 38.4596 286.357 35.9905 282.65C35.8118 282.386 35.531 282.65 35.6246 283.016C36.4074 286.096 38.4242 292.997 40.2622 296.801C42.3555 301.158 44.5935 304.238 45.5806 304.459C45.7678 307.242 45.955 310.016 46.2018 312.79C45.3997 310.699 44.4763 308.656 43.4362 306.672C41.2456 302.799 38.8482 299.046 36.2543 295.431C36.0671 295.167 35.7948 295.431 35.8969 295.805C36.7904 298.843 39.0198 305.676 41.0025 309.42C43.2235 313.675 45.5806 316.713 46.5762 316.909C46.84 319.674 47.1378 322.44 47.4952 325.197C47.4952 325.546 47.7675 325.801 47.9973 325.767C48.227 325.733 48.3802 325.435 48.3377 325.086C47.9888 322.346 47.6909 319.589 47.4186 316.841C48.3547 316.56 50.0906 313.139 51.6733 308.62C53.0349 304.715 54.541 297.975 55.2133 295.048C55.2899 294.708 55.0005 294.452 54.8303 294.708C53.4008 296.988 50.2523 302.366 48.8737 306.297C48.0896 308.446 47.4806 310.654 47.0527 312.901C46.806 310.076 46.6102 307.25 46.423 304.391C47.3676 304.145 49.2226 300.775 50.9671 296.316C52.4562 292.461 54.1666 285.781 54.9495 282.879C55.0346 282.548 54.7453 282.275 54.5751 282.531C53.0774 284.752 49.7417 290.027 48.2355 293.908C47.3792 296.03 46.6962 298.219 46.1933 300.451C46.0458 297.615 45.9295 294.778 45.8444 291.942C46.7974 291.729 48.7546 288.419 50.6522 284.028C51.4521 282.131 52.3541 279.527 53.137 277.042C53.9198 274.557 54.7878 272.506 55.2303 271.179C55.3324 270.881 55.0601 270.609 54.8729 270.83C54.0815 271.809 52.7711 273.468 51.4691 275.408C51.1287 275.893 50.7969 276.387 50.465 276.897C50.1331 277.408 49.8523 277.953 49.563 278.48C48.9759 279.535 48.4483 280.573 48.0313 281.526C47.1065 283.617 46.3551 285.78 45.7848 287.994C45.7338 285.16 45.6912 282.326 45.7168 279.484C46.1933 279.399 46.9591 278.54 47.8441 277.17C48.9629 275.486 49.9884 273.741 50.916 271.945C51.1458 271.502 51.3755 271.017 51.6138 270.515L52.4222 268.916C52.9753 267.818 53.5199 266.661 54.0305 265.512C54.541 264.363 55.0941 263.299 55.5707 262.338L56.779 259.896C56.9152 259.606 56.6769 259.3 56.4727 259.504C55.5536 260.355 54.039 261.904 52.4647 263.674C50.9797 265.434 49.6366 267.309 48.4483 269.281C48.1332 269.815 47.8491 270.366 47.5973 270.932C47.3506 271.485 47.1123 272.021 46.8911 272.549C46.4486 273.613 46.0401 274.617 45.8018 275.519C45.9465 272.694 45.9805 269.86 46.372 267.052C47.3761 266.967 49.6481 263.972 52.3711 260.159C54.5495 256.815 57.9788 251.156 59.519 248.765C59.6892 248.493 59.519 248.161 59.2552 248.34C58.2426 249.14 56.5833 250.493 54.8218 252.101C53.1435 253.722 51.5877 255.466 50.1672 257.317C48.8777 259.186 47.7395 261.155 46.7634 263.206L47.4867 259.028L47.8441 256.934L48.3206 254.866C48.8057 254.866 49.7417 254.211 50.8735 253.088C52.0052 251.965 53.571 250.407 55.0431 248.638Z" fill="#80B7DB"/>
<path d="M77.2614 280.982C79.9248 279.842 83.7711 277.579 85.4219 276.617C85.6091 276.506 85.473 276.209 85.2432 276.234C84.2391 276.319 82.5968 276.523 80.8354 276.855C79.1484 277.158 77.4933 277.616 75.8914 278.225C74.4294 278.806 73.0412 279.557 71.7558 280.463C72.6918 278.906 73.6704 277.391 74.6575 275.877C75.5084 276.311 78.3761 275.698 81.5331 274.643C82.8946 274.183 84.5455 273.418 86.0857 272.737C87.6259 272.056 89.0044 271.443 89.8383 271.035C90.0255 270.958 89.9149 270.66 89.6937 270.652C88.2339 270.609 86.7729 270.66 85.3198 270.805C83.6279 270.955 81.9565 271.283 80.3333 271.784C78.8419 272.267 77.4136 272.927 76.0786 273.749C76.8444 272.669 77.5933 271.579 78.3931 270.516C79.3717 270.371 81.3544 268.457 83.4222 265.997C83.8817 265.444 84.3838 264.806 84.8773 264.1L86.426 261.972C87.2813 260.764 88.2046 259.604 89.1916 258.5C89.3448 258.322 89.1916 258.032 88.9363 258.135C87.5307 258.772 86.1935 259.55 84.9454 260.458C84.1881 260.985 83.4648 261.598 82.7755 262.16C82.1547 262.718 81.5692 263.315 81.0226 263.947C79.0058 266.329 77.857 268.737 77.8145 269.844C76.9636 270.924 76.2317 272.039 75.4404 273.145C75.7278 271.617 75.907 270.07 75.9765 268.516C76.0531 267.001 75.9765 265.036 75.9169 263.13C75.8573 261.223 75.7893 259.402 75.7893 258.279C75.7869 258.225 75.765 258.173 75.7277 258.133C75.6903 258.093 75.6399 258.067 75.5856 258.061C75.5312 258.055 75.4764 258.068 75.4311 258.099C75.3857 258.13 75.3528 258.175 75.3383 258.228C74.7308 259.768 74.2136 261.342 73.7895 262.942C73.2994 264.697 72.9858 266.495 72.8535 268.312C72.6748 271.792 73.262 274.651 73.9597 275.341C72.9897 276.838 72.0196 278.327 71.1006 279.859C71.288 278.318 71.3676 276.765 71.3388 275.213C71.2963 273.707 71.1091 271.767 70.8623 269.895C70.6155 268.023 70.4028 266.244 70.2666 265.163C70.2564 265.111 70.2284 265.064 70.1872 265.03C70.1461 264.996 70.0944 264.978 70.0411 264.978C69.9878 264.978 69.9362 264.996 69.8951 265.03C69.8539 265.064 69.8258 265.111 69.8156 265.163C69.2115 267.316 68.1138 272.175 68.2159 275.213C68.2839 278.685 68.9902 281.493 69.7391 282.148C68.8286 283.68 67.9606 285.237 67.1011 286.803C67.2217 285.256 67.2217 283.703 67.1011 282.157C66.8884 279.178 65.8247 274.388 65.3993 272.252C65.3857 272.203 65.3568 272.161 65.3168 272.131C65.2769 272.1 65.2281 272.084 65.178 272.084C65.1279 272.084 65.0791 272.1 65.0392 272.131C64.9992 272.161 64.9703 272.203 64.9568 272.252C64.2323 275.548 63.8982 278.918 63.9612 282.293C64.1994 285.739 65.0419 288.513 65.8247 289.1C64.9738 290.675 64.1909 292.274 63.391 293.866C63.4558 292.314 63.3903 290.76 63.1953 289.22C62.6524 285.923 61.928 282.659 61.0254 279.442C61.0119 279.394 60.9829 279.351 60.943 279.321C60.9031 279.291 60.8543 279.274 60.8042 279.274C60.754 279.274 60.7053 279.291 60.6653 279.321C60.6254 279.351 60.5964 279.394 60.5829 279.442C60.4297 280.514 60.2085 282.276 60.0723 284.139C59.9225 285.915 59.9225 287.699 60.0723 289.475C60.4638 292.879 61.4339 295.644 62.2337 296.223C61.4509 297.831 60.7531 299.473 60.0298 301.099C60.0162 299.547 59.8767 297.999 59.6128 296.47C59.2954 294.723 58.8806 292.996 58.3705 291.296C57.8684 289.509 57.3408 287.824 57.009 286.794C56.9951 286.744 56.964 286.7 56.921 286.671C56.878 286.641 56.826 286.628 56.774 286.633C56.7221 286.638 56.6737 286.661 56.6373 286.699C56.6008 286.736 56.5788 286.785 56.575 286.837C56.3622 288.981 56.0134 293.891 56.5239 296.895C57.06 300.299 58.2258 303.022 59.0172 303.549C58.3534 305.2 57.7067 306.868 57.1196 308.553C56.989 307.001 56.753 305.46 56.4133 303.941C55.9989 302.213 55.4933 300.509 54.8986 298.835C54.3115 297.065 53.7158 295.431 53.3414 294.368C53.3267 294.316 53.2934 294.271 53.2478 294.242C53.2023 294.213 53.1477 294.201 53.0942 294.209C53.0408 294.218 52.9923 294.245 52.9579 294.287C52.9235 294.329 52.9055 294.382 52.9074 294.436C52.7713 296.623 52.6606 301.584 53.3499 304.562C54.0902 307.966 55.3837 310.587 56.2601 311.063C55.69 312.765 55.1879 314.467 54.7199 316.169C54.4814 314.686 54.1489 313.219 53.7243 311.778C52.8734 308.902 50.8907 304.366 50.0823 302.35C50.0699 302.292 50.0351 302.242 49.9856 302.21C49.9362 302.178 49.876 302.167 49.8185 302.179C49.7609 302.192 49.7107 302.227 49.6788 302.276C49.6468 302.325 49.6359 302.386 49.6483 302.443C49.6483 304.639 49.8185 309.668 50.712 312.654C51.6991 316.058 53.2052 318.552 54.1158 318.943C53.7045 320.687 53.3835 322.45 53.1542 324.227C53.1495 324.282 53.1558 324.337 53.1725 324.39C53.1893 324.442 53.2162 324.491 53.2518 324.532C53.2874 324.574 53.3309 324.609 53.3799 324.634C53.4289 324.659 53.4823 324.674 53.5371 324.678C53.6462 324.691 53.7557 324.66 53.8429 324.594C53.9301 324.527 53.9883 324.429 54.0051 324.321C54.2242 322.577 54.5395 320.847 54.9497 319.139C55.8942 319.232 58.3534 317.709 60.9829 315.735C63.2208 313.973 66.3012 310.799 67.6883 309.455C67.85 309.302 67.6372 309.046 67.4245 309.123C64.4157 310.211 61.5565 311.675 58.9151 313.48C57.6458 314.416 56.5018 315.512 55.5113 316.739C55.9878 314.995 56.4899 313.259 57.06 311.54C58.0046 311.718 60.6084 310.408 63.374 308.561C65.8595 306.706 68.2428 304.718 70.5134 302.605C70.6751 302.46 70.5134 302.188 70.2666 302.256C69.2966 302.571 67.7138 303.107 66.0119 303.796C64.4227 304.437 62.8935 305.217 61.4424 306.128C60.1276 306.986 58.9194 307.997 57.8429 309.14C58.4385 307.438 59.0938 305.736 59.766 304.034C60.7106 304.281 63.374 303.141 66.2672 301.439C68.875 299.715 71.3757 297.833 73.7555 295.806C73.9257 295.661 73.7555 295.38 73.5172 295.448C72.5387 295.721 70.9644 296.206 69.2625 296.81C67.6665 297.36 66.1183 298.04 64.6334 298.844C63.2761 299.637 62.0092 300.576 60.8552 301.643C61.587 299.992 62.2933 298.325 63.0847 296.699C64.0037 296.989 66.7352 296.01 69.722 294.419C71.19 293.585 72.6104 292.67 73.9768 291.679C75.4063 290.675 76.6998 289.705 77.4826 289.126C77.6613 288.998 77.4826 288.709 77.2699 288.76C74.0874 289.421 70.9901 290.44 68.0372 291.798C66.6426 292.529 65.3303 293.408 64.1228 294.419C64.9738 292.802 65.7311 291.177 66.5906 289.577C67.4415 289.917 70.2752 289.049 73.313 287.594C76.0514 286.111 78.7074 284.48 81.2693 282.71C81.4565 282.582 81.2693 282.293 81.0736 282.327C77.8941 282.806 74.7832 283.663 71.8068 284.88C70.3754 285.541 69.0225 286.36 67.7734 287.322C68.6243 285.731 69.5348 284.148 70.4538 282.591C71.3388 282.999 74.1725 282.267 77.2614 280.982Z" fill="#80B7DB"/>
<path d="M40.4326 373.429H52.2437C61.6041 369.328 68.4627 355.747 68.4627 339.604C68.505 333.296 67.3769 327.035 65.1355 321.139H27.5409C25.2995 327.035 24.1713 333.296 24.2137 339.604C24.2137 355.747 31.0808 369.328 40.4326 373.429Z" fill="#263238"/>
<path d="M513.31 284.293C513.139 283.522 512.894 282.77 512.578 282.046C512.251 281.222 511.876 280.418 511.455 279.638C510.71 278.297 509.856 277.019 508.902 275.817C508.872 275.774 508.827 275.743 508.775 275.73C508.724 275.717 508.67 275.723 508.622 275.746C508.575 275.77 508.537 275.81 508.517 275.859C508.496 275.908 508.494 275.963 508.511 276.013C508.638 276.524 508.809 277.204 508.996 277.97C509.183 278.736 509.336 279.612 509.515 280.523C509.881 282.225 510.128 284.097 510.451 285.407L511.004 287.679C511.191 288.369 511.378 288.973 511.566 289.475L509.864 287.952C509.302 287.441 508.689 287.007 508.102 286.522C508.413 285.739 508.498 284.884 508.349 284.054C508.177 282.627 507.811 281.23 507.26 279.902C506.939 279.169 506.57 278.458 506.154 277.774C504.814 275.7 503.18 273.831 501.303 272.226C501.264 272.195 501.215 272.177 501.164 272.176C501.113 272.175 501.064 272.191 501.023 272.221C500.982 272.251 500.953 272.294 500.939 272.342C500.925 272.391 500.927 272.443 500.946 272.49C501.184 272.984 501.499 273.613 501.797 274.345C502.095 275.077 502.452 275.894 502.801 276.736L504.605 281.417C504.928 282.199 505.243 282.923 505.549 283.561C505.804 284.142 506.088 284.71 506.4 285.263L505.03 284.327L503.592 283.476C503.521 283.183 503.381 282.912 503.184 282.684C502.888 282.35 502.56 282.045 502.205 281.774C501.206 281.014 500.091 280.419 498.904 280.012C497.494 279.551 496.021 279.313 494.538 279.306C493.26 279.28 491.983 279.405 490.735 279.681C490.539 279.732 490.564 280.072 490.735 280.123C491.893 280.476 493.029 280.897 494.138 281.382C495.449 281.919 496.785 282.582 497.857 282.957C500.095 283.808 502.112 284.301 503.082 284.14L504.503 284.99C504.971 285.28 505.413 285.603 505.873 285.909C505.283 285.842 504.688 285.819 504.094 285.841C503.383 285.896 502.675 285.992 501.976 286.131C501.284 286.277 500.609 286.491 499.959 286.769C499.238 287.056 498.538 287.395 497.865 287.782C497.193 288.173 496.572 288.573 496.036 288.947C495.5 289.322 495.057 289.713 494.734 289.994C494.581 290.122 494.581 290.428 494.734 290.385C495.389 290.19 496.495 289.943 497.78 289.696L499.763 289.347C500.418 289.254 501.074 289.143 501.669 289.007C503.014 288.709 504.299 288.454 505.388 288.156C506.187 287.995 506.946 287.674 507.617 287.211C508.179 287.671 508.775 288.062 509.319 288.581L510.936 290.045C510.353 289.897 509.762 289.787 509.166 289.713C508.461 289.618 507.749 289.592 507.039 289.637C505.543 289.729 504.068 290.029 502.656 290.53C501.916 290.785 501.227 291.049 500.614 291.321C500.001 291.594 499.482 291.875 499.091 292.087C498.912 292.181 498.861 292.479 499.023 292.47C499.738 292.402 500.903 292.419 502.248 292.402C502.92 292.402 503.601 292.445 504.29 292.445H506.273C507.634 292.445 509.013 292.292 510.102 292.181C510.92 292.147 511.723 291.944 512.459 291.585C513.477 292.627 514.439 293.72 515.344 294.861C514.126 294.358 512.842 294.034 511.532 293.9C510.029 293.78 508.517 293.845 507.03 294.096C505.74 294.313 504.467 294.617 503.218 295.006C503.022 295.074 502.929 295.363 503.09 295.38L506.358 295.9C507.66 296.189 509.192 296.402 510.383 296.58C511.67 296.745 512.966 296.833 514.263 296.844C515.077 296.926 515.898 296.831 516.671 296.563L517.973 298.325L519.182 300.146C518.016 299.513 516.767 299.049 515.471 298.767C513.986 298.439 512.465 298.299 510.944 298.35C509.623 298.377 508.304 298.485 506.996 298.674C506.792 298.674 506.664 298.98 506.826 299.031C507.524 299.269 508.706 299.652 510.059 300.061C511.37 300.554 512.708 300.972 514.067 301.312C515.327 301.631 516.606 301.87 517.897 302.026C518.702 302.181 519.532 302.163 520.33 301.975L521.445 303.864L522.441 305.736C521.349 304.989 520.157 304.399 518.901 303.983C517.447 303.527 515.945 303.241 514.425 303.133C513.093 303.002 511.755 302.948 510.417 302.971C510.204 302.971 510.042 303.243 510.213 303.32C510.944 303.626 512.059 304.171 513.378 304.766C514.635 305.372 515.922 305.915 517.233 306.392C518.45 306.837 519.695 307.204 520.96 307.489C521.743 307.736 522.57 307.811 523.385 307.711C524.015 309.021 524.551 310.383 525.087 311.736C524.08 310.881 522.964 310.163 521.768 309.6C520.375 308.989 518.916 308.541 517.42 308.264C516.111 307.997 514.787 307.812 513.455 307.711C513.242 307.711 513.055 307.94 513.208 308.034C513.906 308.408 514.952 309.072 516.195 309.736C517.437 310.4 518.748 311.208 519.828 311.753C522.381 312.935 524.798 313.905 525.785 313.744L526.415 315.829L526.959 317.947C526.078 316.955 525.058 316.095 523.93 315.395C522.623 314.631 521.232 314.02 519.786 313.574C518.516 313.183 517.226 312.859 515.922 312.604C515.718 312.604 515.506 312.791 515.642 312.893C516.22 313.352 517.344 314.093 518.373 314.927C519.403 315.761 520.679 316.629 521.777 317.309C524.143 318.781 526.44 320.041 527.419 320.024C527.693 321.442 527.866 322.878 527.938 324.321C527.938 324.5 528.133 324.636 528.372 324.636C528.422 324.642 528.473 324.637 528.522 324.623C528.571 324.608 528.616 324.584 528.655 324.551C528.694 324.518 528.726 324.478 528.749 324.433C528.772 324.387 528.786 324.338 528.789 324.287C528.711 322.808 528.535 321.335 528.261 319.879C529.18 319.624 530.933 317.513 532.107 314.476C532.659 312.931 533.025 311.325 533.197 309.693C533.373 308.245 533.464 306.787 533.469 305.328C533.464 305.279 533.442 305.233 533.408 305.197C533.374 305.161 533.328 305.138 533.28 305.132C533.231 305.125 533.181 305.134 533.138 305.159C533.095 305.184 533.062 305.223 533.043 305.268L531.188 309.336C530.423 310.936 529.674 312.552 529.163 313.82C528.641 315.122 528.2 316.455 527.844 317.811C527.665 317.079 527.47 316.348 527.283 315.616L526.627 313.446C527.312 312.974 527.859 312.328 528.21 311.574C528.891 310.329 529.408 309.002 529.75 307.626C530.117 306.038 530.299 304.413 530.295 302.784C530.296 301.343 530.222 299.903 530.074 298.469C530.074 298.24 529.708 298.24 529.64 298.469C529.35 299.431 528.789 301.022 528.244 302.724C527.7 304.426 527.07 306.128 526.763 307.387C526.379 308.737 526.095 310.114 525.913 311.506C525.368 310.102 524.815 308.689 524.16 307.328C524.792 306.774 525.268 306.064 525.538 305.268C526.048 303.954 526.411 302.587 526.619 301.192C526.79 299.586 526.79 297.966 526.619 296.359C526.475 294.931 526.259 293.511 525.972 292.104C525.921 291.883 525.589 291.917 525.538 292.147C525.351 293.125 524.951 294.785 524.577 296.47C524.202 298.155 523.777 299.916 523.589 301.252C523.377 302.635 523.254 304.031 523.224 305.43L522.177 303.422L521.028 301.473C521.599 300.861 521.993 300.105 522.168 299.286C522.546 297.929 522.768 296.533 522.832 295.125C522.841 293.512 522.689 291.901 522.381 290.317C521.998 288.615 521.53 287.067 521.215 286.063C521.147 285.841 520.807 285.909 520.79 286.139C520.688 287.169 520.518 288.854 520.339 290.615C520.16 292.377 519.879 294.147 519.845 295.474C519.777 296.872 519.8 298.274 519.913 299.669L518.662 297.78L517.335 296.002C517.842 295.328 518.162 294.533 518.263 293.696C518.492 292.29 518.555 290.862 518.45 289.441C518.271 287.798 517.899 286.181 517.344 284.625C516.823 283.223 516.227 281.851 515.557 280.515C515.528 280.474 515.487 280.444 515.439 280.428C515.392 280.413 515.341 280.414 515.294 280.43C515.247 280.447 515.206 280.478 515.178 280.519C515.151 280.56 515.137 280.609 515.14 280.659C515.225 281.706 515.284 283.442 515.352 285.186C515.42 286.931 515.352 288.803 515.514 290.122C515.607 291.527 515.786 292.925 516.05 294.308C515.08 293.142 514.135 291.968 513.055 290.905C513.471 290.174 513.686 289.346 513.676 288.505C513.739 287.091 513.616 285.675 513.31 284.293Z" fill="#80B7DB"/>
<path d="M545.68 248.638C546.931 247.089 548.607 244.978 550.096 242.962C551.585 240.945 553.066 239.098 553.942 237.941C554.155 237.686 553.994 237.346 553.738 237.499C552.624 238.188 550.871 239.405 548.973 240.834C547.151 242.255 545.444 243.817 543.867 245.506C542.384 247.227 541.052 249.072 539.885 251.02L541.042 246.936L541.629 244.893L542.31 242.885C543.28 243.004 546.207 240.571 549.594 237.337C552.504 234.503 556.827 229.491 558.869 227.449C559.091 227.211 558.954 226.853 558.691 226.99C556.96 227.863 555.276 228.826 553.645 229.874C552.658 230.512 551.611 231.185 550.675 231.9C549.739 232.614 548.845 233.355 548.122 234.052C547.216 234.874 546.364 235.752 545.569 236.682C544.812 237.533 544.148 238.384 543.595 239.15C544.361 237.226 545.033 235.261 545.876 233.363C546.801 232.468 547.561 231.416 548.122 230.257C549.109 228.683 550.139 226.59 551.313 224.301C551.824 223.296 552.343 222.114 552.921 220.897L553.772 219.008L554.623 217.11C555.755 214.6 556.853 212.243 557.576 210.839C557.746 210.524 557.465 210.32 557.219 210.592C555.639 212.331 554.159 214.157 552.785 216.063L551.551 217.765L550.403 219.544C549.702 220.628 549.063 221.75 548.488 222.905C547.516 224.827 546.685 226.818 546.003 228.862C545.561 230.116 545.289 231.424 545.195 232.75L544.574 234.206L544.003 235.686L542.855 238.656C542.948 237.728 543.016 236.682 543.042 235.542C543.067 234.401 543.042 233.167 543.093 231.908C543.093 230.844 543.033 229.653 542.948 228.394C542.863 227.134 542.787 225.841 542.702 224.607C542.489 222.054 542.353 219.748 542.242 218.301C542.242 217.97 541.825 218.097 541.74 218.472L541.025 221.527C540.795 222.743 540.549 224.079 540.319 225.475C540.089 226.87 539.953 228.292 539.817 229.636C539.683 230.859 539.629 232.09 539.655 233.321C539.723 238.256 540.685 241.992 541.51 242.57L540.838 244.553C540.634 245.225 540.455 245.898 540.259 246.57L539.111 250.595C539.101 248.339 538.959 246.086 538.685 243.847C538.532 241.753 538.038 239.098 537.63 236.614C537.221 234.129 536.821 231.78 536.592 230.368C536.541 230.053 536.158 230.215 536.098 230.581C535.885 232.231 535.511 234.895 535.349 237.703C535.158 240.333 535.184 242.974 535.426 245.6C535.625 247.697 536.044 249.768 536.677 251.778C537.196 253.36 537.741 254.381 538.183 254.637L537.706 256.67L537.349 258.738L536.634 262.865C536.387 260.621 536.006 258.393 535.494 256.194C535.12 254.118 534.405 251.531 533.707 249.072C533.009 246.612 532.473 244.357 532.09 242.953C532.005 242.63 531.648 242.834 531.631 243.209C531.435 246.536 531.392 254.041 532.482 258.287C533.477 263.129 535.281 266.601 536.192 266.984C535.8 269.749 535.758 272.549 535.613 275.34C535.409 274.43 535.137 273.417 534.805 272.319C534.643 271.766 534.464 271.205 534.269 270.617C534.073 270.03 533.869 269.443 533.699 268.839C533.094 266.814 532.065 264.312 531.146 261.938C530.227 259.564 529.444 257.351 528.899 255.981C528.78 255.666 528.44 255.905 528.465 256.288C528.525 257.138 528.61 258.219 528.695 259.462C528.78 260.704 528.899 262.074 529.155 263.486C529.41 264.899 529.64 266.329 529.92 267.656C530.056 268.32 530.193 268.967 530.354 269.571C530.516 270.175 530.72 270.745 530.907 271.273C531.591 273.266 532.445 275.196 533.46 277.042C534.311 278.446 535.069 279.331 535.554 279.476C535.554 282.258 535.554 285.049 535.613 287.832C534.959 285.688 534.178 283.586 533.273 281.535C532.865 280.573 532.337 279.51 531.767 278.421L530.916 276.77L530.065 275.068L527.095 269.375C526.942 269.077 526.636 269.375 526.712 269.741C527.019 271.443 527.563 274.115 528.21 276.846C528.887 279.318 529.717 281.745 530.695 284.113C532.626 288.538 534.779 291.695 535.8 291.959C535.885 294.742 535.996 297.516 536.141 300.298C535.414 298.181 534.562 296.11 533.588 294.095C531.525 290.147 529.252 286.312 526.78 282.607C526.602 282.343 526.321 282.607 526.406 282.973C527.189 286.053 529.214 292.955 531.052 296.758C533.137 301.115 535.383 304.196 536.37 304.417C536.549 307.199 536.745 309.973 536.983 312.748C536.19 310.656 535.275 308.614 534.243 306.629C532.05 302.756 529.65 299.003 527.053 295.388C526.874 295.125 526.593 295.388 526.695 295.763C527.589 298.801 529.818 305.634 531.801 309.378C534.022 313.633 536.37 316.67 537.366 316.866C537.638 319.632 537.936 322.397 538.294 325.154C538.336 325.503 538.566 325.758 538.796 325.724C539.025 325.69 539.179 325.393 539.136 325.044C538.779 322.304 538.481 319.547 538.217 316.798C539.145 316.517 540.88 313.096 542.472 308.578C543.833 304.672 545.331 297.933 546.012 295.005C546.088 294.665 545.79 294.41 545.629 294.665C544.199 296.946 541.051 302.324 539.672 306.255C538.88 308.401 538.271 310.61 537.851 312.858C537.604 310.033 537.4 307.208 537.221 304.349C538.166 304.102 540.013 300.732 541.757 296.273C543.255 292.419 544.957 285.739 545.748 282.837C545.833 282.505 545.544 282.233 545.373 282.488C543.876 284.709 540.532 289.985 539.025 293.865C538.171 295.988 537.491 298.176 536.992 300.409C536.85 297.572 536.734 294.736 536.643 291.899C537.587 291.687 539.545 288.377 541.451 283.986C542.251 282.088 543.153 279.484 543.935 276.999C544.718 274.515 545.578 272.464 546.029 271.136C546.131 270.839 545.85 270.566 545.671 270.788C544.871 271.766 543.569 273.425 542.225 275.366C541.893 275.851 541.553 276.344 541.229 276.855C540.906 277.365 540.608 277.91 540.319 278.438C539.74 279.493 539.213 280.531 538.787 281.484C537.87 283.577 537.119 285.74 536.541 287.951C536.49 285.117 536.456 282.284 536.481 279.442C536.958 279.357 537.715 278.497 538.6 277.127C539.725 275.445 540.753 273.701 541.68 271.902C541.91 271.46 542.14 270.975 542.378 270.473L543.187 268.873C543.731 267.775 544.276 266.618 544.786 265.469C545.297 264.32 545.859 263.257 546.335 262.295L547.535 259.853C547.68 259.564 547.441 259.257 547.229 259.462C546.31 260.312 544.803 261.861 543.229 263.631C541.741 265.389 540.398 267.264 539.213 269.239C538.898 269.772 538.613 270.324 538.362 270.89C538.106 271.443 537.868 271.979 537.655 272.506C537.213 273.57 536.847 274.574 536.558 275.476C536.711 272.651 536.745 269.818 537.136 267.009C538.132 266.924 540.412 263.929 543.093 260.117C545.28 256.773 548.701 251.114 550.249 248.723C550.42 248.45 550.249 248.118 549.986 248.297C548.973 249.097 547.305 250.45 545.552 252.058C543.885 253.659 542.338 255.38 540.923 257.207C539.634 259.076 538.496 261.045 537.519 263.095L538.243 258.917L538.608 256.824L539.085 254.756C539.57 254.756 540.498 254.101 541.638 252.977C542.778 251.854 544.157 250.407 545.68 248.638Z" fill="#80B7DB"/>
<path d="M567.898 280.982C570.561 279.842 574.399 277.579 576.05 276.617C576.246 276.506 576.11 276.209 575.88 276.234C574.876 276.319 573.225 276.523 571.463 276.855C569.779 277.158 568.127 277.616 566.528 278.225C565.081 278.809 563.707 279.56 562.435 280.463C563.362 278.906 564.35 277.391 565.337 275.877C566.188 276.311 569.055 275.698 572.212 274.643C573.565 274.183 575.225 273.418 576.756 272.737C578.288 272.056 579.684 271.443 580.509 271.035C580.705 270.958 580.586 270.66 580.364 270.652C578.907 270.609 577.449 270.66 575.999 270.805C574.284 270.951 572.59 271.279 570.944 271.784C569.454 272.269 568.026 272.929 566.69 273.749C567.456 272.669 568.213 271.579 569.004 270.516C569.991 270.371 571.966 268.457 574.042 265.997C574.501 265.444 575.003 264.806 575.497 264.1L577.037 261.972C577.895 260.766 578.818 259.607 579.803 258.5C579.835 258.462 579.853 258.415 579.856 258.365C579.858 258.315 579.845 258.266 579.817 258.225C579.789 258.184 579.748 258.152 579.701 258.136C579.654 258.12 579.603 258.119 579.556 258.135C578.147 258.771 576.807 259.55 575.556 260.458C574.799 260.985 574.084 261.598 573.395 262.16C572.774 262.718 572.189 263.315 571.642 263.947C569.625 266.329 568.468 268.737 568.426 269.844C567.575 270.924 566.843 272.039 566.06 273.145C566.347 271.617 566.527 270.07 566.596 268.516C566.664 267.001 566.596 265.036 566.528 263.13C566.46 261.223 566.409 259.402 566.409 258.279C566.406 258.225 566.385 258.173 566.347 258.133C566.31 258.093 566.26 258.067 566.205 258.061C566.151 258.055 566.096 258.068 566.051 258.099C566.005 258.13 565.972 258.175 565.958 258.228C565.35 259.768 564.833 261.342 564.409 262.942C563.912 264.695 563.596 266.495 563.465 268.312C563.294 271.792 563.882 274.651 564.579 275.341C563.609 276.838 562.631 278.327 561.72 279.859C561.908 278.318 561.987 276.765 561.958 275.213C561.916 273.707 561.729 271.767 561.482 269.895C561.235 268.023 561.014 266.244 560.878 265.163C560.878 265.105 560.854 265.048 560.813 265.007C560.771 264.965 560.715 264.942 560.656 264.942C560.598 264.942 560.542 264.965 560.5 265.007C560.459 265.048 560.435 265.105 560.435 265.163C559.823 267.316 558.733 272.175 558.827 275.213C558.895 278.685 559.601 281.493 560.359 282.148C559.448 283.68 558.58 285.237 557.721 286.803C557.841 285.256 557.841 283.703 557.721 282.157C557.5 279.178 556.444 274.388 556.019 272.252C556.005 272.203 555.976 272.161 555.936 272.131C555.896 272.1 555.848 272.084 555.798 272.084C555.747 272.084 555.699 272.1 555.659 272.131C555.619 272.161 555.59 272.203 555.576 272.252C554.853 275.548 554.516 278.918 554.572 282.293C554.819 285.739 555.661 288.513 556.436 289.1C555.585 290.675 554.81 292.274 554.011 293.866C554.072 292.314 554.004 290.76 553.806 289.22C553.262 285.924 552.54 282.66 551.645 279.442C551.631 279.394 551.603 279.351 551.563 279.321C551.523 279.291 551.474 279.274 551.424 279.274C551.374 279.274 551.325 279.291 551.285 279.321C551.245 279.351 551.216 279.394 551.203 279.442C551.041 280.514 550.82 282.276 550.683 284.139C550.529 285.914 550.529 287.7 550.683 289.475C551.075 292.879 552.036 295.644 552.845 296.223C552.062 297.831 551.364 299.473 550.641 301.099C550.624 299.547 550.482 297.999 550.215 296.47C549.902 294.722 549.487 292.995 548.973 291.296C548.471 289.509 547.943 287.824 547.62 286.794C547.606 286.744 547.575 286.7 547.532 286.671C547.489 286.641 547.437 286.628 547.385 286.633C547.333 286.638 547.285 286.661 547.248 286.699C547.212 286.736 547.19 286.785 547.186 286.837C546.965 288.981 546.616 293.891 547.127 296.895C547.663 300.299 548.828 303.022 549.628 303.549C548.965 305.2 548.309 306.868 547.722 308.553C547.599 307.001 547.366 305.46 547.024 303.941C546.607 302.213 546.098 300.509 545.501 298.835C544.923 297.065 544.318 295.431 543.953 294.368C543.933 294.319 543.898 294.279 543.853 294.253C543.808 294.228 543.756 294.218 543.704 294.226C543.653 294.234 543.606 294.259 543.57 294.297C543.535 294.335 543.514 294.384 543.51 294.436C543.382 296.623 543.272 301.584 543.961 304.562C544.701 307.966 545.995 310.587 546.863 311.063C546.293 312.765 545.799 314.467 545.323 316.169C545.08 314.63 544.736 313.109 544.293 311.616C543.442 308.74 541.459 304.205 540.642 302.188C540.619 302.143 540.582 302.107 540.536 302.085C540.49 302.063 540.439 302.057 540.389 302.068C540.34 302.079 540.295 302.105 540.263 302.144C540.23 302.183 540.211 302.231 540.208 302.281C540.166 304.477 540.379 309.506 541.272 312.493C542.259 315.897 543.765 318.39 544.676 318.781C544.256 320.523 543.935 322.288 543.714 324.066C543.702 324.178 543.735 324.292 543.806 324.38C543.877 324.469 543.98 324.525 544.093 324.538C544.206 324.55 544.319 324.517 544.407 324.446C544.496 324.375 544.553 324.272 544.565 324.159C544.788 322.416 545.104 320.687 545.51 318.977C546.463 319.071 548.913 317.547 551.551 315.573C553.781 313.812 556.861 310.638 558.257 309.293C558.41 309.14 558.206 308.885 557.985 308.961C554.977 310.053 552.118 311.516 549.475 313.318C548.208 314.257 547.064 315.352 546.071 316.577C546.548 314.833 547.05 313.097 547.629 311.378C548.565 311.557 551.168 310.246 553.943 308.4C556.426 306.542 558.809 304.554 561.082 302.443C561.244 302.299 561.082 302.026 560.827 302.094C559.865 302.409 558.274 302.945 556.572 303.634C554.982 304.273 553.453 305.053 552.002 305.966C550.686 306.822 549.478 307.834 548.403 308.978C548.999 307.277 549.654 305.575 550.326 303.873C551.271 304.12 553.934 302.979 556.827 301.277C559.432 299.553 561.93 297.672 564.307 295.644C564.486 295.499 564.307 295.219 564.077 295.287C563.099 295.559 561.482 296.044 559.78 296.648C558.156 297.214 556.582 297.914 555.074 298.742C553.716 299.537 552.447 300.476 551.288 301.541C552.019 299.89 552.734 298.222 553.526 296.597C554.445 296.887 557.176 295.908 560.154 294.317C561.625 293.487 563.045 292.572 564.409 291.577C565.839 290.573 567.132 289.602 567.915 289.024C568.102 288.896 567.915 288.607 567.702 288.658C564.548 289.33 561.48 290.354 558.555 291.713C557.205 292.482 555.939 293.389 554.776 294.419C555.627 292.802 556.393 291.177 557.253 289.577C558.146 289.917 560.937 289.049 563.967 287.594C566.707 286.109 569.365 284.478 571.931 282.71C572.11 282.582 571.931 282.293 571.727 282.327C568.551 282.806 565.442 283.663 562.469 284.88C561.036 285.539 559.683 286.358 558.436 287.322C559.286 285.731 560.188 284.148 561.116 282.591C561.975 282.999 564.809 282.267 567.898 280.982Z" fill="#80B7DB"/>
<path d="M531.061 373.429H542.863C552.224 369.328 559.082 355.747 559.082 339.604C559.126 333.298 558.003 327.037 555.772 321.139H518.186C515.939 327.048 514.811 333.324 514.859 339.647C514.85 355.747 521.717 369.328 531.061 373.429Z" fill="#263238"/>
<path d="M8.47119 373.43H572.646" stroke="#263238" stroke-width="1.80875" stroke-miterlimit="10" stroke-linecap="round"/>
<path d="M545.331 272.208L542.208 292.92L546.182 370.917" stroke="#263238" stroke-width="7.23499" stroke-miterlimit="10" stroke-linecap="round"/>
<path d="M506.775 272.208L503.66 292.92L507.626 370.917" stroke="#263238" stroke-width="7.23499" stroke-miterlimit="10" stroke-linecap="round"/>
<path d="M491.721 292.07L488.028 371.77" stroke="#263238" stroke-width="7.23499" stroke-miterlimit="10" stroke-linecap="round"/>
<path d="M457.684 292.07L453.991 371.77" stroke="#263238" stroke-width="7.23499" stroke-miterlimit="10" stroke-linecap="round"/>
<path d="M506.221 277.179H544.514C545.528 277.155 546.5 276.77 547.255 276.093C548.01 275.416 548.499 274.491 548.632 273.485L553.653 229.807C553.721 229.343 553.687 228.87 553.554 228.421C553.42 227.972 553.19 227.558 552.88 227.207C552.569 226.856 552.186 226.577 551.757 226.389C551.327 226.202 550.862 226.111 550.394 226.122H512.101C511.09 226.147 510.121 226.532 509.368 227.207C508.614 227.883 508.126 228.804 507.991 229.807L502.962 273.485C502.892 273.95 502.925 274.423 503.058 274.874C503.191 275.324 503.421 275.739 503.731 276.091C504.042 276.443 504.426 276.723 504.856 276.911C505.286 277.099 505.752 277.19 506.221 277.179Z" fill="#80B7DB" stroke="#263238" stroke-width="1.80875" stroke-miterlimit="10" stroke-linecap="round"/>
<path d="M456.067 294.333H542.012C542.858 294.333 543.67 293.997 544.269 293.399C544.867 292.8 545.203 291.989 545.203 291.142C545.203 290.296 544.867 289.484 544.269 288.886C543.67 288.287 542.858 287.951 542.012 287.951H456.067C455.221 287.951 454.409 288.287 453.81 288.886C453.212 289.484 452.876 290.296 452.876 291.142C452.876 291.989 453.212 292.8 453.81 293.399C454.409 293.997 455.221 294.333 456.067 294.333Z" fill="#80B7DB" stroke="#263238" stroke-width="1.80875" stroke-miterlimit="10" stroke-linecap="round"/>
<path d="M492.411 193.904C492.411 193.904 489.118 196.1 486.709 202.414C484.301 208.728 479.485 243.157 479.485 245.131C479.485 247.105 484.523 248.194 486.497 246.229C488.471 244.263 493.304 227.823 493.304 227.823L495.27 194.747C495.27 194.747 494.598 193.249 492.411 193.904Z" fill="white" stroke="#263238" stroke-width="1.80875" stroke-miterlimit="10" stroke-linecap="round"/>
<path d="M492.411 193.904C492.411 193.904 489.118 196.1 486.71 202.414C485.986 204.32 485.008 208.753 484.089 214.071L493.738 220.147L495.253 194.747C495.253 194.747 494.598 193.249 492.411 193.904Z" fill="white" stroke="#263238" stroke-width="1.80875" stroke-miterlimit="10" stroke-linecap="round"/>
<path d="M508.825 189.088C508.825 189.088 498.529 191.496 494.359 192.807C490.19 194.117 490.853 198.508 489.322 205.077C487.79 211.646 485.603 219.101 486.914 222.819C488.224 226.538 492.394 233.116 492.606 233.992C492.819 234.869 486.258 259.401 486.258 259.401C486.258 259.401 445.073 279.339 444.196 283.279C443.32 287.219 437.389 356.724 437.389 356.724C438.571 358.715 447.03 365.752 446.281 363.48C446.068 362.825 449.685 338.709 453.803 327.97C457.922 317.231 461.692 303.872 463.436 297.523C465.18 291.175 465.683 289.652 465.683 289.652L515.412 290.307C515.412 290.307 531.835 292.503 533.809 278.701C535.783 264.898 531.622 259.64 529.869 256.576C528.116 253.513 521.981 232.699 521.981 232.699C521.981 232.699 530.09 216.267 531.18 210.787C532.269 205.307 533.588 198.738 530.746 195.895C527.903 193.053 516.722 189.539 516.722 189.539L508.825 189.088Z" fill="#263238" stroke="#263238" stroke-width="1.80875" stroke-miterlimit="10" stroke-linecap="round"/>
<path d="M529.086 254.806C526.763 248.892 521.981 232.682 521.981 232.682C521.981 232.682 530.09 216.25 531.18 210.77C532.269 205.29 533.588 198.721 530.746 195.878C527.903 193.036 516.722 189.522 516.722 189.522L508.834 189.088C508.834 189.088 498.537 191.496 494.368 192.807C490.198 194.117 490.862 198.508 489.33 205.077C487.799 211.646 485.612 219.101 486.922 222.819C488.232 226.538 492.402 233.116 492.615 233.992C492.777 234.63 489.381 247.658 487.509 254.806H529.086Z" fill="white" stroke="#263238" stroke-width="1.80875" stroke-miterlimit="10" stroke-linecap="round"/>
<path d="M437.44 356.724C437.44 356.724 430.266 363.301 429.535 363.599C428.803 363.897 413.52 367.675 414.6 368.79C415.681 369.905 445.285 375.104 445.285 375.104L446.332 363.472L437.44 356.724Z" fill="white" stroke="#263238" stroke-width="1.80875" stroke-miterlimit="10" stroke-linecap="round"/>
<path d="M522.441 212.089L525.734 238.809L499.882 267.29L491.117 271.893L489.807 275.612C489.807 275.612 498.784 273.646 500.98 272.327C502.972 270.994 504.874 269.53 506.673 267.945L535.783 247.106C535.783 247.106 535.562 207.673 535.341 202.857C535.12 198.04 528.533 194.092 525.921 194.092" fill="white"/>
<path d="M522.441 212.089L525.734 238.809L499.882 267.29L491.117 271.893L489.807 275.612C489.807 275.612 498.784 273.646 500.98 272.327C502.972 270.994 504.874 269.53 506.673 267.945L535.783 247.106C535.783 247.106 535.562 207.673 535.341 202.857C535.12 198.04 528.533 194.092 525.921 194.092" stroke="#263238" stroke-width="1.80875" stroke-miterlimit="10" stroke-linecap="round"/>
<path d="M525.708 238.808L499.856 267.29L491.092 271.893L489.781 275.612C489.781 275.612 498.759 273.646 500.954 272.327C502.947 270.994 504.848 269.53 506.647 267.945L535.783 247.105C535.783 247.105 535.681 229.38 535.553 216.25L523.368 219.781L525.708 238.808Z" fill="white" stroke="#263238" stroke-width="1.80875" stroke-miterlimit="10" stroke-linecap="round"/>
<path d="M480.14 239.447C480.14 239.447 479.289 246.459 479.485 248.203C479.681 249.948 489.56 268.584 489.781 269.673C490.002 270.762 495.474 274.276 495.917 274.932C496.359 275.587 502.265 277.127 502.265 277.127C502.265 277.127 503.796 274.498 502.486 272.089C501.175 269.681 493.066 267.265 493.066 267.265L488.462 243.387V239.881" fill="white"/>
<path d="M480.14 239.447C480.14 239.447 479.289 246.459 479.485 248.203C479.681 249.948 489.56 268.584 489.781 269.673C490.002 270.762 495.474 274.276 495.917 274.932C496.359 275.587 502.265 277.127 502.265 277.127C502.265 277.127 503.796 274.498 502.486 272.089C501.175 269.681 493.066 267.265 493.066 267.265L488.462 243.387V239.881" stroke="#263238" stroke-width="1.80875" stroke-miterlimit="10" stroke-linecap="round"/>
<path d="M525.708 266.413C525.708 266.413 520.228 264.439 510.587 265.979C500.946 267.519 478.608 280.871 479.042 283.066C479.476 285.262 496.35 358.417 496.35 358.417L506.204 364.118C506.204 364.118 504.502 335.637 504.673 320.72C504.843 305.803 504.673 288.955 504.673 288.955C504.673 288.955 520.228 293.116 527.24 289.61C534.251 286.104 534.685 279.314 533.809 274.055C532.932 268.796 530.958 267.707 530.958 267.707" fill="#263238"/>
<path d="M525.708 266.413C525.708 266.413 520.228 264.439 510.587 265.979C500.946 267.519 478.608 280.871 479.042 283.066C479.476 285.262 496.35 358.417 496.35 358.417L506.204 364.118C506.204 364.118 504.502 335.637 504.673 320.72C504.843 305.803 504.673 288.955 504.673 288.955C504.673 288.955 520.228 293.116 527.24 289.61C534.251 286.104 534.685 279.314 533.809 274.055C532.932 268.796 530.958 267.707 530.958 267.707" stroke="#263238" stroke-width="1.80875" stroke-miterlimit="10" stroke-linecap="round"/>
<path d="M496.35 358.418C496.35 358.418 490.658 366.306 489.994 366.749C489.33 367.191 475.102 373.973 476.379 374.85C477.655 375.726 507.711 374.85 507.711 374.85L506.392 363.243L496.35 358.418Z" fill="white" stroke="#263238" stroke-width="1.80875" stroke-miterlimit="10" stroke-linecap="round"/>
<path d="M501.422 158.267C501.422 158.267 496.461 153.102 499.839 148.736C503.217 144.371 513.327 141.001 524.831 145.962C536.336 150.923 536.345 162.428 535.945 169.372C535.545 176.315 531.979 186.833 531.979 186.833C525.557 187.039 519.128 186.84 512.731 186.237C506.687 185.596 500.927 183.335 496.061 179.693C496.061 179.693 500.435 161.237 501.422 158.267Z" fill="#263238" stroke="#263238" stroke-width="1.80875" stroke-miterlimit="10" stroke-linecap="round"/>
<path d="M506.783 183.063C506.783 183.063 506.383 187.828 505.788 190.798C505.192 193.768 504.792 203.894 505.592 204.694C506.392 205.494 510.553 203.298 513.727 198.542C515.531 195.98 516.812 193.089 517.497 190.032L519.479 182.688C519.479 182.688 510.749 185.046 506.783 183.063Z" fill="white" stroke="#263238" stroke-width="1.80875" stroke-miterlimit="10" stroke-linecap="round"/>
<path d="M519.266 183.446L517.896 183.046C515.19 183.625 509.702 184.527 506.783 183.046C506.783 183.046 506.545 185.897 506.162 188.56C507.699 188.694 509.247 188.503 510.706 187.998C513.752 187.118 516.617 185.701 519.164 183.812L519.266 183.446Z" fill="#263238" stroke="#263238" stroke-width="1.80875" stroke-miterlimit="10" stroke-linecap="round"/>
<path d="M503.013 159.458C503.013 159.458 500.333 171.371 501.516 175.932C502.698 180.493 504.477 186.688 510.434 186.688C516.39 186.688 522.015 181.821 523.198 178.451C524.38 175.081 525.844 164.615 525.844 164.615C525.844 164.615 510.527 166.597 503.013 159.458Z" fill="white" stroke="#263238" stroke-width="1.80875" stroke-miterlimit="10" stroke-linecap="round"/>
<path d="M513.761 169.593C513.761 169.593 514.867 167.942 518.866 169.261" stroke="#263238" stroke-width="1.80875" stroke-miterlimit="10" stroke-linecap="round"/>
<path d="M507.055 167.611C507.055 167.611 506.017 164.564 503.524 164.564" stroke="#263238" stroke-width="1.80875" stroke-miterlimit="10" stroke-linecap="round"/>
<path d="M505.524 166.002C505.524 166.691 505.243 166.776 504.92 166.742C504.596 166.708 504.358 166.564 504.358 165.891C504.358 165.219 504.613 164.675 504.937 164.709C505.26 164.743 505.524 165.313 505.524 166.002Z" fill="#263238"/>
<path d="M515.709 169.67C515.582 170.377 515.369 170.394 515.037 170.394C514.705 170.394 514.382 170.394 514.509 169.67C514.637 168.947 515.02 168.377 515.36 168.377C515.701 168.377 515.845 168.981 515.709 169.67Z" fill="#263238"/>
<path d="M508.561 167.117C508.602 168.055 508.428 168.989 508.051 169.849C507.447 170.955 505.575 172.487 506 173.082C506.265 173.607 506.687 174.036 507.207 174.311C507.727 174.585 508.319 174.691 508.902 174.614" stroke="#263238" stroke-width="1.80875" stroke-miterlimit="10" stroke-linecap="round"/>
<path d="M505.489 176.477C505.489 176.477 507.787 178.178 511.965 177.413" stroke="#263238" stroke-width="1.80875" stroke-miterlimit="10" stroke-linecap="round"/>
<path d="M503.719 162.505C504.426 162.202 505.214 162.147 505.956 162.35C506.698 162.552 507.349 163 507.804 163.619" stroke="#263238" stroke-width="1.80875" stroke-miterlimit="10" stroke-linecap="round"/>
<path d="M513.242 165.492C513.242 165.492 516.569 163.62 519.981 166.768" stroke="#263238" stroke-width="1.80875" stroke-miterlimit="10" stroke-linecap="round"/>
<path d="M337.412 372.161L340.552 290.386" stroke="#263238" stroke-width="7.23499" stroke-miterlimit="10" stroke-linecap="round"/>
<path d="M342.39 372.161L346.585 269.146" stroke="#263238" stroke-width="7.23499" stroke-miterlimit="10" stroke-linecap="round"/>
<path d="M400.577 372.163L396.118 270.203" stroke="#263238" stroke-width="7.23499" stroke-miterlimit="10" stroke-linecap="round"/>
<path d="M405.036 372.161L401.887 290.386" stroke="#263238" stroke-width="7.23499" stroke-miterlimit="10" stroke-linecap="round"/>
<path d="M395.216 227.536H346.712C344.598 227.536 342.883 229.251 342.883 231.365V274.338C342.883 276.453 344.598 278.167 346.712 278.167H395.216C397.331 278.167 399.045 276.453 399.045 274.338V231.365C399.045 229.251 397.331 227.536 395.216 227.536Z" fill="#80B7DB" stroke="#263238" stroke-width="1.80875" stroke-miterlimit="10" stroke-linecap="round"/>
<path d="M405.317 294.334H339.301C338.454 294.334 337.643 293.998 337.044 293.4C336.446 292.801 336.11 291.989 336.11 291.143C336.11 290.297 336.446 289.485 337.044 288.887C337.643 288.288 338.454 287.952 339.301 287.952H405.317C406.163 287.952 406.975 288.288 407.573 288.887C408.172 289.485 408.508 290.297 408.508 291.143C408.508 291.989 408.172 292.801 407.573 293.4C406.975 293.998 406.163 294.334 405.317 294.334Z" fill="#80B7DB" stroke="#263238" stroke-width="1.80875" stroke-miterlimit="10" stroke-linecap="round"/>
<path d="M347.657 257.318C347.657 257.318 343.402 265.172 341.819 267.87C340.237 270.567 338.671 280.634 340.696 283.587C342.721 286.539 344.287 287.629 346.083 288.301C347.878 288.973 394.808 288.301 394.808 288.301C394.808 288.301 399.973 281.119 400.424 277.749C400.875 274.379 399.522 266.295 398.177 263.606C396.833 260.918 393.012 256.416 393.012 256.416L347.657 257.318Z" fill="white" stroke="#263238" stroke-width="1.80875" stroke-miterlimit="10" stroke-linecap="round"/>
<path d="M412.771 220.729L431.186 193.78C431.186 193.78 432.751 186.828 432.981 184.802C433.211 182.777 434.325 181.662 435.9 180.548C437.532 179.445 439.036 178.163 440.384 176.727C441.286 175.604 441.958 176.957 441.507 178.522C441.056 180.088 439.491 180.769 438.818 181.22C438.146 181.671 437.695 183.466 437.695 183.466C437.695 183.466 445.549 180.548 447.124 179.646C448.698 178.744 452.059 173.808 452.289 176.242C452.519 178.676 449.37 186.351 448.698 186.802C448.026 187.253 436.121 195.779 436.121 195.779C436.121 195.779 423.102 230.583 421.749 233.502C420.396 236.421 418.609 238.667 417.936 238.667C417.264 238.667 404.015 230.158 404.015 230.158L412.524 219.827L412.771 220.729Z" fill="white" stroke="#263238" stroke-width="1.80875" stroke-miterlimit="10" stroke-linecap="round"/>
<path d="M325.022 220.729L306.607 193.78C306.607 193.78 305.042 186.828 304.812 184.802C304.582 182.777 303.467 181.662 301.893 180.548C300.259 179.445 298.752 178.163 297.4 176.727C296.507 175.604 295.835 176.957 296.286 178.522C296.737 180.088 298.302 180.769 298.974 181.22C299.647 181.671 300.098 183.466 300.098 183.466C300.098 183.466 292.244 180.548 290.669 179.646C289.095 178.744 285.725 173.808 285.504 176.242C285.283 178.676 288.423 186.351 289.095 186.802C289.767 187.253 301.672 195.779 301.672 195.779C301.672 195.779 314.691 230.583 316.036 233.502C317.38 236.421 319.184 238.667 319.857 238.667C320.529 238.667 333.778 230.158 333.778 230.158L325.269 219.827L325.022 220.729Z" fill="white" stroke="#263238" stroke-width="1.80875" stroke-miterlimit="10" stroke-linecap="round"/>
<path d="M362.463 190.596L342.704 195.982L325.022 220.013L333.106 234.828L345.674 224.055L348.593 251.889L346.576 259.548C346.576 259.548 345.904 260.22 358.489 262.688C371.075 265.155 374.657 264.262 380.946 263.36C387.234 262.458 395.318 259.548 395.318 259.548L393.072 249.889L396.884 225.638L406.993 236.64L413.954 219.349L399.36 195.999L377.576 190.613L362.463 190.596Z" fill="#263238" stroke="#263238" stroke-width="1.80875" stroke-miterlimit="10" stroke-linecap="round"/>
<path d="M357.511 162.908C357.511 162.908 354.958 159.096 353.631 162.976C352.303 166.856 357.945 171.621 357.945 171.621L358.328 163.495" fill="white"/>
<path d="M357.511 162.908C357.511 162.908 354.958 159.096 353.631 162.976C352.303 166.856 357.945 171.621 357.945 171.621L358.328 163.495" stroke="#263238" stroke-width="1.80875" stroke-miterlimit="10" stroke-linecap="round"/>
<path d="M364.267 187.457L362.25 189.244L359.553 193.728L360.234 209.675L372.581 201.37L383.354 209.667C383.354 209.667 381.788 191.482 381.788 190.359C381.788 189.235 379.312 187.44 377.746 186.538C376.18 185.636 364.267 187.457 364.267 187.457Z" fill="white" stroke="#263238" stroke-width="1.80875" stroke-miterlimit="10" stroke-linecap="round"/>
<path d="M363.595 184.989C363.595 184.989 363.825 190.827 364.046 191.95C364.267 193.073 372.555 204.714 372.555 204.714L378.393 191.023L378.844 177.773L363.595 184.989Z" fill="white" stroke="#263238" stroke-width="1.80875" stroke-miterlimit="10" stroke-linecap="round"/>
<path d="M363.85 189.933C365.002 190.068 366.169 189.999 367.297 189.729C373.126 188.41 376.317 182.964 376.317 182.964L369.407 182.249L363.595 184.989C363.595 184.989 363.706 187.831 363.85 189.933Z" fill="#263238" stroke="#263238" stroke-width="1.80875" stroke-miterlimit="10" stroke-linecap="round"/>
<path d="M356.753 156.2C356.753 156.2 357.553 177.006 358.123 179.176C358.694 181.346 363.229 188.4 368.335 187.847C373.44 187.294 378.631 183.286 379.133 179.967C379.635 176.649 380.98 166.854 381.831 162.897C382.682 158.94 386.085 154.703 378.742 150.814C371.398 146.925 356.847 149.844 356.753 156.2Z" fill="white" stroke="#263238" stroke-width="1.80875" stroke-miterlimit="10" stroke-linecap="round"/>
<path d="M361.867 166.914C361.816 167.765 361.382 168.489 360.88 168.463C360.378 168.438 360.029 167.697 360.072 166.821C360.115 165.944 360.566 165.247 361.068 165.272C361.57 165.298 361.919 166.038 361.867 166.914Z" fill="#263238"/>
<path d="M370.215 168.82C370.164 169.671 369.722 170.395 369.228 170.361C368.735 170.327 368.377 169.595 368.42 168.718C368.462 167.842 368.913 167.144 369.407 167.17C369.901 167.195 370.266 167.901 370.215 168.82Z" fill="#263238"/>
<path d="M363.731 165.255C363.546 167.195 363.239 169.122 362.812 171.024C362.276 172.981 360.396 173.373 361.553 174.692C362.71 176.011 364.778 175.883 366.88 175.543" stroke="#263238" stroke-width="1.80875" stroke-miterlimit="10" stroke-linecap="round"/>
<path d="M361.357 177.381C361.357 177.381 364.182 179.653 370.071 178.308" stroke="#263238" stroke-width="1.80875" stroke-miterlimit="10" stroke-linecap="round"/>
<path d="M359.281 163.188C359.281 163.188 362.004 161.801 362.863 163.528" stroke="#263238" stroke-width="1.80875" stroke-miterlimit="10" stroke-linecap="round"/>
<path d="M367.263 164.455C367.263 164.455 370.615 163.392 373.219 167.008" stroke="#263238" stroke-width="1.80875" stroke-miterlimit="10" stroke-linecap="round"/>
<path d="M377.67 159.052C377.67 159.052 366.463 160.916 361.178 159.852C355.894 158.789 351.163 154.177 353.605 150.245C356.047 146.314 370.113 142.17 375.653 143.046C381.192 143.923 386.604 145.693 386.834 151.411C387.064 157.129 384.647 168.115 384.647 168.115L382.886 169.196C382.886 169.196 380.486 165.639 379.38 165.46C378.274 165.281 374.972 163.171 377.67 159.052Z" fill="#263238" stroke="#263238" stroke-width="1.80875" stroke-miterlimit="10" stroke-linecap="round"/>
<path d="M380.001 168.744C380.001 168.744 385.107 163.868 386.622 165.698C388.136 167.527 386.417 172.71 383.303 175.177C380.188 177.645 378.946 175.399 378.946 175.399" fill="white"/>
<path d="M380.001 168.744C380.001 168.744 385.107 163.868 386.622 165.698C388.136 167.527 386.417 172.71 383.303 175.177C380.188 177.645 378.946 175.399 378.946 175.399" stroke="#263238" stroke-width="1.80875" stroke-miterlimit="10" stroke-linecap="round"/>
<path d="M370.232 358.777C370.232 358.777 363.084 275.002 359.91 269.045C356.736 263.089 348.295 260.332 340.483 266.85C332.672 273.368 337.65 285.222 339.335 293.859C341.019 302.496 353.656 353.961 353.656 353.961L370.232 358.777Z" fill="white" stroke="#263238" stroke-width="1.80875" stroke-miterlimit="10" stroke-linecap="round"/>
<path d="M353.656 353.959L351.044 361.132C351.044 361.132 340.339 369.642 340.764 370.978C340.836 371.182 340.888 371.393 340.917 371.608C340.978 372.091 341.211 372.537 341.574 372.864C341.936 373.19 342.404 373.376 342.892 373.386H372.904C373.147 370.839 373.147 368.275 372.904 365.728C372.47 362.664 370.351 358.426 370.351 358.426L353.656 353.959Z" fill="#263238" stroke="#263238" stroke-width="1.80875" stroke-miterlimit="10" stroke-linecap="round"/>
<path d="M373.083 370.546H340.866C340.78 370.673 340.743 370.828 340.764 370.98C340.836 371.184 340.887 371.395 340.917 371.61C340.978 372.093 341.211 372.539 341.574 372.866C341.936 373.192 342.404 373.378 342.891 373.388H372.904C372.904 373.388 373.032 372.197 373.083 370.546Z" fill="white" stroke="#263238" stroke-width="1.80875" stroke-miterlimit="10" stroke-linecap="round"/>
<path d="M377.448 359.193C377.448 359.193 380.112 275.256 383.022 269.172C385.932 263.088 394.254 259.965 402.338 266.134C410.422 272.304 405.963 284.37 404.653 293.067C403.343 301.763 393.948 354.326 393.948 354.326L377.448 359.193Z" fill="white" stroke="#263238" stroke-width="1.80875" stroke-miterlimit="10" stroke-linecap="round"/>
<path d="M393.948 354.325L396.501 361.133C396.501 361.133 407.215 369.642 406.781 370.978C406.712 371.184 406.661 371.394 406.627 371.608C406.566 372.093 406.332 372.54 405.968 372.867C405.604 373.193 405.134 373.378 404.645 373.386H374.623C374.38 370.839 374.38 368.275 374.623 365.728C375.057 362.664 377.176 358.427 377.176 358.427L393.948 354.325Z" fill="#263238" stroke="#263238" stroke-width="1.80875" stroke-miterlimit="10" stroke-linecap="round"/>
<path d="M374.453 370.546H406.712C406.799 370.673 406.835 370.828 406.814 370.98C406.746 371.185 406.695 371.396 406.661 371.61C406.6 372.095 406.366 372.542 406.002 372.869C405.637 373.195 405.168 373.38 404.679 373.388H374.623C374.623 373.388 374.504 372.197 374.453 370.546Z" fill="white" stroke="#263238" stroke-width="1.80875" stroke-miterlimit="10" stroke-linecap="round"/>
<path d="M211.353 372.16L214.493 290.385" stroke="#263238" stroke-width="7.23499" stroke-miterlimit="10" stroke-linecap="round"/>
<path d="M216.331 372.161L220.526 269.146" stroke="#263238" stroke-width="7.23499" stroke-miterlimit="10" stroke-linecap="round"/>
<path d="M274.518 372.161L270.059 270.201" stroke="#263238" stroke-width="7.23499" stroke-miterlimit="10" stroke-linecap="round"/>
<path d="M278.977 372.16L275.829 290.385" stroke="#263238" stroke-width="7.23499" stroke-miterlimit="10" stroke-linecap="round"/>
<path d="M269.158 227.535H220.654C218.539 227.535 216.825 229.25 216.825 231.364V274.337C216.825 276.452 218.539 278.166 220.654 278.166H269.158C271.272 278.166 272.987 276.452 272.987 274.337V231.364C272.987 229.25 271.272 227.535 269.158 227.535Z" fill="#80B7DB" stroke="#263238" stroke-width="1.80875" stroke-miterlimit="10" stroke-linecap="round"/>
<path d="M279.258 294.333H213.242C212.396 294.333 211.584 293.997 210.985 293.399C210.387 292.8 210.051 291.989 210.051 291.142C210.051 290.296 210.387 289.484 210.985 288.886C211.584 288.287 212.396 287.951 213.242 287.951H279.258C280.104 287.951 280.916 288.287 281.514 288.886C282.113 289.484 282.449 290.296 282.449 291.142C282.449 291.989 282.113 292.8 281.514 293.399C280.916 293.997 280.104 294.333 279.258 294.333Z" fill="#80B7DB" stroke="#263238" stroke-width="1.80875" stroke-miterlimit="10" stroke-linecap="round"/>
<path d="M232.507 157.758C231.486 156.257 230.129 155.014 228.544 154.128C226.96 153.242 225.19 152.737 223.377 152.653C216.893 152.159 210.749 156.141 207.753 162.455C204.758 168.769 211.081 172.59 211.081 176.581C211.081 180.572 202.767 181.568 199.95 186.886C197.134 192.204 196.623 201.999 207.422 206.985C218.22 211.972 226.866 208.976 232.014 204.662C237.162 200.348 234.839 193.362 233.009 187.218C231.18 181.074 235.503 168.276 236.83 164.949C238.158 161.621 232.507 157.758 232.507 157.758Z" fill="#263238" stroke="#263238" stroke-width="1.80875" stroke-miterlimit="10" stroke-linecap="round"/>
<path d="M219.7 235.193L214.399 255.19C214.399 255.19 211.421 258.594 207.804 257.53C204.188 256.467 204.613 251.999 204.826 251.148L210.57 228.173L219.7 235.193Z" fill="white" stroke="#263238" stroke-width="1.80875" stroke-miterlimit="10" stroke-linecap="round"/>
<path d="M236.609 192.434C236.609 192.434 236.396 199.667 235.12 201.794C233.843 203.921 227.674 204.985 224.057 205.836C220.441 206.687 216.612 208.602 214.484 211.58C212.357 214.558 205.549 232.641 205.549 232.641L220.015 240.299L221.93 233.279L227.674 243.065C227.674 243.065 219.164 256.892 216.186 265.402C213.208 273.911 213.421 280.506 218.101 285.612C222.781 290.717 228.099 291.356 233.205 291.568C238.311 291.781 262.562 292.419 268.094 290.292C273.625 288.165 277.029 283.697 276.39 272.635C275.752 261.573 264.264 244.979 263.626 243.49C262.988 242.001 262.35 240.725 262.35 240.725L264.052 231.577L266.817 238.172L280.22 229.024C280.22 229.024 273.625 213.282 270.008 209.452C266.392 205.623 261.073 204.985 257.031 204.347C252.989 203.709 251.287 202.645 249.798 200.305C248.309 197.965 248.522 192.434 248.522 192.434H236.609Z" fill="white" stroke="#263238" stroke-width="1.80875" stroke-miterlimit="10" stroke-linecap="round"/>
<path d="M248.514 193.233L242.557 192.434H236.6C236.6 192.434 236.6 193.625 236.439 195.165C238.047 196.493 242.251 199.769 244.804 200.067C246.359 200.192 247.924 200.021 249.416 199.564C248.759 197.52 248.454 195.38 248.514 193.233Z" fill="#263238" stroke="#263238" stroke-width="1.80875" stroke-miterlimit="10" stroke-linecap="round"/>
<path d="M268.094 235.193L273.412 255.19C273.412 255.19 276.39 258.594 280.007 257.53C283.623 256.467 283.198 251.999 282.985 251.148L277.241 228.173L268.094 235.193Z" fill="white" stroke="#263238" stroke-width="1.80875" stroke-miterlimit="10" stroke-linecap="round"/>
<path d="M276.39 272.635C275.752 261.572 264.264 244.979 263.626 243.49C262.988 242.001 262.35 240.724 262.35 240.724L264.052 231.577L266.817 238.172L280.22 229.024C280.22 229.024 273.625 213.281 270.008 209.452C267.413 206.704 263.941 205.606 260.648 204.968L256.563 220.94H230.184L225.129 205.623L224.015 205.87C220.398 206.721 216.569 208.635 214.442 211.614C212.314 214.592 205.549 232.64 205.549 232.64L220.015 240.299L221.93 233.279L227.674 243.064C227.674 243.064 219.164 256.892 216.186 265.402C213.208 273.911 213.421 280.506 218.101 285.612C222.781 290.717 228.099 291.355 233.205 291.568C238.311 291.781 262.562 292.419 268.094 290.292C273.625 288.164 277.029 283.697 276.39 272.635Z" fill="#263238" stroke="#263238" stroke-width="1.80875" stroke-miterlimit="10" stroke-linecap="round"/>
<path d="M236.822 348.582C236.822 348.582 227.036 291.356 226.61 285.187C226.185 279.017 230.652 275.401 235.758 274.337C240.864 273.274 245.118 278.592 245.544 282.208C245.901 285.28 245.808 334.32 245.765 347.731C245.764 350.231 245.519 352.725 245.033 355.177C244.625 357.219 244.182 359.5 244.072 360.282C243.859 361.772 243.859 367.941 241.306 371.345C238.753 374.749 234.924 377.089 233.648 373.047C232.371 369.005 233.435 363.048 234.498 359.857C235.562 356.666 236.626 354.113 236.626 354.113L236.822 348.582Z" fill="white" stroke="#263238" stroke-width="1.80875" stroke-miterlimit="10" stroke-linecap="round"/>
<path d="M243.842 357.304C242.353 361.133 241.289 364.111 238.098 364.324C234.907 364.537 234.482 359.856 234.482 359.856C233.418 363.047 232.354 369.004 233.631 373.046C234.907 377.088 238.736 374.748 241.289 371.344C243.842 367.94 243.842 361.771 244.055 360.282C244.165 359.525 244.608 357.244 245.016 355.176C245.11 354.708 245.186 354.232 245.263 353.764C244.77 354.972 244.267 356.206 243.842 357.304Z" fill="#263238" stroke="#263238" stroke-width="1.80875" stroke-miterlimit="10" stroke-linecap="round"/>
<path d="M255.993 348.582C255.993 348.582 265.779 291.356 266.205 285.187C266.63 279.017 262.163 275.401 257.057 274.337C251.951 273.274 247.697 278.592 247.271 282.208C246.905 285.28 247.007 334.32 247.041 347.731C247.051 350.232 247.304 352.726 247.799 355.177C248.207 357.219 248.65 359.5 248.76 360.282C248.973 361.772 248.973 367.941 251.526 371.345C254.079 374.749 257.908 377.089 259.184 373.047C260.461 369.005 259.397 363.048 258.333 359.857C257.27 356.666 256.206 354.113 256.206 354.113L255.993 348.582Z" fill="white" stroke="#263238" stroke-width="1.80875" stroke-miterlimit="10" stroke-linecap="round"/>
<path d="M248.973 357.304C250.462 361.133 251.526 364.111 254.717 364.324C257.908 364.537 258.333 359.856 258.333 359.856C259.397 363.047 260.461 369.004 259.184 373.046C257.908 377.088 254.079 374.748 251.526 371.344C248.973 367.94 248.973 361.771 248.76 360.282C248.65 359.525 248.207 357.244 247.799 355.176C247.705 354.708 247.62 354.232 247.543 353.764C248.046 354.972 248.539 356.206 248.973 357.304Z" fill="#263238" stroke="#263238" stroke-width="1.80875" stroke-miterlimit="10" stroke-linecap="round"/>
<path d="M277.029 249.872L252.139 267.529C252.139 267.529 248.097 269.231 247.671 269.869C247.246 270.507 244.693 276.464 245.331 277.528C245.969 278.591 247.229 280.532 247.229 280.532C247.918 279.769 248.492 278.909 248.93 277.979C249.143 277.128 252.972 275 253.823 273.086C254.674 271.171 256.163 268.618 256.163 268.618C256.163 268.618 275.097 261.598 277.224 260.109C279.352 258.62 283.181 257.769 283.181 253.301" fill="white"/>
<path d="M277.029 249.872L252.139 267.529C252.139 267.529 248.097 269.231 247.671 269.869C247.246 270.507 244.693 276.464 245.331 277.528C245.969 278.591 247.229 280.532 247.229 280.532C247.918 279.769 248.492 278.909 248.93 277.979C249.143 277.128 252.972 275 253.823 273.086C254.674 271.171 256.163 268.618 256.163 268.618C256.163 268.618 275.097 261.598 277.224 260.109C279.352 258.62 283.181 257.769 283.181 253.301" stroke="#263238" stroke-width="1.80875" stroke-miterlimit="10" stroke-linecap="round"/>
<path d="M210.502 249.659L237.136 264.551C237.136 264.551 241.34 265.81 241.834 266.397C242.327 266.984 245.501 272.635 244.973 273.758L243.493 276.983C242.689 276.286 241.992 275.475 241.425 274.575C241.127 273.724 237.085 272.022 236.039 270.235C234.992 268.448 233.23 266.04 233.23 266.04C233.23 266.04 213.659 261.087 211.378 259.836C209.098 258.586 205.209 258.135 204.732 253.701" fill="white"/>
<path d="M210.502 249.659L237.136 264.551C237.136 264.551 241.34 265.81 241.834 266.397C242.327 266.984 245.501 272.635 244.973 273.758L243.493 276.983C242.689 276.286 241.992 275.475 241.425 274.575C241.127 273.724 237.085 272.022 236.039 270.235C234.992 268.448 233.23 266.04 233.23 266.04C233.23 266.04 213.659 261.087 211.378 259.836C209.098 258.586 205.209 258.135 204.732 253.701" stroke="#263238" stroke-width="1.80875" stroke-miterlimit="10" stroke-linecap="round"/>
<path d="M238.753 156.353C238.149 156.523 237.545 156.685 236.932 156.821C234.7 157.278 232.676 158.444 231.162 160.147C229.648 161.85 228.726 163.996 228.533 166.266C227.683 173.185 228.865 182.085 231.333 187.778C233.801 193.471 242.446 198.841 247.399 196.62C252.351 194.399 255.211 187.94 255.211 180.264C255.211 172.589 255.432 166.105 251.968 161.399C248.752 157.017 243.374 155.077 238.753 156.353Z" fill="white" stroke="#263238" stroke-width="1.80875" stroke-miterlimit="10" stroke-linecap="round"/>
<path d="M251.968 161.382C248.752 157.017 243.374 155.077 238.753 156.353C238.149 156.523 237.545 156.685 236.932 156.821C234.7 157.278 232.676 158.445 231.162 160.147C229.648 161.85 228.726 163.996 228.533 166.267C228.135 170.107 228.206 173.982 228.746 177.805L228.831 177.754C228.831 177.754 230.89 176.427 230.89 174.351C230.89 172.274 230.601 167.279 234.873 164.326C239.145 161.374 245.935 161.238 248.582 161.969C251.228 162.701 252.709 163.007 254.181 166.837L254.632 168.011C254.269 165.625 253.358 163.356 251.968 161.382Z" fill="#263238" stroke="#263238" stroke-width="1.80875" stroke-miterlimit="10" stroke-linecap="round"/>
<path d="M231.044 178.776C231.044 178.776 227.802 174.351 226.176 177.151C224.551 179.951 226.619 183.78 228.091 184.665C229.563 185.55 230.891 182.606 230.891 182.606" fill="white"/>
<path d="M231.044 178.776C231.044 178.776 227.802 174.351 226.176 177.151C224.551 179.951 226.619 183.78 228.091 184.665C229.563 185.55 230.891 182.606 230.891 182.606" stroke="#263238" stroke-width="1.80875" stroke-miterlimit="10" stroke-linecap="round"/>
<path d="M239.953 178.155C240.423 178.155 240.804 177.481 240.804 176.649C240.804 175.817 240.423 175.143 239.953 175.143C239.483 175.143 239.102 175.817 239.102 176.649C239.102 177.481 239.483 178.155 239.953 178.155Z" fill="#263238"/>
<path d="M248.726 177.329C249.196 177.329 249.577 176.654 249.577 175.823C249.577 174.991 249.196 174.316 248.726 174.316C248.256 174.316 247.875 174.991 247.875 175.823C247.875 176.654 248.256 177.329 248.726 177.329Z" fill="#263238"/>
<path d="M245.782 173.764C245.782 173.764 246.071 177.006 246.633 178.018C247.195 179.031 250.173 179.346 248.845 180.963C248.628 181.25 248.355 181.491 248.042 181.67C247.729 181.849 247.383 181.962 247.025 182.004C246.667 182.045 246.305 182.013 245.959 181.91C245.614 181.808 245.293 181.636 245.016 181.405" stroke="#263238" stroke-width="1.80875" stroke-miterlimit="10" stroke-linecap="round"/>
<path d="M241.8 183.933C242.928 184.532 244.199 184.808 245.474 184.73C246.749 184.652 247.978 184.223 249.024 183.49" stroke="#263238" stroke-width="1.80875" stroke-miterlimit="10" stroke-linecap="round"/>
<path d="M235.758 173.168C235.758 173.168 238.413 170.079 241.8 171.994" stroke="#263238" stroke-width="1.80875" stroke-miterlimit="10" stroke-linecap="round"/>
<path d="M245.927 171.696C245.927 171.696 249.024 169.492 251.228 171.994" stroke="#263238" stroke-width="1.80875" stroke-miterlimit="10" stroke-linecap="round"/>
<path d="M64.7698 272.209L67.8842 292.921L63.9188 370.918" stroke="#263238" stroke-width="7.23499" stroke-miterlimit="10" stroke-linecap="round"/>
<path d="M104.304 272.209L107.427 292.921L103.453 370.918" stroke="#263238" stroke-width="7.23499" stroke-miterlimit="10" stroke-linecap="round"/>
<path d="M118.37 292.07L122.064 371.77" stroke="#263238" stroke-width="7.23499" stroke-miterlimit="10" stroke-linecap="round"/>
<path d="M152.408 292.07L156.101 371.77" stroke="#263238" stroke-width="7.23499" stroke-miterlimit="10" stroke-linecap="round"/>
<path d="M103.87 277.179H65.578C64.5655 277.153 63.5953 276.767 62.8419 276.09C62.0885 275.413 61.6013 274.49 61.468 273.485L56.4389 229.807C56.3706 229.343 56.4044 228.87 56.5379 228.421C56.6714 227.972 56.9014 227.558 57.2118 227.207C57.5222 226.856 57.9056 226.577 58.335 226.389C58.7644 226.202 59.2296 226.111 59.698 226.122H97.9904C99.0017 226.147 99.9708 226.532 100.724 227.207C101.477 227.883 101.965 228.804 102.1 229.807L107.13 273.485C107.199 273.95 107.166 274.423 107.034 274.874C106.901 275.324 106.671 275.739 106.36 276.091C106.05 276.443 105.666 276.723 105.236 276.911C104.806 277.099 104.34 277.19 103.87 277.179Z" fill="#80B7DB" stroke="#263238" stroke-width="1.80875" stroke-miterlimit="10" stroke-linecap="round"/>
<path d="M154.042 294.333H68.0968C67.2505 294.333 66.4388 293.997 65.8404 293.399C65.242 292.8 64.9058 291.989 64.9058 291.142C64.9058 290.296 65.242 289.484 65.8404 288.886C66.4388 288.287 67.2505 287.951 68.0968 287.951H154.042C154.888 287.951 155.7 288.287 156.298 288.886C156.897 289.484 157.233 290.296 157.233 291.142C157.233 291.989 156.897 292.8 156.298 293.399C155.7 293.997 154.888 294.333 154.042 294.333Z" fill="#80B7DB" stroke="#263238" stroke-width="1.80875" stroke-miterlimit="10" stroke-linecap="round"/>
<path d="M106.534 204.984C106.534 204.984 112.916 207.324 114.192 210.303C115.469 213.281 123.349 247.319 123.349 247.319L152.068 253.488L148.877 257.743L115.477 258.168L106.534 204.984Z" fill="white" stroke="#263238" stroke-width="1.80875" stroke-miterlimit="10" stroke-linecap="round"/>
<path d="M112.099 238.103L120.668 235.925C118.26 225.713 114.975 212.141 114.192 210.303C112.916 207.324 106.534 204.984 106.534 204.984L112.099 238.103Z" fill="#263238" stroke="#263238" stroke-width="1.80875" stroke-miterlimit="10" stroke-linecap="round"/>
<path d="M78.2488 200.73L60.8044 210.303C60.8044 210.303 65.9101 249.021 67.3992 258.807C68.8884 268.593 70.3775 275.826 74.6323 277.315C78.887 278.804 113.563 270.72 115.903 269.869C118.243 269.018 117.392 261.572 116.328 257.743C115.265 253.914 109.521 212.643 109.308 209.239C109.095 205.836 106.33 204.134 101.862 202.432C97.395 200.73 86.3327 200.092 82.929 200.092C79.5252 200.092 78.2488 200.73 78.2488 200.73Z" fill="#263238" stroke="#263238" stroke-width="1.80875" stroke-miterlimit="10" stroke-linecap="round"/>
<path d="M78.2487 200.729L73.3047 203.444L92.2807 227.534L99.6924 201.802C94.5102 200.576 85.8561 200.1 82.9203 200.1C79.5166 200.091 78.2487 200.729 78.2487 200.729Z" fill="white" stroke="#263238" stroke-width="1.80875" stroke-miterlimit="10" stroke-linecap="round"/>
<path d="M75.2618 193.071L76.751 202.432L90.7915 221.578L95.259 201.581V192.008L75.2618 193.071Z" fill="white" stroke="#263238" stroke-width="1.80875" stroke-miterlimit="10" stroke-linecap="round"/>
<path d="M68.8882 160.948C68.8882 160.948 67.816 157.757 63.3486 157.757C58.8811 157.757 54.4222 162.862 54.4222 167.968C54.4 168.961 54.5863 169.947 54.9691 170.863C55.3519 171.779 55.9226 172.605 56.6444 173.286C57.3662 173.968 58.223 174.491 59.1594 174.82C60.0958 175.15 61.091 175.28 62.0807 175.201C65.4844 174.988 67.3991 173.712 68.25 170.946C69.1009 168.181 68.8882 160.948 68.8882 160.948Z" fill="#263238" stroke="#263238" stroke-width="1.80875" stroke-miterlimit="10" stroke-linecap="round"/>
<path d="M70.3603 157.221C68.2448 159.759 67.0114 162.916 66.8459 166.216C66.5566 171.772 69.7646 181.703 70.6411 186.085C71.5176 190.467 74.8448 197.335 85.1071 198.798C95.3695 200.262 98.7222 187.838 98.7222 183.745C98.7222 179.652 96.68 167.39 94.927 162.131C93.1741 156.872 90.5447 153.077 84.4094 152.49C78.2741 151.903 73.7896 153.647 70.3603 157.221Z" fill="white" stroke="#263238" stroke-width="1.80875" stroke-miterlimit="10" stroke-linecap="round"/>
<path d="M98.6712 183.745C98.4974 180.318 98.0908 176.906 97.4543 173.534C97.5394 174.547 97.6926 176.087 98.0074 178.401C98.6456 183.082 97.582 183.72 97.582 183.72C97.582 183.72 95.6673 180.529 89.498 179.465C83.3287 178.401 76.0957 187.336 75.4574 187.336C74.8192 187.336 74.6065 186.485 73.7556 183.72C72.9046 180.954 70.3518 175.423 71.2027 172.87C72.0537 170.317 72.0537 169.892 70.7773 167.552C69.5008 165.212 68.8626 164.361 72.4791 161.391C76.7339 157.885 84.1541 157.477 89.498 157.238C90.728 157.078 91.9768 157.323 93.0549 157.936C92.1953 156.362 90.9456 155.035 89.4257 154.083C87.9058 153.131 86.1667 152.585 84.3753 152.499C78.24 151.911 73.7896 153.656 70.3603 157.23C68.2448 159.768 67.0114 162.924 66.8459 166.224C66.5566 171.781 69.7646 181.711 70.6411 186.094C71.5176 190.476 74.8448 197.343 85.1071 198.807C95.3695 200.271 98.6712 187.838 98.6712 183.745Z" fill="#263238" stroke="#263238" stroke-width="1.80875" stroke-miterlimit="10" stroke-linecap="round"/>
<path d="M92.4934 183.498C89.2212 184.68 85.761 185.257 82.2821 185.2" stroke="white" stroke-width="1.80875" stroke-miterlimit="10" stroke-linecap="round"/>
<path d="M88.46 170.309L89.5236 178.18C89.5236 178.18 86.9708 181.796 83.7798 177.329" stroke="#263238" stroke-width="1.80875" stroke-miterlimit="10" stroke-linecap="round"/>
<path d="M83.5584 167.543C83.3797 167.739 77.6018 165.841 76.1127 170.734" stroke="#263238" stroke-width="3.61749" stroke-miterlimit="10" stroke-linecap="round"/>
<path d="M88.6641 166.692C88.6641 166.692 92.4933 163.713 95.4716 167.755" stroke="#263238" stroke-width="3.61749" stroke-miterlimit="10" stroke-linecap="round"/>
<path d="M80.8952 173.924C81.4262 173.924 81.8567 173.162 81.8567 172.222C81.8567 171.282 81.4262 170.521 80.8952 170.521C80.3641 170.521 79.9336 171.282 79.9336 172.222C79.9336 173.162 80.3641 173.924 80.8952 173.924Z" fill="#263238"/>
<path d="M92.4933 173.075C93.0244 173.075 93.4549 172.313 93.4549 171.373C93.4549 170.433 93.0244 169.671 92.4933 169.671C91.9622 169.671 91.5317 170.433 91.5317 171.373C91.5317 172.313 91.9622 173.075 92.4933 173.075Z" fill="#263238"/>
<path d="M67.816 175.628C67.816 175.628 64.4122 173.075 64.1995 177.968C64.1001 179.519 64.53 181.058 65.4188 182.333C66.3076 183.608 67.6027 184.544 69.0924 184.988C70.1561 185.201 70.3688 183.712 70.3688 183.712L67.816 175.628Z" fill="white" stroke="#263238" stroke-width="1.80875" stroke-miterlimit="10" stroke-linecap="round"/>
<path d="M63.1359 209.238C63.1359 209.238 56.7538 211.578 54.8392 213.068C52.9246 214.557 50.2952 220.581 52.0822 233.694C52.7119 238.332 57.392 270.506 57.392 270.506L109.725 267.741L118.447 264.762L70.1562 256.891L66.3354 220.726" fill="#263238"/>
<path d="M63.1359 209.238C63.1359 209.238 56.7538 211.578 54.8392 213.068C52.9246 214.557 50.2952 220.581 52.0822 233.694C52.7119 238.332 57.392 270.506 57.392 270.506L109.725 267.741L118.447 264.762L70.1562 256.891L66.3354 220.726" stroke="#263238" stroke-width="1.80875" stroke-miterlimit="10" stroke-linecap="round"/>
<path d="M57.3921 270.507L109.725 267.741L118.447 264.763L70.1563 256.892L68.0374 240.341L53.1034 241.643C53.9628 253.377 57.3921 270.507 57.3921 270.507Z" fill="white" stroke="#263238" stroke-width="1.80875" stroke-miterlimit="10" stroke-linecap="round"/>
<path d="M69.7393 270.933C69.7393 270.933 73.143 284.548 78.0359 288.803C82.9289 293.057 91.4383 292.419 99.5222 292.419C107.606 292.419 125.263 287.739 125.901 287.739C126.54 287.739 156.11 295.185 156.11 295.185L146.962 362.622L160.152 365.175C160.152 365.175 178.66 299.014 178.66 297.525C178.66 296.036 182.915 290.079 175.682 280.931C168.449 271.784 132.922 269.018 125.051 267.104C117.179 265.189 69.7393 270.933 69.7393 270.933Z" fill="white" stroke="#263238" stroke-width="1.80875" stroke-miterlimit="10" stroke-linecap="round"/>
<path d="M141.576 275.979L130.786 288.743L125.902 287.739L119.732 289.228C119.732 289.228 119.426 286.777 123.689 281.663C127.952 276.549 141.576 275.979 141.576 275.979Z" fill="#263238"/>
<path d="M146.954 362.622L144.826 373.472C144.826 373.472 155.676 376.024 158.654 376.663C161.633 377.301 171.206 376.875 173.333 376.663C175.46 376.45 171.844 374.323 170.567 373.684C169.291 373.046 159.505 367.09 159.505 367.09L160.143 365.175L146.954 362.622Z" fill="white" stroke="#263238" stroke-width="1.80875" stroke-miterlimit="10" stroke-linecap="round"/>
<path d="M83.3543 274.549C83.3543 274.549 125.051 257.633 129.305 256.041C138.453 252.638 151.353 253.54 153.132 253.914C157.174 254.765 195.041 292.845 195.041 292.845L186.957 300.078L148.026 272.847C148.026 272.847 125.263 286.463 119.732 289.228C114.201 291.994 101.862 293.696 92.7147 293.057C83.5671 292.419 77.8232 287.739 76.3341 284.761C74.8449 281.782 75.4831 279.868 75.4831 279.868" fill="white"/>
<path d="M83.3543 274.549C83.3543 274.549 125.051 257.633 129.305 256.041C138.453 252.638 151.353 253.54 153.132 253.914C157.174 254.765 195.041 292.845 195.041 292.845L186.957 300.078L148.026 272.847C148.026 272.847 125.263 286.463 119.732 289.228C114.201 291.994 101.862 293.696 92.7147 293.057C83.5671 292.419 77.8232 287.739 76.3341 284.761C74.8449 281.782 75.4831 279.868 75.4831 279.868" stroke="#263238" stroke-width="1.80875" stroke-miterlimit="10" stroke-linecap="round"/>
<path d="M186.948 300.077L197.798 310.076C197.798 310.076 218.433 288.377 219.071 287.526C219.709 286.675 221.624 283.059 220.347 283.059C219.071 283.059 197.159 293.483 197.159 293.483L195.032 292.844L186.948 300.077Z" fill="white" stroke="#263238" stroke-width="1.80875" stroke-miterlimit="10" stroke-linecap="round"/>
<path d="M152.06 253.488C152.06 253.488 161.845 254.126 162.271 254.977C162.696 255.828 166.313 260.934 166.526 262.423C166.661 263.482 166.732 264.547 166.738 265.614C166.738 265.614 158.654 261.147 158.229 260.083C157.907 259.044 157.693 257.975 157.591 256.892L152.06 253.488Z" fill="white" stroke="#263238" stroke-width="1.80875" stroke-miterlimit="10" stroke-linecap="round"/>
<path d="M524.576 40.3955L503.235 62.0009H555.797L534.456 40.3955H524.576Z" fill="#263238" stroke="#263238" stroke-width="1.80875" stroke-miterlimit="10"/>
<path d="M534.353 37.5186H524.576V40.3947H534.353V37.5186Z" fill="#263238" stroke="#263238" stroke-width="1.80875" stroke-miterlimit="10"/>
<path d="M529.392 37.5192V0.333008" stroke="#263238" stroke-width="1.80875" stroke-miterlimit="10"/>
<path d="M59.9616 40.3955L38.62 62.0009H91.1827L69.8411 40.3955H59.9616Z" fill="#263238" stroke="#263238" stroke-width="1.80875" stroke-miterlimit="10"/>
<path d="M69.739 37.5186H59.9617V40.3947H69.739V37.5186Z" fill="#263238" stroke="#263238" stroke-width="1.80875" stroke-miterlimit="10"/>
<path d="M64.7778 37.5192V0.333008" stroke="#263238" stroke-width="1.80875" stroke-miterlimit="10"/>
</svg>
