<svg width="101" height="43" viewBox="0 0 101 43" fill="none" xmlns="http://www.w3.org/2000/svg">
<path d="M12.544 32.432C10.72 32.432 9.2 32.144 7.984 31.568C6.768 30.96 5.664 30.016 4.672 28.736V42.224H0.4V8.576H4.672V11.936C5.664 10.72 6.848 9.744 8.224 9.008C9.6 8.272 11.04 7.904 12.544 7.904C14.176 7.904 15.728 8.224 17.2 8.864C18.704 9.472 20 10.352 21.088 11.504C22.208 12.656 23.072 13.984 23.68 15.488C24.32 16.96 24.64 18.528 24.64 20.192C24.64 21.856 24.32 23.424 23.68 24.896C23.072 26.368 22.208 27.68 21.088 28.832C20 29.952 18.704 30.832 17.2 31.472C15.728 32.112 14.176 32.432 12.544 32.432ZM12.544 12.272C11.488 12.272 10.48 12.48 9.52 12.896C8.56 13.28 7.728 13.84 7.024 14.576C6.32 15.312 5.76 16.176 5.344 17.168C4.928 18.128 4.72 19.136 4.72 20.192C4.72 21.248 4.928 22.256 5.344 23.216C5.76 24.176 6.32 25.024 7.024 25.76C7.728 26.496 8.56 27.072 9.52 27.488C10.48 27.904 11.488 28.112 12.544 28.112C13.6 28.112 14.608 27.904 15.568 27.488C16.528 27.072 17.36 26.496 18.064 25.76C18.768 25.024 19.312 24.176 19.696 23.216C20.112 22.256 20.32 21.248 20.32 20.192C20.32 19.136 20.112 18.128 19.696 17.168C19.312 16.176 18.768 15.312 18.064 14.576C17.36 13.84 16.528 13.28 15.568 12.896C14.608 12.48 13.6 12.272 12.544 12.272ZM40.6109 32.24C38.9789 32.24 37.4269 31.92 35.9549 31.28C34.4829 30.64 33.1869 29.76 32.0669 28.64C30.9469 27.52 30.0669 26.224 29.4269 24.752C28.7869 23.28 28.4669 21.728 28.4669 20.096C28.4669 18.432 28.7869 16.848 29.4269 15.344C30.0669 13.84 30.9469 12.528 32.0669 11.408C33.1869 10.288 34.4829 9.424 35.9549 8.816C37.4269 8.176 38.9789 7.856 40.6109 7.856C42.2749 7.856 43.8589 8.176 45.3629 8.816C46.8669 9.424 48.1789 10.288 49.2989 11.408C50.4189 12.528 51.2829 13.84 51.8909 15.344C52.5309 16.848 52.8509 18.432 52.8509 20.096C52.8509 21.728 52.5309 23.28 51.8909 24.752C51.2829 26.224 50.4189 27.52 49.2989 28.64C48.1789 29.76 46.8669 30.64 45.3629 31.28C43.8589 31.92 42.2749 32.24 40.6109 32.24ZM40.6109 12.128C38.4669 12.128 36.6269 12.896 35.0909 14.432C34.3549 15.168 33.7789 16.032 33.3629 17.024C32.9469 18.016 32.7389 19.04 32.7389 20.096C32.7389 21.152 32.9469 22.16 33.3629 23.12C33.7789 24.08 34.3549 24.928 35.0909 25.664C35.8269 26.4 36.6589 26.976 37.5869 27.392C38.5469 27.808 39.5549 28.016 40.6109 28.016C41.6669 28.016 42.6909 27.808 43.6829 27.392C44.6749 26.976 45.5229 26.4 46.2269 25.664C46.9309 24.928 47.4909 24.08 47.9069 23.12C48.3229 22.16 48.5309 21.152 48.5309 20.096C48.5309 19.04 48.3229 18.016 47.9069 17.024C47.4909 16.032 46.9309 15.168 46.2269 14.432C45.5229 13.696 44.6749 13.136 43.6829 12.752C42.7229 12.336 41.6989 12.128 40.6109 12.128ZM59.3736 4.544C58.7656 4.544 58.2376 4.336 57.7896 3.92C57.3736 3.472 57.1656 2.944 57.1656 2.336C57.1656 1.728 57.3736 1.216 57.7896 0.799998C58.2376 0.351998 58.7656 0.127998 59.3736 0.127998C59.9816 0.127998 60.4936 0.351998 60.9096 0.799998C61.3576 1.216 61.5816 1.728 61.5816 2.336C61.5816 2.944 61.3576 3.472 60.9096 3.92C60.4936 4.336 59.9816 4.544 59.3736 4.544ZM57.4056 32V8H61.4376V32H57.4056ZM81.232 32V17.6C81.232 16.16 80.704 14.912 79.648 13.856C78.624 12.832 77.376 12.32 75.904 12.32C74.464 12.32 73.216 12.848 72.16 13.904C71.68 14.384 71.296 14.96 71.008 15.632C70.72 16.272 70.576 16.928 70.576 17.6V32H66.4V8.576H70.576V10.544C71.184 9.808 71.984 9.2 72.976 8.72C73.968 8.24 74.944 8 75.904 8C77.184 8 78.4 8.256 79.552 8.768C80.736 9.248 81.776 9.936 82.672 10.832C83.536 11.696 84.208 12.72 84.688 13.904C85.2 15.056 85.456 16.288 85.456 17.6V32H81.232ZM96.9906 12.32V32H92.9106V12.32H89.3106V8H92.9106V0.079999H96.9906V8H100.591V12.32H96.9906Z" fill="#306E9D"/>
</svg>
