<svg width="320" height="322" viewBox="0 0 320 322" fill="none" xmlns="http://www.w3.org/2000/svg">
<path fill-rule="evenodd" clip-rule="evenodd" d="M109.967 266.464C84.2285 262.147 50.2714 269.365 36.919 244.968C23.4906 220.433 46.553 186.999 49.9543 156.811C53.005 129.735 41.8727 100.945 55.7845 77.5306C69.8764 53.8127 96.5143 44.3721 120.493 38.0888C142.336 32.3649 162.7 39.9607 184.044 43.9211C208.951 48.5425 236.79 45.183 255.486 63.1365C276.627 83.4379 291.355 113.794 291.038 146.665C290.715 180.194 276.552 215.278 253.789 239.2C232.693 261.371 202.828 262.995 175.399 268.195C152.946 272.451 131.842 270.133 109.967 266.464Z" fill="#FFEEF2"/>
<path d="M218.546 60.9863H96.1265V238.065H218.546V60.9863Z" fill="white"/>
<path d="M218.552 238.065C218.552 236.817 218.493 165.462 218.41 60.9866L218.552 61.1285H96.1679L96.3216 60.9748C96.3216 127.5 96.3216 188.952 96.292 238.053L96.1679 237.929L218.593 238.053L96.1679 238.177H96.0437V238.053C96.0437 188.952 96.0437 127.494 96.0142 60.9748V60.821H96.1856H218.57H218.706V60.9629C218.605 165.462 218.552 236.817 218.552 238.065Z" fill="#093636"/>
<path d="M212.763 66.3135H101.908V233.572H212.763V66.3135Z" fill="#E0E0E0"/>
<path d="M195.198 164.173C195.174 163.814 195.064 163.465 194.878 163.157C194.692 162.848 194.435 162.589 194.128 162.4C184.668 156.133 177.52 142.239 176.805 130.473C176.805 129.805 176.764 129.125 176.74 128.44C176.19 111.619 173.713 91.1922 171.49 85.7884C167.387 75.7376 153.481 74.8034 153.481 74.8034C135.017 73.4791 131.718 87.6685 129.832 100.587C128.65 108.622 124.209 137.326 124.209 137.326L127.603 138.644C129.553 144.509 132.78 149.868 137.052 154.335C141.323 158.802 146.533 162.265 152.305 164.475C155.704 165.758 158.589 166.248 159.937 165.167C165.332 170.658 172.009 174.722 179.365 176.991C182.327 177.993 185.456 178.408 188.576 178.215C190.592 178.026 192.715 177.364 193.897 175.732C194.419 175.026 194.729 174.185 194.791 173.31C194.853 172.434 194.665 171.559 194.249 170.786C193.832 170.013 193.204 169.374 192.439 168.945C191.673 168.515 190.801 168.312 189.924 168.359C190.669 166.059 195.275 166.727 195.198 164.173Z" fill="#093636"/>
<path d="M155.935 80.0242L154.752 78.9246L142.272 83.9559C141.4 84.0029 140.578 84.3753 139.968 84.9994C139.359 85.6234 139.005 86.4537 138.978 87.3259L139.091 127.996C139.091 130.752 139.623 133.14 141.29 135.339L143.064 137.657C147.06 142.931 155.279 142.499 158.436 136.682C158.626 136.353 158.773 136.001 158.873 135.635C158.953 135.335 159.016 135.031 159.062 134.725C159.429 131.449 159.453 128.611 159.453 128.611C159.677 125.023 159.748 123.544 159.748 123.58C159.748 123.615 167.393 122.699 169.462 112.891C170.491 108.007 170.296 101.297 170.006 94.6867C169.628 85.5404 163.272 80.0183 155.935 80.0242Z" fill="#FFBE9D"/>
<path d="M153.375 100.167C153.361 100.497 153.219 100.809 152.98 101.036C152.74 101.263 152.422 101.388 152.092 101.385C151.932 101.39 151.773 101.363 151.623 101.306C151.473 101.249 151.336 101.163 151.22 101.054C151.104 100.944 151.01 100.812 150.945 100.666C150.879 100.52 150.843 100.363 150.838 100.203C150.852 99.8717 150.995 99.5593 151.235 99.3318C151.476 99.1043 151.796 98.9798 152.127 98.9847C152.288 98.9759 152.449 98.9999 152.6 99.0553C152.751 99.1108 152.889 99.1965 153.006 99.3072C153.123 99.4179 153.215 99.5512 153.279 99.6991C153.342 99.847 153.375 100.006 153.375 100.167Z" fill="#093636"/>
<path d="M166.281 100.51C166.269 100.842 166.127 101.155 165.886 101.383C165.645 101.61 165.324 101.734 164.993 101.728C164.833 101.733 164.673 101.706 164.524 101.649C164.374 101.592 164.237 101.506 164.121 101.397C164.004 101.287 163.911 101.155 163.845 101.009C163.78 100.863 163.744 100.706 163.739 100.546C163.753 100.215 163.895 99.9022 164.136 99.6747C164.377 99.4472 164.697 99.3227 165.028 99.3276C165.188 99.3221 165.348 99.3484 165.498 99.405C165.648 99.4616 165.785 99.5473 165.901 99.6573C166.018 99.7673 166.112 99.8993 166.177 100.046C166.242 100.192 166.278 100.35 166.281 100.51Z" fill="#093636"/>
<path d="M168.723 97.2996C168.558 97.4592 167.635 96.7084 166.269 96.6315C164.904 96.5547 163.869 97.2227 163.727 97.0276C163.585 96.8325 163.834 96.6552 164.318 96.3595C164.929 95.9806 165.641 95.7989 166.358 95.8393C167.068 95.8747 167.749 96.1333 168.303 96.5783C168.676 96.9212 168.806 97.2286 168.723 97.2996Z" fill="#093636"/>
<path d="M154.871 97.4418C154.687 97.5777 153.848 96.7323 152.506 96.5254C151.164 96.3184 150.064 96.8446 149.94 96.6554C149.881 96.5727 150.082 96.3007 150.566 96.0642C151.212 95.75 151.939 95.6426 152.648 95.7568C153.351 95.8636 154.003 96.1906 154.51 96.6909C154.865 97.0634 154.959 97.3767 154.871 97.4418Z" fill="#093636"/>
<path d="M159.642 107.38C160.372 107.19 161.123 107.093 161.877 107.09C162.226 107.09 162.563 107.02 162.633 106.783C162.681 106.424 162.617 106.058 162.45 105.737L161.552 103.035C160.31 99.1798 159.429 96.0227 159.583 95.9754C159.736 95.9281 160.872 99.0084 162.119 102.857C162.415 103.811 162.698 104.718 162.97 105.577C163.167 106.009 163.207 106.496 163.083 106.954C163.027 107.074 162.944 107.179 162.842 107.262C162.74 107.344 162.62 107.403 162.492 107.433C162.298 107.477 162.099 107.495 161.9 107.487C161.146 107.546 160.387 107.511 159.642 107.38Z" fill="#093636"/>
<path d="M159.772 123.58C155.11 123.417 150.585 121.963 146.7 119.382C146.7 119.382 149.674 126.4 159.636 125.986L159.772 123.58Z" fill="#EB996E"/>
<path d="M158.897 110.614C158.654 110.274 158.328 110.002 157.951 109.823C157.573 109.644 157.156 109.564 156.739 109.591C156.436 109.603 156.138 109.677 155.864 109.807C155.589 109.937 155.344 110.121 155.143 110.348C154.951 110.567 154.83 110.839 154.796 111.129C154.762 111.418 154.817 111.711 154.954 111.968C155.162 112.225 155.442 112.414 155.757 112.511C156.073 112.607 156.411 112.608 156.727 112.512C157.376 112.312 157.978 111.986 158.501 111.554C158.663 111.455 158.804 111.324 158.915 111.17C158.965 111.095 158.992 111.006 158.992 110.916C158.992 110.825 158.965 110.737 158.915 110.661" fill="#EB996E"/>
<path d="M155.586 108.119C155.811 108.119 155.74 109.603 156.952 110.715C158.164 111.826 159.754 111.749 159.754 111.956C159.754 112.051 159.388 112.228 158.72 112.21C157.843 112.184 157.005 111.847 156.355 111.259C155.738 110.698 155.361 109.921 155.302 109.089C155.29 108.468 155.474 108.107 155.586 108.119Z" fill="#093636"/>
<path d="M156.177 92.1208C155.988 92.4637 154.664 92.0853 153.05 92.0321C151.436 91.9789 150.094 92.2154 149.928 91.8547C149.857 91.6832 150.135 91.3699 150.708 91.0979C151.465 90.7673 152.287 90.6136 153.111 90.6484C153.936 90.6832 154.742 90.9057 155.468 91.299C156.012 91.6182 156.26 91.9552 156.177 92.1208Z" fill="#093636"/>
<path d="M168.528 91.4346C168.274 91.7302 167.345 91.3637 166.216 91.2927C165.087 91.2218 164.117 91.3932 163.916 91.0562C163.828 90.8966 163.993 90.5951 164.425 90.3231C165.005 90 165.668 89.8562 166.33 89.9099C166.992 89.9636 167.623 90.2123 168.144 90.6247C168.528 90.9617 168.64 91.2868 168.528 91.4346Z" fill="#093636"/>
<path d="M139.256 104.702C139.256 104.702 146.251 106.878 150.206 89.6198C151.56 83.7075 157.029 78.9423 157.029 78.9423L154.811 78.2742C154.811 78.2742 141.024 82.1585 140.793 82.33C140.563 82.5014 137.311 89.4661 137.311 89.4661L139.256 104.702Z" fill="#093636"/>
<path d="M140.983 104.04C141.018 103.307 140.25 101.527 139.528 101.373C137.601 100.977 134.095 100.953 133.811 105.884C133.433 112.63 140.279 111.625 140.315 111.43C140.35 111.235 140.859 106.582 140.983 104.04Z" fill="#FFBE9D"/>
<path d="M138.387 108.758C138.387 108.758 138.263 108.834 138.062 108.911C137.921 108.965 137.77 108.99 137.619 108.985C137.468 108.979 137.319 108.945 137.181 108.882C136.484 108.58 135.946 107.416 135.999 106.198C136.015 105.62 136.158 105.052 136.419 104.536C136.493 104.329 136.617 104.143 136.78 103.995C136.943 103.847 137.14 103.74 137.353 103.685C137.49 103.654 137.635 103.673 137.759 103.739C137.884 103.806 137.981 103.914 138.033 104.046C138.11 104.241 138.062 104.371 138.092 104.383C138.121 104.394 138.245 104.282 138.21 103.998C138.179 103.83 138.094 103.676 137.968 103.561C137.788 103.41 137.557 103.336 137.323 103.354C137.043 103.392 136.778 103.502 136.553 103.673C136.329 103.844 136.152 104.07 136.04 104.329C135.719 104.897 135.543 105.534 135.526 106.186C135.49 107.546 136.117 108.858 137.075 109.195C137.253 109.257 137.442 109.279 137.629 109.258C137.816 109.238 137.997 109.176 138.157 109.077C138.364 108.923 138.441 108.769 138.387 108.758Z" fill="#EB996E"/>
<path d="M143.998 101.385C144.338 101.334 144.676 101.265 145.009 101.178C145.905 100.906 146.727 100.431 147.409 99.7889C147.883 99.3488 148.304 98.8547 148.663 98.3167C149.068 97.6971 149.409 97.0374 149.68 96.3479C150.262 94.7448 150.748 93.1081 151.134 91.4467C151.568 89.79 152.085 88.1561 152.683 86.5513C153.18 85.2384 153.773 83.9638 154.457 82.7379C154.914 81.9137 155.43 81.1234 156 80.373C156.195 80.101 156.372 79.9118 156.485 79.7818C156.537 79.7113 156.597 79.6459 156.662 79.5867C156.618 79.6646 156.567 79.7379 156.508 79.8054C156.408 79.9532 156.242 80.1483 156.053 80.3966C155.511 81.1552 155.013 81.9448 154.563 82.7616C153.905 83.989 153.334 85.2613 152.855 86.5691C152.299 88.0412 151.79 89.6966 151.317 91.4526C150.934 93.1225 150.442 94.7657 149.845 96.3716C149.565 97.0676 149.214 97.7333 148.799 98.3581C148.429 98.9001 147.996 99.3963 147.51 99.8362C146.807 100.483 145.96 100.953 145.038 101.208C144.702 101.315 144.351 101.375 143.998 101.385Z" fill="#093636"/>
<path d="M134.787 130.154C134.748 130.047 134.722 129.936 134.71 129.823L134.544 128.865C134.397 128.002 134.195 126.772 133.953 125.206H134.119C134.148 125.454 134.19 125.726 134.225 126.004C134.266 126.093 134.32 126.199 134.367 126.305L134.195 126.364C132.522 120.553 131.656 114.539 131.624 108.492C131.624 106.026 131.624 103.407 132.292 100.806C132.559 99.7359 132.97 98.7076 133.516 97.7491C134.052 96.8243 134.675 95.9532 135.378 95.1477C136.75 93.5632 138.228 92.1916 139.576 90.8495L146.818 83.7548L151.714 78.9717L153.056 77.6829L153.41 77.3518L153.54 77.2454C153.54 77.2454 153.511 77.2927 153.434 77.3754L153.103 77.7243L151.802 79.0545C150.62 80.237 148.994 81.8688 146.972 83.9085L139.777 91.0742C138.435 92.434 136.957 93.8056 135.609 95.3724C134.171 96.947 133.134 98.8454 132.587 100.906C131.943 103.466 131.949 106.074 131.919 108.527C131.945 114.551 132.77 120.546 134.373 126.353L134.201 126.418L134.065 126.11C134.03 125.826 133.994 125.555 133.965 125.312H134.125C134.355 126.879 134.532 128.115 134.657 128.984C134.71 129.392 134.751 129.711 134.787 129.947C134.789 130.016 134.789 130.085 134.787 130.154Z" fill="#455A64"/>
<path d="M129.477 98.979C129.503 98.8791 129.543 98.7835 129.596 98.6952C129.702 98.4823 129.832 98.2222 129.986 97.9029C130.329 97.2171 130.867 96.2475 131.576 95.0709C132.286 93.8944 133.178 92.5228 134.243 91.0506C135.307 89.5784 136.566 88.0235 137.962 86.4568C139.357 84.89 140.794 83.5006 142.13 82.2768C143.466 81.053 144.743 80.0183 145.843 79.1965C146.942 78.3747 147.847 77.7303 148.497 77.3164L149.242 76.8375C149.327 76.7811 149.416 76.7317 149.508 76.6897C149.508 76.6897 149.437 76.7666 149.272 76.8907L148.562 77.411C147.936 77.8544 147.049 78.5225 145.979 79.368C144.908 80.2134 143.655 81.2658 142.325 82.4837C140.995 83.7017 139.587 85.1147 138.186 86.6637C136.785 88.2127 135.549 89.7736 134.467 91.2161C133.385 92.6587 132.481 94.0245 131.754 95.1833C131.026 96.3421 130.459 97.294 130.086 97.962L129.643 98.7247C129.597 98.8149 129.541 98.9 129.477 98.979Z" fill="#455A64"/>
<path d="M137.199 127.6C137.435 127.257 139.008 124.224 139.008 124.224L147.9 131.898C147.9 131.898 156.638 139.212 156.638 138.739L158.034 131.703L159.748 125.294L162.953 130.143C162.953 130.143 173.003 149.89 173.003 150.126C173.003 150.363 179.241 170.819 179.241 170.819L177.899 179.096L177.739 208.451L158.956 207.664L155.249 201.752L148.905 164.103L137.199 127.6Z" fill="white"/>
<path d="M158.246 202.136H178.969L185.076 233.619H143.554L158.246 202.136Z" fill="#093636"/>
<path d="M133.799 132.49L121.703 137.03L132.877 186.794C132.877 186.794 132.221 200.238 129.844 207.091C127.467 213.943 121.886 233.619 121.886 233.619H159.05C159.05 233.619 160.629 206.612 160.002 196.963C159.376 187.314 159.636 169.128 155.941 159.639C152.245 150.15 137.435 126.832 137.435 126.832L133.799 132.49Z" fill="#C6E1F6"/>
<path d="M160.316 125.862L165.796 130.391L180.849 132.631C180.849 132.631 187.973 158.438 186.655 168.584C185.337 178.729 187.175 196.295 187.175 196.295L193.773 233.619H179.288C179.288 233.619 175.15 189.969 174.907 190.495C174.665 191.021 173.867 169.146 172.288 162.051C170.71 154.956 162.74 132.655 162.74 132.655L160.316 125.862Z" fill="#C6E1F6"/>
<path d="M199.834 190.099C199.834 190.099 205.9 187.332 205.9 181.928C205.9 176.524 202.204 168.879 201.418 165.965C200.632 163.05 182.7 132.223 180.855 132.62L179.011 133.016L188.5 174.668L175.581 177.831L181.092 193.687L199.834 190.099Z" fill="#C6E1F6"/>
<path d="M181.34 176.636L184 168.028L184.456 162.163L190.717 158.025C190.717 158.025 192.396 158.22 191.899 159.52C191.403 160.821 188.843 163.162 188.843 163.162L187.347 167.342L189.777 163.097L193.324 161.324L196.842 161.584C196.842 161.584 197.492 163.145 195.866 163.21H194.093L191.42 165.362L189.753 169.394L192.266 165.492L195.979 164.173L198.344 164.765C198.344 164.765 198.994 165.805 197.823 165.947C196.653 166.089 195.872 166.077 195.872 166.077L193.726 167.325L191.834 171.286L195.157 168.548L199.449 168.034C199.449 168.034 200.17 169.069 199.059 169.459C197.927 169.924 196.82 170.447 195.742 171.026L193.33 173.952L181.34 176.636Z" fill="#FFBE9D"/>
<path d="M160.15 202.136C160.121 202.074 160.099 202.008 160.085 201.941C160.05 201.799 159.997 201.604 159.937 201.35C159.801 200.823 159.618 200.078 159.346 199.127C158.867 197.17 158.164 194.397 157.324 190.92C156.485 187.444 155.438 183.341 154.268 178.777C153.676 176.494 153.05 174.1 152.364 171.623C152.027 170.387 151.672 169.134 151.288 167.868C151.099 167.236 150.886 166.603 150.697 165.965C150.474 165.333 150.216 164.715 149.922 164.114C147.705 159.662 145.441 155.47 143.419 151.604C141.397 147.737 139.469 144.225 137.837 141.186L137.796 141.104L137.861 141.045C138.275 140.672 138.683 140.323 139.091 139.992C139.292 139.823 139.503 139.667 139.723 139.525L139.818 139.472H139.877C139.877 139.472 139.877 139.472 139.842 139.513C139.832 139.539 139.833 139.568 139.844 139.593C139.855 139.619 139.875 139.639 139.901 139.649H139.735H139.369C138.387 139.649 137.465 139.649 136.614 139.649H136.549V139.59C135.685 137.361 135.005 135.593 134.532 134.364L134.006 132.98L133.876 132.62L133.841 132.495C133.841 132.495 133.841 132.531 133.9 132.608L134.054 132.962L134.645 134.328C135.135 135.552 135.827 137.284 136.744 139.525L136.655 139.466C137.512 139.466 138.429 139.419 139.416 139.419H139.788C139.859 139.413 139.93 139.413 140.001 139.419H140.037C140.052 139.434 140.063 139.453 140.068 139.474C140.073 139.494 140.073 139.516 140.066 139.537C140.031 139.602 140.037 139.578 140.025 139.59H139.972H139.942C139.917 139.602 139.894 139.616 139.871 139.631C139.664 139.769 139.466 139.921 139.28 140.087C138.884 140.418 138.476 140.767 138.098 141.139V140.997C139.735 144.03 141.645 147.542 143.726 151.391C145.807 155.24 148.054 159.438 150.277 163.901C150.577 164.514 150.839 165.143 151.063 165.787C151.27 166.432 151.483 167.064 151.654 167.703C152.049 168.976 152.407 170.231 152.73 171.469C153.41 173.946 154.025 176.341 154.611 178.629C155.793 183.199 156.774 187.326 157.608 190.796L159.535 199.02C159.748 199.978 159.92 200.729 160.038 201.261C160.085 201.503 160.127 201.698 160.156 201.852C160.17 201.946 160.168 202.042 160.15 202.136Z" fill="#093636"/>
<path d="M179.288 172.864C179.273 172.711 179.273 172.557 179.288 172.403C179.288 172.066 179.33 171.629 179.365 171.079C179.365 170.789 179.401 170.488 179.424 170.121V168.986C179.424 168.164 179.424 167.212 179.365 166.213C179.058 160.861 178.007 155.578 176.243 150.516C175.525 148.4 174.68 146.329 173.713 144.314C172.851 142.36 171.874 140.459 170.786 138.621C169.823 136.942 168.936 135.481 168.191 134.275L166.417 131.455C166.222 131.148 166.068 130.864 165.944 130.704C165.888 130.617 165.839 130.526 165.797 130.432C165.869 130.506 165.935 130.587 165.992 130.675L166.5 131.402C166.938 132.04 167.564 132.98 168.333 134.175C169.101 135.369 170.012 136.823 170.993 138.496C172.097 140.335 173.084 142.24 173.95 144.202C174.936 146.234 175.791 148.327 176.51 150.469C178.286 155.555 179.314 160.873 179.56 166.255C179.625 167.289 179.59 168.223 179.56 169.039C179.56 169.447 179.56 169.831 179.531 170.18C179.501 170.529 179.472 170.848 179.448 171.138C179.395 171.688 179.347 172.131 179.318 172.462C179.315 172.597 179.305 172.731 179.288 172.864Z" fill="#093636"/>
<path d="M200.283 189.868C200.162 189.914 200.037 189.947 199.91 189.969L198.828 190.217L194.743 191.11L180.459 194.143L180.335 194.172L180.293 194.048C179.111 190.501 177.775 186.622 176.397 182.549L174.966 178.31L174.907 178.15L175.073 178.109L185.815 175.584L190.445 174.502L192.532 174.017C193.173 173.84 193.831 173.729 194.494 173.686C195.636 173.647 196.77 173.878 197.805 174.36C198.582 174.712 199.299 175.18 199.934 175.75C200.331 176.105 200.689 176.502 201.004 176.932C201.093 177.074 201.169 177.186 201.229 177.275C201.288 177.364 201.305 177.399 201.299 177.399C200.877 176.826 200.394 176.3 199.857 175.832C199.221 175.286 198.508 174.838 197.74 174.502C196.719 174.062 195.611 173.859 194.5 173.911C193.853 173.959 193.213 174.076 192.591 174.26L190.504 174.762L185.88 175.874C182.611 176.648 178.987 177.511 175.144 178.434L175.25 178.233L176.687 182.472C178.058 186.551 179.371 190.436 180.565 193.983L180.4 193.888L194.707 190.968L198.81 190.152L199.898 189.945C200.024 189.911 200.153 189.885 200.283 189.868Z" fill="#093636"/>
<path d="M130.459 210.543L150.247 212.364L146.842 218.419L126.001 216.379L130.459 210.543Z" fill="#C6E1F6"/>
<path d="M130.459 210.532C130.459 210.532 130.459 210.579 130.388 210.65L130.169 210.957L129.306 212.14L126.078 216.444L126.007 216.278L146.126 218.218L146.859 218.288L146.712 218.365L150.117 212.305L150.229 212.524L136.075 211.123L131.937 210.703L130.825 210.579C130.694 210.571 130.563 210.551 130.435 210.52H130.808L131.901 210.597L136.04 210.934L150.265 212.217H150.49L150.377 212.418L146.984 218.478L146.93 218.56H146.83L146.097 218.49L125.995 216.473H125.806L125.918 216.326L129.253 212.057L130.151 210.922C130.246 210.786 130.349 210.656 130.459 210.532Z" fill="#093636"/>
<path d="M183.728 212.577L186.82 218.418L193.466 217.059L189.942 211.678L183.728 212.577Z" fill="#C6E1F6"/>
<path d="M183.728 212.577C183.862 212.538 183.998 212.51 184.136 212.494L185.378 212.281C186.454 212.098 188.021 211.838 189.924 211.548H190.007L190.054 211.619C191.083 213.18 192.301 215.019 193.602 216.988L193.726 217.177L193.501 217.224L193.17 217.289L186.85 218.56H186.755L186.708 218.472C185.774 216.698 185.023 215.19 184.509 214.162C184.272 213.683 184.077 213.287 183.917 212.979C183.846 212.85 183.785 212.716 183.734 212.577C183.734 212.577 183.835 212.737 183.994 213.015L184.662 214.197C185.254 215.214 186.022 216.633 186.945 218.336L186.797 218.271L193.111 216.958L193.442 216.893L193.348 217.124C192.059 215.149 190.858 213.304 189.842 211.732L189.966 211.791C188.127 212.045 186.596 212.228 185.496 212.382L184.213 212.53C183.906 212.565 183.74 212.583 183.728 212.577Z" fill="#093636"/>
<g opacity="0.3">
<path opacity="0.3" d="M128.413 216.621L127.592 218.418L148.149 220.304L149.68 213.369L146.842 218.418L128.413 216.621Z" fill="black"/>
</g>
<g opacity="0.3">
<path opacity="0.3" d="M132.652 189.945C132.652 189.945 135.881 196.708 140.072 198.689C145.79 201.385 160.109 199.623 160.109 199.623L160.15 195.514L143.555 196.46L132.652 189.945Z" fill="black"/>
</g>
<path d="M122.477 136.717C122.477 136.717 116.678 137.113 116.565 152.272C116.453 167.431 134.225 192.866 137.258 195.372C140.291 197.879 143.762 199.558 152.89 198.204C164.348 196.508 172.318 194.976 172.318 194.976L170.733 181.136L150.265 180.213L133.669 146.088C133.669 146.088 128.136 136.037 122.477 136.717Z" fill="#C6E1F6"/>
<g opacity="0.3">
<path opacity="0.3" d="M175.688 186.948C173.441 186.013 170.958 185.996 168.504 185.99L158.832 185.96C156.745 185.867 154.655 186.04 152.612 186.475C150.551 186.923 148.739 188.141 147.545 189.88L142.49 194.06C148.963 195.628 155.756 195.23 162.001 192.919C163.522 192.246 165.106 191.727 166.731 191.37C171.1 190.684 175.522 193.22 179.868 192.41C179.874 189.975 177.929 187.888 175.688 186.948Z" fill="black"/>
</g>
<path d="M142.922 172.865C144.809 173.625 146.747 174.254 148.722 174.745C151.191 175.258 153.6 176.024 155.911 177.033C157.549 177.679 159.15 178.415 160.706 179.238L163.757 189.88C163.757 189.88 158.69 193.067 152.973 192.901C147.256 192.736 142.189 194.586 141.456 194.084C140.723 193.581 140.64 192.671 141.456 192.263C142.272 191.855 145.736 191.364 145.736 191.364L148.692 190.14C148.692 190.14 138.482 191.039 137.666 190.631C136.85 190.223 136.034 189.649 136.359 188.751C136.436 188.503 136.586 188.284 136.79 188.123C136.994 187.963 137.241 187.868 137.5 187.852C137.5 187.852 135.295 187.935 135.378 187.036C135.442 186.656 135.584 186.292 135.794 185.969C136.005 185.646 136.28 185.369 136.602 185.156C136.933 184.991 141.213 183.252 141.213 183.252L146.724 182.153L141.432 181.94L136.809 183.229C136.809 183.229 134.964 183.442 135.378 181.887C135.792 180.332 141.456 178.605 141.456 178.605L148.645 178.115C148.645 178.115 143.087 177.299 142.514 175.584C142.328 175.137 142.267 174.647 142.339 174.168C142.411 173.688 142.613 173.238 142.922 172.865Z" fill="#FFBE9D"/>
<path d="M160.706 179.238H161.061L175.091 178.617L179.288 190.867L163.757 189.856L160.706 179.238Z" fill="#FFBE9D"/>
<path d="M148.491 186.203C147.924 186.29 147.351 186.335 146.777 186.339C145.718 186.398 144.258 186.522 142.638 186.764C141.018 187.007 139.617 187.32 138.588 187.574C138.038 187.74 137.477 187.869 136.909 187.959C137.425 187.701 137.969 187.503 138.529 187.367C141.2 186.585 143.964 186.167 146.747 186.126C147.33 186.087 147.915 186.113 148.491 186.203Z" fill="#EB996E"/>
<path d="M137.962 153.803C137.782 153.596 137.626 153.37 137.495 153.129C137.211 152.692 136.809 152.047 136.312 151.267C134.968 149.234 133.518 147.275 131.967 145.396C130.435 143.503 128.7 141.784 126.793 140.27C125.978 139.677 125.131 139.129 124.257 138.626C124.519 138.704 124.772 138.807 125.014 138.934C125.305 139.069 125.588 139.223 125.859 139.395C126.227 139.606 126.583 139.839 126.923 140.093C128.887 141.57 130.66 143.283 132.203 145.195C133.766 147.083 135.2 149.074 136.495 151.155C136.992 151.947 137.37 152.609 137.625 153.07C137.76 153.303 137.873 153.549 137.962 153.803Z" fill="#093636"/>
<path d="M147.043 173.994C146.915 173.779 146.81 173.551 146.729 173.314L145.961 171.428C145.322 169.831 144.418 167.632 143.371 165.226C142.325 162.819 141.332 160.661 140.598 159.101C140.256 158.368 139.966 157.747 139.741 157.256C139.618 157.036 139.523 156.802 139.457 156.558C139.607 156.76 139.738 156.976 139.848 157.203C140.078 157.623 140.403 158.237 140.794 159.006C141.574 160.543 142.603 162.689 143.655 165.102C144.707 167.514 145.577 169.731 146.168 171.345C146.463 172.155 146.694 172.817 146.842 173.272C146.936 173.504 147.003 173.746 147.043 173.994Z" fill="#093636"/>
<path d="M156.497 138.857C156.497 138.857 156.367 138.816 156.142 138.703L155.178 138.195L151.785 136.321L151.986 136.22C151.82 137.745 151.542 139.525 151.258 141.423C151.146 142.197 151.04 142.948 150.951 143.67L150.915 143.947L150.709 143.77C148.888 142.227 147.315 140.867 146.192 139.886L144.891 138.703C144.726 138.569 144.575 138.419 144.442 138.254C144.629 138.353 144.802 138.476 144.956 138.62L146.322 139.714C147.475 140.654 149.077 141.985 150.898 143.516L150.655 143.61C150.738 142.889 150.839 142.132 150.957 141.358C151.235 139.454 151.548 137.675 151.72 136.161V135.96L151.891 136.06L155.231 138.035L156.154 138.626C156.279 138.686 156.394 138.764 156.497 138.857Z" fill="#093636"/>
<path d="M161.682 130.154C161.72 130.421 161.729 130.69 161.711 130.958C161.711 131.55 161.711 132.265 161.67 133.14C161.623 134.991 161.54 137.539 161.428 140.353C161.428 140.424 161.428 140.489 161.428 140.56V141.051L161.162 140.637L157.792 135.316H157.999C157.626 136.339 157.319 137.196 157.076 137.852C156.979 138.172 156.85 138.48 156.692 138.774C156.749 138.446 156.836 138.123 156.952 137.811L157.774 135.239L157.851 135.002L157.987 135.209L161.422 140.489L161.138 140.566C161.138 140.501 161.138 140.43 161.138 140.365C161.25 137.551 161.369 135.002 161.469 133.158C161.528 132.283 161.57 131.55 161.611 130.976C161.607 130.7 161.631 130.425 161.682 130.154Z" fill="#093636"/>
<path d="M180.234 138.337C180.067 138.274 179.908 138.19 179.761 138.089L179.832 138.041C180.205 139.366 181.257 143.688 182.452 148.819C183.185 151.947 183.823 154.779 184.273 156.836C184.485 157.824 184.657 158.646 184.793 159.272C184.869 159.569 184.918 159.872 184.941 160.177C184.829 159.893 184.74 159.6 184.675 159.302C184.515 158.675 184.314 157.865 184.083 156.884C183.575 154.844 182.901 152.018 182.174 148.89C180.991 143.758 180.01 139.431 179.761 138.059V137.953L179.844 138.012C179.986 138.105 180.117 138.214 180.234 138.337Z" fill="#093636"/>
<path d="M161.682 196.762C161.565 196.81 161.444 196.849 161.321 196.88L160.263 197.164C159.34 197.406 157.992 197.72 156.319 198.027C154.353 198.388 152.367 198.627 150.372 198.742C147.921 198.907 145.46 198.744 143.052 198.258C141.803 197.993 140.593 197.57 139.452 196.998C138.91 196.721 138.389 196.407 137.891 196.058C137.431 195.698 137.001 195.303 136.602 194.876C135.269 193.379 134.033 191.8 132.901 190.146C131.919 188.751 131.169 187.598 130.654 186.794L130.063 185.866C129.992 185.759 129.93 185.646 129.88 185.529C129.969 185.62 130.048 185.722 130.116 185.83C130.276 186.061 130.483 186.362 130.743 186.729C131.287 187.509 132.067 188.644 133.066 190.016C134.217 191.635 135.463 193.185 136.797 194.657C137.183 195.073 137.602 195.456 138.05 195.804C138.535 196.145 139.045 196.45 139.576 196.715C140.7 197.276 141.892 197.69 143.123 197.944C145.503 198.427 147.936 198.598 150.36 198.453C152.341 198.346 154.315 198.128 156.272 197.802C157.945 197.519 159.293 197.241 160.221 197.04L161.292 196.809C161.419 196.775 161.55 196.76 161.682 196.762Z" fill="#093636"/>
<g opacity="0.3">
<path opacity="0.3" d="M134.355 133.903L135.922 141.346L137.199 140.548L136.466 142.322L152.482 171.369L150.401 164.735L137.932 141.139L139.907 139.561H136.59L134.355 133.903Z" fill="black"/>
</g>
<path d="M168.002 163.417C167.819 163.647 164.023 174.141 164.023 174.141L167.765 171.776C167.765 171.776 169.326 176.341 169.291 176.181C169.255 176.021 172.217 164.794 172.217 164.794L168.002 163.417Z" fill="#093636"/>
<path d="M174.949 164.9C174.949 164.9 177.757 175.507 177.834 175.389C177.911 175.271 179.359 171.918 179.359 171.918L182.984 174.218L179.164 163.417L174.949 164.9Z" fill="#093636"/>
<path d="M173.506 166.107C178.551 166.107 182.641 162.017 182.641 156.972C182.641 151.928 178.551 147.838 173.506 147.838C168.461 147.838 164.372 151.928 164.372 156.972C164.372 162.017 168.461 166.107 173.506 166.107Z" fill="#455A64"/>
<path d="M180.654 156.682C180.6 156.1 180.507 155.521 180.376 154.95C179.963 153.407 179.045 152.046 177.769 151.084C176.832 150.377 175.732 149.917 174.571 149.745C173.41 149.574 172.225 149.696 171.123 150.102C170.486 150.325 169.888 150.647 169.35 151.054C168.782 151.469 168.283 151.972 167.872 152.544C166.987 153.743 166.51 155.193 166.51 156.682C166.51 158.172 166.987 159.622 167.872 160.821C168.28 161.395 168.779 161.899 169.35 162.311C169.888 162.72 170.486 163.043 171.123 163.269C172.225 163.672 173.411 163.794 174.572 163.621C175.733 163.449 176.832 162.988 177.769 162.281C179.048 161.325 179.966 159.964 180.376 158.421C180.507 157.85 180.6 157.271 180.654 156.688C180.671 156.84 180.671 156.992 180.654 157.144C180.656 157.33 180.642 157.516 180.613 157.699C180.588 157.953 180.543 158.204 180.477 158.45C180.1 160.044 179.185 161.46 177.887 162.459C176.925 163.203 175.789 163.692 174.587 163.88C173.385 164.068 172.155 163.949 171.011 163.535C170.349 163.299 169.725 162.966 169.161 162.547C168.568 162.118 168.047 161.597 167.618 161.004C166.692 159.756 166.193 158.243 166.193 156.688C166.193 155.134 166.692 153.621 167.618 152.372C168.052 151.773 168.581 151.247 169.184 150.817C169.746 150.394 170.37 150.061 171.035 149.83C172.26 149.388 173.581 149.284 174.86 149.529C176.219 149.789 177.474 150.435 178.474 151.39C179.474 152.346 180.178 153.569 180.5 154.915C180.566 155.161 180.612 155.412 180.636 155.666C180.665 155.847 180.679 156.031 180.678 156.215C180.687 156.371 180.679 156.528 180.654 156.682Z" fill="#093636"/>
<g opacity="0.2">
<path opacity="0.2" d="M175.652 148.092L164.372 158.226L165.087 160.52L177.982 149.003C177.292 148.512 176.492 148.199 175.652 148.092Z" fill="white"/>
</g>
<g opacity="0.2">
<path opacity="0.2" d="M179.005 149.671C178.957 149.635 165.82 161.909 165.82 161.909L166.601 162.95C166.63 162.979 179.815 150.362 179.815 150.362L179.005 149.671Z" fill="white"/>
</g>
<path d="M174.588 153.614V160.756H172.933V154.956H171.502V153.632L174.588 153.614Z" fill="white"/>
<g opacity="0.3">
<path opacity="0.3" d="M167.493 156.683C167.493 152.94 170.142 149.872 173.506 149.558C173.323 149.558 173.134 149.558 172.915 149.558C169.279 149.558 166.334 152.757 166.334 156.706C166.334 160.656 169.291 163.854 172.915 163.854C173.11 163.854 173.299 163.854 173.506 163.825C170.142 163.488 167.493 160.419 167.493 156.683Z" fill="black"/>
</g>
<g opacity="0.3">
<path opacity="0.3" d="M178.969 66.3135L180.654 125.862L212.769 135.351V66.3135H178.969Z" fill="white"/>
</g>
<path d="M132.652 180.048C132.717 180.101 127.721 186.191 121.49 193.646C115.258 201.101 110.156 207.096 110.091 207.043C110.026 206.99 115.022 200.9 121.253 193.445C127.485 185.99 132.587 179.995 132.652 180.048Z" fill="white"/>
<path d="M135.348 168.448C135.407 168.501 129.956 174.727 123.169 182.348C116.382 189.969 110.824 196.106 110.753 196.046C110.682 195.987 116.139 189.768 122.927 182.147C129.714 174.526 135.283 168.389 135.348 168.448Z" fill="white"/>
<path d="M205.19 109.095C205.255 109.148 199.219 116.018 191.704 124.425C184.19 132.832 178.053 139.614 177.994 139.584C177.934 139.555 183.965 132.631 191.479 124.212C198.994 115.793 205.125 109.036 205.19 109.095Z" fill="white"/>
<path d="M115.04 66.0532L115.85 76.849C115.946 78.2636 116.541 79.5981 117.529 80.6151C117.776 80.8674 118.036 81.1062 118.309 81.3305C119.36 82.1936 120.649 82.7154 122.004 82.8263L129.891 83.4944L121.295 84.3458C120.672 84.41 120.078 84.6407 119.574 85.0139C119.379 85.1617 119.19 85.3095 118.983 85.4691C117.348 86.8949 116.33 88.9003 116.145 91.0621L115.554 97.4533L114.904 91.541C114.776 90.2601 114.354 89.026 113.671 87.9348C112.988 86.8437 112.063 85.925 110.966 85.2504L110.913 85.2149C110.474 84.96 109.983 84.8084 109.476 84.7715L100.011 84.0502L108.241 83.2875C109.864 83.151 111.379 82.4205 112.497 81.2359C112.722 80.9935 112.941 80.7334 113.148 80.4673C113.856 79.5224 114.267 78.3886 114.33 77.2097L115.04 66.0532Z" fill="white"/>
<path d="M90.3974 93.2085L90.9176 100.185C90.9817 101.098 91.3671 101.959 92.0055 102.615C92.1643 102.78 92.3321 102.936 92.508 103.082C93.1824 103.632 94.0061 103.968 94.8729 104.046L99.9693 104.477L94.4295 105.027C94.0268 105.068 93.6427 105.217 93.318 105.459C93.1879 105.553 93.0697 105.648 92.9514 105.748C91.8957 106.67 91.2387 107.965 91.1186 109.361L90.7284 113.499L90.3146 109.692C90.2306 108.865 89.957 108.068 89.5151 107.363C89.0731 106.659 88.4747 106.066 87.7664 105.63H87.7309C87.4478 105.465 87.13 105.367 86.8027 105.346L80.6539 104.862L85.975 104.371C87.0231 104.283 88.0019 103.811 88.7242 103.047C88.872 102.887 89.0139 102.721 89.1439 102.55C89.6069 101.942 89.8767 101.208 89.9185 100.445L90.3974 93.2085Z" fill="white"/>
<path d="M196.369 242.552H122.282C120.519 242.552 119.09 243.982 119.09 245.745V258.149C119.09 259.912 120.519 261.342 122.282 261.342H196.369C198.132 261.342 199.562 259.912 199.562 258.149V245.745C199.562 243.982 198.132 242.552 196.369 242.552Z" fill="#C6E1F6"/>
<g opacity="0.3">
<path opacity="0.3" d="M156.414 242.552L140.309 261.342H145.896L162.137 242.552H156.414Z" fill="white"/>
</g>
<path d="M144.175 249.464V250.327H140.569V245.668H144.116V246.531H141.663V247.542H143.827V248.37H141.663V249.452L144.175 249.464Z" fill="white"/>
<path d="M149.272 250.327V247.531L147.9 249.836H147.415L146.05 247.59V250.327H145.039V245.668H145.931L147.705 248.565L149.425 245.668H150.265V250.327H149.272Z" fill="white"/>
<path d="M155.432 247.359C155.432 248.394 154.652 249.044 153.404 249.044H152.47V250.327H151.388V245.668H153.404C154.652 245.668 155.432 246.313 155.432 247.359ZM154.338 247.359C154.338 246.845 154.007 246.543 153.345 246.543H152.47V248.163H153.345C154.007 248.163 154.338 247.862 154.338 247.359Z" fill="white"/>
<path d="M156.177 245.668H157.253V249.446H159.618V250.327H156.177V245.668Z" fill="white"/>
<path d="M159.843 247.998C159.813 247.487 159.938 246.979 160.2 246.54C160.462 246.101 160.85 245.751 161.314 245.535C161.778 245.319 162.296 245.247 162.801 245.328C163.305 245.41 163.774 245.642 164.146 245.993C164.518 246.344 164.776 246.799 164.886 247.298C164.997 247.798 164.955 248.319 164.766 248.794C164.577 249.269 164.249 249.677 163.826 249.964C163.402 250.251 162.902 250.404 162.391 250.404C162.063 250.422 161.736 250.374 161.427 250.261C161.119 250.149 160.837 249.975 160.599 249.749C160.36 249.524 160.17 249.253 160.04 248.951C159.91 248.65 159.843 248.326 159.843 247.998ZM163.851 247.998C163.845 247.71 163.755 247.431 163.591 247.194C163.427 246.958 163.197 246.776 162.93 246.67C162.662 246.564 162.37 246.539 162.088 246.599C161.807 246.658 161.55 246.8 161.348 247.005C161.147 247.21 161.011 247.47 160.957 247.753C160.903 248.035 160.934 248.327 161.045 248.593C161.156 248.858 161.343 249.084 161.583 249.243C161.822 249.402 162.103 249.487 162.391 249.487C162.588 249.495 162.784 249.462 162.967 249.389C163.151 249.317 163.317 249.207 163.455 249.067C163.594 248.927 163.702 248.759 163.772 248.575C163.842 248.391 163.873 248.194 163.863 247.998H163.851Z" fill="white"/>
<path d="M167.789 248.678V250.327H166.707V248.66L164.904 245.668H166.051L167.292 247.738L168.54 245.668H169.598L167.789 248.678Z" fill="white"/>
<path d="M173.613 249.464V250.327H170V245.668H173.548V246.531H171.076V247.542H173.24V248.37H171.076V249.452L173.613 249.464Z" fill="white"/>
<path d="M178.053 249.464V250.327H174.446V245.668H177.964V246.531H175.516V247.542H177.68V248.37H175.516V249.452L178.053 249.464Z" fill="white"/>
<g opacity="0.3">
<path opacity="0.3" d="M197.119 245.148C197.121 245.365 197.057 245.577 196.938 245.758C196.818 245.939 196.647 246.08 196.447 246.163C196.247 246.247 196.026 246.269 195.814 246.227C195.601 246.185 195.406 246.081 195.252 245.927C195.099 245.774 194.995 245.578 194.953 245.366C194.911 245.153 194.933 244.933 195.016 244.733C195.1 244.532 195.241 244.362 195.422 244.242C195.602 244.122 195.815 244.059 196.032 244.06C196.32 244.06 196.597 244.175 196.801 244.379C197.005 244.583 197.119 244.859 197.119 245.148Z" fill="black"/>
</g>
<g opacity="0.3">
<path opacity="0.3" d="M197.119 258.285C197.121 258.502 197.057 258.714 196.938 258.895C196.818 259.076 196.647 259.217 196.447 259.3C196.247 259.384 196.026 259.406 195.814 259.364C195.601 259.322 195.406 259.218 195.252 259.064C195.099 258.911 194.995 258.715 194.953 258.503C194.911 258.29 194.933 258.07 195.016 257.87C195.1 257.669 195.241 257.499 195.422 257.379C195.602 257.259 195.815 257.196 196.032 257.197C196.32 257.197 196.597 257.312 196.801 257.516C197.005 257.72 197.119 257.996 197.119 258.285Z" fill="black"/>
</g>
<g opacity="0.3">
<path opacity="0.3" d="M122.755 245.414C122.755 245.629 122.691 245.839 122.572 246.018C122.452 246.197 122.282 246.337 122.084 246.419C121.885 246.501 121.666 246.523 121.455 246.481C121.244 246.439 121.05 246.335 120.898 246.183C120.746 246.031 120.642 245.837 120.6 245.626C120.558 245.415 120.58 245.196 120.662 244.997C120.744 244.799 120.884 244.629 121.063 244.509C121.242 244.39 121.452 244.326 121.667 244.326C121.956 244.326 122.232 244.441 122.436 244.645C122.64 244.849 122.755 245.125 122.755 245.414Z" fill="black"/>
</g>
<g opacity="0.3">
<path opacity="0.3" d="M123.134 258.285C123.134 258.5 123.07 258.71 122.95 258.889C122.831 259.068 122.661 259.208 122.462 259.29C122.263 259.372 122.045 259.394 121.834 259.352C121.623 259.31 121.429 259.206 121.277 259.054C121.124 258.902 121.021 258.708 120.979 258.497C120.937 258.286 120.958 258.067 121.041 257.869C121.123 257.67 121.263 257.5 121.441 257.38C121.62 257.261 121.831 257.197 122.046 257.197C122.334 257.197 122.611 257.312 122.815 257.516C123.019 257.72 123.134 257.996 123.134 258.285Z" fill="black"/>
</g>
<g opacity="0.3">
<path opacity="0.3" d="M150.856 242.552L134.367 261.342H132.061L148.326 242.552H150.856Z" fill="white"/>
</g>
<path d="M129.466 255.465C129.428 254.874 129.568 254.285 129.869 253.774C130.17 253.264 130.618 252.856 131.153 252.603C131.689 252.35 132.288 252.263 132.874 252.355C133.459 252.447 134.003 252.713 134.436 253.117C134.868 253.522 135.169 254.048 135.3 254.626C135.43 255.204 135.383 255.808 135.166 256.359C134.949 256.91 134.571 257.383 134.082 257.717C133.593 258.051 133.014 258.231 132.422 258.232C132.043 258.258 131.663 258.205 131.305 258.078C130.947 257.951 130.619 257.751 130.342 257.491C130.064 257.232 129.844 256.918 129.693 256.569C129.542 256.221 129.465 255.845 129.466 255.465ZM134.065 255.465C134.058 255.136 133.954 254.816 133.766 254.545C133.578 254.275 133.315 254.066 133.008 253.945C132.702 253.823 132.367 253.795 132.045 253.864C131.722 253.932 131.428 254.094 131.197 254.33C130.967 254.565 130.811 254.863 130.749 255.187C130.687 255.51 130.722 255.845 130.85 256.149C130.978 256.452 131.192 256.712 131.466 256.894C131.741 257.076 132.063 257.173 132.392 257.174C132.616 257.179 132.839 257.138 133.047 257.053C133.254 256.969 133.443 256.842 133.599 256.682C133.756 256.522 133.879 256.331 133.959 256.122C134.039 255.912 134.075 255.689 134.065 255.465Z" fill="white"/>
<path d="M137.483 253.768V255.181H139.96V256.174H137.483V258.125H136.247V252.775H140.291V253.768H137.483Z" fill="white"/>
<path d="M144.4 253.786H142.685V252.775H147.344V253.786H145.636V258.125H144.4V253.786Z" fill="white"/>
<path d="M152.914 252.775V258.125H151.678V255.932H149.248V258.125H148.012V252.775H149.248V254.873H151.678V252.763L152.914 252.775Z" fill="white"/>
<path d="M158.324 257.132V258.125H154.185V252.775H158.223V253.768H155.415V254.95H157.898V255.914H155.415V257.15L158.324 257.132Z" fill="white"/>
<path d="M166.334 258.125V254.915L164.762 257.558H164.2L162.633 254.986V258.125H161.451V252.775H162.474L164.478 256.103L166.447 252.775H167.464V258.125H166.334Z" fill="white"/>
<path d="M168.427 255.465C168.389 254.872 168.531 254.282 168.833 253.771C169.135 253.26 169.584 252.852 170.122 252.6C170.659 252.347 171.26 252.263 171.847 252.357C172.433 252.451 172.977 252.72 173.408 253.128C173.84 253.536 174.138 254.064 174.265 254.644C174.392 255.224 174.342 255.829 174.12 256.38C173.898 256.93 173.516 257.402 173.022 257.732C172.529 258.062 171.948 258.236 171.354 258.232C170.977 258.254 170.6 258.198 170.246 258.069C169.892 257.94 169.568 257.739 169.293 257.48C169.019 257.221 168.801 256.908 168.652 256.562C168.503 256.215 168.427 255.842 168.427 255.465ZM173.027 255.465C173.02 255.136 172.916 254.816 172.728 254.545C172.54 254.275 172.276 254.066 171.97 253.945C171.664 253.823 171.329 253.795 171.006 253.864C170.684 253.932 170.389 254.094 170.159 254.33C169.928 254.565 169.773 254.863 169.711 255.187C169.649 255.51 169.684 255.845 169.812 256.149C169.94 256.452 170.154 256.711 170.428 256.894C170.703 257.076 171.025 257.173 171.354 257.173C171.578 257.179 171.802 257.139 172.01 257.055C172.218 256.971 172.406 256.844 172.563 256.684C172.72 256.524 172.842 256.333 172.922 256.123C173.002 255.913 173.038 255.689 173.027 255.465Z" fill="white"/>
<path d="M180.116 252.775V258.125H179.099L176.433 254.874V258.119H175.209V252.769H176.238L178.892 256.021V252.769L180.116 252.775Z" fill="white"/>
<path d="M182.493 253.786H180.778V252.775H185.437V253.786H183.728V258.125H182.493V253.786Z" fill="white"/>
<path d="M191.007 252.775V258.125H189.771V255.932H187.341V258.125H186.105V252.775H187.341V254.873H189.771V252.763L191.007 252.775Z" fill="white"/>
<path d="M187.193 240.495L187.435 243.7C187.464 244.117 187.64 244.511 187.932 244.811C188.279 245.183 188.75 245.416 189.256 245.467L191.621 245.668L189.079 245.923C188.895 245.939 188.719 246.007 188.57 246.118L188.399 246.254C187.915 246.676 187.614 247.269 187.559 247.909L187.382 249.807L187.187 248.033C187.147 247.653 187.02 247.286 186.814 246.963C186.609 246.64 186.332 246.369 186.005 246.171C185.874 246.096 185.729 246.051 185.579 246.041L182.759 245.816L185.195 245.591C185.674 245.554 186.123 245.344 186.46 245L186.649 244.77C186.862 244.492 186.986 244.156 187.004 243.806L187.193 240.495Z" fill="white"/>
</svg>
