<svg width="320" height="322" viewBox="0 0 320 322" fill="none" xmlns="http://www.w3.org/2000/svg">
<path fill-rule="evenodd" clip-rule="evenodd" d="M109.967 266.464C84.2284 262.147 50.2713 269.365 36.9189 244.968C23.4905 220.433 46.5529 186.999 49.9542 156.811C53.0049 129.735 41.8725 100.945 55.7844 77.5306C69.8763 53.8127 96.5142 44.3722 120.493 38.0888C142.336 32.3649 162.7 39.9608 184.044 43.9212C208.951 48.5425 236.79 45.183 255.486 63.1365C276.627 83.4379 291.355 113.794 291.038 146.665C290.715 180.194 276.552 215.278 253.789 239.2C232.692 261.371 202.828 262.995 175.398 268.195C152.946 272.451 131.842 270.133 109.967 266.464Z" fill="#C5CBF1"/>
<path d="M202.637 136.41C202.656 135.627 202.459 134.854 202.068 134.175C201.678 133.496 201.108 132.937 200.421 132.56C199.735 132.183 198.958 132.001 198.175 132.035C197.393 132.069 196.634 132.318 195.983 132.754C194.756 133.523 193.762 134.613 193.108 135.905C191.303 139.219 191.087 143.131 190.71 146.882C190.375 150.614 189.26 154.235 187.438 157.509L201.229 141.077C202.17 139.705 202.662 138.074 202.637 136.41Z" fill="#FFEEF2"/>
<g opacity="0.2">
<path opacity="0.2" d="M202.637 136.41C202.656 135.627 202.459 134.854 202.068 134.175C201.678 133.496 201.108 132.937 200.421 132.56C199.735 132.183 198.958 132.001 198.175 132.035C197.393 132.069 196.634 132.318 195.983 132.754C194.756 133.523 193.762 134.613 193.108 135.905C191.303 139.219 191.087 143.131 190.71 146.882C190.375 150.614 189.26 154.235 187.438 157.509L201.229 141.077C202.17 139.705 202.662 138.074 202.637 136.41Z" fill="black"/>
</g>
<path d="M186.838 127.434C187.653 128.107 214.509 158.937 214.509 158.937L199.983 170.473L181.531 147.475L186.838 127.434Z" fill="#FFBE9D"/>
<path d="M106.808 137.852C106.094 138.646 84.3962 167.482 84.3962 167.482L97.9793 182.203L114.647 157.038L106.808 137.852Z" fill="#FFBE9D"/>
<path d="M107.051 156.957C108.633 157.684 109.529 159.374 110.128 160.997C110.727 162.62 111.172 164.364 112.297 165.711C113.421 167.058 115.522 167.779 116.936 166.755C118.351 165.731 118.351 163.758 117.745 162.216C116.94 160.367 115.558 158.829 113.805 157.832C112.056 156.85 110.166 156.143 108.202 155.738" fill="#FFEEF2"/>
<g opacity="0.2">
<path opacity="0.2" d="M107.051 156.957C108.633 157.684 109.529 159.374 110.128 160.997C110.727 162.62 111.172 164.364 112.297 165.711C113.421 167.058 115.522 167.779 116.936 166.755C118.351 165.731 118.351 163.758 117.745 162.216C116.94 160.367 115.558 158.829 113.805 157.832C112.056 156.85 110.166 156.143 108.202 155.738" fill="black"/>
</g>
<path d="M233.305 215.269C232.819 215.137 232.323 215.042 231.823 214.986L177.693 192.285H123.886L70.8201 213.249C65.4326 215.04 57.7488 225.552 62.1059 238.112C62.2271 238.462 62.3551 238.785 62.483 239.129C65.9714 247.883 75.6485 252.409 84.7061 249.984C92.0398 248.025 102.572 245.156 113.414 242.186H114.633L148.392 232.61C153.679 234.071 164.79 237.135 177.141 240.529C192.151 244.657 208.987 249.284 219.378 252.038C228.463 254.469 238.147 249.917 241.601 241.182C241.736 240.853 241.857 240.509 241.978 240.166C246.376 227.573 238.692 217.06 233.305 215.269Z" fill="#455A64"/>
<path d="M147.975 232.69L148.163 232.623L148.709 232.455L150.85 231.828L158.931 229.525L158.837 229.687L153.45 209.888L153.631 210.03H148.129C146.224 210.03 144.271 210.205 142.277 210.285L129.819 210.959C114.424 211.855 100.511 212.898 90.4437 213.713L78.4903 214.683L75.2444 214.946L74.4026 215.006C74.3064 215.017 74.2093 215.017 74.113 215.006C74.2051 214.978 74.2999 214.96 74.3959 214.952L75.2377 214.858L78.4701 214.508C81.285 214.225 85.3525 213.834 90.383 213.39C100.444 212.494 114.364 211.403 129.758 210.508L142.223 209.834C144.244 209.753 146.176 209.612 148.082 209.592H153.793V209.74C155.887 217.619 157.699 224.441 159.059 229.572L159.093 229.694L158.972 229.727L150.891 231.916L148.729 232.475L148.17 232.61C148.111 232.649 148.044 232.677 147.975 232.69Z" fill="#263238"/>
<path d="M130.445 210.535C130.385 210.629 128.89 209.774 127.267 208.42C125.644 207.067 124.533 205.726 124.614 205.673C124.694 205.619 125.96 206.75 127.543 208.09C129.125 209.43 130.513 210.427 130.445 210.535Z" fill="#263238"/>
<path d="M226.921 217.229C226.674 217.246 226.426 217.246 226.18 217.229L224.059 217.101L216.26 216.569L190.556 214.818L164.81 213.262L157.005 212.804L154.864 212.663C154.618 212.657 154.372 212.632 154.13 212.589C154.376 212.565 154.624 212.565 154.871 212.589L156.999 212.656L164.804 212.979C171.403 213.282 180.508 213.767 190.562 214.414C200.617 215.06 209.708 215.727 216.287 216.266L224.079 216.939L226.193 217.141C226.438 217.147 226.681 217.177 226.921 217.229Z" fill="#263238"/>
<path d="M148.87 216.192C148.796 216.111 149.685 215.296 151.093 214.946C152.5 214.596 153.672 214.865 153.638 214.946C153.604 215.027 152.507 214.993 151.2 215.336C149.894 215.68 148.944 216.293 148.87 216.192Z" fill="#263238"/>
<path d="M150.338 219.613C150.338 219.491 151.308 219.283 152.534 219.134C153.759 218.986 154.77 218.966 154.783 219.081C154.796 219.195 153.813 219.417 152.588 219.559C151.362 219.7 150.352 219.727 150.338 219.613Z" fill="#263238"/>
<path d="M150.998 223.586C150.998 223.458 152.204 223.424 153.604 223.007C155.005 222.589 156.035 221.996 156.109 222.104C155.464 222.78 154.632 223.249 153.719 223.451C152.244 223.855 150.985 223.693 150.998 223.586Z" fill="#263238"/>
<path d="M152.318 227.855C152.318 227.727 153.47 227.64 154.776 227.135C156.083 226.63 157.026 225.963 157.1 226.064C157.174 226.165 156.325 227.027 154.931 227.539C153.537 228.051 152.312 227.97 152.318 227.855Z" fill="#263238"/>
<path d="M176.986 208.481C177.074 208.568 176.171 209.619 175.168 210.986C174.164 212.353 173.41 213.518 173.302 213.457C173.195 213.397 173.787 212.11 174.818 210.73C175.848 209.349 176.905 208.4 176.986 208.481Z" fill="#263238"/>
<path d="M153.827 209.787L140.931 207.834C140.931 207.834 139.759 204.797 137.772 204.642C135.786 204.488 133.947 206.663 132.499 206.548C131.051 206.434 113.731 200.588 112.741 208.434L119.947 211.404" fill="#FFBE9D"/>
<path d="M196.138 216.892L157.753 225.121L154.305 211.942L168.507 211.269C168.507 211.269 170.211 208.487 172.191 208.696C174.171 208.905 175.558 211.39 177.04 211.511C178.521 211.632 196.569 208.999 196.138 216.892Z" fill="#FFBE9D"/>
<path d="M123.213 193.618C123.213 193.618 123.105 193.679 122.883 193.78L121.893 194.238C121.024 194.642 119.731 195.214 118.061 195.935C114.694 197.376 109.852 199.363 103.811 201.767C97.7707 204.171 90.5718 206.986 82.6522 210.326C78.6925 211.989 74.4499 213.565 70.4093 215.888L69.6551 216.34C69.6068 216.366 69.5616 216.397 69.5204 216.434V216.387C69.6277 216.443 69.7439 216.479 69.8639 216.494C70.4387 216.585 71.0194 216.635 71.6013 216.643C72.7865 216.676 73.9785 216.643 75.1839 216.643C77.5948 216.582 80.0461 216.474 82.5176 216.346C92.4237 215.821 101.845 215.114 110.411 214.461L133.173 212.649L148.513 211.37L152.689 211.033L153.773 210.952C154.015 210.952 154.143 210.952 154.143 210.952C154.143 210.952 154.015 210.952 153.773 211.006L152.695 211.121L148.527 211.525L133.193 212.912C126.721 213.478 119.011 214.131 110.438 214.804C101.865 215.478 92.4439 216.191 82.5378 216.717C80.0596 216.845 77.6083 216.952 75.1974 217.006C73.9852 217.006 72.7865 217.047 71.5878 217.006C70.9879 217 70.3893 216.95 69.7965 216.858C69.622 216.831 69.4548 216.77 69.3049 216.676C69.2699 216.649 69.2415 216.614 69.2217 216.575C69.2019 216.535 69.1912 216.492 69.1904 216.447C69.1929 216.369 69.2241 216.295 69.278 216.239C69.3456 216.176 69.4202 216.122 69.5002 216.077L70.2544 215.626C74.3354 213.282 78.5915 211.72 82.5512 210.063C90.4775 206.737 97.6966 203.949 103.744 201.571C109.791 199.194 114.68 197.241 118.027 195.84L121.886 194.211L122.883 193.787L123.213 193.618Z" fill="white"/>
<path d="M176.306 193.618C176.392 193.636 176.476 193.665 176.555 193.706L177.275 194.009L180.023 195.194L190.124 199.497L223.6 213.478C226.828 214.721 229.977 216.16 233.028 217.787C233.399 217.989 233.762 218.198 234.113 218.414C234.302 218.518 234.485 218.635 234.658 218.764C234.707 218.81 234.752 218.86 234.793 218.912C234.821 218.951 234.84 218.994 234.851 219.041C234.861 219.087 234.862 219.135 234.853 219.181C234.853 219.303 234.773 219.343 234.712 219.41C234.658 219.448 234.602 219.482 234.544 219.511C233.738 219.726 232.906 219.828 232.072 219.814C230.456 219.848 228.88 219.814 227.358 219.727C221.223 219.431 215.715 218.926 211.088 218.501C206.462 218.077 202.731 217.666 200.152 217.383L197.182 217.04L196.407 216.939C196.321 216.931 196.235 216.915 196.152 216.892H196.414L197.189 216.952L200.165 217.235L211.115 218.239C215.742 218.629 221.25 219.114 227.378 219.39C228.907 219.451 230.476 219.505 232.092 219.464C232.882 219.477 233.67 219.384 234.436 219.188L234.53 219.134C234.53 219.134 234.571 219.101 234.53 219.134C234.49 219.168 234.53 219.087 234.449 219.033C234.369 218.979 234.133 218.825 233.951 218.717C233.601 218.508 233.244 218.299 232.88 218.097C229.838 216.487 226.703 215.056 223.493 213.814C210.415 208.359 198.576 203.403 190.05 199.74C185.788 197.908 182.346 196.372 179.949 195.329L177.255 194.09L176.548 193.753L176.306 193.618Z" fill="white"/>
<path d="M147.948 116.363C149.519 116.472 151.096 116.246 152.573 115.699C154.05 115.151 155.394 114.295 156.514 113.188C157.634 112.08 158.505 110.747 159.07 109.276C159.634 107.805 159.878 106.231 159.787 104.658C159.625 101.87 159.484 99.7424 159.484 99.7424C159.484 99.7424 168.272 98.3955 168.38 89.5938C168.487 80.7921 166.965 60.6365 166.965 60.6365C161.972 58.4932 156.496 57.722 151.105 58.4028C145.713 59.0835 140.602 61.1914 136.297 64.5087L134.991 65.5121L137.685 106.039C137.863 108.708 139 111.223 140.886 113.12C142.772 115.017 145.28 116.169 147.948 116.363Z" fill="#FFBE9D"/>
<path d="M159.504 99.6347C155.449 99.7098 151.465 98.5776 148.055 96.3821C148.055 96.3821 150.749 102.706 159.504 101.911V99.6347Z" fill="#EB996E"/>
<path d="M136.075 74.6102C135.927 74.5428 130.014 72.8256 130.237 78.8258C130.459 84.8261 136.412 83.3984 136.419 83.23C136.425 83.0617 136.075 74.6102 136.075 74.6102Z" fill="#FFBE9D"/>
<path d="M134.513 81.0279C134.513 81.0279 134.412 81.102 134.237 81.1895C133.991 81.3024 133.712 81.3168 133.456 81.23C132.782 81.0145 132.244 80.0245 132.183 78.947C132.152 78.4325 132.235 77.9176 132.425 77.4386C132.477 77.2498 132.573 77.0761 132.705 76.9319C132.838 76.7878 133.003 76.6775 133.186 76.6102C133.306 76.5747 133.434 76.5822 133.548 76.6314C133.663 76.6807 133.756 76.7685 133.813 76.8796C133.9 77.0412 133.866 77.1625 133.9 77.1759C133.934 77.1894 134.021 77.0682 133.968 76.8257C133.933 76.6759 133.844 76.544 133.718 76.4554C133.636 76.3952 133.542 76.3522 133.442 76.3291C133.343 76.306 133.24 76.3031 133.139 76.3207C132.894 76.3761 132.667 76.4939 132.481 76.6626C132.294 76.8313 132.155 77.0452 132.075 77.2837C131.835 77.8108 131.729 78.3891 131.765 78.9672C131.839 80.1794 132.499 81.2906 133.375 81.5128C133.537 81.556 133.707 81.5615 133.872 81.5288C134.036 81.4962 134.191 81.4262 134.324 81.3242C134.506 81.1693 134.533 81.0347 134.513 81.0279Z" fill="#EB996E"/>
<path d="M147.2 73.6875C147.355 73.5192 148.305 74.2263 149.658 74.2196C151.012 74.2128 151.995 73.5461 152.143 73.7077C152.291 73.8694 152.056 74.0781 151.625 74.3812C151.033 74.7946 150.326 75.0092 149.604 74.994C148.903 74.9984 148.219 74.779 147.651 74.3677C147.267 74.0512 147.126 73.7549 147.2 73.6875Z" fill="#263238"/>
<path d="M160.467 73.4317C160.622 73.2701 161.571 73.9704 162.925 73.9704C164.278 73.9704 165.262 73.297 165.41 73.4586C165.477 73.526 165.322 73.8223 164.891 74.1321C164.297 74.5393 163.591 74.7533 162.871 74.7449C162.17 74.7423 161.487 74.521 160.918 74.1118C160.534 73.8021 160.393 73.5058 160.467 73.4317Z" fill="#263238"/>
<path d="M156.931 83.2838C157.643 83.0591 158.381 82.9256 159.127 82.8865C159.47 82.8528 159.8 82.7855 159.854 82.5498C159.884 82.1932 159.804 81.8361 159.625 81.5262L158.608 78.8998C157.194 75.169 156.164 72.0915 156.318 72.0376C156.473 71.9837 157.739 74.967 159.154 78.7045L160.13 81.3443C160.347 81.7581 160.409 82.2357 160.305 82.6912C160.257 82.8138 160.181 82.9233 160.082 83.0111C159.984 83.0988 159.867 83.1622 159.739 83.1963C159.549 83.2498 159.352 83.2769 159.154 83.2771C158.416 83.3705 157.669 83.3728 156.931 83.2838Z" fill="#263238"/>
<path d="M152.965 84.2132C153.18 84.2132 153.187 85.6678 154.439 86.7049C155.692 87.742 157.254 87.5871 157.261 87.7891C157.261 87.8834 156.918 88.0787 156.258 88.0922C155.399 88.1085 154.563 87.8171 153.901 87.2706C153.26 86.7516 152.849 86.002 152.756 85.183C152.702 84.5701 152.843 84.2065 152.965 84.2132Z" fill="#263238"/>
<path d="M152.386 69.3573C152.251 69.7276 150.904 69.5526 149.321 69.7411C147.739 69.9297 146.459 70.3674 146.244 70.0374C146.156 69.8758 146.379 69.5324 146.917 69.1754C147.612 68.7362 148.398 68.4617 149.215 68.373C150.032 68.2843 150.859 68.3837 151.631 68.6636C152.17 68.8993 152.439 69.1822 152.386 69.3573Z" fill="#263238"/>
<path d="M164.804 70.6504C164.568 70.9534 163.639 70.6504 162.521 70.6504C161.403 70.6504 160.453 70.8524 160.238 70.5359C160.144 70.3743 160.292 70.0713 160.702 69.7817C161.258 69.4322 161.906 69.2563 162.562 69.2767C163.218 69.2971 163.853 69.5128 164.386 69.8962C164.783 70.179 164.911 70.4955 164.804 70.6504Z" fill="#263238"/>
<path d="M171.242 55.121C171.303 54.5764 171.225 54.025 171.016 53.5186C170.806 53.0121 170.471 52.5671 170.043 52.2253C169.602 51.9016 169.059 51.7461 168.514 51.7869C167.968 51.8276 167.455 52.0619 167.066 52.4475C167.147 52.0806 167.15 51.7008 167.075 51.3327C167 50.9645 166.849 50.616 166.632 50.3097C166.414 50.0034 166.135 49.746 165.812 49.554C165.489 49.362 165.13 49.2397 164.757 49.1949C163.329 49.1073 162.103 50.1848 160.716 50.5417C159.333 50.8314 157.894 50.6636 156.615 50.0636C155.315 49.5451 154.103 48.8178 152.783 48.3396C150.003 47.3247 146.935 47.4479 144.245 48.6824C141.556 49.9169 139.462 52.1629 138.419 54.9325C136.5 54.3331 134.318 55.3096 133.132 56.9528C132.012 58.6488 131.565 60.7023 131.88 62.7106C132.069 64.0565 132.406 65.3776 132.883 66.6501C132.883 66.7646 132.883 66.8791 132.883 66.9868C132.971 71.8153 133.523 77.4923 135.577 77.5192C139.173 77.5731 138.318 70.785 138.318 70.785C142.722 69.0812 141.079 62.4749 142.183 61.4782C143.288 60.4815 145.591 58.1111 154.817 62.8655C158.399 64.6972 163.161 64.6366 165.76 64.044L165.989 64.0035H166.043C166.071 63.9965 166.099 63.9851 166.124 63.9699C166.959 63.7617 167.757 63.4231 168.487 62.9665C169.351 62.4684 170.035 61.7092 170.44 60.798C170.63 60.3401 170.683 59.8371 170.593 59.3497C170.504 58.8623 170.275 58.4111 169.935 58.0505C170.645 57.2211 171.099 56.2034 171.242 55.121Z" fill="#263238"/>
<path d="M162.474 43.6326C162.474 43.6326 162.541 43.7134 162.642 43.875C162.786 44.1106 162.903 44.3613 162.992 44.6225C163.33 45.5942 163.395 46.64 163.181 47.6462C162.891 49.164 162.021 50.5094 160.756 51.3972C159.288 52.3737 157.275 52.5622 155.369 52.2726C153.463 51.9831 151.665 51.3568 150.029 51.0201C148.599 50.6548 147.104 50.6179 145.658 50.9123C144.686 51.1297 143.786 51.5935 143.045 52.2592C142.533 52.744 142.372 53.0942 142.311 53.074C142.251 53.0538 142.311 52.9797 142.439 52.8114C142.584 52.5684 142.756 52.3425 142.951 52.138C143.684 51.4167 144.602 50.9131 145.604 50.6834C147.081 50.3293 148.62 50.3293 150.096 50.6834C151.759 51.0066 153.517 51.6329 155.416 51.9023C157.182 52.2671 159.02 51.9851 160.595 51.1076C161.8 50.2772 162.641 49.0168 162.945 47.5856C163.172 46.6189 163.146 45.6102 162.871 44.6562C162.655 43.9827 162.44 43.6326 162.474 43.6326Z" fill="#455A64"/>
<path d="M160.197 45.2688C160.377 45.4437 160.52 45.6531 160.617 45.8845C160.715 46.116 160.764 46.3646 160.763 46.6157C160.808 47.1624 160.706 47.7112 160.467 48.2049C160.169 48.8071 159.7 49.3084 159.12 49.6461C158.541 49.981 157.889 50.1683 157.221 50.1916C156.682 50.211 156.145 50.1381 155.631 49.9761C155.151 49.8638 154.706 49.6322 154.338 49.3026C154.338 49.2555 154.85 49.5249 155.685 49.7336C156.778 50.0227 157.94 49.8804 158.931 49.3363C159.459 49.0334 159.892 48.5906 160.184 48.0568C160.412 47.6134 160.527 47.1209 160.52 46.6224C160.481 46.1575 160.372 45.7012 160.197 45.2688Z" fill="#263238"/>
<path d="M190.953 189.847C191.054 191.167 190.759 192.486 190.106 193.638C189.454 194.789 188.473 195.72 187.289 196.312L177.693 192.271L165.861 193.066L170.528 180.392C170.528 180.392 183.821 182.022 185.7 183.53C187.579 185.039 191.101 187.854 190.953 189.847Z" fill="#FFEEF2"/>
<g opacity="0.4">
<path opacity="0.4" d="M190.953 189.847C191.054 191.167 190.759 192.486 190.106 193.638C189.454 194.789 188.473 195.72 187.289 196.312L177.693 192.271L165.861 193.066L170.528 180.392C170.528 180.392 183.821 182.022 185.7 183.53C187.579 185.039 191.101 187.854 190.953 189.847Z" fill="black"/>
</g>
<path d="M190.953 189.847C191.054 191.167 190.759 192.486 190.106 193.638C189.454 194.789 188.473 195.72 187.289 196.312L177.693 192.271L165.861 193.066L170.528 180.392C170.528 180.392 183.821 182.022 185.7 183.53C187.579 185.039 191.101 187.854 190.953 189.847Z" fill="#FFEEF2"/>
<g opacity="0.4">
<path opacity="0.4" d="M190.953 189.847C191.054 191.167 190.759 192.486 190.106 193.638C189.454 194.789 188.473 195.72 187.289 196.312L177.693 192.271L165.861 193.066L170.528 180.392C170.528 180.392 183.821 182.022 185.7 183.53C187.579 185.039 191.101 187.854 190.953 189.847Z" fill="black"/>
</g>
<path d="M200.92 132.902L199.983 132.067L179.68 116.167C173.41 109.507 168.851 107.5 160.036 106.456C158.595 106.288 160.864 106.564 160.036 106.456C153.302 108.537 144.217 108.739 137.449 106.652C134.318 106.78 131.718 107.749 129.051 108.261C120.647 109.871 116.155 115.803 112.923 121.642L96.6663 148.909L97.3397 149.987C99.6111 153.496 102.992 156.144 106.943 157.509L108.034 158.054C111.86 159.875 115.16 162.64 117.623 166.088L124.782 153.583L122.762 173.624L121.374 193.308C130.92 196.035 140.825 197.297 150.749 197.052C164.891 197.12 184.596 179.887 190.953 189.847C191.04 184.742 184.616 177.725 182.831 174.358C177.302 163.832 178.34 159.576 177.942 151.677L187.438 157.502L189.141 154.169C190.582 151.354 193.33 145.084 194.354 140.202C194.354 140.208 195.472 131.09 200.92 132.902Z" fill="#FFEEF2"/>
<path d="M124.822 133.387C124.882 133.657 124.907 133.933 124.896 134.209C124.896 134.741 124.937 135.508 124.95 136.458C124.95 138.35 124.991 140.97 124.95 143.865C124.91 146.761 124.903 149.381 124.856 151.273C124.856 152.223 124.809 152.99 124.782 153.522C124.788 153.799 124.761 154.074 124.701 154.344C124.642 154.074 124.617 153.798 124.627 153.522C124.627 152.99 124.587 152.223 124.573 151.273C124.573 149.381 124.539 146.761 124.573 143.865C124.607 140.97 124.62 138.357 124.661 136.458C124.661 135.515 124.708 134.747 124.735 134.215C124.729 133.937 124.759 133.658 124.822 133.387Z" fill="#263238"/>
<path d="M179.107 165.173C179.016 164.754 178.96 164.328 178.939 163.9C178.858 163.011 178.757 161.839 178.629 160.418C178.38 157.482 178.07 153.415 177.753 148.923C177.437 144.431 177.167 140.364 176.999 137.421C176.918 136 176.858 134.821 176.811 133.932C176.777 133.504 176.777 133.074 176.811 132.646C176.902 133.065 176.958 133.491 176.979 133.919C177.06 134.808 177.167 135.98 177.289 137.401C177.538 140.344 177.848 144.404 178.164 148.896C178.481 153.388 178.75 157.455 178.925 160.398C178.999 161.819 179.06 162.998 179.107 163.893C179.141 164.319 179.141 164.747 179.107 165.173Z" fill="#263238"/>
<g opacity="0.2">
<path opacity="0.2" d="M134.863 107.352C139.197 113.432 144.784 118.511 151.248 122.248C153.605 123.595 156.143 124.807 158.857 125.03C163.538 125.407 167.949 122.855 171.578 119.878C173.013 118.706 174.434 117.373 175.04 115.622C175.646 113.871 175.174 111.581 173.538 110.746C172.954 110.487 172.318 110.363 171.679 110.384C171.04 110.405 170.414 110.57 169.848 110.868C168.719 111.462 167.65 112.163 166.656 112.962C164.31 114.613 161.657 115.777 158.854 116.384C156.051 116.991 153.155 117.03 150.336 116.497C147.518 115.965 144.835 114.872 142.447 113.284C140.059 111.696 138.013 109.644 136.432 107.251" fill="black"/>
</g>
<path d="M162.945 155.772C162.872 154.819 162.728 153.874 162.514 152.943C162.239 151.86 161.801 150.824 161.214 149.872C160.447 148.61 159.449 147.504 158.272 146.613C156.741 145.451 154.942 144.694 153.041 144.41C151.141 144.127 149.199 144.326 147.396 144.99C146.354 145.359 145.375 145.886 144.493 146.552C143.56 147.23 142.741 148.053 142.069 148.99C140.625 150.955 139.847 153.33 139.847 155.768C139.847 158.207 140.625 160.581 142.069 162.546C142.741 163.483 143.56 164.306 144.493 164.984C145.375 165.651 146.354 166.178 147.396 166.546C149.193 167.203 151.127 167.399 153.02 167.115C154.913 166.832 156.705 166.078 158.231 164.923C159.409 164.032 160.407 162.926 161.174 161.664C161.76 160.712 162.198 159.677 162.474 158.593C162.687 157.665 162.831 156.721 162.905 155.772C162.912 155.834 162.912 155.897 162.905 155.96C162.905 156.102 162.905 156.283 162.905 156.512C162.906 156.815 162.881 157.117 162.831 157.415C162.787 157.824 162.713 158.229 162.608 158.627C162.355 159.73 161.93 160.787 161.349 161.758C160.505 163.198 159.363 164.441 157.999 165.404C156.636 166.367 155.082 167.027 153.443 167.341C151.371 167.736 149.231 167.567 147.248 166.849C146.174 166.475 145.166 165.937 144.258 165.253C143.293 164.561 142.449 163.714 141.759 162.748C140.264 160.728 139.457 158.281 139.457 155.768C139.457 153.255 140.264 150.808 141.759 148.788C142.115 148.314 142.502 147.864 142.917 147.441C143.342 147.034 143.792 146.654 144.264 146.303C145.173 145.621 146.182 145.083 147.254 144.707C149.239 143.993 151.378 143.823 153.45 144.216C155.089 144.529 156.643 145.19 158.006 146.152C159.37 147.115 160.512 148.358 161.356 149.798C161.936 150.77 162.361 151.827 162.615 152.93C162.719 153.328 162.794 153.733 162.837 154.142C162.888 154.44 162.912 154.742 162.911 155.044C162.911 155.273 162.911 155.455 162.911 155.603C162.928 155.658 162.94 155.714 162.945 155.772Z" fill="white"/>
<path d="M150.918 167.395C150.817 167.395 150.742 162.189 150.742 155.765C150.742 149.34 150.817 144.142 150.918 144.142C151.019 144.142 151.093 149.34 151.093 155.765C151.093 162.189 151.012 167.395 150.918 167.395Z" fill="white"/>
<path d="M160.5 162.829C160.224 162.674 159.963 162.493 159.719 162.29L157.699 160.728C155.975 159.381 153.618 157.529 151.032 155.455L150.823 155.293H151.052C148.682 157.522 146.527 159.522 144.958 160.95L143.086 162.634C142.868 162.85 142.629 163.044 142.372 163.213C142.555 162.968 142.763 162.743 142.991 162.539L144.762 160.809C146.284 159.334 148.412 157.3 150.823 155.071L150.931 154.963L151.052 155.058L151.254 155.226C153.847 157.3 156.177 159.192 157.861 160.573C158.649 161.246 159.315 161.792 159.834 162.223C160.073 162.405 160.297 162.608 160.5 162.829Z" fill="white"/>
<g opacity="0.2">
<path opacity="0.2" d="M141.321 186.877C146.268 187.75 151.36 187.243 156.038 185.413C160.716 183.582 164.8 180.498 167.841 176.5C168.81 175.2 169.699 173.604 169.295 172.035C168.891 170.466 167.086 169.375 165.396 169.415C163.694 169.562 162.096 170.292 160.871 171.483C157.786 174.176 156.022 178.143 152.944 180.857C150.162 183.293 146.536 184.543 142.843 184.338C142.279 184.297 141.712 184.319 141.153 184.406C140.819 184.455 140.511 184.614 140.278 184.858C140.045 185.102 139.9 185.417 139.866 185.753C139.866 186.426 140.392 186.709 141.314 186.884" fill="black"/>
</g>
<g opacity="0.2">
<path opacity="0.2" d="M177.1 139.421L177.935 151.684L187.437 157.502L189.424 153.805L177.1 139.421Z" fill="black"/>
</g>
<path d="M201.101 133.097C200.732 132.98 200.35 132.906 199.963 132.875C198.904 132.866 197.88 133.25 197.088 133.952C195.95 135.043 195.169 136.451 194.845 137.993C194.381 139.71 193.936 141.643 193.317 143.623C192.283 147.009 191.014 150.319 189.518 153.529C188.946 154.761 188.441 155.738 188.084 156.404C187.916 156.761 187.715 157.101 187.485 157.421C187.621 157.052 187.781 156.693 187.963 156.344C188.279 155.67 188.751 154.667 189.31 153.428C190.732 150.201 191.962 146.894 192.993 143.522C193.613 141.549 194.057 139.643 194.549 137.899C194.903 136.31 195.741 134.87 196.946 133.777C197.791 133.063 198.878 132.699 199.983 132.76C200.281 132.78 200.572 132.85 200.845 132.969C200.936 133.001 201.022 133.044 201.101 133.097Z" fill="#263238"/>
<path d="M117.617 166.088C117.377 165.823 117.152 165.544 116.943 165.253C116.326 164.49 115.67 163.76 114.977 163.065C113.952 162.037 112.811 161.133 111.576 160.371C110.189 159.496 108.566 158.701 106.862 157.839C105.255 157.036 103.699 156.137 102.202 155.145C100.976 154.326 99.846 153.37 98.8346 152.297C98.1592 151.569 97.5757 150.762 97.0972 149.893C96.9639 149.657 96.8447 149.415 96.7403 149.165C96.6662 148.997 96.6325 148.909 96.646 148.903C97.3102 150.065 98.1056 151.147 99.0164 152.128C100.037 153.162 101.166 154.083 102.384 154.876C103.88 155.844 105.429 156.727 107.023 157.522C108.714 158.384 110.35 159.193 111.737 160.095C112.982 160.883 114.122 161.824 115.132 162.896C115.817 163.61 116.452 164.37 117.031 165.173C117.233 165.455 117.388 165.678 117.482 165.846C117.536 165.921 117.582 166.002 117.617 166.088Z" fill="#263238"/>
<path d="M171.45 170.163C171.429 170.295 171.39 170.424 171.336 170.547C171.235 170.796 171.12 171.173 170.905 171.631C170.342 172.944 169.666 174.206 168.885 175.402C166.322 179.398 162.752 182.647 158.534 184.824C154.315 187 149.598 188.027 144.857 187.8C143.43 187.739 142.01 187.556 140.614 187.254C140.122 187.16 139.745 187.039 139.489 186.978C139.355 186.949 139.224 186.907 139.099 186.85C139.236 186.852 139.372 186.872 139.503 186.911C139.766 186.951 140.176 187.052 140.641 187.126C142.036 187.37 143.448 187.511 144.863 187.551C149.552 187.71 154.203 186.665 158.372 184.515C162.541 182.364 166.088 179.18 168.676 175.267C169.467 174.091 170.17 172.858 170.777 171.577C171.006 171.126 171.141 170.762 171.262 170.52C171.313 170.395 171.376 170.275 171.45 170.163Z" fill="#263238"/>
<g opacity="0.2">
<path opacity="0.2" d="M118.216 164.674C118.995 154.871 121.221 145.238 124.822 136.087V153.515L118.216 164.674Z" fill="black"/>
</g>
<path d="M134.52 107.002C137.469 113.325 145.294 116.915 152.123 118.235C155.566 118.868 159.11 118.691 162.472 117.717C165.835 116.744 168.925 115 171.497 112.625C175.807 108.584 178.346 102.975 182.36 98.6312C185.846 94.9541 190.277 92.3072 195.167 90.9804C200.057 89.6537 205.218 89.6981 210.085 91.109L210.617 81.5464C207.344 79.4251 198.919 78.6574 195.067 79.2365C187.392 80.4279 180.456 84.4883 175.659 90.5972C171.43 96.0385 168.925 103.035 163.329 107.036C159.288 109.925 154.244 109.945 149.335 109.116C144.426 108.288 141.112 103.796 137.321 100.571L134.52 107.002Z" fill="#263238"/>
<path d="M137.267 100.577C138.549 102.206 140.14 103.566 141.948 104.58C143.756 105.593 145.746 106.24 147.804 106.484C149.862 106.728 151.948 106.564 153.943 106.001C155.938 105.438 157.802 104.488 159.43 103.204C160.305 102.53 161.45 101.675 162.413 102.194C163.181 102.598 163.369 103.588 163.47 104.443C163.706 106.423 163.894 108.611 162.729 110.228C161.564 111.844 159.578 112.322 157.692 112.645C153.221 113.386 148.473 113.319 144.325 111.494C140.176 109.669 137.624 105.103 137.267 100.577Z" fill="#263238"/>
<path d="M165.255 105.419C165.192 105.512 165.117 105.595 165.033 105.669C164.878 105.817 164.662 106.052 164.359 106.342C163.476 107.103 162.511 107.765 161.484 108.315C159.955 109.135 158.304 109.704 156.595 109.999C154.495 110.365 152.344 110.298 150.271 109.803C148.219 109.255 146.262 108.399 144.466 107.265C143.631 106.766 142.85 106.288 142.123 105.81C141.453 105.362 140.814 104.869 140.21 104.335C139.325 103.576 138.548 102.699 137.9 101.729C137.727 101.464 137.572 101.187 137.436 100.901C137.341 100.705 137.301 100.598 137.314 100.591C137.328 100.584 137.543 100.988 137.988 101.648C138.668 102.577 139.459 103.418 140.345 104.153C140.956 104.659 141.594 105.131 142.257 105.568C142.978 106.025 143.772 106.497 144.608 106.988C146.383 108.087 148.309 108.919 150.325 109.46C152.352 109.946 154.457 110.022 156.514 109.682C158.196 109.405 159.824 108.869 161.342 108.093C162.369 107.572 163.342 106.949 164.245 106.234C164.567 105.945 164.904 105.673 165.255 105.419Z" fill="#455A64"/>
<path d="M176.831 105.473C175.479 104.882 174.166 104.207 172.898 103.453C171.572 102.806 170.288 102.077 169.053 101.271C170.458 101.76 171.812 102.387 173.094 103.143C174.41 103.8 175.662 104.58 176.831 105.473Z" fill="#455A64"/>
<path d="M181.525 99.3584C180.037 98.7326 178.594 98.0035 177.208 97.1765C175.769 96.4443 174.382 95.6117 173.06 94.6848C174.551 95.3039 175.994 96.0332 177.376 96.8667C178.818 97.5959 180.204 98.4286 181.525 99.3584Z" fill="#455A64"/>
<path d="M186.064 94.2944C185.656 94.0143 185.281 93.689 184.946 93.3246L182.367 90.8734L179.781 88.4423C179.4 88.1277 179.055 87.7733 178.75 87.385C179.18 87.6279 179.58 87.9194 179.942 88.2537C180.616 88.8329 181.606 89.6612 182.636 90.6175C183.666 91.5737 184.535 92.4761 185.148 93.1495C185.499 93.492 185.807 93.8765 186.064 94.2944Z" fill="#455A64"/>
<path d="M186.75 81.6946C187.114 82.1259 187.437 82.5903 187.713 83.0818C188.387 84.0583 189.094 85.2166 189.922 86.4894C190.751 87.7622 191.518 88.907 192.165 89.8565C192.506 90.3077 192.799 90.7929 193.04 91.3044C192.632 90.9121 192.269 90.4763 191.956 90.0047C191.33 89.1696 190.501 87.9844 189.626 86.6375C188.751 85.2907 188.017 84.065 187.505 83.1627C187.197 82.7045 186.944 82.2118 186.75 81.6946Z" fill="#455A64"/>
<path d="M197.324 79.7014C197.504 80.1875 197.635 80.6906 197.714 81.2032C197.957 82.2739 198.233 83.4995 198.542 84.8599C198.852 86.2202 199.169 87.4324 199.431 88.4964C199.593 88.9905 199.699 89.5009 199.748 90.0183C199.505 89.5577 199.32 89.0692 199.196 88.5637C198.899 87.6479 198.522 86.3683 198.199 84.9407C197.876 83.513 197.62 82.1998 197.472 81.2503C197.356 80.7424 197.307 80.2219 197.324 79.7014Z" fill="#455A64"/>
<path d="M205.6 79.5798C205.701 79.5798 205.66 81.856 205.802 84.6507C205.943 87.4455 206.199 89.7014 206.098 89.7149C205.931 89.2436 205.827 88.7522 205.788 88.2536C205.654 87.3377 205.519 86.0717 205.452 84.6642C205.384 83.2568 205.391 81.9705 205.452 81.0681C205.438 80.5678 205.488 80.0677 205.6 79.5798Z" fill="#455A64"/>
<path d="M170.804 113.137C169.553 112.163 168.376 111.098 167.282 109.951C166.11 108.884 165.016 107.734 164.009 106.51C165.259 107.488 166.436 108.555 167.531 109.702C168.706 110.764 169.8 111.912 170.804 113.137Z" fill="#455A64"/>
<path d="M161.295 118.039C160.702 116.657 160.214 115.232 159.834 113.777C159.342 112.354 158.964 110.895 158.702 109.413C159.301 110.794 159.792 112.219 160.17 113.676C160.659 115.099 161.035 116.558 161.295 118.039Z" fill="#455A64"/>
<path d="M150.716 117.898C150.812 116.564 151.026 115.241 151.355 113.945C151.571 112.624 151.9 111.324 152.339 110.059C152.238 111.393 152.024 112.715 151.699 114.012C151.483 115.333 151.154 116.633 150.716 117.898Z" fill="#455A64"/>
<path d="M142.742 114.854C142.995 113.628 143.426 112.446 144.022 111.345C144.519 110.195 145.179 109.123 145.981 108.16C146.069 108.221 145.227 109.655 144.338 111.527C143.449 113.399 142.83 114.888 142.742 114.854Z" fill="#455A64"/>
<path d="M140.527 104.678C140.158 105.763 139.639 106.79 138.984 107.729C138.436 108.727 137.757 109.646 136.964 110.463C137.483 109.452 138.068 108.476 138.715 107.541C139.255 106.548 139.86 105.592 140.527 104.678Z" fill="#455A64"/>
<path d="M149.436 106.706C149.53 106.706 149.47 107.265 149.402 107.918C149.335 108.571 149.281 109.103 149.18 109.11C149.079 109.116 148.978 108.558 149.052 107.877C149.126 107.197 149.342 106.679 149.436 106.706Z" fill="#455A64"/>
<path d="M156.015 109.844C155.726 109.159 155.569 108.425 155.551 107.682C155.407 106.955 155.407 106.207 155.551 105.48C155.752 106.186 155.865 106.914 155.887 107.648C156.024 108.372 156.067 109.11 156.015 109.844Z" fill="#455A64"/>
<path d="M160.743 102.719C160.97 103.603 161.13 104.504 161.221 105.413C161.429 106.299 161.569 107.199 161.638 108.106C160.924 106.405 160.617 104.56 160.743 102.719Z" fill="#455A64"/>
<path d="M99.6425 181.281L141.9 156.768C143.484 155.851 144.812 154.55 145.761 152.985C146.709 151.419 147.248 149.64 147.328 147.812L148.446 122.08C148.448 121.747 148.326 121.425 148.105 121.176C147.884 120.928 147.578 120.77 147.247 120.733C146.94 120.71 146.633 120.793 146.38 120.968C146.126 121.143 145.94 121.4 145.853 121.696L140.466 141.003L90.1539 162.311C88.8162 162.878 87.6091 163.714 86.6069 164.766C85.6048 165.818 84.8289 167.064 84.3272 168.428C83.8255 169.792 83.6087 171.244 83.69 172.695C83.7714 174.145 84.1492 175.564 84.8002 176.863C85.4517 178.159 86.3616 179.308 87.4737 180.239C88.5858 181.171 89.8767 181.865 91.267 182.278C92.6573 182.692 94.1175 182.817 95.5579 182.646C96.9982 182.474 98.3883 182.01 99.6425 181.281Z" fill="#FFBE9D"/>
<path d="M140.452 140.99C140.296 141.085 140.134 141.17 139.968 141.246L138.553 141.919L133.314 144.316C128.876 146.337 122.721 149.03 115.879 151.926C109.037 154.822 102.794 157.314 98.2554 159.098C95.9927 159.98 94.1475 160.681 92.868 161.118L91.3932 161.657C91.2248 161.731 91.0485 161.785 90.8679 161.819C91.0297 161.733 91.1961 161.657 91.3663 161.59L92.8141 160.991C94.1138 160.472 95.9254 159.731 98.1611 158.829C102.673 157.011 108.896 154.458 115.738 151.569C122.58 148.68 128.748 146 133.206 144.054L138.493 141.757L139.941 141.145C140.106 141.077 140.277 141.025 140.452 140.99Z" fill="#EB996E"/>
<path d="M85.9856 179.079C85.9856 179.045 86.5513 178.985 87.5412 178.742C88.1425 178.591 88.7269 178.378 89.2854 178.109C90.0147 177.734 90.7089 177.295 91.3595 176.796C92.0936 176.244 92.9017 175.638 93.7435 174.971C94.5853 174.304 95.4675 173.55 96.39 172.762C98.3458 170.969 100.52 169.431 102.862 168.183C105.251 167.007 107.834 166.275 110.485 166.021C112.647 165.821 114.826 165.932 116.957 166.351C118.387 166.641 119.784 167.079 121.125 167.657C121.596 167.86 121.947 168.055 122.189 168.176C122.318 168.227 122.438 168.297 122.546 168.385C122.414 168.346 122.286 168.297 122.162 168.237C121.906 168.142 121.549 167.961 121.071 167.779C119.723 167.258 118.33 166.864 116.909 166.6C114.802 166.216 112.65 166.13 110.519 166.344C107.91 166.613 105.37 167.342 103.017 168.499C100.702 169.736 98.5465 171.252 96.5988 173.011C95.6695 173.792 94.7806 174.533 93.9051 175.2C93.0296 175.867 92.235 176.452 91.4808 176.991C90.8117 177.491 90.097 177.926 89.346 178.291C88.7703 178.546 88.1701 178.743 87.5547 178.877C87.0496 178.978 86.6523 179.032 86.3762 179.059C86.2473 179.081 86.1161 179.088 85.9856 179.079Z" fill="#263238"/>
<path d="M94.0938 175.106C94.0938 175.106 94.1342 175.348 94.2352 175.779C94.387 176.348 94.6761 176.87 95.077 177.301C95.6687 177.942 96.4087 178.427 97.2319 178.715C98.243 179.046 99.3392 179.006 100.323 178.601L100.613 178.466L100.532 178.688C100.134 177.737 99.4931 176.908 98.6731 176.284C98.0039 175.777 97.2315 175.423 96.4103 175.247C95.6459 175.113 94.8677 175.074 94.0938 175.132C94.2865 175.042 94.4942 174.987 94.7066 174.971C95.2883 174.889 95.8793 174.9 96.4575 175.005C97.3267 175.157 98.1493 175.507 98.8616 176.028C99.7552 176.667 100.454 177.541 100.882 178.554L100.949 178.708L100.801 178.776L100.485 178.924C99.413 179.371 98.214 179.407 97.1174 179.025C96.2505 178.705 95.4806 178.166 94.8817 177.463C94.4762 176.99 94.2042 176.418 94.0938 175.806C94.04 175.576 94.04 175.336 94.0938 175.106Z" fill="#263238"/>
<path d="M94.0938 175.105C94.8342 175.338 95.5373 175.676 96.1814 176.109C96.8831 176.445 97.5283 176.888 98.0939 177.422C97.3535 177.19 96.6504 176.852 96.0063 176.419C95.3045 176.083 94.6593 175.64 94.0938 175.105Z" fill="#263238"/>
<path d="M100.458 169.873C100.566 170.065 100.662 170.263 100.747 170.466C101.026 170.984 101.426 171.427 101.912 171.759C102.638 172.242 103.469 172.545 104.336 172.641C105.397 172.73 106.455 172.439 107.32 171.819L107.569 171.617V171.853C106.963 171.021 106.151 170.362 105.212 169.94C104.442 169.602 103.608 169.434 102.767 169.449C101.991 169.49 101.224 169.633 100.484 169.873C100.653 169.74 100.845 169.639 101.05 169.577C101.596 169.36 102.174 169.235 102.761 169.206C103.641 169.15 104.522 169.303 105.333 169.651C106.345 170.079 107.219 170.778 107.858 171.671L107.953 171.806L107.825 171.907C107.737 171.974 107.65 172.055 107.549 172.122C106.616 172.792 105.472 173.098 104.33 172.984C103.414 172.869 102.543 172.524 101.798 171.981C101.296 171.613 100.901 171.118 100.653 170.547C100.543 170.338 100.476 170.108 100.458 169.873Z" fill="#263238"/>
<path d="M100.458 169.873C101.235 169.923 102 170.091 102.727 170.371C103.485 170.541 104.213 170.823 104.889 171.206C103.352 170.983 101.858 170.529 100.458 169.86V169.873Z" fill="#263238"/>
<path d="M89.2855 178.076C89.2855 178.076 89.4471 177.894 89.703 177.564C90.0549 177.095 90.2862 176.547 90.3765 175.968C90.5234 175.109 90.4563 174.228 90.1812 173.402C89.8272 172.398 89.1246 171.555 88.2013 171.025L87.9184 170.877L88.1407 170.803C87.6722 171.617 87.4084 172.532 87.372 173.471C87.3357 174.409 87.5278 175.342 87.9319 176.19C88.2984 176.88 88.751 177.52 89.2788 178.096C89.0876 177.998 88.9164 177.866 88.7737 177.705C87.7197 176.663 87.1092 175.254 87.0699 173.772C87.0414 172.679 87.3114 171.599 87.8511 170.648L87.9319 170.5L88.0801 170.58L88.3898 170.742C89.3842 171.314 90.136 172.228 90.5044 173.314C90.7747 174.187 90.8188 175.114 90.6324 176.008C90.5107 176.618 90.2268 177.183 89.8108 177.645C89.6672 177.823 89.4884 177.97 89.2855 178.076Z" fill="#263238"/>
<path d="M89.2854 178.075C89.0067 177.349 88.8431 176.583 88.8006 175.806C88.6425 175.044 88.5971 174.264 88.6659 173.489C88.9447 174.216 89.1083 174.982 89.1508 175.759C89.3089 176.52 89.3542 177.301 89.2854 178.075Z" fill="#263238"/>
<path d="M105.03 167.543C105.03 167.543 105.232 167.462 105.576 167.287C106.058 167.045 106.472 166.686 106.781 166.243C107.245 165.594 107.541 164.839 107.643 164.048C107.755 163.083 107.516 162.11 106.97 161.307C106.916 161.219 106.848 161.145 106.795 161.065L107.03 161.098C106.251 161.633 105.628 162.365 105.225 163.22C104.894 163.914 104.72 164.673 104.714 165.442C104.73 166.153 104.836 166.859 105.03 167.543C105.03 167.543 104.895 167.375 104.761 167.024C104.576 166.516 104.474 165.982 104.458 165.442C104.426 164.631 104.586 163.823 104.922 163.085C105.334 162.166 105.991 161.378 106.821 160.809L106.956 160.714L107.05 160.842C107.111 160.93 107.185 161.011 107.246 161.105C107.844 161.977 108.1 163.039 107.966 164.088C107.841 164.929 107.502 165.724 106.983 166.398C106.634 166.852 106.169 167.204 105.636 167.415C105.447 167.504 105.239 167.548 105.03 167.543Z" fill="#263238"/>
<path d="M105.03 167.543C105.079 166.832 105.245 166.133 105.522 165.476C105.702 164.777 105.991 164.112 106.377 163.502C106.329 164.216 106.163 164.917 105.886 165.577C105.706 166.273 105.417 166.937 105.03 167.543Z" fill="#263238"/>
<path d="M110.471 166.149C110.467 166.352 110.451 166.554 110.424 166.755C110.407 167.294 110.518 167.83 110.747 168.318C111.094 169.036 111.609 169.66 112.249 170.136C113.042 170.702 114.013 170.963 114.983 170.87L115.273 170.836L115.131 171.025C115.043 170.084 114.709 169.183 114.162 168.412C113.708 167.777 113.119 167.25 112.438 166.87C111.797 166.542 111.118 166.293 110.417 166.129C110.611 166.089 110.81 166.089 111.003 166.129C112.351 166.351 113.559 167.091 114.37 168.19C114.97 168.996 115.338 169.951 115.434 170.951V171.119H115.28L114.956 171.159C113.904 171.256 112.852 170.964 112 170.338C111.32 169.811 110.79 169.114 110.465 168.318C110.235 167.793 110.154 167.215 110.229 166.647C110.271 166.465 110.354 166.295 110.471 166.149Z" fill="#263238"/>
<path d="M110.472 166.149C111.068 166.543 111.598 167.03 112.041 167.59C112.565 168.074 113.006 168.641 113.347 169.267C112.75 168.875 112.22 168.388 111.778 167.826C111.251 167.345 110.809 166.778 110.472 166.149Z" fill="#263238"/>
<path d="M114.391 165.994C115.031 166.057 115.676 165.943 116.256 165.664C116.861 165.342 117.38 164.88 117.771 164.317C118.227 163.611 118.418 162.767 118.31 161.933C118.31 161.846 118.276 161.765 118.263 161.684L118.458 161.819C117.651 161.929 116.887 162.25 116.243 162.748C115.715 163.154 115.282 163.672 114.977 164.263C114.714 164.822 114.517 165.41 114.391 166.014C114.354 165.846 114.354 165.671 114.391 165.503C114.443 165.036 114.57 164.581 114.768 164.156C115.065 163.513 115.504 162.946 116.054 162.499C116.737 161.948 117.556 161.592 118.425 161.469H118.593V161.63C118.616 161.721 118.631 161.813 118.64 161.906C118.761 162.823 118.543 163.752 118.027 164.519C117.596 165.122 117.019 165.607 116.35 165.927C115.897 166.14 115.395 166.228 114.896 166.183C114.559 166.095 114.384 166.014 114.391 165.994Z" fill="#263238"/>
<path d="M114.391 165.994C115.086 164.967 115.97 164.083 116.997 163.388C116.696 163.946 116.291 164.442 115.805 164.85C115.132 165.523 114.458 166.068 114.391 165.994Z" fill="#263238"/>
<path d="M97.279 172.082C97.279 172.082 97.4406 171.907 97.7033 171.577C98.0526 171.107 98.2835 170.559 98.3767 169.981C98.5209 169.12 98.4539 168.238 98.1814 167.409C97.8253 166.406 97.1233 165.563 96.2015 165.031L95.912 164.883L96.1409 164.809C95.6313 165.706 95.3666 166.721 95.3732 167.752C95.3828 168.591 95.5734 169.418 95.9322 170.176C96.2972 170.867 96.7499 171.508 97.279 172.082C97.0892 171.982 96.9182 171.85 96.7739 171.692C96.3526 171.283 96.0021 170.808 95.7369 170.284C95.3169 169.507 95.0862 168.642 95.0634 167.759C95.0325 166.665 95.3027 165.584 95.8446 164.634L95.9254 164.493L96.0668 164.567L96.3834 164.728C97.378 165.298 98.1283 166.214 98.4912 167.301C98.7723 168.183 98.8187 169.123 98.6259 170.028C98.5019 170.64 98.2132 171.206 97.7908 171.665C97.6535 171.84 97.4786 171.983 97.279 172.082Z" fill="#263238"/>
<path d="M97.279 172.082C97.0081 171.353 96.847 170.588 96.8008 169.812C96.6427 169.051 96.5973 168.27 96.6661 167.496C96.9375 168.225 97.1008 168.989 97.151 169.765C97.3131 170.526 97.3563 171.308 97.279 172.082Z" fill="#263238"/>
<path d="M201.647 174.082L158.548 154.829C156.931 154.104 155.524 152.984 154.455 151.571C153.386 150.159 152.691 148.5 152.433 146.747L148.803 122.181C148.757 121.856 148.837 121.526 149.026 121.259C149.215 120.991 149.499 120.805 149.82 120.74C150.113 120.681 150.417 120.727 150.679 120.87C150.941 121.013 151.145 121.243 151.254 121.521L158.386 139.515L208.839 154.903C215.156 156.923 217.594 162.815 215.452 168.371C214.955 169.679 214.195 170.871 213.22 171.875C212.245 172.878 211.075 173.672 209.782 174.207C208.489 174.742 207.101 175.007 205.702 174.985C204.303 174.964 202.923 174.656 201.647 174.082Z" fill="#FFBE9D"/>
<path d="M158.373 139.515C158.547 139.541 158.718 139.584 158.884 139.643L160.332 140.087L165.646 141.757C170.124 143.172 176.319 145.125 183.155 147.205C189.99 149.286 196.246 151.111 200.765 152.411L206.112 153.946L207.566 154.377C207.736 154.423 207.902 154.48 208.065 154.546C207.889 154.531 207.715 154.497 207.546 154.445L206.078 154.081C204.805 153.758 202.967 153.266 200.691 152.647C196.159 151.414 189.916 149.63 183.047 147.542C176.178 145.455 170.003 143.468 165.538 141.993L160.265 140.215L158.837 139.71C158.677 139.659 158.521 139.594 158.373 139.515Z" fill="#EB996E"/>
<path d="M214.509 170.594C214.377 170.611 214.244 170.611 214.112 170.594C213.729 170.598 213.347 170.58 212.967 170.54C212.36 170.478 211.761 170.349 211.182 170.156C210.424 169.885 209.694 169.542 209 169.132C208.226 168.688 207.391 168.203 206.495 167.651C205.6 167.099 204.677 166.479 203.707 165.819C201.659 164.332 199.436 163.101 197.087 162.156C194.718 161.27 192.209 160.814 189.68 160.809C187.613 160.822 185.557 161.121 183.572 161.698C182.232 162.092 180.934 162.613 179.693 163.253C179.248 163.476 178.925 163.684 178.689 163.799C178.58 163.875 178.459 163.934 178.333 163.974C178.434 163.887 178.542 163.808 178.656 163.738C178.878 163.604 179.194 163.375 179.625 163.132C180.855 162.442 182.152 161.883 183.498 161.462C185.5 160.846 187.579 160.517 189.673 160.486C192.248 160.473 194.804 160.929 197.215 161.832C199.591 162.794 201.836 164.052 203.896 165.577C204.866 166.25 205.781 166.87 206.657 167.429C207.532 167.988 208.374 168.486 209.128 168.937C209.805 169.351 210.517 169.705 211.256 169.994C211.818 170.194 212.397 170.339 212.987 170.425C213.964 170.553 214.516 170.56 214.509 170.594Z" fill="#263238"/>
<path d="M206.327 167.597C206.402 167.813 206.423 168.044 206.388 168.27C206.346 168.872 206.144 169.451 205.802 169.947C205.289 170.687 204.593 171.281 203.782 171.671C202.776 172.14 201.634 172.226 200.569 171.914L200.246 171.799L200.098 171.752L200.145 171.59C200.451 170.578 201.025 169.668 201.808 168.957C202.872 168 204.264 167.489 205.694 167.53C205.9 167.52 206.106 167.553 206.3 167.624C205.551 167.649 204.807 167.765 204.085 167.967C203.316 168.22 202.613 168.638 202.024 169.193C201.297 169.872 200.765 170.732 200.482 171.685L200.374 171.476L200.67 171.577C201.655 171.867 202.711 171.796 203.647 171.375C204.407 171.017 205.068 170.478 205.573 169.806C205.919 169.351 206.15 168.82 206.246 168.257C206.314 167.833 206.3 167.604 206.327 167.597Z" fill="#263238"/>
<path d="M206.327 167.597C205.841 168.17 205.266 168.661 204.624 169.052C204.054 169.539 203.41 169.935 202.718 170.223C203.206 169.652 203.781 169.162 204.422 168.769C204.994 168.284 205.636 167.889 206.327 167.597Z" fill="#263238"/>
<path d="M199.687 163.213C199.703 163.442 199.671 163.671 199.593 163.886C199.415 164.461 199.087 164.977 198.643 165.381C197.982 165.982 197.177 166.401 196.306 166.6C195.221 166.83 194.089 166.65 193.128 166.095C193.02 166.041 192.926 165.974 192.838 165.92L192.704 165.833L192.784 165.685C193.314 164.771 194.082 164.019 195.007 163.509C195.754 163.101 196.586 162.87 197.438 162.836C198.003 162.811 198.569 162.875 199.115 163.024C199.319 163.062 199.514 163.14 199.687 163.253C198.952 163.102 198.201 163.044 197.451 163.078C196.553 163.158 195.687 163.454 194.927 163.941C194.167 164.427 193.536 165.09 193.087 165.873L193.034 165.644C193.121 165.698 193.209 165.759 193.303 165.806C194.191 166.317 195.233 166.491 196.239 166.297C197.062 166.12 197.829 165.746 198.475 165.206C198.908 164.843 199.248 164.381 199.465 163.86C199.521 163.638 199.595 163.422 199.687 163.213Z" fill="#263238"/>
<path d="M199.687 163.213C199.071 163.658 198.39 164.003 197.667 164.237C196.998 164.573 196.28 164.801 195.539 164.91C196.814 164.124 198.205 163.542 199.66 163.186L199.687 163.213Z" fill="#263238"/>
<path d="M211.243 169.961C211.038 169.886 210.852 169.766 210.698 169.611C210.248 169.212 209.913 168.701 209.728 168.129C209.453 167.279 209.402 166.372 209.58 165.496C209.824 164.413 210.453 163.455 211.351 162.802L211.634 162.62L211.769 162.526L211.87 162.668C212.481 163.526 212.849 164.533 212.934 165.583C212.999 166.435 212.867 167.29 212.55 168.082C212.347 168.611 212.058 169.102 211.694 169.537C211.432 169.84 211.257 169.974 211.243 169.961C211.689 169.355 212.053 168.694 212.327 167.994C212.626 167.143 212.714 166.233 212.584 165.34C212.454 164.448 212.109 163.6 211.58 162.87L211.816 162.917C211.735 162.971 211.641 163.024 211.553 163.092C210.724 163.695 210.137 164.574 209.896 165.57C209.716 166.391 209.739 167.245 209.964 168.055C210.118 168.602 210.402 169.103 210.792 169.516C211.068 169.806 211.263 169.934 211.243 169.961Z" fill="#263238"/>
<path d="M211.243 169.961C211.091 169.226 211.055 168.471 211.135 167.725C211.1 166.974 211.18 166.223 211.371 165.496C211.527 166.23 211.566 166.985 211.486 167.732C211.52 168.483 211.439 169.235 211.243 169.961Z" fill="#263238"/>
<path d="M195.047 161.482C194.847 161.511 194.644 161.491 194.454 161.422C193.919 161.275 193.435 160.983 193.054 160.58C192.485 159.985 192.08 159.255 191.875 158.459C191.637 157.466 191.774 156.42 192.259 155.522C192.313 155.421 192.373 155.334 192.421 155.253L192.501 155.112L192.65 155.192C193.508 155.662 194.219 156.362 194.704 157.213C195.098 157.891 195.329 158.652 195.377 159.435C195.417 159.955 195.372 160.478 195.242 160.984C195.211 161.171 195.143 161.35 195.04 161.509C195.152 160.842 195.183 160.164 195.135 159.489C195.052 158.751 194.809 158.041 194.421 157.408C193.947 156.634 193.278 155.997 192.481 155.563L192.71 155.502C192.663 155.583 192.609 155.664 192.562 155.751C192.121 156.576 191.985 157.53 192.178 158.445C192.364 159.192 192.724 159.884 193.229 160.465C193.571 160.855 194.003 161.156 194.488 161.341C194.677 161.377 194.864 161.425 195.047 161.482Z" fill="#263238"/>
<path d="M195.047 161.482C194.281 160.34 193.714 159.076 193.37 157.745C194.136 158.887 194.703 160.151 195.047 161.482Z" fill="#263238"/>
<path d="M189.7 160.647C189.819 160.811 189.9 161 189.936 161.199C190.064 161.738 190.046 162.301 189.882 162.829C189.641 163.617 189.2 164.329 188.603 164.897C187.848 165.583 186.868 165.969 185.848 165.981C185.743 165.988 185.637 165.988 185.532 165.981H185.37V165.812C185.361 164.84 185.617 163.883 186.111 163.045C186.512 162.37 187.063 161.797 187.72 161.368C188.157 161.082 188.637 160.868 189.141 160.735C189.321 160.672 189.51 160.644 189.7 160.654C189.054 160.888 188.437 161.195 187.862 161.57C187.189 162.05 186.643 162.687 186.27 163.424C185.897 164.162 185.709 164.979 185.72 165.806L185.559 165.631C185.653 165.637 185.747 165.637 185.842 165.631C186.779 165.618 187.682 165.272 188.387 164.654C188.952 164.13 189.384 163.479 189.646 162.755C189.82 162.265 189.873 161.741 189.801 161.226C189.756 161.035 189.722 160.842 189.7 160.647Z" fill="#263238"/>
<path d="M189.7 160.647C189.44 161.288 189.074 161.88 188.616 162.398C188.258 162.983 187.803 163.503 187.269 163.934C187.533 163.297 187.899 162.708 188.353 162.189C188.714 161.605 189.17 161.084 189.7 160.647Z" fill="#263238"/>
<path d="M185.922 160.896C185.922 160.896 185.767 161.011 185.437 161.092C184.964 161.19 184.472 161.155 184.017 160.991C183.338 160.759 182.731 160.352 182.259 159.812C181.683 159.127 181.377 158.256 181.397 157.361C181.397 157.267 181.397 157.172 181.397 157.092V156.93H181.565C182.414 156.959 183.238 157.22 183.949 157.684C184.525 158.054 185.005 158.555 185.35 159.146C185.583 159.536 185.751 159.961 185.848 160.405C185.897 160.564 185.911 160.732 185.889 160.896C185.694 160.332 185.444 159.788 185.141 159.273C184.746 158.678 184.214 158.187 183.589 157.841C182.965 157.495 182.266 157.305 181.552 157.287L181.734 157.125C181.734 157.206 181.734 157.287 181.734 157.374C181.715 158.183 181.982 158.972 182.488 159.603C182.917 160.112 183.462 160.509 184.077 160.762C184.669 160.974 185.306 161.02 185.922 160.896Z" fill="#263238"/>
<path d="M185.922 160.896C185.365 160.669 184.857 160.335 184.427 159.913C183.659 159.294 183.08 158.728 183.154 158.654C183.711 158.883 184.218 159.217 184.649 159.637C185.41 160.257 185.983 160.809 185.922 160.896Z" fill="#263238"/>
<path d="M202.96 165.018C202.756 164.939 202.571 164.82 202.415 164.668C201.962 164.269 201.626 163.755 201.445 163.179C201.169 162.329 201.118 161.422 201.297 160.546C201.539 159.463 202.169 158.505 203.068 157.853L203.351 157.664L203.485 157.576L203.58 157.711C204.195 158.57 204.565 159.58 204.65 160.634C204.715 161.485 204.584 162.34 204.266 163.132C204.062 163.659 203.77 164.149 203.404 164.58C203.149 164.89 202.973 165.025 202.96 165.011C203.405 164.406 203.77 163.744 204.044 163.045C204.343 162.194 204.431 161.283 204.301 160.39C204.171 159.498 203.826 158.65 203.297 157.92L203.532 157.967L203.27 158.135C202.443 158.74 201.856 159.618 201.613 160.614C201.433 161.435 201.456 162.288 201.681 163.099C201.83 163.647 202.115 164.15 202.509 164.56C202.785 164.849 202.98 164.991 202.96 165.018Z" fill="#263238"/>
<path d="M202.96 165.018C202.809 164.283 202.772 163.528 202.852 162.782C202.816 162.031 202.896 161.28 203.088 160.553C203.24 161.288 203.279 162.042 203.202 162.789C203.233 163.54 203.151 164.291 202.96 165.018Z" fill="#263238"/>
</svg>
