<svg width="21" height="21" viewBox="0 0 21 21" fill="none" xmlns="http://www.w3.org/2000/svg">
<path d="M20.7426 8.19257C19.6644 3.40229 15.4109 -0.000573014 10.5021 1.19752e-06C6.19341 -0.00204956 2.32103 2.63001 0.736215 6.63789C-0.848598 10.6458 0.17607 15.2154 3.3204 18.1622C6.46472 21.109 11.09 21.8344 14.9851 19.9917C14.9879 19.9905 14.9909 19.9911 14.9937 19.9898C14.9964 19.9885 14.9979 19.9861 15.0005 19.9847C19.4358 17.8808 21.8209 12.9828 20.7426 8.19257ZM15.8589 2.30079L13.8778 2.99447C13.8376 3.00871 13.8003 3.03012 13.7678 3.05772C13.3508 3.38925 12.9648 3.75793 12.6145 4.1593C12.3843 4.3239 12.133 4.45691 11.8674 4.55477C10.6823 4.63816 9.23621 4.77933 8.94201 4.98338C8.58188 5.23427 8.52173 6.01114 8.53452 6.61886C8.53571 6.67247 8.5492 6.72509 8.57401 6.77267L9.53688 8.6252C9.69606 8.92251 10.0639 9.03773 10.3641 8.88429C10.4451 8.8436 10.5271 8.79783 10.6096 8.75169C10.6121 8.75032 10.6145 8.74895 10.6169 8.74759C10.6819 8.71132 10.7475 8.67462 10.8259 8.63442C10.947 8.5736 11.0975 8.4994 11.1715 8.52061C11.1914 8.52676 11.2106 8.53525 11.2286 8.54591C11.2034 8.60727 11.1645 8.66199 11.1148 8.70587C10.8657 8.97793 10.62 9.25273 10.3737 9.53643L9.54935 10.489C9.52134 10.5211 9.49346 10.5533 9.45316 10.6031C9.20681 10.945 9.10221 11.3689 9.16117 11.7861L9.19553 12.0206C9.22998 12.2625 9.167 12.5081 9.02041 12.7035L8.33053 13.6379C8.27108 13.7154 8.21978 13.7988 8.17747 13.8868L7.45052 15.3999H6.87541C7.03967 15.2333 7.1054 14.9932 7.04881 14.7662L6.38198 12.0715C6.37726 12.0444 6.37087 12.0176 6.36197 11.9916L5.88035 10.6965C5.86087 10.6437 5.85103 10.5877 5.85132 10.5314V10.4685C5.8532 10.0188 5.59857 9.60739 5.19527 9.40863L5.16451 9.39497C4.96298 9.2903 4.7348 9.24805 4.50916 9.27365L3.56387 9.37893C3.41122 9.39612 3.26016 9.33537 3.16184 9.21729L2.56832 8.51523C2.49513 8.42808 2.45486 8.31799 2.45453 8.20422V7.58456C2.45289 7.45836 2.5016 7.33671 2.58984 7.24651L3.35488 6.47371C3.42192 6.40492 3.48076 6.32868 3.53033 6.2464L3.77738 5.82669C3.85992 5.68527 4.01175 5.59885 4.17544 5.60008H5.18821C5.3218 5.59939 5.44891 5.65767 5.53555 5.75935C5.75713 6.0024 6.07048 6.1414 6.39936 6.14251H6.7718C6.92597 6.14251 7.06193 6.04157 7.10663 5.894L7.43022 4.82658C7.4693 4.69722 7.43055 4.5569 7.33063 4.46597C7.12869 4.28313 6.96062 4.06608 6.83416 3.82478C6.6059 3.27243 5.60903 2.91527 5.33582 2.87221C5.15705 2.77033 4.98947 2.64991 4.83596 2.51292C8.11518 0.175587 12.4923 0.091383 15.8589 2.30079ZM5.83333 18.6667C2.8661 17.8854 0.705134 14.2829 0.705134 10.4999C0.705134 7.12081 2.01039 4.80726 4.26503 2.94825C4.90099 3.48104 5.10174 3.54994 5.23684 3.56487C5.59505 3.65137 5.92328 3.83299 6.18693 4.09056C6.314 4.36331 6.4874 4.61195 6.69947 4.82543L6.51237 5.44238H6.39945C6.26955 5.44193 6.14564 5.38775 6.05707 5.29268C5.83766 5.04257 5.52095 4.89942 5.18834 4.89996H4.17556C3.76442 4.90041 3.38395 5.11758 3.17439 5.47142L2.93177 5.88395C2.91086 5.91848 2.88626 5.95068 2.8585 5.98001L2.09309 6.75314C1.87442 6.97426 1.75268 7.27334 1.75481 7.5844V8.20405C1.75547 8.48246 1.85371 8.75181 2.03245 8.96521L2.62769 9.66899C2.87724 9.96541 3.25836 10.1175 3.64338 10.0743L4.58645 9.96943C4.68023 9.95893 4.77498 9.97779 4.85761 10.0234L4.89192 10.0392C5.05299 10.1213 5.15361 10.2876 5.1516 10.4685V10.5313C5.15131 10.6722 5.1764 10.812 5.22573 10.9439L5.69743 12.2116C5.69895 12.2187 5.70034 12.2252 5.70137 12.229L6.36578 14.9193L6.29932 14.9835C6.1066 15.1932 6.06154 15.4993 6.1857 15.7556C6.29222 15.9663 6.50798 16.0993 6.74404 16.0998H7.45048C7.70503 16.1001 7.93752 15.9553 8.04945 15.7266L8.80785 14.1906C8.83089 14.1434 8.85869 14.0987 8.89088 14.0573L9.58178 13.1211C9.83875 12.7781 9.94901 12.3471 9.88828 11.9228L9.85392 11.6876C9.82038 11.4568 9.87528 11.2217 10.0077 11.0297L10.0764 10.9494C10.1035 10.9183 10.1307 10.8871 10.1517 10.8615L10.9024 9.99473C11.1442 9.71686 11.3862 9.4457 11.6285 9.18128C11.8484 8.99171 11.9554 8.70243 11.912 8.41536C11.8482 8.14515 11.6444 7.92999 11.378 7.85173C11.0724 7.78824 10.754 7.84816 10.4924 8.01854C10.4174 8.05718 10.3424 8.09885 10.2679 8.14056C10.2172 8.1689 10.1667 8.19729 10.1169 8.22395L9.23326 6.52387C9.2205 6.19739 9.26106 5.87103 9.35335 5.55763C10.2179 5.3948 11.0925 5.29177 11.9712 5.24932C12.0072 5.2467 12.0426 5.23862 12.0761 5.22541C12.5046 5.0552 13.0482 4.7968 13.2029 4.53636C13.5045 4.21402 13.8277 3.91256 14.1702 3.63402L16.5518 2.80023C18.2572 4.14036 19.4708 6.00769 20.0033 8.11058L19.8761 8.04381C19.6389 7.91818 19.3683 7.87003 19.1023 7.90608L17.2977 8.14364C16.9615 8.18231 16.7082 8.46753 16.7093 8.80603V9.128H16.3454C16.1134 9.1294 15.8979 9.24863 15.7734 9.44452L15.6567 9.62839C15.3572 10.1053 15.2821 10.6898 15.4514 11.2269L15.7283 12.1187L15.4832 12.2035C15.3043 12.2666 15.1606 12.4026 15.0876 12.5777C15.0165 12.7503 15.0215 12.9448 15.1016 13.1133L15.9138 14.837L15.3984 14.8431L14.4213 14.0635C14.2476 13.9317 14.0216 13.8904 13.8126 13.9521L12.3711 14.3868C12.1522 14.4557 11.9838 14.6319 11.9247 14.8537C11.8656 15.0755 11.924 15.3122 12.0797 15.4809L12.2801 15.6955C12.3535 15.7704 12.4429 15.8277 12.5416 15.863L13.1297 16.051V16.7018C13.131 16.8003 13.1519 16.8975 13.1912 16.9879L14.3756 19.4997C13.2642 19.9789 11.346 20.1992 10.1517 19.5961C9.33393 19.1832 10.928 16.8505 10.1517 16.4055C9.64674 16.1161 8.63126 17.668 8.16667 17.5C7.54783 17.2762 6.40889 18.8182 5.83333 18.6667ZM15.007 19.198L13.8295 16.7017V16.0509C13.83 15.7659 13.6507 15.5115 13.3821 15.4162L12.784 15.2101L12.6259 15.0406L13.9929 14.6164L14.9595 15.3879C15.0799 15.4838 15.2293 15.5361 15.3832 15.5362H15.9569C16.1865 15.5374 16.4009 15.4214 16.5257 15.2286C16.6493 15.0373 16.6663 14.7959 16.5708 14.5891L15.7518 12.8511L15.9921 12.768C16.3286 12.6481 16.5113 12.2846 16.4066 11.9429L16.119 11.017C16.0114 10.6757 16.0589 10.3044 16.2491 10.0012L16.3454 9.82788H16.7372C17.1061 9.8294 17.4067 9.53188 17.4091 9.16274V8.83495L19.1976 8.59944C19.3197 8.58279 19.4439 8.60555 19.5522 8.66436L19.6918 8.73754C19.8385 8.813 19.9981 8.86013 20.1623 8.87637C20.8717 13.0724 18.7873 17.2457 15.007 19.198Z" fill="#3A85F4"/>
<path d="M15.8589 2.30079L13.8778 2.99447C13.8376 3.00871 13.8003 3.03012 13.7678 3.05772C13.3508 3.38925 12.9648 3.75793 12.6145 4.1593C12.3843 4.3239 12.133 4.45691 11.8674 4.55477C10.6823 4.63816 9.23621 4.77933 8.94201 4.98338C8.58188 5.23427 8.52173 6.01114 8.53452 6.61886C8.53571 6.67247 8.5492 6.72509 8.57401 6.77267L9.53688 8.6252C9.69606 8.92251 10.0639 9.03773 10.3641 8.88429C10.4451 8.8436 10.5271 8.79783 10.6096 8.75169L10.6169 8.74759C10.6819 8.71132 10.7475 8.67462 10.8259 8.63442C10.947 8.5736 11.0975 8.4994 11.1715 8.52061C11.1914 8.52676 11.2106 8.53525 11.2286 8.54591C11.2034 8.60727 11.1645 8.66199 11.1148 8.70587C10.8657 8.97793 10.62 9.25273 10.3737 9.53643L9.54935 10.489C9.52134 10.5211 9.49346 10.5533 9.45316 10.6031C9.20681 10.945 9.10221 11.3689 9.16117 11.7861L9.19553 12.0206C9.22998 12.2625 9.167 12.5081 9.02041 12.7035L8.33053 13.6379C8.27108 13.7154 8.21978 13.7988 8.17747 13.8868L7.45052 15.3999H6.87541C7.03967 15.2333 7.1054 14.9932 7.04881 14.7662L6.38198 12.0715C6.37726 12.0444 6.37087 12.0176 6.36197 11.9916L5.88035 10.6965C5.86087 10.6437 5.85103 10.5877 5.85132 10.5314V10.4685C5.8532 10.0188 5.59857 9.60739 5.19527 9.40863L5.16451 9.39497C4.96298 9.2903 4.7348 9.24805 4.50916 9.27365L3.56387 9.37893C3.41122 9.39612 3.26016 9.33537 3.16184 9.21729L2.56832 8.51523C2.49513 8.42808 2.45486 8.31799 2.45453 8.20422V7.58456C2.45289 7.45836 2.5016 7.33671 2.58984 7.24651L3.35488 6.47371C3.42192 6.40492 3.48076 6.32868 3.53033 6.2464L3.77738 5.82669C3.85992 5.68527 4.01175 5.59885 4.17544 5.60008H5.18821C5.3218 5.59939 5.44891 5.65767 5.53555 5.75935C5.75713 6.0024 6.07048 6.1414 6.39936 6.14251H6.7718C6.92597 6.14251 7.06193 6.04157 7.10663 5.894L7.43022 4.82658C7.4693 4.69722 7.43055 4.5569 7.33063 4.46597C7.12869 4.28313 6.96062 4.06608 6.83416 3.82478C6.6059 3.27243 5.60903 2.91527 5.33582 2.87221C5.15705 2.77033 4.98947 2.64991 4.83596 2.51292C8.11518 0.175587 12.4923 0.091383 15.8589 2.30079Z" fill="#3A85F4"/>
<path d="M15.007 19.198L13.8295 16.7017V16.0509C13.83 15.7659 13.6507 15.5115 13.3821 15.4162L12.784 15.2101L12.6259 15.0406L13.9929 14.6164L14.9595 15.3879C15.0799 15.4838 15.2293 15.5361 15.3832 15.5362H15.9569C16.1865 15.5374 16.4009 15.4214 16.5257 15.2286C16.6493 15.0373 16.6663 14.7959 16.5708 14.5891L15.7518 12.8511L15.9921 12.768C16.3286 12.6481 16.5113 12.2846 16.4066 11.9429L16.119 11.017C16.0114 10.6757 16.0589 10.3044 16.2491 10.0012L16.3454 9.82788H16.7372C17.1061 9.8294 17.4067 9.53188 17.4091 9.16274V8.83495L19.1976 8.59944C19.3197 8.58279 19.4439 8.60555 19.5522 8.66436L19.6918 8.73754C19.8385 8.813 19.9981 8.86013 20.1623 8.87637C20.8717 13.0724 18.7873 17.2457 15.007 19.198Z" fill="#3A85F4"/>
</svg>
