<svg width="31" height="31" viewBox="0 0 31 31" fill="none" xmlns="http://www.w3.org/2000/svg">
<path d="M13.3042 9.94583C12.8005 10.4496 12.8005 11.2504 13.3042 11.7542L15.7584 14.2083H3.87504C3.16462 14.2083 2.58337 14.7896 2.58337 15.5C2.58337 16.2104 3.16462 16.7917 3.87504 16.7917H15.7584L13.3042 19.2458C12.8005 19.7496 12.8005 20.5504 13.3042 21.0542C13.808 21.5579 14.6088 21.5579 15.1125 21.0542L19.7496 16.4171C20.2534 15.9133 20.2534 15.0996 19.7496 14.5958L15.1125 9.94583C14.6088 9.44208 13.808 9.44208 13.3042 9.94583ZM25.8334 24.5417H16.7917C16.0813 24.5417 15.5 25.1229 15.5 25.8333C15.5 26.5437 16.0813 27.125 16.7917 27.125H25.8334C27.2542 27.125 28.4167 25.9625 28.4167 24.5417V6.45833C28.4167 5.0375 27.2542 3.875 25.8334 3.875H16.7917C16.0813 3.875 15.5 4.45625 15.5 5.16667C15.5 5.87708 16.0813 6.45833 16.7917 6.45833H25.8334V24.5417Z" fill="#3A85F4"/>
</svg>
