<svg width="54" height="23" viewBox="0 0 54 23" fill="none" xmlns="http://www.w3.org/2000/svg">
<path d="M35.5273 12.9316H37.2949V14.8359H35.5273V18H33.1543V14.8359H27.0117L26.9434 13.3906L33.0762 3.78125H35.5273V12.9316ZM29.4336 12.9316H33.1543V6.99414L32.9785 7.30664L29.4336 12.9316ZM39.3555 21.2031L38.0762 20.4414C38.4538 19.849 38.7109 19.3314 38.8477 18.8887C38.9909 18.4525 39.0658 18.0065 39.0723 17.5508V15.7051H41.2109L41.2012 17.4141C41.1947 18.1042 41.0189 18.7943 40.6738 19.4844C40.3353 20.181 39.8958 20.7539 39.3555 21.2031ZM51.2891 12.9316H53.0566V14.8359H51.2891V18H48.916V14.8359H42.7734L42.7051 13.3906L48.8379 3.78125H51.2891V12.9316ZM45.1953 12.9316H48.916V6.99414L48.7402 7.30664L45.1953 12.9316Z" fill="#3A85F4"/>
<path d="M10.5 0L12.8574 7.25532H20.4861L14.3143 11.7394L16.6717 18.9947L10.5 14.5106L4.32825 18.9947L6.68565 11.7394L0.513906 7.25532H8.1426L10.5 0Z" fill="#FFD600"/>
</svg>
