<svg width="17" height="10" viewBox="0 0 17 10" fill="none" xmlns="http://www.w3.org/2000/svg">
<path d="M16.9976 0.550831C16.9873 0.431714 16.9394 0.318216 16.86 0.224909C16.7806 0.131601 16.6734 0.0627411 16.5521 0.0271703C16.4308 -0.00840055 16.301 -0.00905922 16.1793 0.0252788C16.0576 0.0596168 15.9496 0.127384 15.8692 0.219881L8.4944 8.46865L1.12625 0.219881C1.07221 0.159596 1.00608 0.109915 0.931623 0.0736758C0.857168 0.0374366 0.775846 0.0153492 0.692318 0.00867434C0.608789 0.00199952 0.524679 0.0108682 0.444794 0.0347741C0.36491 0.05868 0.290829 0.0971547 0.226753 0.148001C0.162676 0.198848 0.109867 0.26107 0.0713558 0.331114C0.0328445 0.401159 0.00936127 0.477653 0.00227928 0.55623C-0.0048027 0.634807 0.00465012 0.713926 0.030077 0.78907C0.0555019 0.864214 0.096405 0.93391 0.150467 0.994179L8.00984 9.78621C8.06966 9.85316 8.14433 9.907 8.22861 9.94393C8.31289 9.98086 8.40474 10 8.49772 10C8.5907 10 8.68256 9.98086 8.76685 9.94393C8.85113 9.907 8.92579 9.85316 8.98561 9.78621L16.845 0.994179C16.9006 0.933609 16.9428 0.863175 16.969 0.787031C16.9952 0.710887 17.005 0.630575 16.9976 0.550831Z" fill="#212121"/>
</svg>
