<svg width="54" height="26" viewBox="0 0 54 26" fill="none" xmlns="http://www.w3.org/2000/svg">
<path d="M54 12.747C54 10.5542 53.1429 8.44568 51.6 6.92757C51.6 6.75889 51.6 6.50587 51.6 6.33719C51.6 4.65041 50.9143 3.04796 49.6286 1.78287C47.0572 -0.662966 43.0286 -0.578627 40.5429 1.95155C38.1429 4.39739 37.8857 7.34927 40.2857 9.79511C40.4571 9.96378 40.8 10.2168 40.9714 10.2168C41.2286 10.2168 41.4 10.0481 41.4 9.79511C41.4 9.62643 41.3143 9.54209 41.2286 9.45775C39.0857 7.43361 39 4.81909 41.1429 2.62627C43.2857 0.433445 46.8 0.433445 48.9429 2.45759C50.0571 3.46966 50.6572 4.90343 50.6572 6.33719C50.6572 7.18059 50.4857 8.02398 50.1429 8.6987C50.0572 8.95171 50.1429 9.20473 50.3143 9.28907C50.5714 9.37341 50.8286 9.28907 50.9143 9.12039C51.0857 8.78303 51.2572 8.36134 51.3429 8.02398C52.4572 9.28907 53.0572 10.9759 53.0572 12.747C53.0572 15.5302 51.4286 18.0604 48.9429 19.3254C48.6857 19.4098 48.6 19.6628 48.7714 19.9158C48.8572 20.1688 49.1143 20.2532 49.3714 20.0845C49.8 19.8315 50.3143 19.5785 50.6572 19.2411C50.6572 19.4098 50.6572 19.4941 50.6572 19.6628C50.6572 21.0966 50.0571 22.5303 48.9429 23.5424C46.7143 25.6509 43.2 25.5666 41.1429 23.3737C39 21.1809 39.0857 18.5664 41.3143 16.5422C41.4 16.4579 41.4857 16.3736 41.4857 16.2049C41.4857 15.9519 41.3143 15.7832 41.0571 15.7832C40.9714 15.7832 40.8 15.8675 40.7143 15.9519L40.5429 16.1206C37.9714 18.5664 38.1429 21.5183 40.5429 24.0484C43.0286 26.5786 47.0572 26.663 49.6286 24.2171C50.9143 23.0364 51.6 21.4339 51.6 19.6628C51.6 19.2411 51.6 18.9038 51.5143 18.5664C53.0572 17.1326 54 15.0241 54 12.747Z" fill="#212121"/>
<path d="M9.34263 11.0602H38.3141C38.5712 11.0602 38.7427 10.8915 38.7427 10.6385C38.7427 10.3855 38.5712 10.2168 38.3141 10.2168H9.34263C9.08549 10.2168 8.91406 10.3855 8.91406 10.6385C8.91406 10.8915 9.08549 11.0602 9.34263 11.0602Z" fill="#212121"/>
<path d="M39.3429 15.6988C39.3429 15.4458 39.1715 15.2771 38.9143 15.2771H0.428572C0.171429 15.2771 0 15.4458 0 15.6988C0 15.9518 0.171429 16.1205 0.428572 16.1205H38.8286C39.0857 16.0362 39.3429 15.8675 39.3429 15.6988Z" fill="#212121"/>
<path d="M6.77132 13.5058H35.7428C35.9142 13.5058 36.0856 13.3371 36.0856 13.1684C36.0856 12.9997 35.9142 12.8311 35.7428 12.8311H6.77132C6.5999 12.8311 6.42847 12.9997 6.42847 13.1684C6.42847 13.3371 6.5999 13.5058 6.77132 13.5058Z" fill="#212121"/>
</svg>
