<svg width="43" height="43" viewBox="0 0 43 43" fill="none" xmlns="http://www.w3.org/2000/svg">
<path d="M24.7576 11.5138L28.7059 7.984C28.8253 7.87723 28.9799 7.81818 29.1401 7.81818H42.3485C42.7083 7.81818 43 8.10987 43 8.4697C43 8.82952 42.7083 9.12121 42.3485 9.12121H29.3889L24.7576 13.2617V38.4436C24.7576 40.9628 22.7193 43 20.1935 43H4.56407C2.04496 43 0 40.9581 0 38.4445V4.55552C0 2.0367 2.03829 0 4.56407 0H20.1935C22.7117 0 24.7576 2.04427 24.7576 4.55643V11.5138ZM5.21212 1.30303H4.56407C2.75771 1.30303 1.30303 2.75658 1.30303 4.55552V38.4445C1.30303 40.238 2.76417 41.697 4.56407 41.697H20.1935C21.9998 41.697 23.4545 40.243 23.4545 38.4436V14.4266L14.1872 22.7117C14.2814 22.9407 14.3333 23.1916 14.3333 23.4545C14.3333 24.534 13.4583 25.4091 12.3788 25.4091C11.2993 25.4091 10.4242 24.534 10.4242 23.4545C10.4242 22.3751 11.2993 21.5 12.3788 21.5C12.7195 21.5 13.0398 21.5872 13.3186 21.7404L23.4545 12.6787V4.55643C23.4545 2.76414 21.9923 1.30303 20.1935 1.30303H19.5455V2.93182C19.5455 4.5495 18.2299 5.86364 16.6093 5.86364H8.14825C6.52667 5.86364 5.21212 4.55141 5.21212 2.93182V1.30303ZM6.51515 1.30303V2.93182C6.51515 3.83125 7.2458 4.56061 8.14825 4.56061H16.6093C17.5105 4.56061 18.2424 3.82953 18.2424 2.93182V1.30303H6.51515ZM32.5758 14.9848C32.2159 14.9848 31.9242 14.6932 31.9242 14.3333C31.9242 13.9735 32.2159 13.6818 32.5758 13.6818H42.3485C42.7083 13.6818 43 13.9735 43 14.3333C43 14.6932 42.7083 14.9848 42.3485 14.9848H32.5758ZM32.5758 20.8485C32.2159 20.8485 31.9242 20.5568 31.9242 20.197C31.9242 19.8371 32.2159 19.5455 32.5758 19.5455H42.3485C42.7083 19.5455 43 19.8371 43 20.197C43 20.5568 42.7083 20.8485 42.3485 20.8485H32.5758Z" fill="#212121"/>
</svg>
