<svg width="44" height="41" viewBox="0 0 44 41" fill="none" xmlns="http://www.w3.org/2000/svg">
<path d="M32.1104 15.8193C31.8075 15.529 31.3531 15.529 31.0501 15.8193L26.8092 19.883C26.1276 19.4476 25.446 19.2299 24.6129 19.2299C23.5527 19.2299 22.5682 19.6653 21.8108 20.3909C21.0535 21.1166 20.5991 22.06 20.5991 23.0759C20.5991 24.0918 21.0535 25.0352 21.8108 25.7609C22.5682 26.4865 23.5527 26.9219 24.6129 26.9219C25.6732 26.9219 26.6577 26.4865 27.415 25.7609C28.1723 25.0352 28.6267 24.0918 28.6267 23.0759C28.6267 22.2777 28.3995 21.4794 27.8694 20.8989L32.0347 16.9078C32.4133 16.5449 32.4133 16.1095 32.1104 15.8193ZM26.4305 24.7449C25.5217 25.6157 23.8556 25.6157 22.8711 24.7449C22.4167 24.3095 22.1138 23.6564 22.1138 23.0759C22.1138 22.4228 22.341 21.8423 22.8711 21.4069C23.7799 20.5361 25.446 20.5361 26.4305 21.4069C26.8849 21.8423 27.1878 22.4954 27.1878 23.0759C27.1121 23.729 26.8849 24.3095 26.4305 24.7449Z" fill="#212121"/>
<path d="M3.18115 22.4229C3.18115 22.8583 3.48408 23.1486 3.93847 23.1486H17.0401C17.4945 23.1486 17.7974 22.8583 17.7974 22.4229C17.7974 21.9875 17.4945 21.6973 17.0401 21.6973H3.93847C3.48408 21.6973 3.18115 21.9875 3.18115 22.4229Z" fill="#212121"/>
<path d="M0.757317 17.0529H13.8589C14.3133 17.0529 14.6162 16.7626 14.6162 16.3272C14.6162 15.8918 14.3133 15.6016 13.8589 15.6016H0.757317C0.302927 15.6016 0 15.8918 0 16.3272C0 16.7626 0.302927 17.0529 0.757317 17.0529Z" fill="#212121"/>
<path d="M14.6162 28.5186C14.6162 28.0832 14.3133 27.793 13.8589 27.793H0.757317C0.302927 27.793 0 28.0832 0 28.5186C0 28.954 0.302927 29.2443 0.757317 29.2443H13.8589C14.3133 29.2443 14.6162 28.954 14.6162 28.5186Z" fill="#212121"/>
<path d="M38.5471 10.0142L39.3045 9.2885C39.6831 9.5062 40.0618 9.57876 40.5162 9.57876C41.9551 9.57876 43.091 8.49026 43.091 7.1115C43.091 5.73274 42.0308 4.64425 40.5919 4.64425C39.153 4.64425 38.017 5.73274 38.017 7.1115C38.017 7.47434 38.0927 7.90974 38.3199 8.2L37.4869 8.99823C34.3062 6.31327 30.2167 4.64425 25.6728 4.49911V1.45133H28.3991C28.8535 1.45133 29.1564 1.16106 29.1564 0.725664C29.1564 0.290265 28.8535 0 28.3991 0H21.5075C21.0531 0 20.7502 0.290265 20.7502 0.725664C20.7502 1.16106 21.0531 1.45133 21.5075 1.45133H24.1581V4.49911C19.1598 4.71681 14.5402 6.67611 11.0565 10.2319C10.7536 10.5221 10.7536 10.9575 11.0565 11.2478C11.3595 11.5381 11.8139 11.5381 12.1168 11.2478C15.5247 7.83717 20.0686 5.95044 24.9154 5.95044C29.5351 5.95044 33.776 7.69203 36.9568 10.5221C40.3647 13.5699 42.4852 17.9239 42.4852 22.7133C42.4852 32.0018 34.6091 39.5487 24.9154 39.5487C20.2201 39.5487 15.8276 37.8071 12.4954 34.6142C12.1925 34.3239 11.7381 34.3239 11.4352 34.6142C11.1323 34.9044 11.1323 35.3398 11.4352 35.6301C15.0703 39.1133 19.8414 41 24.9154 41C35.4421 41 43.9998 32.8 43.9998 22.7133C43.9998 17.7788 41.9551 13.2796 38.5471 10.0142ZM40.5919 6.09557C41.1977 6.09557 41.6521 6.53097 41.6521 7.1115C41.6521 7.69203 41.1977 8.12743 40.5919 8.12743C40.3647 8.12743 40.1375 8.05487 39.9103 7.90973C39.9103 7.83717 39.8346 7.83717 39.8346 7.7646C39.8346 7.7646 39.7588 7.69204 39.6831 7.69204C39.5317 7.5469 39.5316 7.3292 39.5316 7.1115C39.5316 6.53097 39.986 6.09557 40.5919 6.09557Z" fill="#212121"/>
<path d="M15.7524 34.3239C15.5252 34.6867 15.6009 35.1221 15.9796 35.3398C18.6302 37.0814 21.7352 38.0247 24.9916 38.0247C33.7765 38.0247 40.8953 31.2035 40.8953 22.7858C40.8953 14.3681 33.7765 7.54688 24.9916 7.54688C21.6594 7.54688 18.403 8.5628 15.6766 10.4495C15.3737 10.6672 15.298 11.1752 15.5252 11.4655C15.7524 11.7557 16.2068 11.8283 16.5854 11.6106C19.0088 9.869 21.9624 8.9982 24.9916 8.9982C32.9435 8.9982 39.3807 15.1663 39.3807 22.7858C39.3807 30.4053 32.9435 36.5734 24.9916 36.5734C22.0381 36.5734 19.236 35.7752 16.8883 34.1787C16.4339 33.961 15.9796 34.0336 15.7524 34.3239Z" fill="#212121"/>
</svg>
