<svg width="43" height="43" viewBox="0 0 43 43" fill="none" xmlns="http://www.w3.org/2000/svg">
<path d="M21.5 43C9.62588 43 0 33.3741 0 21.5C0 9.62587 9.62588 0 21.5 0C33.3741 0 43 9.62587 43 21.5C43 33.3741 33.3741 43 21.5 43ZM21.5 41.697C32.6545 41.697 41.697 32.6545 41.697 21.5C41.697 10.3455 32.6545 1.30303 21.5 1.30303C10.3455 1.30303 1.30303 10.3455 1.30303 21.5C1.30303 32.6545 10.3455 41.697 21.5 41.697ZM20.8485 5.86364C20.8485 5.50382 21.1402 5.21212 21.5 5.21212C21.8598 5.21212 22.1515 5.50382 22.1515 5.86364V9.77273C22.1515 10.1325 21.8598 10.4242 21.5 10.4242C21.1402 10.4242 20.8485 10.1325 20.8485 9.77273V5.86364ZM28.754 7.63272C28.9339 7.3211 29.3323 7.21437 29.6439 7.39428C29.9556 7.5742 30.0623 7.97262 29.8824 8.28423L27.9279 11.6696C27.748 11.9812 27.3495 12.088 27.0379 11.9081C26.7263 11.7282 26.6195 11.3297 26.7994 11.0181L28.754 7.63272ZM34.7157 13.1175C35.0273 12.9376 35.4258 13.0444 35.6057 13.3561C35.7856 13.6677 35.6789 14.0662 35.3672 14.2461L31.9819 16.2006C31.6702 16.3805 31.2718 16.2737 31.0919 15.9621C30.912 15.6505 31.0187 15.252 31.3303 15.0721L34.7157 13.1175ZM37.1364 20.8485C37.4962 20.8485 37.7879 21.1402 37.7879 21.5C37.7879 21.8598 37.4962 22.1515 37.1364 22.1515H33.2273C32.8675 22.1515 32.5758 21.8598 32.5758 21.5C32.5758 21.1402 32.8675 20.8485 33.2273 20.8485H37.1364Z" fill="#212121"/>
</svg>
