<svg width="35" height="35" viewBox="0 0 35 35" fill="none" xmlns="http://www.w3.org/2000/svg">
<path d="M27.529 16.8067C26.6396 16.7173 24.6828 16.7173 24.6828 15.4623C24.6828 13.7599 27.173 11.5193 31.1753 9.09934C32.4201 8.29251 35.0002 7.03813 35.0002 5.33506C35.0002 3.99072 34.0215 3.00509 31.976 3.27385C30.0192 3.5426 26.995 4.88695 22.9933 8.29251C18.8129 11.788 14.8999 17.6135 14.8999 23.3491C14.8999 29.1746 18.8129 35 25.128 35C30.1972 35 34.5555 31.1464 34.5555 25.8584C34.5549 21.8254 31.798 17.1654 27.529 16.8067Z" fill="#FF8522"/>
<path d="M15.0261 14.2861C14.2956 13.9014 13.4943 13.6496 12.6296 13.5772C11.7402 13.4878 9.78344 13.4878 9.78344 12.2329C9.78344 10.5304 12.2737 8.28978 16.276 5.86985C17.5214 5.06302 20.1003 3.80863 20.1003 2.10557C20.1003 0.761227 19.1216 -0.2244 17.0761 0.044356C15.1193 0.313112 12.0951 1.65746 8.09335 5.06302C3.9136 8.55854 0 14.384 0 20.1201C0 25.9456 3.91304 31.7711 10.2281 31.7711C11.7127 31.7711 13.1356 31.4384 14.4062 30.8381C13.1603 28.5681 12.496 25.9417 12.496 23.3492C12.4966 20.1479 13.5196 17.0433 15.0261 14.2861Z" fill="#FF8522"/>
</svg>
