<svg width="50" height="50" viewBox="0 0 50 50" fill="none" xmlns="http://www.w3.org/2000/svg">
<rect x="0.5" y="0.5" width="49" height="49" rx="24.5" stroke="white"/>
<path d="M20.5508 17.0024C20.4317 17.0127 20.3182 17.0606 20.2249 17.14C20.1316 17.2194 20.0627 17.3266 20.0272 17.4479C19.9916 17.5692 19.9909 17.699 20.0253 17.8207C20.0596 17.9424 20.1274 18.0504 20.2199 18.1308L28.4686 25.5056L20.2199 32.8737C20.1596 32.9278 20.1099 32.9939 20.0737 33.0684C20.0374 33.1428 20.0153 33.2242 20.0087 33.3077C20.002 33.3912 20.0109 33.4753 20.0348 33.5552C20.0587 33.6351 20.0972 33.7092 20.148 33.7732C20.1988 33.8373 20.2611 33.8901 20.3311 33.9286C20.4012 33.9672 20.4777 33.9906 20.5562 33.9977C20.6348 34.0048 20.7139 33.9953 20.7891 33.9699C20.8642 33.9445 20.9339 33.9036 20.9942 33.8495L29.7862 25.9902C29.8532 25.9303 29.907 25.8557 29.9439 25.7714C29.9809 25.6871 30 25.5953 30 25.5023C30 25.4093 29.9809 25.3174 29.9439 25.2332C29.907 25.1489 29.8532 25.0742 29.7862 25.0144L20.9942 17.155C20.9336 17.0994 20.8632 17.0572 20.787 17.031C20.7109 17.0048 20.6306 16.995 20.5508 17.0024Z" fill="white"/>
</svg>
