<svg width="95" height="14" viewBox="0 0 95 14" fill="none" xmlns="http://www.w3.org/2000/svg">
<path d="M3.73117 9.03502L2.86281 14L7.40682 11.6576C7.4663 11.6265 7.5337 11.6265 7.59318 11.6576L12.1372 14L11.2688 9.03502C11.2569 8.97276 11.2807 8.90661 11.3243 8.86381L15 5.3463L9.9207 4.62257C9.85726 4.61479 9.80174 4.57198 9.77002 4.51751L7.50198 0L5.22998 4.51751C5.20222 4.57588 5.14671 4.61479 5.0793 4.62257L0 5.3463L3.67565 8.86381C3.72324 8.90661 3.74306 8.97276 3.73117 9.03502Z" fill="#FF8522"/>
<path d="M63.7312 9.03502L62.8628 14L67.4068 11.6576C67.4663 11.6265 67.5337 11.6265 67.5932 11.6576L72.1372 14L71.2688 9.03502C71.2569 8.97276 71.2807 8.90661 71.3243 8.86381L75 5.3463L69.9207 4.62257C69.8573 4.61479 69.8017 4.57198 69.77 4.51751L67.502 0L65.23 4.51751C65.2022 4.57588 65.1467 4.61479 65.0793 4.62257L60 5.3463L63.6757 8.86381C63.7232 8.90661 63.7431 8.97276 63.7312 9.03502Z" fill="#FF8522"/>
<path d="M23.7312 9.03502L22.8628 14L27.4068 11.6576C27.4663 11.6265 27.5337 11.6265 27.5932 11.6576L32.1372 14L31.2688 9.03502C31.2569 8.97276 31.2807 8.90661 31.3243 8.86381L35 5.3463L29.9207 4.62257C29.8573 4.61479 29.8017 4.57198 29.77 4.51751L27.502 0L25.23 4.51751C25.2022 4.57588 25.1467 4.61479 25.0793 4.62257L20 5.3463L23.6757 8.86381C23.7232 8.90661 23.7431 8.97276 23.7312 9.03502Z" fill="#FF8522"/>
<path d="M43.7312 9.03502L42.8628 14L47.4068 11.6576C47.4663 11.6265 47.5337 11.6265 47.5932 11.6576L52.1372 14L51.2688 9.03502C51.2569 8.97276 51.2807 8.90661 51.3243 8.86381L55 5.3463L49.9207 4.62257C49.8573 4.61479 49.8017 4.57198 49.77 4.51751L47.502 0L45.23 4.51751C45.2022 4.57588 45.1467 4.61479 45.0793 4.62257L40 5.3463L43.6757 8.86381C43.7232 8.90661 43.7431 8.97276 43.7312 9.03502Z" fill="#FF8522"/>
<path d="M83.7312 9.03502L82.8628 14L87.4068 11.6576C87.4663 11.6265 87.5337 11.6265 87.5932 11.6576L92.1372 14L91.2688 9.03502C91.2569 8.97276 91.2807 8.90661 91.3243 8.86381L95 5.3463L89.9207 4.62257C89.8573 4.61479 89.8017 4.57198 89.77 4.51751L87.502 0L85.23 4.51751C85.2022 4.57588 85.1467 4.61479 85.0793 4.62257L80 5.3463L83.6757 8.86381C83.7232 8.90661 83.7431 8.97276 83.7312 9.03502Z" fill="#FF8522"/>
</svg>
