<svg width="117" height="16" viewBox="0 0 117 16" fill="none" xmlns="http://www.w3.org/2000/svg">
<path d="M104.229 10.3257L103.245 16L108.394 13.323C108.462 13.2874 108.538 13.2874 108.606 13.323L113.755 16L112.771 10.3257C112.758 10.2546 112.785 10.179 112.834 10.1301L117 6.11006L111.243 5.28293C111.172 5.27404 111.109 5.22512 111.073 5.16287L108.502 0L105.927 5.16287C105.896 5.22957 105.833 5.27404 105.757 5.28293L100 6.11006L104.166 10.1301C104.22 10.179 104.242 10.2546 104.229 10.3257Z" fill="#EFEFEF"/>
<path d="M79.2287 10.3257L78.2445 16L83.3944 13.323C83.4618 13.2874 83.5382 13.2874 83.6056 13.323L88.7555 16L87.7713 10.3257C87.7579 10.2546 87.7848 10.179 87.8343 10.1301L92 6.11006L86.2435 5.28293C86.1716 5.27404 86.1086 5.22512 86.0727 5.16287L83.5022 0L80.9273 5.16287C80.8959 5.22957 80.8329 5.27404 80.7565 5.28293L75 6.11006L79.1657 10.1301C79.2197 10.179 79.2421 10.2546 79.2287 10.3257Z" fill="#FF8522"/>
<path d="M54.2287 10.3257L53.2445 16L58.3944 13.323C58.4618 13.2874 58.5382 13.2874 58.6056 13.323L63.7555 16L62.7713 10.3257C62.7579 10.2546 62.7848 10.179 62.8343 10.1301L67 6.11006L61.2435 5.28293C61.1716 5.27404 61.1086 5.22512 61.0727 5.16287L58.5022 0L55.9273 5.16287C55.8959 5.22957 55.8329 5.27404 55.7565 5.28293L50 6.11006L54.1657 10.1301C54.2197 10.179 54.2421 10.2546 54.2287 10.3257Z" fill="#FF8522"/>
<path d="M29.2287 10.3257L28.2445 16L33.3944 13.323C33.4618 13.2874 33.5382 13.2874 33.6056 13.323L38.7555 16L37.7713 10.3257C37.7579 10.2546 37.7848 10.179 37.8343 10.1301L42 6.11006L36.2435 5.28293C36.1716 5.27404 36.1086 5.22512 36.0727 5.16287L33.5022 0L30.9273 5.16287C30.8959 5.22957 30.8329 5.27404 30.7565 5.28293L25 6.11006L29.1657 10.1301C29.2197 10.179 29.2421 10.2546 29.2287 10.3257Z" fill="#FF8522"/>
<path d="M4.22865 10.3257L3.24451 16L8.3944 13.323C8.4618 13.2874 8.5382 13.2874 8.6056 13.323L13.7555 16L12.7713 10.3257C12.7579 10.2546 12.7848 10.179 12.8343 10.1301L17 6.11006L11.2435 5.28293C11.1716 5.27404 11.1086 5.22512 11.0727 5.16287L8.50225 0L5.92731 5.16287C5.89585 5.22957 5.83294 5.27404 5.75654 5.28293L0 6.11006L4.16574 10.1301C4.21967 10.179 4.24214 10.2546 4.22865 10.3257Z" fill="#FF8522"/>
</svg>
