<svg width="385" height="61" viewBox="0 0 385 61" fill="none" xmlns="http://www.w3.org/2000/svg">
<circle cx="30.5" cy="30.5" r="30" fill="#EFEFEF" stroke="white"/>
<path d="M23.4623 35.07L21.7256 45L30.8136 40.3152C30.9326 40.2529 31.0674 40.2529 31.1864 40.3152L40.2744 45L38.5377 35.07C38.5139 34.9455 38.5615 34.8132 38.6487 34.7276L46 27.6926L35.8414 26.2451C35.7145 26.2296 35.6035 26.144 35.54 26.035L31.004 17L26.46 26.035C26.4044 26.1518 26.2934 26.2296 26.1586 26.2451L16 27.6926L23.3513 34.7276C23.4465 34.8132 23.4861 34.9455 23.4623 35.07Z" fill="#FF8522"/>
<circle cx="111.5" cy="30.5" r="30" fill="#EFEFEF" stroke="white"/>
<path d="M103.462 35.07L101.726 45L110.814 40.3152C110.933 40.2529 111.067 40.2529 111.186 40.3152L120.274 45L118.538 35.07C118.514 34.9455 118.561 34.8132 118.649 34.7276L126 27.6926L115.841 26.2451C115.715 26.2296 115.603 26.144 115.54 26.035L111.004 17L106.46 26.035C106.404 26.1518 106.293 26.2296 106.159 26.2451L96 27.6926L103.351 34.7276C103.446 34.8132 103.486 34.9455 103.462 35.07Z" fill="#FF8522"/>
<circle cx="192.5" cy="30.5" r="30" fill="#EFEFEF" stroke="white"/>
<path d="M184.462 35.07L182.726 45L191.814 40.3152C191.933 40.2529 192.067 40.2529 192.186 40.3152L201.274 45L199.538 35.07C199.514 34.9455 199.561 34.8132 199.649 34.7276L207 27.6926L196.841 26.2451C196.715 26.2296 196.603 26.144 196.54 26.035L192.004 17L187.46 26.035C187.404 26.1518 187.293 26.2296 187.159 26.2451L177 27.6926L184.351 34.7276C184.446 34.8132 184.486 34.9455 184.462 35.07Z" fill="#FF8522"/>
<circle cx="273.5" cy="30.5" r="30" fill="#EFEFEF" stroke="white"/>
<path d="M265.462 35.07L263.726 45L272.814 40.3152C272.933 40.2529 273.067 40.2529 273.186 40.3152L282.274 45L280.538 35.07C280.514 34.9455 280.561 34.8132 280.649 34.7276L288 27.6926L277.841 26.2451C277.715 26.2296 277.603 26.144 277.54 26.035L273.004 17L268.46 26.035C268.404 26.1518 268.293 26.2296 268.159 26.2451L258 27.6926L265.351 34.7276C265.446 34.8132 265.486 34.9455 265.462 35.07Z" fill="#FF8522"/>
<circle cx="354.5" cy="30.5" r="30" fill="#EFEFEF" stroke="white"/>
<path d="M346.462 35.07L344.726 45L353.814 40.3152C353.933 40.2529 354.067 40.2529 354.186 40.3152L363.274 45L361.538 35.07C361.514 34.9455 361.561 34.8132 361.649 34.7276L369 27.6926L358.841 26.2451C358.715 26.2296 358.603 26.144 358.54 26.035L354.004 17L349.46 26.035C349.404 26.1518 349.293 26.2296 349.159 26.2451L339 27.6926L346.351 34.7276C346.446 34.8132 346.486 34.9455 346.462 35.07Z" fill="#FF8522"/>
</svg>
