<svg width="95" height="15" viewBox="0 0 95 15" fill="none" xmlns="http://www.w3.org/2000/svg">
<path d="M3.73117 9.12811L2.86281 14.0799L7.40682 11.7437C7.4663 11.7126 7.5337 11.7126 7.59318 11.7437L12.1372 14.0799L11.2688 9.12811C11.2569 9.06602 11.2807 9.00005 11.3243 8.95736L15 5.44923L9.9207 4.72743C9.85726 4.71967 9.80174 4.67698 9.77002 4.62265L7.50198 0.117188L5.22998 4.62265C5.20222 4.68086 5.14671 4.71967 5.0793 4.72743L0 5.44923L3.67565 8.95736C3.72324 9.00005 3.74306 9.06602 3.73117 9.12811Z" fill="#FF8522"/>
<path d="M63.7312 9.12811L62.8628 14.0799L67.4068 11.7437C67.4663 11.7126 67.5337 11.7126 67.5932 11.7437L72.1372 14.0799L71.2688 9.12811C71.2569 9.06602 71.2807 9.00005 71.3243 8.95736L75 5.44923L69.9207 4.72743C69.8573 4.71967 69.8017 4.67698 69.77 4.62265L67.502 0.117188L65.23 4.62265C65.2022 4.68086 65.1467 4.71967 65.0793 4.72743L60 5.44923L63.6757 8.95736C63.7232 9.00005 63.7431 9.06602 63.7312 9.12811Z" fill="#FF8522"/>
<path d="M23.7312 9.12811L22.8628 14.0799L27.4068 11.7437C27.4663 11.7126 27.5337 11.7126 27.5932 11.7437L32.1372 14.0799L31.2688 9.12811C31.2569 9.06602 31.2807 9.00005 31.3243 8.95736L35 5.44923L29.9207 4.72743C29.8573 4.71967 29.8017 4.67698 29.77 4.62265L27.502 0.117188L25.23 4.62265C25.2022 4.68086 25.1467 4.71967 25.0793 4.72743L20 5.44923L23.6757 8.95736C23.7232 9.00005 23.7431 9.06602 23.7312 9.12811Z" fill="#FF8522"/>
<path d="M43.7312 9.12811L42.8628 14.0799L47.4068 11.7437C47.4663 11.7126 47.5337 11.7126 47.5932 11.7437L52.1372 14.0799L51.2688 9.12811C51.2569 9.06602 51.2807 9.00005 51.3243 8.95736L55 5.44923L49.9207 4.72743C49.8573 4.71967 49.8017 4.67698 49.77 4.62265L47.502 0.117188L45.23 4.62265C45.2022 4.68086 45.1467 4.71967 45.0793 4.72743L40 5.44923L43.6757 8.95736C43.7232 9.00005 43.7431 9.06602 43.7312 9.12811Z" fill="#FF8522"/>
<path d="M83.7312 9.12811L82.8628 14.0799L87.4068 11.7437C87.4663 11.7126 87.5337 11.7126 87.5932 11.7437L92.1372 14.0799L91.2688 9.12811C91.2569 9.06602 91.2807 9.00005 91.3243 8.95736L95 5.44923L89.9207 4.72743C89.8573 4.71967 89.8017 4.67698 89.77 4.62265L87.502 0.117188L85.23 4.62265C85.2022 4.68086 85.1467 4.71967 85.0793 4.72743L80 5.44923L83.6757 8.95736C83.7232 9.00005 83.7431 9.06602 83.7312 9.12811Z" fill="#FF8522"/>
</svg>
