<svg width="20" height="32" viewBox="0 0 20 32" fill="none" xmlns="http://www.w3.org/2000/svg">
<path d="M1.10166 0.00442531C0.863428 0.0238456 0.636433 0.114072 0.449817 0.263502C0.263201 0.412931 0.125482 0.614749 0.0543406 0.843055C-0.0168011 1.07136 -0.0181184 1.31572 0.0505576 1.54478C0.119234 1.77384 0.254768 1.97714 0.439762 2.12858L16.9373 16.0105L0.439762 29.88C0.319192 29.9817 0.21983 30.1062 0.147352 30.2464C0.0748733 30.3865 0.0306983 30.5396 0.0173487 30.6968C0.00399904 30.854 0.0217364 31.0124 0.0695482 31.1627C0.11736 31.3131 0.194309 31.4526 0.296002 31.5732C0.397695 31.6938 0.522139 31.7932 0.662228 31.8657C0.802317 31.9382 0.955307 31.9824 1.11246 31.9957C1.26961 32.009 1.42785 31.9912 1.57814 31.9434C1.72843 31.8955 1.86782 31.8185 1.98836 31.7168L19.5724 16.9226C19.7063 16.81 19.814 16.6695 19.8879 16.5108C19.9617 16.3522 20 16.1793 20 16.0043C20 15.8293 19.9617 15.6564 19.8879 15.4977C19.814 15.3391 19.7063 15.1985 19.5724 15.0859L1.98836 0.291811C1.86722 0.187114 1.72635 0.107741 1.57406 0.0583833C1.42177 0.0090256 1.26115 -0.00931766 1.10166 0.00442531Z" fill="#212121"/>
</svg>
