<svg width="20" height="32" viewBox="0 0 20 32" fill="none" xmlns="http://www.w3.org/2000/svg">
<path d="M18.8983 0.00442531C19.1366 0.0238456 19.3636 0.114072 19.5502 0.263502C19.7368 0.412931 19.8745 0.614749 19.9457 0.843055C20.0168 1.07136 20.0181 1.31572 19.9494 1.54478C19.8808 1.77384 19.7452 1.97714 19.5602 2.12858L3.0627 16.0105L19.5602 29.88C19.6808 29.9817 19.7802 30.1062 19.8526 30.2464C19.9251 30.3865 19.9693 30.5396 19.9827 30.6968C19.996 30.854 19.9783 31.0124 19.9305 31.1627C19.8826 31.3131 19.8057 31.4526 19.704 31.5732C19.6023 31.6938 19.4779 31.7932 19.3378 31.8657C19.1977 31.9382 19.0447 31.9824 18.8875 31.9957C18.7304 32.009 18.5721 31.9912 18.4219 31.9434C18.2716 31.8955 18.1322 31.8185 18.0116 31.7168L0.427589 16.9226C0.293674 16.81 0.186007 16.6695 0.112141 16.5108C0.0382748 16.3522 0 16.1793 0 16.0043C0 15.8293 0.0382748 15.6564 0.112141 15.4977C0.186007 15.3391 0.293674 15.1985 0.427589 15.0859L18.0116 0.291811C18.1328 0.187114 18.2737 0.107741 18.4259 0.0583833C18.5782 0.0090256 18.7388 -0.00931766 18.8983 0.00442531Z" fill="#212121"/>
</svg>
