<svg width="100" height="40" viewBox="0 0 100 40" fill="none" xmlns="http://www.w3.org/2000/svg">
<rect x="0.5" y="0.5" width="39" height="39" rx="19.5" stroke="white"/>
<path d="M22.6144 14.0017C22.6978 14.0089 22.7772 14.0428 22.8426 14.0988C22.9079 14.1548 22.9561 14.2305 22.981 14.3161C23.0059 14.4018 23.0063 14.4934 22.9823 14.5793C22.9583 14.6652 22.9108 14.7414 22.8461 14.7982L17.0719 20.004L22.8461 25.205C22.8883 25.2431 22.9231 25.2898 22.9484 25.3424C22.9738 25.3949 22.9893 25.4523 22.9939 25.5113C22.9986 25.5703 22.9924 25.6296 22.9757 25.686C22.9589 25.7424 22.932 25.7947 22.8964 25.8399C22.8608 25.8852 22.8173 25.9224 22.7682 25.9496C22.7192 25.9768 22.6656 25.9934 22.6106 25.9984C22.5556 26.0034 22.5003 25.9967 22.4477 25.9788C22.3951 25.9608 22.3463 25.9319 22.3041 25.8938L16.1497 20.346C16.1028 20.3038 16.0651 20.2511 16.0392 20.1916C16.0134 20.1321 16 20.0672 16 20.0016C16 19.936 16.0134 19.8711 16.0392 19.8116C16.0651 19.7521 16.1028 19.6994 16.1497 19.6572L22.3041 14.1094C22.3465 14.0702 22.3958 14.0404 22.4491 14.0219C22.5024 14.0034 22.5586 13.9965 22.6144 14.0017Z" fill="white"/>
<rect x="60.5" y="0.5" width="39" height="39" rx="19.5" stroke="white"/>
<path d="M78.3856 14.0017C78.3022 14.0089 78.2228 14.0428 78.1574 14.0988C78.0921 14.1548 78.0439 14.2305 78.019 14.3161C77.9941 14.4018 77.9937 14.4934 78.0177 14.5793C78.0417 14.6652 78.0892 14.7414 78.1539 14.7982L83.9281 20.004L78.1539 25.205C78.1117 25.2431 78.0769 25.2898 78.0516 25.3424C78.0262 25.3949 78.0107 25.4523 78.0061 25.5113C78.0014 25.5703 78.0076 25.6296 78.0243 25.686C78.0411 25.7424 78.068 25.7947 78.1036 25.8399C78.1392 25.8852 78.1827 25.9224 78.2318 25.9496C78.2808 25.9768 78.3344 25.9934 78.3894 25.9984C78.4444 26.0034 78.4997 25.9967 78.5523 25.9788C78.6049 25.9608 78.6537 25.9319 78.6959 25.8938L84.8503 20.346C84.8972 20.3038 84.9349 20.2511 84.9608 20.1916C84.9866 20.1321 85 20.0672 85 20.0016C85 19.936 84.9866 19.8711 84.9608 19.8116C84.9349 19.7521 84.8972 19.6994 84.8503 19.6572L78.6959 14.1094C78.6535 14.0702 78.6042 14.0404 78.5509 14.0219C78.4976 14.0034 78.4414 13.9965 78.3856 14.0017Z" fill="white"/>
</svg>
