<svg width="168" height="66" viewBox="0 0 168 66" fill="none" xmlns="http://www.w3.org/2000/svg">
<rect x="0.5" y="0.5" width="65" height="65" rx="32.5" stroke="#212121"/>
<path d="M36.406 24.5005L36.406 24.5005L36.4036 24.5003C36.3947 24.4995 36.3854 24.5005 36.3758 24.5038L36.213 24.031L36.3758 24.5038C36.3661 24.5071 36.355 24.5132 36.344 24.5233L36.344 24.5233L36.339 24.5278L27.547 32.3872L27.5469 32.3873C27.5348 32.3981 27.5229 32.4136 27.514 32.4338C27.5051 32.4542 27.5 32.4776 27.5 32.5023C27.5 32.5269 27.5051 32.5504 27.514 32.5707C27.5229 32.591 27.5348 32.6064 27.5469 32.6173L27.547 32.6174L36.3391 40.4768L36.3397 40.4773C36.3506 40.4871 36.3615 40.493 36.3712 40.4963L36.2109 40.9699L36.3712 40.4963C36.3808 40.4996 36.3901 40.5005 36.3989 40.4997C36.4077 40.4989 36.4176 40.4962 36.428 40.4905C36.4384 40.4848 36.4498 40.4757 36.4603 40.4625L36.8517 40.773L36.4603 40.4624C36.4709 40.4491 36.4802 40.4321 36.4862 40.4119C36.4923 40.3916 36.4947 40.3696 36.4929 40.3475C36.4911 40.3254 36.4853 40.3049 36.4768 40.2872C36.4682 40.2697 36.4575 40.2561 36.4466 40.2463C36.4465 40.2462 36.4464 40.2461 36.4464 40.2461L28.1983 32.8785L27.781 32.5058L28.1981 32.1328L36.4469 24.7581L36.4468 24.758L36.452 24.7535C36.4686 24.7391 36.4847 24.716 36.4935 24.6849C36.5023 24.6536 36.5021 24.6196 36.493 24.5886C36.484 24.5577 36.4677 24.535 36.4511 24.5208C36.4348 24.507 36.4189 24.5016 36.406 24.5005Z" fill="white" stroke="#212121"/>
<rect x="102" width="66" height="66" rx="33" fill="#212121"/>
<path d="M132.551 24.0024C132.432 24.0127 132.318 24.0606 132.225 24.14C132.132 24.2194 132.063 24.3266 132.027 24.4479C131.992 24.5692 131.991 24.699 132.025 24.8207C132.06 24.9424 132.127 25.0504 132.22 25.1308L140.469 32.5056L132.22 39.8737C132.16 39.9278 132.11 39.9939 132.074 40.0684C132.037 40.1428 132.015 40.2242 132.009 40.3077C132.002 40.3912 132.011 40.4753 132.035 40.5552C132.059 40.6351 132.097 40.7092 132.148 40.7732C132.199 40.8373 132.261 40.8901 132.331 40.9286C132.401 40.9672 132.478 40.9906 132.556 40.9977C132.635 41.0048 132.714 40.9953 132.789 40.9699C132.864 40.9445 132.934 40.9036 132.994 40.8495L141.786 32.9902C141.853 32.9303 141.907 32.8557 141.944 32.7714C141.981 32.6871 142 32.5953 142 32.5023C142 32.4093 141.981 32.3174 141.944 32.2332C141.907 32.1489 141.853 32.0742 141.786 32.0144L132.994 24.155C132.934 24.0994 132.863 24.0572 132.787 24.031C132.711 24.0048 132.631 23.995 132.551 24.0024Z" fill="white"/>
</svg>
