<svg width="157" height="72" viewBox="0 0 157 72" fill="none" xmlns="http://www.w3.org/2000/svg">
<path d="M33.912 4.888V10.288H13.248L10.224 25.48C12.72 22.792 16.152 21.448 20.52 21.448C25.32 21.448 29.208 23.008 32.184 26.128C35.16 29.2 36.648 33.208 36.648 38.152C36.648 43.336 35.016 47.608 31.752 50.968C28.488 54.328 24.24 56.008 19.008 56.008C14.16 56.008 10.224 54.664 7.2 51.976C4.224 49.288 2.664 45.712 2.52 41.248H8.712C8.952 44.08 10.032 46.384 11.952 48.16C13.872 49.936 16.248 50.824 19.08 50.824C22.248 50.824 24.888 49.672 27 47.368C29.112 45.064 30.168 42.208 30.168 38.8C30.168 35.248 29.136 32.368 27.072 30.16C25.008 27.904 22.32 26.776 19.008 26.776C14.784 26.776 11.52 28.432 9.216 31.744L3.96 31.384L8.712 4.888H33.912Z" fill="white"/>
<path d="M54.6 42.688H60.648C60.984 45.184 61.968 47.152 63.6 48.592C65.28 49.984 67.416 50.68 70.008 50.68C76.68 50.68 80.472 45.136 81.384 34.048C81.48 33.04 81.528 31.912 81.528 30.664C78.648 35.32 74.496 37.648 69.072 37.648C64.416 37.648 60.648 36.136 57.768 33.112C54.888 30.04 53.448 26.032 53.448 21.088C53.448 16 55.008 11.872 58.128 8.704C61.248 5.536 65.304 3.952 70.296 3.952C82.008 3.952 87.864 12.256 87.864 28.864C87.864 31.408 87.696 33.856 87.36 36.208C87.072 38.512 86.52 40.912 85.704 43.408C84.888 45.856 83.832 47.992 82.536 49.816C81.24 51.64 79.488 53.128 77.28 54.28C75.12 55.432 72.624 56.008 69.792 56.008C65.472 56.008 61.92 54.832 59.136 52.48C56.4 50.128 54.888 46.864 54.6 42.688ZM70.008 9.424C66.984 9.424 64.536 10.48 62.664 12.592C60.84 14.656 59.928 17.416 59.928 20.872C59.928 24.136 60.792 26.848 62.52 29.008C64.296 31.12 66.792 32.176 70.008 32.176C73.128 32.176 75.648 31.168 77.568 29.152C79.488 27.088 80.448 24.376 80.448 21.016C80.448 17.512 79.488 14.704 77.568 12.592C75.648 10.48 73.128 9.424 70.008 9.424Z" fill="white"/>
<path d="M118.214 36H116.684V28.674H116.63L113.876 36H112.472L109.718 28.674H109.664V36H108.134V26.712H110.33L113.156 34.236H113.192L116.018 26.712H118.214V36ZM122.436 36H120.474V26.712H122.004V34.29H122.04L126.216 26.712H128.178V36H126.648V28.422H126.612L122.436 36ZM132.006 36H130.476V26.712H132.006V30.402H136.65V26.712H138.18V36H136.65V31.752H132.006V36ZM148.164 26.712L144.186 37.188C144.03 37.608 143.892 37.932 143.772 38.16C143.664 38.4 143.502 38.658 143.286 38.934C143.082 39.222 142.83 39.426 142.53 39.546C142.242 39.678 141.9 39.744 141.504 39.744C141.204 39.744 140.826 39.69 140.37 39.582V38.214C140.814 38.346 141.144 38.412 141.36 38.412C141.864 38.412 142.224 38.154 142.44 37.638L143.16 35.946L139.47 26.712H141.198L143.952 34.11L146.562 26.712H148.164ZM156.588 28.062H153.258V36H151.728V28.062H148.398V26.712H156.588V28.062Z" fill="white"/>
</svg>
