<svg width="50" height="50" viewBox="0 0 50 50" fill="none" xmlns="http://www.w3.org/2000/svg">
<rect x="-0.5" y="0.5" width="49" height="49" rx="24.5" transform="matrix(-1 0 0 1 49 0)" stroke="white"/>
<path d="M29.4492 17.0024C29.5683 17.0127 29.6818 17.0606 29.7751 17.14C29.8684 17.2194 29.9373 17.3266 29.9728 17.4479C30.0084 17.5692 30.0091 17.699 29.9747 17.8207C29.9404 17.9424 29.8726 18.0504 29.7801 18.1308L21.5314 25.5056L29.7801 32.8737C29.8404 32.9278 29.8901 32.9939 29.9263 33.0684C29.9626 33.1428 29.9847 33.2242 29.9913 33.3077C29.998 33.3912 29.9891 33.4753 29.9652 33.5552C29.9413 33.6351 29.9028 33.7092 29.852 33.7732C29.8012 33.8373 29.7389 33.8901 29.6689 33.9286C29.5988 33.9672 29.5223 33.9906 29.4438 33.9977C29.3652 34.0048 29.2861 33.9953 29.2109 33.9699C29.1358 33.9445 29.0661 33.9036 29.0058 33.8495L20.2138 25.9902C20.1468 25.9303 20.093 25.8557 20.0561 25.7714C20.0191 25.6871 20 25.5953 20 25.5023C20 25.4093 20.0191 25.3174 20.0561 25.2332C20.093 25.1489 20.1468 25.0742 20.2138 25.0144L29.0058 17.155C29.0664 17.0994 29.1368 17.0572 29.213 17.031C29.2891 17.0048 29.3694 16.995 29.4492 17.0024Z" fill="white"/>
</svg>
