<svg width="166" height="72" viewBox="0 0 166 72" fill="none" xmlns="http://www.w3.org/2000/svg">
<path d="M33.912 4.888V10.288H13.248L10.224 25.48C12.72 22.792 16.152 21.448 20.52 21.448C25.32 21.448 29.208 23.008 32.184 26.128C35.16 29.2 36.648 33.208 36.648 38.152C36.648 43.336 35.016 47.608 31.752 50.968C28.488 54.328 24.24 56.008 19.008 56.008C14.16 56.008 10.224 54.664 7.2 51.976C4.224 49.288 2.664 45.712 2.52 41.248H8.712C8.952 44.08 10.032 46.384 11.952 48.16C13.872 49.936 16.248 50.824 19.08 50.824C22.248 50.824 24.888 49.672 27 47.368C29.112 45.064 30.168 42.208 30.168 38.8C30.168 35.248 29.136 32.368 27.072 30.16C25.008 27.904 22.32 26.776 19.008 26.776C14.784 26.776 11.52 28.432 9.216 31.744L3.96 31.384L8.712 4.888H33.912Z" fill="white"/>
<path d="M84.912 4.888V10.288H64.248L61.224 25.48C63.72 22.792 67.152 21.448 71.52 21.448C76.32 21.448 80.208 23.008 83.184 26.128C86.16 29.2 87.648 33.208 87.648 38.152C87.648 43.336 86.016 47.608 82.752 50.968C79.488 54.328 75.24 56.008 70.008 56.008C65.16 56.008 61.224 54.664 58.2 51.976C55.224 49.288 53.664 45.712 53.52 41.248H59.712C59.952 44.08 61.032 46.384 62.952 48.16C64.872 49.936 67.248 50.824 70.08 50.824C73.248 50.824 75.888 49.672 78 47.368C80.112 45.064 81.168 42.208 81.168 38.8C81.168 35.248 80.136 32.368 78.072 30.16C76.008 27.904 73.32 26.776 70.008 26.776C65.784 26.776 62.52 28.432 60.216 31.744L54.96 31.384L59.712 4.888H84.912Z" fill="white"/>
<path d="M116.144 32.616C116.012 33.732 115.586 34.62 114.866 35.28C114.158 35.94 113.234 36.27 112.094 36.27C110.69 36.27 109.604 35.838 108.836 34.974C108.068 34.098 107.684 32.934 107.684 31.482C107.684 29.934 108.086 28.71 108.89 27.81C109.694 26.898 110.78 26.442 112.148 26.442C113.288 26.442 114.2 26.73 114.884 27.306C115.568 27.87 115.97 28.68 116.09 29.736H114.506C114.23 28.392 113.45 27.72 112.166 27.72C111.278 27.72 110.576 28.05 110.06 28.71C109.544 29.358 109.286 30.24 109.286 31.356C109.286 32.484 109.532 33.372 110.024 34.02C110.516 34.668 111.194 34.992 112.058 34.992C112.754 34.992 113.318 34.788 113.75 34.38C114.194 33.972 114.476 33.384 114.596 32.616H116.144ZM125.758 33.066C125.29 35.226 123.94 36.306 121.708 36.306C120.34 36.306 119.266 35.88 118.486 35.028C117.718 34.176 117.334 32.994 117.334 31.482C117.334 29.982 117.73 28.77 118.522 27.846C119.326 26.91 120.37 26.442 121.654 26.442C123.082 26.442 124.138 26.928 124.822 27.9C125.518 28.86 125.866 30.078 125.866 31.554V31.77H118.882L118.864 31.878C118.864 32.862 119.122 33.636 119.638 34.2C120.154 34.764 120.862 35.046 121.762 35.046C122.434 35.046 122.962 34.89 123.346 34.578C123.742 34.266 124.048 33.762 124.264 33.066H125.758ZM124.282 30.528C124.21 29.64 123.94 28.95 123.472 28.458C123.004 27.954 122.386 27.702 121.618 27.702C120.874 27.702 120.256 27.954 119.764 28.458C119.272 28.962 118.978 29.652 118.882 30.528H124.282ZM135.804 36H133.86L130.476 31.428L129.018 32.85V36H127.488V26.712H129.018V31.14L133.266 26.712H135.318L131.574 30.366L135.804 36ZM144.508 26.712L140.53 37.188C140.374 37.608 140.236 37.932 140.116 38.16C140.008 38.4 139.846 38.658 139.63 38.934C139.426 39.222 139.174 39.426 138.874 39.546C138.586 39.678 138.244 39.744 137.848 39.744C137.548 39.744 137.17 39.69 136.714 39.582V38.214C137.158 38.346 137.488 38.412 137.704 38.412C138.208 38.412 138.568 38.154 138.784 37.638L139.504 35.946L135.814 26.712H137.542L140.296 34.11L142.906 26.712H144.508ZM147.352 36H145.822V26.712H147.352V30.402H151.996V26.712H153.526V36H151.996V31.752H147.352V36ZM164.824 38.952H163.366V36H156.274V38.952H154.816V34.65H155.824C156.112 34.098 156.376 33.246 156.616 32.094C156.868 30.93 156.994 29.796 156.994 28.692V26.712H163.618V34.65H164.824V38.952ZM162.088 34.65V28.062H158.488V28.836C158.488 29.928 158.374 31.038 158.146 32.166C157.93 33.282 157.684 34.11 157.408 34.65H162.088Z" fill="white"/>
</svg>
