<svg width="156" height="72" viewBox="0 0 156 72" fill="none" xmlns="http://www.w3.org/2000/svg">
<path d="M19.944 3.952C23.016 3.952 25.632 4.528 27.792 5.68C30 6.784 31.68 8.152 32.832 9.784C33.984 11.416 34.896 13.552 35.568 16.192C36.24 18.784 36.648 21.136 36.792 23.248C36.936 25.312 37.008 27.808 37.008 30.736C37.008 33.424 36.888 35.848 36.648 38.008C36.456 40.168 36 42.424 35.28 44.776C34.608 47.128 33.672 49.096 32.472 50.68C31.272 52.216 29.64 53.488 27.576 54.496C25.512 55.504 23.064 56.008 20.232 56.008C17.256 56.008 14.664 55.504 12.456 54.496C10.296 53.44 8.616 52.144 7.416 50.608C6.216 49.072 5.256 47.128 4.536 44.776C3.864 42.376 3.432 40.12 3.24 38.008C3.048 35.848 2.952 33.376 2.952 30.592C2.952 28.192 3 26.104 3.096 24.328C3.24 22.552 3.48 20.56 3.816 18.352C4.2 16.096 4.776 14.2 5.544 12.664C6.312 11.08 7.296 9.592 8.496 8.2C9.696 6.808 11.256 5.752 13.176 5.032C15.144 4.312 17.4 3.952 19.944 3.952ZM23.904 10.288C22.752 9.712 21.432 9.424 19.944 9.424C18.456 9.424 17.136 9.712 15.984 10.288C14.832 10.816 13.896 11.44 13.176 12.16C12.456 12.88 11.832 13.96 11.304 15.4C10.776 16.792 10.392 17.968 10.152 18.928C9.96 19.888 9.792 21.28 9.648 23.104C9.504 24.88 9.432 26.152 9.432 26.92C9.432 27.64 9.432 28.864 9.432 30.592C9.432 32.272 9.456 33.664 9.504 34.768C9.552 35.872 9.672 37.312 9.864 39.088C10.056 40.864 10.392 42.352 10.872 43.552C11.352 44.704 11.952 45.88 12.672 47.08C13.392 48.232 14.376 49.12 15.624 49.744C16.92 50.32 18.408 50.608 20.088 50.608C21.528 50.608 22.8 50.344 23.904 49.816C25.056 49.288 25.992 48.664 26.712 47.944C27.432 47.224 28.032 46.216 28.512 44.92C29.04 43.576 29.424 42.424 29.664 41.464C29.904 40.456 30.072 39.136 30.168 37.504C30.312 35.824 30.384 34.6 30.384 33.832C30.432 33.016 30.456 31.84 30.456 30.304C30.456 28.624 30.456 27.424 30.456 26.704C30.456 25.984 30.384 24.736 30.24 22.96C30.096 21.184 29.904 19.816 29.664 18.856C29.472 17.896 29.112 16.72 28.584 15.328C28.056 13.936 27.432 12.88 26.712 12.16C25.992 11.44 25.056 10.816 23.904 10.288Z" fill="white"/>
<path d="M70.944 3.952C74.016 3.952 76.632 4.528 78.792 5.68C81 6.784 82.68 8.152 83.832 9.784C84.984 11.416 85.896 13.552 86.568 16.192C87.24 18.784 87.648 21.136 87.792 23.248C87.936 25.312 88.008 27.808 88.008 30.736C88.008 33.424 87.888 35.848 87.648 38.008C87.456 40.168 87 42.424 86.28 44.776C85.608 47.128 84.672 49.096 83.472 50.68C82.272 52.216 80.64 53.488 78.576 54.496C76.512 55.504 74.064 56.008 71.232 56.008C68.256 56.008 65.664 55.504 63.456 54.496C61.296 53.44 59.616 52.144 58.416 50.608C57.216 49.072 56.256 47.128 55.536 44.776C54.864 42.376 54.432 40.12 54.24 38.008C54.048 35.848 53.952 33.376 53.952 30.592C53.952 28.192 54 26.104 54.096 24.328C54.24 22.552 54.48 20.56 54.816 18.352C55.2 16.096 55.776 14.2 56.544 12.664C57.312 11.08 58.296 9.592 59.496 8.2C60.696 6.808 62.256 5.752 64.176 5.032C66.144 4.312 68.4 3.952 70.944 3.952ZM74.904 10.288C73.752 9.712 72.432 9.424 70.944 9.424C69.456 9.424 68.136 9.712 66.984 10.288C65.832 10.816 64.896 11.44 64.176 12.16C63.456 12.88 62.832 13.96 62.304 15.4C61.776 16.792 61.392 17.968 61.152 18.928C60.96 19.888 60.792 21.28 60.648 23.104C60.504 24.88 60.432 26.152 60.432 26.92C60.432 27.64 60.432 28.864 60.432 30.592C60.432 32.272 60.456 33.664 60.504 34.768C60.552 35.872 60.672 37.312 60.864 39.088C61.056 40.864 61.392 42.352 61.872 43.552C62.352 44.704 62.952 45.88 63.672 47.08C64.392 48.232 65.376 49.12 66.624 49.744C67.92 50.32 69.408 50.608 71.088 50.608C72.528 50.608 73.8 50.344 74.904 49.816C76.056 49.288 76.992 48.664 77.712 47.944C78.432 47.224 79.032 46.216 79.512 44.92C80.04 43.576 80.424 42.424 80.664 41.464C80.904 40.456 81.072 39.136 81.168 37.504C81.312 35.824 81.384 34.6 81.384 33.832C81.432 33.016 81.456 31.84 81.456 30.304C81.456 28.624 81.456 27.424 81.456 26.704C81.456 25.984 81.384 24.736 81.24 22.96C81.096 21.184 80.904 19.816 80.664 18.856C80.472 17.896 80.112 16.72 79.584 15.328C79.056 13.936 78.432 12.88 77.712 12.16C76.992 11.44 76.056 10.816 74.904 10.288Z" fill="white"/>
<path d="M115.334 37H113.804V32.896C113.552 32.968 113.108 33.058 112.472 33.166C111.848 33.262 111.332 33.31 110.924 33.31C109.976 33.31 109.232 33.088 108.692 32.644C108.164 32.188 107.9 31.522 107.9 30.646V27.712H109.43V30.394C109.43 31.474 110.024 32.014 111.212 32.014C112.064 32.014 112.928 31.876 113.804 31.6V27.712H115.334V37ZM125.87 35.776V36.964C125.558 37.084 125.21 37.144 124.826 37.144C123.95 37.144 123.5 36.688 123.476 35.776C122.6 36.76 121.478 37.252 120.11 37.252C119.198 37.252 118.472 37.018 117.932 36.55C117.404 36.082 117.14 35.44 117.14 34.624C117.14 32.968 118.238 32.002 120.434 31.726C121.73 31.57 122.48 31.456 122.684 31.384C123.116 31.24 123.35 30.94 123.386 30.484C123.398 30.412 123.404 30.334 123.404 30.25C123.404 29.23 122.702 28.72 121.298 28.72C120.578 28.72 120.032 28.87 119.66 29.17C119.288 29.458 119.066 29.938 118.994 30.61H117.5C117.524 29.614 117.878 28.84 118.562 28.288C119.246 27.736 120.188 27.46 121.388 27.46C122.696 27.46 123.668 27.76 124.304 28.36C124.508 28.552 124.658 28.804 124.754 29.116C124.85 29.428 124.904 29.686 124.916 29.89C124.928 30.082 124.934 30.376 124.934 30.772C124.934 31.24 124.922 31.936 124.898 32.86C124.874 33.772 124.862 34.456 124.862 34.912C124.862 35.248 124.904 35.488 124.988 35.632C125.084 35.764 125.252 35.83 125.492 35.83C125.588 35.83 125.714 35.812 125.87 35.776ZM123.404 32.176C123.296 32.26 123.182 32.332 123.062 32.392C122.942 32.452 122.786 32.5 122.594 32.536C122.414 32.572 122.288 32.602 122.216 32.626C122.156 32.638 122 32.662 121.748 32.698C121.496 32.722 121.364 32.734 121.352 32.734C120.98 32.782 120.734 32.818 120.614 32.842C120.506 32.854 120.29 32.902 119.966 32.986C119.654 33.07 119.432 33.166 119.3 33.274C119.168 33.382 119.036 33.544 118.904 33.76C118.784 33.964 118.724 34.21 118.724 34.498C118.724 34.978 118.886 35.356 119.21 35.632C119.546 35.908 120.002 36.046 120.578 36.046C121.31 36.046 121.964 35.83 122.54 35.398C123.116 34.966 123.404 34.456 123.404 33.868V32.176ZM135.304 33.616C135.172 34.732 134.746 35.62 134.026 36.28C133.318 36.94 132.394 37.27 131.254 37.27C129.85 37.27 128.764 36.838 127.996 35.974C127.228 35.098 126.844 33.934 126.844 32.482C126.844 30.934 127.246 29.71 128.05 28.81C128.854 27.898 129.94 27.442 131.308 27.442C132.448 27.442 133.36 27.73 134.044 28.306C134.728 28.87 135.13 29.68 135.25 30.736H133.666C133.39 29.392 132.61 28.72 131.326 28.72C130.438 28.72 129.736 29.05 129.22 29.71C128.704 30.358 128.446 31.24 128.446 32.356C128.446 33.484 128.692 34.372 129.184 35.02C129.676 35.668 130.354 35.992 131.218 35.992C131.914 35.992 132.478 35.788 132.91 35.38C133.354 34.972 133.636 34.384 133.756 33.616H135.304ZM137.718 28.774C138.534 27.886 139.644 27.442 141.048 27.442C142.452 27.442 143.544 27.868 144.324 28.72C145.104 29.572 145.494 30.766 145.494 32.302C145.494 33.874 145.104 35.098 144.324 35.974C143.544 36.85 142.446 37.288 141.03 37.288C139.614 37.288 138.504 36.856 137.7 35.992C136.896 35.128 136.494 33.928 136.494 32.392C136.494 30.868 136.902 29.662 137.718 28.774ZM143.136 29.71C142.62 29.05 141.912 28.72 141.012 28.72C140.112 28.72 139.398 29.05 138.87 29.71C138.342 30.37 138.078 31.252 138.078 32.356C138.078 33.496 138.336 34.39 138.852 35.038C139.38 35.674 140.112 35.992 141.048 35.992C141.948 35.992 142.65 35.668 143.154 35.02C143.67 34.372 143.928 33.478 143.928 32.338C143.928 31.234 143.664 30.358 143.136 29.71ZM147.28 37V27.712H151.582C152.194 27.712 152.716 27.766 153.148 27.874C153.58 27.97 153.958 28.192 154.282 28.54C154.606 28.888 154.768 29.362 154.768 29.962C154.768 30.874 154.312 31.54 153.4 31.96V31.978C153.952 32.086 154.384 32.344 154.696 32.752C155.008 33.148 155.164 33.652 155.164 34.264C155.164 35.056 154.9 35.71 154.372 36.226C153.844 36.742 153.166 37 152.338 37H147.28ZM151.42 31.456C152.056 31.456 152.506 31.354 152.77 31.15C153.046 30.934 153.184 30.622 153.184 30.214C153.184 29.806 153.052 29.506 152.788 29.314C152.524 29.122 152.068 29.026 151.42 29.026H148.774V31.456H151.42ZM148.774 32.752V35.686H152.05C152.53 35.686 152.902 35.542 153.166 35.254C153.442 34.966 153.58 34.594 153.58 34.138C153.58 33.214 152.98 32.752 151.78 32.752H148.774Z" fill="white"/>
</svg>
