<svg width="103" height="103" viewBox="0 0 103 103" fill="none" xmlns="http://www.w3.org/2000/svg">
<circle cx="51.5" cy="51.5" r="51.5" fill="#254D4D"/>
<path d="M57.486 24H32.2972C30.6271 24 29.0254 24.5751 27.8444 25.5988C26.6635 26.6225 26 28.011 26 29.4587V73.1287C26 74.5765 26.6635 75.9649 27.8444 76.9886C29.0254 78.0123 30.6271 78.5875 32.2972 78.5875H70.0804C71.7505 78.5875 73.3522 78.0123 74.5332 76.9886C75.7141 75.9649 76.3776 74.5765 76.3776 73.1287V40.3762L57.486 24Z" stroke="white" stroke-width="2" stroke-linecap="round" stroke-linejoin="round"/>
<path d="M57.4861 24V40.3762H76.3777" stroke="white" stroke-width="2" stroke-linecap="round" stroke-linejoin="round"/>
<path d="M63.7832 54.0231H38.5944" stroke="white" stroke-width="2" stroke-linecap="round" stroke-linejoin="round"/>
<path d="M63.7832 64.9406H38.5944" stroke="white" stroke-width="2" stroke-linecap="round" stroke-linejoin="round"/>
<path d="M44.8916 43.1057H41.743H38.5944" stroke="white" stroke-width="2" stroke-linecap="round" stroke-linejoin="round"/>
</svg>
