<svg width="23" height="23" viewBox="0 0 23 23" fill="none" xmlns="http://www.w3.org/2000/svg">
<path d="M11.1647 6.12538C8.0592 6.12538 5.55432 8.60808 5.55432 11.686C5.55432 14.764 8.0592 17.2467 11.1647 17.2467C14.2701 17.2467 16.775 14.764 16.775 11.686C16.775 8.60808 14.2701 6.12538 11.1647 6.12538ZM11.1647 15.3012C9.15784 15.3012 7.51721 13.6799 7.51721 11.686C7.51721 9.69214 9.15295 8.07089 11.1647 8.07089C13.1764 8.07089 14.8121 9.69214 14.8121 11.686C14.8121 13.6799 13.1715 15.3012 11.1647 15.3012ZM18.3131 5.89792C18.3131 6.61902 17.7272 7.19493 17.0045 7.19493C16.277 7.19493 15.6959 6.61418 15.6959 5.89792C15.6959 5.18167 16.2819 4.60092 17.0045 4.60092C17.7272 4.60092 18.3131 5.18167 18.3131 5.89792ZM22.0289 7.21428C21.9459 5.47688 21.5455 3.9379 20.2614 2.66994C18.9821 1.40198 17.4293 1.00513 15.6764 0.91802C13.8698 0.816389 8.45471 0.816389 6.64807 0.91802C4.90002 1.00029 3.34729 1.39714 2.06311 2.6651C0.778931 3.93306 0.383423 5.47204 0.295532 7.20944C0.192993 9.00008 0.192993 14.3671 0.295532 16.1578C0.37854 17.8952 0.778931 19.4342 2.06311 20.7021C3.34729 21.9701 4.89514 22.3669 6.64807 22.4541C8.45471 22.5557 13.8698 22.5557 15.6764 22.4541C17.4293 22.3718 18.9821 21.9749 20.2614 20.7021C21.5406 19.4342 21.941 17.8952 22.0289 16.1578C22.1315 14.3671 22.1315 9.00492 22.0289 7.21428ZM19.6949 18.0791C19.3141 19.0276 18.5768 19.7584 17.6149 20.1407C16.1744 20.707 12.7565 20.5763 11.1647 20.5763C9.57288 20.5763 6.15002 20.7021 4.71448 20.1407C3.75745 19.7633 3.02014 19.0325 2.6344 18.0791C2.06311 16.6514 2.19495 13.2637 2.19495 11.686C2.19495 10.1083 2.06799 6.71581 2.6344 5.29298C3.01526 4.34443 3.75256 3.61365 4.71448 3.23133C6.15491 2.6651 9.57288 2.79577 11.1647 2.79577C12.7565 2.79577 16.1793 2.66994 17.6149 3.23133C18.5719 3.60881 19.3092 4.33959 19.6949 5.29298C20.2662 6.72065 20.1344 10.1083 20.1344 11.686C20.1344 13.2637 20.2662 16.6563 19.6949 18.0791Z" fill="#FAFAFA"/>
</svg>
