<svg width="25" height="22" viewBox="0 0 25 22" fill="none" xmlns="http://www.w3.org/2000/svg">
<path d="M24.6582 18.572L19.79 14.3895C19.5703 14.2007 19.2725 14.0958 18.96 14.0958H18.1641C19.5117 12.6149 20.3125 10.7522 20.3125 8.72596C20.3125 3.90571 15.7666 0 10.1562 0C4.5459 0 0 3.90571 0 8.72596C0 13.5462 4.5459 17.4519 10.1562 17.4519C12.5146 17.4519 14.6826 16.7639 16.4062 15.6061V16.2899C16.4062 16.5584 16.5283 16.8143 16.748 17.003L21.6162 21.1856C22.0752 21.58 22.8174 21.58 23.2715 21.1856L24.6533 19.9984C25.1123 19.6041 25.1123 18.9664 24.6582 18.572ZM10.1562 14.0958C6.7041 14.0958 3.90625 11.6961 3.90625 8.72596C3.90625 5.75998 6.69922 3.35614 10.1562 3.35614C13.6084 3.35614 16.4062 5.75578 16.4062 8.72596C16.4062 11.692 13.6133 14.0958 10.1562 14.0958Z" fill="#2F2E2E"/>
</svg>
