<svg width="26" height="21" viewBox="0 0 26 21" fill="none" xmlns="http://www.w3.org/2000/svg">
<path d="M22.6489 5.85724C22.6648 6.07735 22.6648 6.2975 22.6648 6.5176C22.6648 13.2311 17.5094 20.9666 8.08677 20.9666C5.18384 20.9666 2.48716 20.1332 0.21875 18.6868C0.631201 18.734 1.02773 18.7497 1.45606 18.7497C3.85132 18.7497 6.0563 17.9479 7.81709 16.58C5.56455 16.5328 3.67686 15.0706 3.02647 13.0581C3.34375 13.1053 3.66099 13.1367 3.99414 13.1367C4.45415 13.1367 4.91421 13.0738 5.34248 12.9638C2.99478 12.4921 1.23394 10.4482 1.23394 7.97979V7.91692C1.91602 8.29426 2.70923 8.5301 3.5499 8.5615C2.16982 7.64958 1.26567 6.09308 1.26567 4.33215C1.26567 3.38882 1.51943 2.52408 1.96362 1.7694C4.48584 4.851 8.2771 6.86344 12.5283 7.08359C12.449 6.70625 12.4014 6.31323 12.4014 5.92016C12.4014 3.12153 14.6857 0.841797 17.5252 0.841797C19.0004 0.841797 20.3329 1.45497 21.2688 2.44549C22.4268 2.22538 23.5372 1.80086 24.5207 1.21914C24.1399 2.39835 23.331 3.38887 22.2682 4.01772C23.2993 3.90772 24.2986 3.62465 25.2187 3.23163C24.5208 4.23783 23.6483 5.13397 22.6489 5.85724Z" fill="#FAFAFA"/>
</svg>
