<svg width="36" height="14" viewBox="0 0 36 14" fill="none" xmlns="http://www.w3.org/2000/svg">
<path d="M7.84896 11.7273C7.54548 11.5574 7.17554 11.5574 6.87207 11.7273L4.70357 12.9411C3.95897 13.3579 3.06802 12.7106 3.23429 11.8736L3.71855 9.43608C3.78632 9.09496 3.67198 8.74313 3.41663 8.50701L1.59181 6.81962C0.965273 6.24028 1.30555 5.19287 2.15295 5.09237L4.62099 4.79966C4.96633 4.7587 5.26558 4.54128 5.41125 4.2255L6.45247 1.9684C6.8099 1.19358 7.91112 1.19358 8.26855 1.9684L9.30977 4.2255C9.45544 4.54128 9.7547 4.7587 10.1 4.79966L12.5681 5.09237C13.4155 5.19287 13.7558 6.24028 13.1292 6.81962L11.3044 8.50701C11.049 8.74313 10.9347 9.09496 11.0025 9.43608L11.4867 11.8736C11.653 12.7106 10.762 13.3579 10.0175 12.9411L7.84896 11.7273Z" fill="#F16214"/>
<path d="M23.916 11V9.614H20.44V8.448L23.784 3.476H25.346V8.272H26.292V9.614H25.346V11H23.916ZM23.916 5.621H23.828L22.035 8.272H23.916V5.621ZM28.2633 11.066C27.9993 11.066 27.772 10.9743 27.5813 10.791C27.398 10.6003 27.3063 10.373 27.3063 10.109C27.3063 9.845 27.398 9.62133 27.5813 9.438C27.772 9.25467 27.9993 9.163 28.2633 9.163C28.5273 9.163 28.751 9.25467 28.9343 9.438C29.1177 9.62133 29.2093 9.845 29.2093 10.109C29.2093 10.373 29.1177 10.6003 28.9343 10.791C28.751 10.9743 28.5273 11.066 28.2633 11.066ZM32.4384 8.305C32.1524 8.305 31.8738 8.24633 31.6024 8.129C31.3311 8.01167 31.0891 7.84667 30.8764 7.634C30.6638 7.414 30.4914 7.15733 30.3594 6.864C30.2348 6.56333 30.1724 6.23333 30.1724 5.874C30.1724 5.5 30.2458 5.15533 30.3924 4.84C30.5391 4.51733 30.7334 4.24233 30.9754 4.015C31.2248 3.78767 31.5071 3.61167 31.8224 3.487C32.1451 3.355 32.4824 3.289 32.8344 3.289C33.2378 3.289 33.6044 3.36233 33.9344 3.509C34.2718 3.64833 34.5578 3.839 34.7924 4.081C35.0344 4.31567 35.2178 4.59433 35.3424 4.917C35.4744 5.23233 35.5404 5.566 35.5404 5.918C35.5404 6.424 35.4378 6.88967 35.2324 7.315C35.0344 7.733 34.7814 8.162 34.4734 8.602L32.6474 11.209L31.5364 10.45L33.0764 8.261L33.0214 8.195C32.8528 8.26833 32.6584 8.305 32.4384 8.305ZM32.8564 4.62C32.6878 4.62 32.5264 4.64933 32.3724 4.708C32.2258 4.76667 32.0938 4.851 31.9764 4.961C31.8591 5.071 31.7638 5.203 31.6904 5.357C31.6244 5.50367 31.5914 5.66867 31.5914 5.852C31.5914 6.04267 31.6244 6.215 31.6904 6.369C31.7638 6.51567 31.8591 6.644 31.9764 6.754C32.0938 6.864 32.2258 6.94833 32.3724 7.007C32.5264 7.06567 32.6878 7.095 32.8564 7.095C33.0178 7.095 33.1754 7.06567 33.3294 7.007C33.4834 6.94833 33.6191 6.864 33.7364 6.754C33.8611 6.644 33.9564 6.51567 34.0224 6.369C34.0958 6.215 34.1324 6.04267 34.1324 5.852C34.1324 5.66867 34.0958 5.50367 34.0224 5.357C33.9564 5.203 33.8611 5.071 33.7364 4.961C33.6191 4.851 33.4834 4.76667 33.3294 4.708C33.1754 4.64933 33.0178 4.62 32.8564 4.62Z" fill="black"/>
</svg>
