<svg width="36" height="14" viewBox="0 0 36 14" fill="none" xmlns="http://www.w3.org/2000/svg">
<path d="M7.84896 11.7273C7.54548 11.5574 7.17554 11.5574 6.87207 11.7273L4.70357 12.9411C3.95897 13.3579 3.06802 12.7106 3.23429 11.8736L3.71855 9.43608C3.78632 9.09496 3.67198 8.74313 3.41663 8.50701L1.59181 6.81962C0.965273 6.24028 1.30555 5.19287 2.15295 5.09237L4.62099 4.79966C4.96633 4.7587 5.26558 4.54128 5.41125 4.2255L6.45247 1.9684C6.8099 1.19358 7.91112 1.19358 8.26855 1.9684L9.30977 4.2255C9.45544 4.54128 9.7547 4.7587 10.1 4.79966L12.5681 5.09237C13.4155 5.19287 13.7558 6.24028 13.1292 6.81962L11.3044 8.50701C11.049 8.74313 10.9347 9.09496 11.0025 9.43608L11.4867 11.8736C11.653 12.7106 10.762 13.3579 10.0175 12.9411L7.84896 11.7273Z" fill="#F16214"/>
<path d="M23.916 11V9.614H20.44V8.448L23.784 3.476H25.346V8.272H26.292V9.614H25.346V11H23.916ZM23.916 5.621H23.828L22.035 8.272H23.916V5.621ZM28.2633 11.066C27.9993 11.066 27.772 10.9743 27.5813 10.791C27.398 10.6003 27.3063 10.373 27.3063 10.109C27.3063 9.845 27.398 9.62133 27.5813 9.438C27.772 9.25467 27.9993 9.163 28.2633 9.163C28.5273 9.163 28.751 9.25467 28.9343 9.438C29.1177 9.62133 29.2093 9.845 29.2093 10.109C29.2093 10.373 29.1177 10.6003 28.9343 10.791C28.751 10.9743 28.5273 11.066 28.2633 11.066ZM30.5354 10.505L33.6704 4.906L33.6374 4.84H30.1724L30.1944 3.476H35.2984V4.906L31.7454 11.176L30.5354 10.505Z" fill="black"/>
</svg>
