<svg width="120" height="129" viewBox="0 0 120 129" fill="none" xmlns="http://www.w3.org/2000/svg">
<path fill-rule="evenodd" clip-rule="evenodd" d="M70.838 2.45555C56.3698 1.01031 29.2743 -3.27122 17.2203 4.65562C5.05884 12.6531 2.78466 28.0242 0.439934 42.1333C-1.66564 54.8033 4.29472 66.6164 7.57549 79.0472C11.1396 92.5515 3.74394 109.959 14.0893 119.596C24.8846 129.652 51.4374 129.055 66.2198 126.963C80.1663 124.99 84.661 115.012 96.2221 107.162C108.115 99.0869 111.859 109.349 116.162 95.8643C120.469 82.3694 122.03 57.6053 116.162 44.681C111.038 33.3946 108.638 20.5876 98.863 12.7359C88.7574 4.61845 83.8682 3.75717 70.838 2.45555Z" fill="#E7EAFE"/>
<path d="M35.949 52.7253C35.949 51.454 36.454 50.2348 37.3529 49.3359C38.2518 48.437 39.4709 47.932 40.7422 47.932H79.0879C80.3591 47.932 81.5783 48.437 82.4772 49.3359C83.3761 50.2348 83.8811 51.454 83.8811 52.7253V76.6913C83.8811 77.9626 83.3761 79.1817 82.4772 80.0806C81.5783 80.9795 80.3591 81.4845 79.0879 81.4845H40.7422C39.4709 81.4845 38.2518 80.9795 37.3529 80.0806C36.454 79.1817 35.949 77.9626 35.949 76.6913V52.7253Z" stroke="#00325A" stroke-width="4.79321" stroke-linecap="round" stroke-linejoin="round"/>
<path d="M59.9152 71.8981C63.886 71.8981 67.105 68.6791 67.105 64.7083C67.105 60.7375 63.886 57.5185 59.9152 57.5185C55.9443 57.5185 52.7253 60.7375 52.7253 64.7083C52.7253 68.6791 55.9443 71.8981 59.9152 71.8981Z" stroke="#00325A" stroke-width="4.79321" stroke-linecap="round" stroke-linejoin="round"/>
<path d="M35.949 57.5185C38.4915 57.5185 40.9298 56.5085 42.7276 54.7107C44.5254 52.9129 45.5354 50.4745 45.5354 47.932" stroke="#00325A" stroke-width="4.79321" stroke-linecap="round" stroke-linejoin="round"/>
<path d="M74.2948 81.4845C74.2948 78.942 75.3048 76.5037 77.1026 74.7059C78.9004 72.9081 81.3387 71.8981 83.8812 71.8981" stroke="#00325A" stroke-width="4.79321" stroke-linecap="round" stroke-linejoin="round"/>
</svg>
