<svg width="320" height="322" viewBox="0 0 320 322" fill="none" xmlns="http://www.w3.org/2000/svg">
<path fill-rule="evenodd" clip-rule="evenodd" d="M109.967 266.464C84.2284 262.147 50.2713 269.365 36.9189 244.968C23.4905 220.433 46.5529 186.999 49.9542 156.811C53.0049 129.735 41.8725 100.945 55.7844 77.5306C69.8763 53.8127 96.5142 44.3722 120.493 38.0888C142.336 32.3649 162.7 39.9608 184.044 43.9212C208.951 48.5425 236.79 45.183 255.486 63.1365C276.627 83.4379 291.355 113.794 291.038 146.665C290.715 180.194 276.552 215.278 253.789 239.2C232.692 261.371 202.828 262.995 175.398 268.195C152.946 272.451 131.842 270.133 109.967 266.464Z" fill="#E1E5F0"/>
<path d="M129.962 208.571C133.251 191.993 136.56 175.312 136.952 158.415C137.086 152.302 136.334 145.209 131.241 141.837C128.643 140.126 125.426 139.776 122.333 139.497C119.24 139.219 115.838 139.033 113.055 140.528C109.962 142.209 108.189 145.683 106.941 148.992C104.25 156.209 102.91 164.054 98.9514 170.642C95.1678 176.962 89.1264 181.983 86.8583 189.024C84.5902 196.065 86.7037 203.921 91.343 209.571C95.9822 215.22 102.9 218.695 110.075 220.128C114.498 221.004 119.354 221.097 123.261 218.88C127.705 216.365 129.158 213.818 129.952 208.571" fill="#455A64"/>
<path d="M116.56 143.807C116.24 143.972 115.189 142.776 114.034 140.404C113.745 139.82 113.457 139.171 113.168 138.456C113.034 138.105 112.89 137.734 112.756 137.353C112.542 136.847 112.426 136.304 112.416 135.755C112.432 135.294 112.587 134.849 112.859 134.477C113.094 134.161 113.393 133.897 113.735 133.703C114.207 133.453 114.7 133.245 115.209 133.085C116.208 132.745 117.249 132.543 118.302 132.487C119.427 132.4 120.557 132.562 121.612 132.961C122.658 133.374 123.557 134.092 124.189 135.023C125.135 136.478 125.554 138.214 125.375 139.941C125.29 141.003 125.043 142.046 124.643 143.033C124.364 143.703 124.117 144.064 123.931 144.064C123.746 144.064 123.653 143.611 123.612 142.899C123.57 142.188 123.612 141.167 123.478 140.013C123.39 138.758 122.942 137.556 122.189 136.549C121.796 136.052 121.271 135.677 120.673 135.466C119.954 135.24 119.198 135.156 118.447 135.219C117.619 135.269 116.8 135.411 116.003 135.641C115.652 135.734 115.307 135.852 114.972 135.992L114.869 136.054L114.745 135.951C114.673 135.951 114.611 135.879 114.663 135.951H114.787H114.89C114.887 136.221 114.933 136.49 115.024 136.745C115.106 137.116 115.199 137.477 115.282 137.837L115.807 139.786C116.477 142.116 116.9 143.621 116.56 143.807Z" fill="#455A64"/>
<path d="M110.787 220.623C110.603 220.399 110.437 220.161 110.292 219.911C109.829 219.23 109.435 218.505 109.117 217.746C108.015 214.897 107.66 211.813 108.086 208.787C108.457 204.931 110.148 200.612 112.086 195.983C113.14 193.572 114.059 191.104 114.838 188.591C115.616 185.897 116.141 183.135 116.405 180.343C116.828 174.899 116.856 169.431 116.488 163.982C116.271 158.941 116.003 154.394 116.23 150.58C116.29 147.526 117.146 144.541 118.715 141.92C119.173 141.232 119.717 140.605 120.333 140.054C120.551 139.866 120.782 139.694 121.024 139.538C120.212 140.279 119.496 141.117 118.89 142.033C117.42 144.651 116.636 147.598 116.612 150.6C116.436 154.394 116.735 158.941 116.983 164.003C117.395 169.473 117.395 174.966 116.983 180.436C116.715 183.277 116.18 186.087 115.385 188.828C114.588 191.354 113.656 193.836 112.591 196.261C110.591 200.88 108.921 205.127 108.467 208.911C108.015 211.882 108.313 214.919 109.333 217.746C109.734 218.745 110.221 219.707 110.787 220.623Z" fill="#093636"/>
<path d="M112.859 194.21C112.776 194.344 107.787 191.591 101.704 188.075C95.6214 184.56 90.7553 181.601 90.8275 181.477C90.8996 181.354 95.8997 184.096 101.982 187.612C108.065 191.127 112.931 194.137 112.859 194.21Z" fill="#093636"/>
<path d="M117.313 139.353C117.313 139.353 116.673 139.734 115.601 140.518C114.097 141.641 112.82 143.041 111.838 144.642C110.44 147.011 109.561 149.65 109.261 152.384C108.885 155.77 108.713 159.174 108.745 162.58C108.733 166.012 108.43 169.437 107.838 172.818C107.344 175.577 106.634 178.294 105.714 180.942C105.102 182.729 104.382 184.478 103.56 186.179C103.281 186.787 103.034 187.21 102.859 187.55C102.683 187.89 102.601 188.014 102.58 188.004C102.809 187.353 103.074 186.717 103.374 186.096C103.89 184.869 104.622 183.086 105.354 180.828C106.215 178.182 106.883 175.478 107.354 172.735C107.912 169.375 108.198 165.976 108.209 162.57C108.179 159.142 108.368 155.716 108.776 152.312C109.11 149.499 110.065 146.794 111.57 144.394C112.608 142.791 113.958 141.413 115.539 140.343C115.967 140.057 116.411 139.795 116.869 139.559C117.006 139.468 117.155 139.398 117.313 139.353Z" fill="white"/>
<path d="M182.84 141.559L196.067 147.168L206.851 121.456L216.696 123.291C216.696 123.291 211.541 153.281 210.016 158.168C208.016 164.529 199.119 168.477 193.582 166.044C188.046 163.611 175.778 159.436 175.778 159.436L182.84 141.559Z" fill="#FFBE9D"/>
<path d="M171.685 131.425L189.685 143.415L184.798 166.735L174.262 161.632L171.685 131.425Z" fill="#C5CBF1"/>
<g opacity="0.3">
<path opacity="0.3" d="M172.231 133.816C173.25 143.706 174.882 153.522 177.118 163.209L177.561 163.126C178.798 158.142 178.962 152.952 178.043 147.899C177.125 142.846 175.144 138.046 172.231 133.816Z" fill="black"/>
</g>
<path d="M145.396 118.188C145.122 117.907 144.773 117.711 144.392 117.622C144.01 117.532 143.611 117.553 143.241 117.683C140.148 118.332 138.014 120.93 136.241 123.477C130.039 132.321 125.764 142.37 123.694 152.972L123.467 154.075C124.428 155.635 125.737 156.951 127.292 157.921C128.921 158.756 131.179 158.653 132.282 157.199C132.908 156.145 133.199 154.927 133.117 153.704C133.222 147.823 134.071 141.979 135.643 136.312C137.243 130.627 140.221 125.425 144.313 121.167C145.138 120.353 146.066 119.126 145.396 118.188Z" fill="#455A64"/>
<path d="M155.313 63.083C155.571 61.2479 157.695 59.1653 159.313 58.2581C160.965 57.4067 162.786 56.938 164.643 56.8869C169.435 56.6483 174.2 57.7295 178.42 60.0128C182.639 62.2961 186.151 65.6939 188.572 69.8357C189.661 71.5222 190.215 73.4989 190.16 75.5059C189.964 77.4853 188.52 79.4647 186.541 79.6297C187.142 80.115 187.599 80.7547 187.864 81.4801C188.13 82.2055 188.192 82.9894 188.046 83.7478C187.9 84.5062 187.55 85.2105 187.035 85.7854C186.519 86.3603 185.856 86.7841 185.118 87.0113C185.665 89.7846 183.788 92.4547 181.737 94.4032C173.747 101.991 161.798 104.29 150.901 102.651C147.179 102.094 143.365 101.032 140.591 98.527C136.591 94.8053 135.746 88.8464 135.622 83.3927C135.336 83.9485 134.841 84.3686 134.247 84.5617C133.652 84.7547 133.005 84.7051 132.447 84.4236C131.907 84.1061 131.47 83.6396 131.189 83.0801C130.907 82.5206 130.793 81.8917 130.859 81.2689C131.017 80.0209 131.608 78.868 132.529 78.0111C131.714 78.2198 130.864 78.2549 130.034 78.1142C129.623 78.0341 129.245 77.8303 128.952 77.53C128.659 77.2298 128.465 76.8473 128.395 76.4338C128.407 76.0171 128.532 75.6116 128.758 75.261C128.983 74.9103 129.3 74.6278 129.674 74.444C130.395 74.0316 131.22 73.8151 131.952 73.4131C134.663 71.9285 135.334 68.4336 136.859 65.7428C137.748 64.1812 138.983 62.8436 140.468 61.8323C141.954 60.8211 143.651 60.1629 145.43 59.9082C147.208 59.6535 149.022 59.8091 150.732 60.3629C152.441 60.9167 154.001 61.8542 155.293 63.1036" fill="#093636"/>
<path d="M182.458 81.331C182.118 73.9906 174.345 66.5368 166.994 67.1863L143.22 71.3101V75.2587L143.849 124.126C143.849 124.126 145.612 139.92 158.922 139.25C170.881 138.641 170.438 126.012 170.438 126.002L170.231 116.785C170.231 116.785 179.891 116.569 182.036 104.414C183.18 98.2592 182.85 89.4858 182.458 81.331Z" fill="#FFBE9D"/>
<path d="M179.18 90.1664C179.175 90.5741 179.012 90.9639 178.726 91.2542C178.439 91.5444 178.051 91.7125 177.644 91.7231C177.444 91.7342 177.244 91.7056 177.055 91.6389C176.866 91.5722 176.693 91.4688 176.544 91.3346C176.395 91.2004 176.275 91.0381 176.189 90.857C176.104 90.676 176.055 90.4798 176.046 90.2798C176.051 89.8721 176.214 89.4822 176.5 89.192C176.787 88.9017 177.174 88.7337 177.582 88.723C177.782 88.7119 177.982 88.7405 178.171 88.8072C178.36 88.8739 178.533 88.9773 178.682 89.1115C178.831 89.2458 178.951 89.4081 179.037 89.5891C179.122 89.7702 179.171 89.9664 179.18 90.1664Z" fill="#093636"/>
<path d="M180.211 86.9186C180.015 87.1248 178.84 86.2278 177.118 86.1969C175.396 86.166 174.18 87.0011 174.025 86.7846C173.871 86.5681 174.149 86.3309 174.695 85.9495C175.431 85.4531 176.304 85.2006 177.19 85.2278C178.068 85.2367 178.921 85.5256 179.623 86.0526C180.139 86.465 180.314 86.8464 180.211 86.9186Z" fill="#093636"/>
<path d="M164.087 90.5685C164.082 90.9762 163.919 91.366 163.632 91.6563C163.346 91.9465 162.958 92.1146 162.551 92.1252C162.351 92.1363 162.151 92.1077 161.962 92.041C161.773 91.9743 161.599 91.8709 161.451 91.7367C161.302 91.6025 161.182 91.4402 161.096 91.2591C161.011 91.0781 160.962 90.8819 160.953 90.6819C160.958 90.2742 161.121 89.8843 161.407 89.5941C161.693 89.3038 162.081 89.1358 162.489 89.1251C162.689 89.114 162.889 89.1426 163.078 89.2093C163.266 89.276 163.44 89.3794 163.589 89.5136C163.737 89.6479 163.858 89.8102 163.943 89.9912C164.029 90.1723 164.077 90.3685 164.087 90.5685Z" fill="#093636"/>
<path d="M163.901 87.1971C163.695 87.393 162.53 86.496 160.808 86.4754C159.087 86.4548 157.87 87.2692 157.715 87.0631C157.561 86.8569 157.829 86.5991 158.375 86.2177C159.113 85.7257 159.984 85.4736 160.87 85.496C161.748 85.5048 162.601 85.7938 163.303 86.3208C163.819 86.7331 163.984 87.1043 163.901 87.1971Z" fill="#093636"/>
<path d="M169.551 99.1459C170.452 98.9168 171.375 98.7854 172.303 98.7541C172.736 98.7541 173.149 98.651 173.221 98.4036C173.293 98.1562 173.159 97.7438 172.963 97.3726L171.757 94.5788C170.087 90.6096 168.891 87.3621 169.087 87.2796C169.283 87.1972 170.778 90.3725 172.448 94.3726C172.85 95.352 173.231 96.2901 173.602 97.1768C173.853 97.6144 173.919 98.1334 173.788 98.6201C173.715 98.7562 173.612 98.8741 173.487 98.9652C173.362 99.0562 173.218 99.1179 173.066 99.1459C172.825 99.192 172.58 99.2162 172.334 99.218C171.407 99.2933 170.473 99.2691 169.551 99.1459Z" fill="#093636"/>
<path d="M170.375 116.816C164.621 116.807 158.982 115.201 154.086 112.177C154.086 112.177 158.21 120.713 170.437 119.775L170.375 116.816Z" fill="#FFBE9D"/>
<path d="M165.004 102.611C165.283 102.611 165.252 104.436 166.798 105.704C168.345 106.972 170.293 106.869 170.303 107.127C170.314 107.385 169.86 107.467 169.035 107.477C167.97 107.482 166.935 107.118 166.107 106.446C165.324 105.777 164.83 104.832 164.726 103.807C164.664 103.055 164.932 102.601 165.004 102.611Z" fill="#093636"/>
<path d="M164.437 83.4856C164.2 84.0733 162.561 83.6093 160.561 83.7124C158.561 83.8155 156.891 84.3516 156.685 83.7846C156.602 83.5063 156.932 82.9702 157.643 82.4547C158.51 81.8266 159.543 81.468 160.612 81.4237C161.647 81.376 162.671 81.6536 163.54 82.2176C164.221 82.6918 164.54 83.2073 164.437 83.4856Z" fill="#093636"/>
<path d="M180.273 83.3311C179.922 83.9084 178.376 83.4136 176.551 83.4857C174.726 83.5579 173.221 84.0528 172.829 83.4857C172.654 83.2074 172.829 82.6403 173.51 82.063C174.353 81.3764 175.401 80.9912 176.489 80.9688C177.576 80.9464 178.639 81.288 179.51 81.9393C180.19 82.4754 180.397 83.0424 180.273 83.3311Z" fill="#093636"/>
<path d="M144.138 89.4961C143.911 89.4033 134.808 86.9291 135.272 96.1561C135.736 105.383 144.911 103.012 144.911 102.744C144.911 102.476 144.138 89.4961 144.138 89.4961Z" fill="#FFBE9D"/>
<path d="M142.725 99.3728C142.725 99.3728 142.571 99.4965 142.313 99.6305C141.938 99.816 141.504 99.8456 141.107 99.713C140.076 99.414 139.22 97.8985 139.045 96.2387C138.986 95.4507 139.098 94.6593 139.375 93.919C139.447 93.6247 139.589 93.3524 139.791 93.126C139.992 92.8996 140.246 92.7259 140.53 92.62C140.712 92.5653 140.907 92.5743 141.083 92.6455C141.259 92.7168 141.406 92.846 141.499 93.0118C141.633 93.2695 141.581 93.4551 141.633 93.4654C141.684 93.4757 141.829 93.3005 141.725 92.9293C141.664 92.701 141.525 92.5008 141.334 92.3623C141.07 92.187 140.748 92.1205 140.437 92.1767C140.061 92.2703 139.716 92.4589 139.435 92.7243C139.153 92.9897 138.944 93.323 138.828 93.6922C138.478 94.5108 138.333 95.4027 138.406 96.2902C138.56 98.1459 139.602 99.8367 140.952 100.156C141.203 100.217 141.464 100.219 141.716 100.164C141.968 100.109 142.204 99.9966 142.406 99.8367C142.725 99.5996 142.767 99.3831 142.725 99.3728Z" fill="#FFBE9D"/>
<path d="M182.52 71.8773C181.742 70.6158 180.718 69.5244 179.508 68.6687C178.298 67.813 176.927 67.2107 175.479 66.8978C172.575 66.2943 169.603 66.0862 166.644 66.2792L141.478 68.5576L140.746 88.5477L142.932 91.7849L144.87 93.8468C147.385 93.0221 150.025 89.7849 150.241 85.8879C151.544 85.6789 152.78 85.1707 153.854 84.4033C154.927 83.6359 155.808 82.6302 156.427 81.4651C157.655 79.1217 158.02 76.4213 157.458 73.8361C157.871 74.8944 158.492 75.8588 159.286 76.6718C160.079 77.4848 161.028 78.1297 162.076 78.5681C162.905 78.9341 163.813 79.0865 164.716 79.0115C165.334 78.8953 165.919 78.6417 166.427 78.2696C166.934 77.8974 167.352 77.416 167.648 76.861C167.945 76.306 168.114 75.6914 168.141 75.0626C168.169 74.4338 168.055 73.8068 167.809 73.2278C169.893 75.8788 172.7 77.8696 175.891 78.9599C177.809 79.6197 180.108 79.8671 181.737 78.6403C183.665 77.1145 183.706 74.0423 182.52 71.8773Z" fill="#093636"/>
<path d="M143.829 116.816L170.706 126.919C170.706 126.919 174.963 142.116 176.005 148.569C177.623 158.518 178.386 229.107 178.386 229.107C178.386 229.107 125.581 223.695 125.581 219.612C125.581 215.53 128.199 209.509 128.199 209.509C128.199 209.509 126.138 208.942 127.849 202.478C129.56 196.014 130.241 162.539 130.241 162.539C130.241 162.539 130.56 140.023 133.334 132.878C136.107 125.734 143.829 116.816 143.829 116.816Z" fill="#C5CBF1"/>
<path d="M171.231 128.157C171.483 128.711 171.693 129.283 171.86 129.868C172.231 130.982 172.747 132.6 173.314 134.631C174.819 139.898 175.909 145.276 176.572 150.714C177.195 156.152 177.494 161.622 177.469 167.096C177.469 169.158 177.469 170.89 177.397 172.065C177.407 172.676 177.366 173.286 177.273 173.89C177.19 173.285 177.159 172.675 177.18 172.065C177.18 170.807 177.18 169.127 177.087 167.106C176.994 162.91 176.799 157.116 176.056 150.776C175.398 145.36 174.365 139.997 172.963 134.724C172.448 132.662 171.994 131.064 171.675 129.93C171.476 129.353 171.328 128.759 171.231 128.157Z" fill="#093636"/>
<path d="M206.088 122.497C206.088 122.497 202.108 117.28 202.139 115.167L203.778 102.888C203.778 102.888 204.809 101.754 206.036 103.744C207.263 105.734 206.036 108.507 206.036 108.507L206.737 111.394L208.222 109.208L209.912 100.96C209.912 100.96 210.943 95.0324 211.913 95.6509C212.882 96.2695 213.088 97.9912 212.624 100.548L211.593 106.352C211.593 106.352 211.469 107.383 212.428 105.672C213.387 103.96 214.428 96.8159 214.789 95.8468C215.15 94.8777 215.304 92.3313 216.758 92.4756C218.212 92.62 217.366 95.8674 217.366 95.8674L215.944 106.507C215.944 106.507 217.315 102.259 217.572 101.538C217.83 100.816 218.232 98.4448 218.727 97.218C219.222 95.9912 219.954 95.3004 220.603 95.3829C220.912 95.4012 221.201 95.536 221.414 95.76C221.626 95.984 221.746 96.2804 221.748 96.5891L219.583 105.631C219.583 105.631 218.377 109.754 218.459 110.012C218.542 110.27 220.057 108.29 220.057 108.29L221.222 105.362C221.222 105.362 222.191 101.239 223.284 101.084C224.377 100.929 224.439 101.816 224.439 101.816L222.665 109.383L219.294 117.992L216.108 124.497C216.108 124.497 211.665 123.806 211.5 124.033C211.335 124.26 206.088 122.497 206.088 122.497Z" fill="#FFBE9D"/>
<path d="M213.964 118.878C213.607 118.268 213.3 117.631 213.047 116.971C212.427 115.433 211.253 114.182 209.758 113.466C209.024 113.142 208.203 113.077 207.428 113.28L207.17 113.363L207.108 113.074C206.82 111.816 206.428 110.651 206.242 109.857C206.08 109.441 206.009 108.994 206.036 108.548C206.243 108.935 206.409 109.343 206.531 109.765C206.928 110.829 207.273 111.913 207.562 113.012L207.242 112.806C208.123 112.544 209.068 112.599 209.912 112.961C210.831 113.338 211.629 113.958 212.222 114.754C212.691 115.387 213.073 116.081 213.356 116.816C213.677 117.463 213.883 118.161 213.964 118.878Z" fill="#FFBE9D"/>
<path d="M156.757 191.571L124.591 214.231L123.498 206.416L156.757 180.003V191.571Z" fill="#455A64"/>
<path d="M127.437 141.869C130.157 137.237 134.138 133.474 138.914 131.018C143.691 128.561 149.067 127.512 154.416 127.992C158.54 128.415 162.664 129.889 165.417 132.941C168.169 135.992 169.19 140.157 169.747 144.281C171.982 161.071 167.884 178.092 158.252 192.024C157.453 193.39 156.294 194.51 154.901 195.262C153.458 195.88 151.478 195.54 150.777 194.138C159.099 181.035 163.261 165.721 162.716 150.209C162.551 145.797 161.829 141.023 158.685 137.92C156.004 135.281 153.911 134.642 150.148 134.528C145.406 134.394 141.138 136.992 136.962 141.003C133.54 144.291 129.426 151.745 128.406 156.374" fill="#455A64"/>
<path d="M141.344 129.909C140.325 130.651 139.269 131.339 138.179 131.971C135.635 133.573 133.193 135.332 130.87 137.239C128.554 139.166 126.357 141.232 124.292 143.425C122.715 145.106 121.787 146.198 121.725 146.147C121.869 145.84 122.056 145.555 122.282 145.302C122.663 144.776 123.251 144.054 124.014 143.178C126.009 140.896 128.188 138.783 130.529 136.858C132.865 134.934 135.359 133.21 137.983 131.703C139.014 131.116 139.818 130.672 140.406 130.404C140.695 130.199 141.011 130.032 141.344 129.909Z" fill="#093636"/>
<path d="M145.241 134.343C145.241 134.415 144.035 135.301 142.097 136.868C139.576 138.916 137.209 141.146 135.014 143.539C132.834 145.94 130.835 148.501 129.034 151.199C127.653 153.26 126.88 154.611 126.808 154.57C126.902 154.206 127.052 153.858 127.251 153.539C127.56 152.91 128.055 152.034 128.715 150.961C130.436 148.178 132.414 145.562 134.622 143.147C136.821 140.729 139.237 138.517 141.839 136.538C142.87 135.786 143.674 135.209 144.272 134.848C144.571 134.636 144.897 134.466 145.241 134.343Z" fill="#093636"/>
<g opacity="0.3">
<path opacity="0.3" d="M164.458 170.426C161.695 167.611 154.416 171.57 150.746 170.106C147.921 188.728 147.921 207.67 150.746 226.293L155.035 226.014C157.406 222.252 158.128 217.695 158.746 213.293C160.286 202.736 161.829 192.182 163.375 181.632C163.819 178.601 166.571 172.539 164.458 170.426Z" fill="black"/>
</g>
<path d="M176.458 223.417H125.591V260.077H176.458V223.417Z" fill="#455A64"/>
<path d="M139.622 223.478C137.457 225.624 135.168 227.641 132.766 229.52C130.474 231.536 128.064 233.416 125.55 235.149C127.71 233.001 129.996 230.984 132.395 229.107C134.694 227.093 137.107 225.214 139.622 223.478Z" fill="white"/>
<path d="M148.138 223.479C148.231 223.592 143.313 228.283 137.138 233.963C130.962 239.644 125.88 244.159 125.797 244.046C125.715 243.933 130.622 239.252 136.798 233.572C142.973 227.891 148.035 223.375 148.138 223.479Z" fill="white"/>
<path d="M159.499 223.417C159.602 223.53 152.086 230.633 142.715 239.221C133.344 247.809 125.673 254.685 125.57 254.624C125.467 254.562 132.983 247.407 142.354 238.829C151.726 230.252 159.396 223.314 159.499 223.417Z" fill="white"/>
<path d="M171.025 223.479C171.128 223.592 162.303 231.881 151.313 242.036C140.323 252.19 131.323 260.201 131.23 260.118C131.137 260.036 139.952 251.727 150.952 241.561C161.953 231.396 170.932 223.375 171.025 223.479Z" fill="white"/>
<path d="M176.458 230.221C176.561 230.334 169.324 237.149 160.293 245.458C151.262 253.768 143.87 260.407 143.798 260.294C143.726 260.18 150.932 253.366 159.963 245.056C168.994 236.747 176.355 230.087 176.458 230.221Z" fill="white"/>
<path d="M176.448 241.066C176.551 241.18 171.943 245.582 166.138 250.891C160.334 256.201 155.592 260.428 155.499 260.314C155.406 260.201 159.994 255.809 165.808 250.5C171.623 245.19 176.345 240.963 176.448 241.066Z" fill="white"/>
<path d="M176.396 250.211C174.844 252.073 173.159 253.82 171.355 255.438C169.673 257.188 167.864 258.811 165.942 260.294C167.489 258.424 169.175 256.674 170.984 255.057C172.664 253.308 174.473 251.689 176.396 250.211Z" fill="white"/>
<path d="M146.828 223.478C146.801 223.897 146.728 224.312 146.612 224.716C146.524 225.195 146.4 225.667 146.241 226.128C146.061 226.751 145.848 227.363 145.602 227.963C144.984 229.538 144.218 231.05 143.313 232.479C142.183 234.217 140.885 235.84 139.436 237.324C137.957 238.777 136.333 240.076 134.591 241.2C133.16 242.101 131.648 242.867 130.075 243.489C129.476 243.732 128.863 243.942 128.24 244.118C127.778 244.275 127.306 244.403 126.828 244.5C126.424 244.61 126.009 244.679 125.591 244.706C125.591 244.592 127.313 244.252 129.931 243.139C131.46 242.48 132.93 241.69 134.323 240.778C136.017 239.651 137.601 238.367 139.055 236.943C140.48 235.487 141.767 233.903 142.9 232.211C143.81 230.818 144.596 229.348 145.251 227.819C146.375 225.2 146.715 223.458 146.828 223.478Z" fill="#093636"/>
<path d="M176.644 244.747C176.215 244.819 175.778 244.836 175.345 244.799C174.166 244.754 172.996 244.591 171.85 244.314C168.021 243.434 164.545 241.423 161.873 238.542C159.202 235.661 157.459 232.043 156.87 228.159C156.679 226.997 156.61 225.819 156.664 224.643C156.658 224.21 156.707 223.777 156.808 223.355C156.853 224.943 156.997 226.527 157.241 228.097C157.913 231.876 159.656 235.383 162.262 238.201C164.868 241.019 168.228 243.029 171.943 243.994C173.492 244.342 175.062 244.594 176.644 244.747Z" fill="#093636"/>
<path d="M153.21 240.891L160.045 248.448L162.252 257.871C162.252 257.871 160.891 259.696 159.406 257.397C159.406 257.397 159.726 265.16 158.973 265.593C158.22 266.026 155.777 265.696 155.623 263.778C155.353 264.173 154.998 264.503 154.584 264.742C154.17 264.981 153.707 265.124 153.231 265.16C151.736 265.16 151.169 264.314 150.994 262.5C150.994 262.5 149.612 264.201 148.437 263.531C148.072 263.292 147.761 262.98 147.523 262.614C147.285 262.249 147.126 261.837 147.055 261.407C147.055 261.407 144.932 262.046 144.395 260.984C143.695 259.213 143.264 257.347 143.117 255.448V248.953L142.777 244.829L153.21 240.891Z" fill="#FFBE9D"/>
<path d="M155.519 257.943C155.311 258.904 155.252 259.892 155.344 260.871C155.283 261.849 155.377 262.83 155.623 263.778C155.831 262.821 155.89 261.836 155.798 260.861C155.864 259.879 155.77 258.894 155.519 257.943Z" fill="#FFBE9D"/>
<path d="M150.87 257.737C150.561 259.282 150.561 260.873 150.87 262.417C151.098 261.66 151.172 260.864 151.086 260.077C151.162 259.29 151.089 258.496 150.87 257.737Z" fill="#FFBE9D"/>
<path d="M146.973 257.469C146.863 258.127 146.863 258.8 146.973 259.458C146.926 260.119 146.954 260.783 147.056 261.438C147.399 260.831 147.533 260.128 147.437 259.438C147.467 258.751 147.307 258.07 146.973 257.469Z" fill="#FFBE9D"/>
<path d="M159.509 252.118C159.31 253.063 159.231 254.029 159.272 254.994C159.162 255.951 159.182 256.919 159.334 257.871C159.664 256.938 159.815 255.952 159.778 254.963C159.86 254.006 159.769 253.043 159.509 252.118Z" fill="#FFBE9D"/>
<path d="M142.777 244.86C142.777 244.86 138.261 207.066 138.653 201.334C139.107 195.364 140.715 174.116 140.715 174.116H160.087L155.808 203.519L155.231 244.324L142.777 244.86Z" fill="#FFBE9D"/>
<path d="M154.19 132.126C153.097 131.837 143.272 131.982 141.014 140.868C138.519 150.652 138.695 173.931 138.695 173.931H165.788L164.458 144.652C164.385 142.416 163.792 140.227 162.728 138.259C161.663 136.291 160.155 134.597 158.324 133.312C157.149 132.569 155.592 132.497 154.19 132.126Z" fill="#C5CBF1"/>
<path d="M157.107 132.61L157.303 132.703L157.88 133.023C158.596 133.456 159.266 133.96 159.88 134.528C162.204 136.656 163.78 139.475 164.375 142.569C164.568 143.59 164.675 144.624 164.695 145.662C164.757 146.693 164.808 147.868 164.87 149.033C164.984 151.363 165.107 153.869 165.231 156.518C165.478 161.807 165.757 167.673 166.045 173.91V174.189H157.633H138.674H138.426V173.941C138.426 164.199 138.901 155.9 139.457 150.054C139.756 147.136 140.107 144.827 140.406 143.26C140.54 142.477 140.705 141.879 140.797 141.477C140.832 141.271 140.891 141.07 140.973 140.879C140.956 141.087 140.925 141.293 140.88 141.497C140.818 141.91 140.674 142.528 140.56 143.291C140.313 144.858 140.024 147.167 139.767 150.085C139.272 155.92 138.911 164.219 138.901 173.941L138.653 173.694H157.612H165.746L165.478 173.972C165.21 167.735 164.953 161.869 164.726 156.58C164.612 153.93 164.509 151.425 164.406 149.095C164.406 147.93 164.313 146.796 164.272 145.724C164.26 144.687 164.164 143.653 163.984 142.631C163.433 139.592 161.94 136.804 159.715 134.662C158.904 133.908 158.031 133.222 157.107 132.61Z" fill="#093636"/>
</svg>
