<svg width="320" height="322" viewBox="0 0 320 322" fill="none" xmlns="http://www.w3.org/2000/svg">
<path fill-rule="evenodd" clip-rule="evenodd" d="M109.967 266.464C84.2284 262.147 50.2713 269.365 36.9189 244.968C23.4905 220.433 46.5529 186.999 49.9542 156.811C53.0049 129.735 41.8725 100.945 55.7844 77.5306C69.8763 53.8127 96.5142 44.3722 120.493 38.0888C142.336 32.3649 162.7 39.9608 184.044 43.9212C208.951 48.5425 236.79 45.183 255.486 63.1365C276.627 83.4379 291.355 113.794 291.038 146.665C290.715 180.194 276.552 215.278 253.789 239.2C232.692 261.371 202.828 262.995 175.398 268.195C152.946 272.451 131.842 270.133 109.967 266.464Z" fill="#C6E1F6"/>
<path d="M138.342 142.759C138.268 142.759 138.197 142.729 138.145 142.677C138.092 142.625 138.063 142.554 138.063 142.48V132.714C138.063 132.64 138.092 132.569 138.145 132.517C138.197 132.464 138.268 132.435 138.342 132.435C138.416 132.435 138.487 132.464 138.539 132.517C138.592 132.569 138.621 132.64 138.621 132.714V142.469C138.623 142.506 138.616 142.544 138.603 142.579C138.59 142.614 138.569 142.646 138.543 142.673C138.517 142.7 138.486 142.722 138.451 142.736C138.417 142.751 138.38 142.759 138.342 142.759Z" fill="#FFEEF2"/>
<path d="M123.995 148.987C123.958 148.988 123.921 148.981 123.887 148.968C123.852 148.954 123.821 148.934 123.794 148.909L116.673 141.782C116.647 141.757 116.625 141.727 116.611 141.694C116.596 141.66 116.589 141.624 116.589 141.587C116.589 141.551 116.596 141.514 116.611 141.481C116.625 141.447 116.647 141.417 116.673 141.392C116.699 141.366 116.73 141.345 116.764 141.331C116.798 141.317 116.835 141.309 116.872 141.309C116.908 141.309 116.945 141.317 116.979 141.331C117.013 141.345 117.044 141.366 117.07 141.392L124.19 148.512C124.216 148.538 124.237 148.569 124.251 148.603C124.265 148.637 124.273 148.674 124.273 148.71C124.273 148.747 124.265 148.784 124.251 148.818C124.237 148.852 124.216 148.883 124.19 148.909C124.165 148.934 124.134 148.955 124.101 148.968C124.067 148.982 124.031 148.988 123.995 148.987Z" fill="#FFEEF2"/>
<path d="M152.678 148.987C152.642 148.987 152.606 148.981 152.572 148.967C152.539 148.954 152.508 148.934 152.482 148.909C152.431 148.855 152.402 148.784 152.402 148.71C152.402 148.637 152.431 148.565 152.482 148.512L159.603 141.392C159.629 141.366 159.66 141.345 159.694 141.331C159.728 141.317 159.764 141.309 159.801 141.309C159.838 141.309 159.874 141.317 159.908 141.331C159.942 141.345 159.973 141.366 159.999 141.392C160.026 141.417 160.047 141.447 160.062 141.481C160.076 141.514 160.084 141.551 160.084 141.587C160.084 141.624 160.076 141.66 160.062 141.694C160.047 141.727 160.026 141.757 159.999 141.782L152.879 148.897C152.853 148.925 152.822 148.947 152.787 148.963C152.753 148.978 152.716 148.986 152.678 148.987Z" fill="#FFEEF2"/>
<path d="M195.886 155.423C197.368 156.017 198.592 157.158 199.339 158.643C200.085 160.128 200.306 161.859 199.962 163.529C187.047 226.741 166.458 199.405 162.581 195.515C159.752 192.681 147.458 171.001 146.351 167.415L152.897 163.031C156.594 168.658 171.615 184.002 173.919 185.833C174.606 186.396 176.884 195.059 186.962 160.176C187.236 159.223 187.691 158.336 188.298 157.571C188.905 156.806 189.652 156.179 190.491 155.731C191.329 155.283 192.242 155.023 193.171 154.967C194.1 154.911 195.025 155.061 195.889 155.406L195.886 155.423Z" fill="#FFBE9D"/>
<path d="M204.398 144.706C197.534 135.22 185.62 139.305 181.34 153.077C178.873 161.118 177.435 169.44 177.06 177.842L184.286 180.03L201.853 185.365C201.853 185.365 206.786 167.335 206.613 154.673C206.563 150.493 205.938 146.888 204.398 144.706Z" fill="#093636"/>
<path opacity="0.2" d="M191.479 161.9C190.552 163.568 189.803 165.33 189.247 167.156C187.896 171.522 186.859 175.979 186.145 180.493L197.227 183.842L191.479 161.9Z" fill="black"/>
<path d="M208.628 135.65C216.932 134.438 225.3 133.708 233.689 133.462C240.367 133.28 247.05 133.533 253.695 134.221C254.755 159.718 258.254 221.057 258.639 230.153H198.494C183.617 151.838 191.987 140.198 191.987 140.198C197.407 138.25 202.971 136.729 208.628 135.65Z" fill="#093636"/>
<path opacity="0.2" d="M256.658 192.887L255.709 171.397L239.61 151.866C238.304 178.68 252.378 186.286 256.658 192.887Z" fill="black"/>
<path d="M211.664 120.119C213.935 126.643 214.789 133.735 205.408 136.86C205.408 136.86 201.77 145.928 214.56 144.846C230.536 143.495 232.11 134.533 232.11 134.533C225.603 129.316 225.899 113.429 226.837 104.69L211.664 120.119Z" fill="#FFBE9D"/>
<path opacity="0.2" d="M221.256 115.605C221.2 119.467 216.524 123.931 212.914 124.785C212.641 123.192 212.227 121.627 211.675 120.108L220.659 110.984C221.133 112.476 221.335 114.041 221.256 115.605Z" fill="black"/>
<path d="M224.939 84.556C222.993 80.7981 219.634 77.9668 215.601 76.6849C211.568 75.403 207.191 75.7754 203.433 77.7201C192.45 83.3451 192.378 100.767 195.787 111.001C199.582 122.368 214.404 126.448 222.462 116.682C227.808 110.131 227.026 103.367 226.725 91.6598C226.69 89.1853 226.078 86.7531 224.939 84.556Z" fill="#FFBE9D"/>
<path d="M207.093 95.7225C206.468 95.7839 206.027 96.593 206.111 97.5417C206.195 98.4903 206.781 99.2158 207.389 99.1656C207.997 99.1153 208.444 98.295 208.354 97.3464C208.265 96.3977 207.718 95.6667 207.093 95.7225Z" fill="#093636"/>
<path d="M196.234 96.4422C195.609 96.498 195.196 97.3072 195.269 98.2614C195.341 99.2156 195.905 99.9355 196.535 99.8797C197.166 99.8239 197.584 99.0092 197.501 98.0605C197.417 97.1119 196.859 96.4032 196.234 96.4422Z" fill="#093636"/>
<path d="M211.463 92.5359C211.008 92.0028 210.432 91.5857 209.784 91.3189C209.136 91.052 208.434 90.9432 207.735 91.0013C207.662 91.0124 207.588 91.0091 207.517 90.9915C207.446 90.9739 207.379 90.9425 207.32 90.8989C207.261 90.8554 207.211 90.8006 207.173 90.7377C207.135 90.6749 207.11 90.6051 207.099 90.5326C207.08 90.3878 207.118 90.2412 207.206 90.1243C207.293 90.0075 207.423 89.9297 207.568 89.9076C208.451 89.8221 209.342 89.9504 210.166 90.2815C210.989 90.6127 211.721 91.1371 212.3 91.8105C212.402 91.9148 212.459 92.055 212.459 92.2011C212.459 92.3471 212.402 92.4874 212.3 92.5917C212.182 92.6937 212.029 92.7466 211.873 92.7393C211.718 92.732 211.571 92.6652 211.463 92.5526V92.5359Z" fill="#093636"/>
<path d="M192.841 93.3674C192.729 93.2721 192.66 93.1367 192.647 92.9905C192.635 92.8443 192.68 92.699 192.774 92.5861C193.311 91.879 194.011 91.3129 194.815 90.9367C195.619 90.5605 196.502 90.3854 197.389 90.4265C197.462 90.4346 197.533 90.457 197.598 90.4925C197.662 90.528 197.719 90.5759 197.766 90.6334C197.812 90.6909 197.846 90.757 197.867 90.8277C197.887 90.8985 197.894 90.9727 197.886 91.046C197.878 91.1192 197.855 91.1902 197.82 91.2548C197.784 91.3195 197.736 91.3764 197.679 91.4226C197.621 91.4687 197.555 91.503 197.484 91.5236C197.414 91.5442 197.339 91.5507 197.266 91.5426C196.56 91.5332 195.861 91.6916 195.227 92.005C194.594 92.3183 194.044 92.7776 193.622 93.3451C193.556 93.4256 193.469 93.4861 193.37 93.5196C193.272 93.5531 193.166 93.5584 193.064 93.5348C192.974 93.5043 192.896 93.4456 192.841 93.3674Z" fill="#093636"/>
<path d="M269.643 194.879C265.737 209.745 239.878 198.227 235.664 195.789C231.805 193.63 228.171 191.092 224.816 188.211C221.513 185.421 217.004 181.392 214.214 178.077L223.237 176.286C229.325 180.75 234.281 181.101 241.25 183.964C244.286 185.198 247.501 185.933 250.77 186.14C251.662 186.17 252.554 186.106 253.432 185.951L245.464 157.363L261.267 152.134C261.267 152.134 271.329 188.518 269.643 194.879Z" fill="#FFBE9D"/>
<path d="M237.902 153.59C239.275 161.788 243.332 169.673 247.5 176.866L269.459 171.012C269.459 171.012 264.275 139.148 255.458 135.192C245.999 130.951 236.072 140.616 237.902 153.59Z" fill="#093636"/>
<path d="M223.237 176.286L218.873 167.279L216.686 162.681C216.175 161.605 215.276 160.762 214.17 160.32C213.064 159.878 211.832 159.87 210.72 160.298L207.668 161.47C206.622 161.872 205.754 162.633 205.216 163.616C204.679 164.599 204.507 165.741 204.733 166.838L205.642 171.101C205.894 172.274 206.575 173.311 207.551 174.009L215.72 179.79L223.237 176.286Z" fill="#FFBE9D"/>
<path d="M232.11 81.4756C235.419 83.105 237.132 91.989 237.266 94.0537C237.635 100.65 232.11 101.598 232.439 106.771C232.651 110.12 229.526 113.981 226.346 115.058C225.525 110.728 228.773 104.69 223.237 104.076C221.625 102.664 221.954 96.5983 222.484 94.5224C219.638 93.797 217.886 90.8785 218.092 87.9488C217.384 88.2376 216.62 88.365 215.857 88.3215C215.093 88.2781 214.349 88.065 213.678 87.6977C212.344 86.9555 211.145 85.6608 210.888 84.1542C211.226 84.352 211.483 84.6645 211.611 85.035C211.739 85.4056 211.73 85.8097 211.586 86.1742C209.761 90.4153 205.358 87.999 204.259 85.9845C204.43 86.5604 204.433 87.1736 204.266 87.7508C204.098 88.3281 203.768 88.845 203.315 89.2398C202.862 89.6347 202.305 89.8907 201.71 89.9775C201.116 90.0642 200.509 89.9779 199.962 89.7289C199.422 89.4404 198.972 89.0096 198.66 88.4832C198.348 87.9569 198.187 87.3552 198.193 86.7434C197.986 87.9561 197.4 89.072 196.519 89.9298C196.076 90.351 195.548 90.6717 194.97 90.8701C194.392 91.0685 193.778 91.1399 193.17 91.0794C192.562 91.0045 191.986 90.7655 191.503 90.388C191.021 90.0105 190.65 89.5087 190.43 88.9365C190.034 87.7814 190.676 86.6542 191.714 86.0124C191.141 86.0128 190.578 85.8572 190.087 85.5623C189.595 85.2674 189.193 84.8443 188.924 84.3383C188.671 83.8243 188.588 83.2429 188.689 82.6787C188.789 82.1146 189.067 81.5973 189.482 81.2022C190.336 80.4488 192.367 80.1642 193.17 80.9734C195.358 76.4662 199.209 72.9836 203.912 71.2589C208.616 69.5342 213.805 69.7019 218.388 71.7267C219.091 72.0727 229.571 67.2736 232.11 81.4756Z" fill="#093636"/>
<path d="M229.426 96.5201C225.648 96.1351 222.69 100.61 221.853 103.836C220.944 107.391 222.902 110.7 226.624 109.522C229.425 108.624 231.755 106.651 233.103 104.037C234.727 100.811 233.204 96.8996 229.426 96.5201Z" fill="#FFBE9D"/>
<path d="M200.14 111.04C200.14 111.04 203.148 109.539 212.065 107.402C211.675 110.337 210.246 112.982 205.67 114.065C204.599 114.431 203.426 114.357 202.409 113.859C201.392 113.361 200.614 112.479 200.246 111.409C200.207 111.286 200.168 111.163 200.14 111.04Z" fill="#093636"/>
<path d="M207.261 111.414C205.482 111.74 203.851 112.619 202.601 113.925C203.582 114.271 204.645 114.31 205.648 114.037C207.426 113.718 209.056 112.84 210.302 111.532C209.327 111.17 208.261 111.129 207.261 111.414Z" fill="#FFBE9D"/>
<path d="M200.525 110.867C200.693 111.174 200.943 111.429 201.246 111.604C201.549 111.779 201.894 111.868 202.244 111.861C204.888 111.213 207.475 110.349 209.978 109.277C210.384 109.137 210.748 108.899 211.04 108.585C211.332 108.27 211.542 107.889 211.652 107.475C207.861 108.317 204.141 109.451 200.525 110.867Z" fill="white"/>
<path d="M148.26 150.813C147.111 151.298 145.052 153.017 143.484 154.406C141.659 156.03 139.477 157.169 141.017 160.349C141.614 161.588 142.133 163.396 143.4 165.885C143.4 165.885 146.396 171.421 149.538 173.759C149.538 173.759 153.802 172.202 154.471 169.741C154.76 167.421 154.922 165.087 154.957 162.749C155.036 160.742 154.894 158.732 154.533 156.756C153.673 152.397 150.961 149.663 148.26 150.813Z" fill="#FFBE9D"/>
<path d="M146.96 170.517C146.784 170.517 146.61 170.476 146.453 170.397C146.296 170.317 146.16 170.201 146.056 170.059L137.529 158.246C136.324 156.733 137.853 154.423 138.171 153.977C138.256 153.857 138.364 153.756 138.488 153.678C138.612 153.6 138.751 153.547 138.895 153.523C139.04 153.499 139.188 153.503 139.331 153.536C139.474 153.569 139.609 153.629 139.728 153.714C139.847 153.799 139.949 153.907 140.027 154.031C140.105 154.156 140.157 154.294 140.182 154.439C140.206 154.583 140.202 154.731 140.169 154.874C140.136 155.017 140.075 155.152 139.99 155.271C139.612 155.753 139.381 156.335 139.326 156.945L147.864 168.765C147.984 168.931 148.056 169.128 148.072 169.333C148.087 169.537 148.046 169.742 147.953 169.925C147.859 170.108 147.717 170.262 147.542 170.369C147.367 170.476 147.166 170.533 146.96 170.534V170.517Z" fill="#FFBE9D"/>
<path d="M100.731 182.38L114.637 175.906C115.892 159.121 109.743 156.933 101.512 154.456C82.7004 166.805 100.731 182.38 100.731 182.38Z" fill="#FFBE9D"/>
<path d="M61.8689 228.696C70.1787 229.716 78.5368 230.294 86.9079 230.426H93.0463C100.747 230.292 106.997 229.595 109.012 228.105C108.906 213.15 113.353 194.623 114.776 183.948C115.262 176.983 114.614 175.912 112.349 168.607C109.196 161.085 107.092 154.299 98.476 153.161C96.1155 152.854 93.6043 152.564 91.2215 152.363C83.9671 151.743 77.3041 151.989 69.1457 152.363C67.0474 152.452 65.005 152.608 63.0742 152.793C55.8588 153.479 51.3555 159.941 53.37 166.671C62.12 195.672 62.851 215.8 61.8689 228.696Z" fill="#FFEEF2"/>
<path opacity="0.1" d="M61.8689 228.696C70.1787 229.716 78.5368 230.294 86.9079 230.426H93.0463C100.747 230.292 106.997 229.595 109.012 228.105C108.906 213.15 113.353 194.623 114.776 183.948C115.262 176.983 114.614 175.912 112.349 168.607C109.196 161.085 107.092 154.299 98.476 153.161C96.1155 152.854 93.6043 152.564 91.2215 152.363C83.9671 151.743 77.3041 151.989 69.1457 152.363C67.0474 152.452 65.005 152.608 63.0742 152.793C55.8588 153.479 51.3555 159.941 53.37 166.671C62.12 195.672 62.851 215.8 61.8689 228.696Z" fill="white"/>
<path d="M110.781 230.42C110.803 230.293 110.803 230.163 110.781 230.035C110.684 229.076 110.589 228.105 110.496 227.122C110.475 226.847 110.346 226.591 110.137 226.41C109.928 226.23 109.656 226.139 109.38 226.157C93.7673 227.881 78.012 227.881 62.3991 226.157C62.1784 226.136 61.9569 226.188 61.7685 226.305C61.5801 226.422 61.4351 226.597 61.3556 226.804C60.965 227.747 60.5688 228.679 60.167 229.595C60.1282 229.686 60.1001 229.781 60.0833 229.879C60.0553 230.067 60.0745 230.259 60.1391 230.437L110.781 230.42Z" fill="#093636"/>
<path d="M130.664 155.795C130.664 155.795 137.304 160.817 136.528 162.748C135.563 165.136 135.267 167.324 129.804 172.128C129.804 172.128 124.977 176.163 121.194 177.19C121.194 177.19 117.806 174.171 118.085 171.609C118.675 169.34 119.386 167.105 120.217 164.913C120.878 163.017 121.751 161.201 122.818 159.5C125.217 155.8 128.091 154.383 130.664 155.795Z" fill="#FFBE9D"/>
<path opacity="0.2" d="M53.8836 163.908C53.8836 163.908 51.3668 172.279 62.8958 185.409C71.2664 194.896 78.186 201.274 84.8489 207.63C86.2382 208.958 88.0706 209.724 89.9919 209.78C91.9132 209.836 93.7868 209.177 95.2507 207.932L112.829 195.8L114.469 186.241L92.8623 201.548L53.8836 163.908Z" fill="black"/>
<path d="M55.6525 169.946C53.4873 166.804 53.4594 161.62 55.898 158.679C57.145 157.18 58.9361 156.237 60.878 156.057C62.8199 155.877 64.7538 156.475 66.2551 157.72L66.5286 157.954L67.9292 159.171C68.4538 159.584 68.9672 160.047 69.5029 160.471C70.619 161.336 89.6814 186.297 92.1647 187.329L90.7919 187.005C91.2831 187.145 91.8017 187.156 92.2986 187.039C93.2194 186.877 108.074 177.625 109.118 176.888L112.232 174.695L118.085 171.631C119.285 170.789 124.67 174.182 123.392 175.934C118.627 183.785 108.688 194.751 97.0196 201.693C92.7618 204.226 87.9069 205.409 84.1848 202.167C76.1212 195.214 63.4929 181.308 55.6525 169.946Z" fill="#FFBE9D"/>
<path d="M73.582 131.275C74.486 135.918 76.5006 144.601 75.0776 150.025C73.0575 157.748 84.6813 170.17 95.7583 170.114C101.339 168.53 101.824 158.396 97.8287 155.857C94.6813 153.876 89.101 152.386 89.6479 144.138L73.582 131.275Z" fill="#FFBE9D"/>
<path opacity="0.2" d="M81.5954 136.129L89.6311 144.131C89.2907 145.37 90.0497 148.836 90.0497 148.836C87.0139 147.943 81.1992 145.978 80.7193 140.465C80.7138 138.975 81.0119 137.5 81.5954 136.129Z" fill="black"/>
<path d="M67.1479 121.414C70.7193 132.709 71.9805 137.564 79.2907 142.006C90.2171 148.702 103.359 141.844 103.18 129.729C103.08 118.819 97.2762 102.201 84.8711 100.421C82.1483 100.016 79.3674 100.315 76.7923 101.287C74.2172 102.259 71.9333 103.874 70.1577 105.977C68.382 108.081 67.1734 110.603 66.6466 113.305C66.1199 116.006 66.2924 118.798 67.1479 121.414Z" fill="#FFBE9D"/>
<path d="M99.5083 129.813C98.3677 130.387 97.106 130.679 95.8291 130.665C94.5521 130.65 93.2974 130.329 92.1702 129.729C92.1059 129.69 92.0598 129.627 92.042 129.553C92.0242 129.48 92.0362 129.403 92.0753 129.338C92.0936 129.308 92.1177 129.282 92.1461 129.261C92.1745 129.241 92.2067 129.226 92.2409 129.218C92.2752 129.209 92.3107 129.208 92.3454 129.213C92.3802 129.219 92.4136 129.231 92.4436 129.249C93.497 129.79 94.6624 130.077 95.8466 130.087C97.0307 130.096 98.2007 129.829 99.2628 129.305C99.329 129.275 99.4039 129.272 99.4724 129.296C99.5408 129.32 99.5976 129.369 99.6311 129.433C99.6476 129.464 99.6579 129.499 99.6612 129.534C99.6646 129.569 99.661 129.604 99.6506 129.638C99.6402 129.672 99.6233 129.703 99.6008 129.73C99.5783 129.757 99.5507 129.78 99.5195 129.796L99.5083 129.813Z" fill="#093636"/>
<path d="M81.9359 117.33C81.9569 117.215 82.0134 117.109 82.0975 117.028C82.1816 116.947 82.2891 116.895 82.4047 116.878C85.0553 116.509 86.562 113.53 86.5732 113.502C86.6413 113.368 86.7595 113.268 86.9018 113.222C87.0441 113.176 87.1989 113.188 87.3321 113.256C87.4653 113.324 87.566 113.442 87.6121 113.585C87.6581 113.727 87.6457 113.882 87.5777 114.015C87.5107 114.166 85.725 117.542 82.5553 117.988C82.4828 117.999 82.4088 117.996 82.3375 117.978C82.2662 117.961 82.1991 117.929 82.14 117.886C82.0809 117.842 82.031 117.788 81.9931 117.725C81.9552 117.662 81.9301 117.592 81.9192 117.52L81.9359 117.33Z" fill="#093636"/>
<path d="M97.9123 110.337C97.9964 110.287 98.0659 110.216 98.1139 110.131C98.1619 110.046 98.1867 109.949 98.1857 109.852C98.1857 109.704 98.1269 109.562 98.0223 109.457C97.9176 109.352 97.7757 109.294 97.6277 109.294C96.7331 109.289 95.8504 109.497 95.0526 109.902C94.2548 110.307 93.5651 110.896 93.0406 111.621C93.0003 111.683 92.9728 111.753 92.9595 111.826C92.9462 111.9 92.9475 111.975 92.9634 112.048C92.9792 112.121 93.0091 112.19 93.0516 112.251C93.0941 112.312 93.1482 112.364 93.2108 112.405C93.2735 112.445 93.3435 112.472 93.4168 112.486C93.4901 112.499 93.5653 112.498 93.6381 112.482C93.7109 112.466 93.7799 112.436 93.8411 112.394C93.9023 112.351 93.9546 112.297 93.9949 112.234C94.4173 111.664 94.9698 111.202 95.6064 110.887C96.2431 110.573 96.9456 110.415 97.6556 110.426C97.7459 110.413 97.833 110.382 97.9123 110.337Z" fill="#093636"/>
<path d="M86.0263 121.029C85.9539 121.023 85.8836 121.002 85.8198 120.968C85.7256 120.905 85.6599 120.808 85.6369 120.697C85.6139 120.586 85.6355 120.471 85.697 120.376C86.0543 119.797 86.5441 119.31 87.1263 118.957C87.7084 118.604 88.3661 118.394 89.0452 118.345C89.1553 118.345 89.2609 118.388 89.3392 118.466C89.4175 118.543 89.4623 118.648 89.4637 118.758C89.4645 118.814 89.4542 118.869 89.4336 118.921C89.413 118.972 89.3824 119.02 89.3435 119.059C89.3046 119.099 89.2583 119.131 89.2071 119.153C89.1559 119.175 89.1009 119.187 89.0452 119.188C88.5088 119.235 87.991 119.407 87.5335 119.691C87.076 119.975 86.6916 120.363 86.4113 120.823C86.3719 120.889 86.3152 120.943 86.2474 120.979C86.1796 121.016 86.1031 121.033 86.0263 121.029Z" fill="#093636"/>
<path d="M97.0867 114.104C97.5471 114.092 97.9982 113.971 98.4036 113.753C99.1681 113.368 99.2574 113.156 99.2574 113.156C99.2574 113.156 98.7329 114.528 98.1748 114.595C97.9698 114.59 97.7679 114.544 97.581 114.46C97.3941 114.376 97.226 114.255 97.0867 114.104Z" fill="#093636"/>
<path d="M97.0864 114.104C96.5284 114.355 96.3554 115.265 96.7405 116.141C97.1255 117.017 97.9123 117.514 98.4704 117.257C99.0284 117 99.1902 116.096 98.8052 115.22C98.4201 114.344 97.6612 113.847 97.0864 114.104Z" fill="#093636"/>
<path d="M135.077 166.197C136.021 164.199 137.248 161.699 137.449 159.5C138.515 159.601 138.744 158.434 138.476 157.731C138.208 157.028 137.678 157.023 136.947 157.173C136.601 157.246 136.276 157.398 135.999 157.617C135.721 157.835 135.497 158.115 135.345 158.434C134.57 159.991 133.906 161.732 133.113 163.289C134.285 164.294 134.519 164.779 135.077 166.197Z" fill="#FFBE9D"/>
<path d="M69.6925 101.493C69.1225 101.071 68.4484 100.812 67.7426 100.744C67.0367 100.676 66.3257 100.802 65.6858 101.108C64.4139 101.738 63.313 102.667 62.4771 103.814C60.0235 106.794 58.4161 110.379 57.8231 114.193C57.2513 118.025 57.9886 121.938 59.9157 125.298C60.6077 126.459 61.668 127.636 63.0184 127.597C62.1814 126.883 62.1646 126.197 62.1702 125.097C62.2733 124.005 62.2957 122.906 62.2372 121.811C62.0499 124.094 62.5806 126.378 63.755 128.345C64.0164 128.777 64.3734 129.144 64.7986 129.417C65.0067 129.53 65.236 129.6 65.4722 129.621C65.7083 129.642 65.9463 129.614 66.1713 129.539C66.9637 129.288 75.5686 139.969 75.5686 139.969C76.3945 135.745 69.8934 125.421 72.0697 125.421C80.4403 125.421 71.4113 105.203 69.6925 101.504V101.493Z" fill="#093636"/>
<path d="M65.8924 128.077C67.1951 129.961 69.1884 131.254 71.4392 131.677C74.4247 132.201 75.5798 129.445 74.5475 126.799C73.5765 124.4 70.8644 121.219 67.9794 121.917C66.9862 122.179 66.1365 122.823 65.6143 123.707C65.0921 124.592 64.9393 125.647 65.1892 126.643C65.3205 127.165 65.56 127.654 65.8924 128.077Z" fill="#FFBE9D"/>
<path d="M72.2596 98.0547C71.3335 98.5232 70.5711 99.2614 70.073 100.172C69.5749 101.082 69.3645 102.123 69.4695 103.155C69.5475 104.046 69.6817 104.932 69.8712 105.806C70.2596 107.786 71.1842 109.622 72.5442 111.113C73.9393 112.547 74.3857 114.651 76.3779 114.416C76.9973 113.931 78.8668 113.116 79.4862 112.631C77.1592 111.347 75.8869 108.975 74.9103 106.492C76.2831 109.249 78.9784 110.454 81.4449 111.66C81.4449 111.66 84.7484 110.449 85.513 109.517C83.3566 108.311 81.6888 106.391 80.7976 104.087C82.4539 106.364 84.8611 107.982 87.5944 108.657C89.4471 108.099 91.2161 107.636 93.0743 107.061C91.5062 104.656 89.6926 101.989 86.9973 100.996C91.2105 102.022 93.1357 104.439 94.3076 106.782C94.927 106.565 106.065 105.856 90.7529 97.8538C85.513 95.1083 77.4773 95.4654 72.2596 98.0547Z" fill="#093636"/>
<path d="M72.0306 131.163C72.57 131.163 73.0072 130.726 73.0072 130.187C73.0072 129.647 72.57 129.21 72.0306 129.21C71.4913 129.21 71.0541 129.647 71.0541 130.187C71.0541 130.726 71.4913 131.163 72.0306 131.163Z" fill="#FFEEF2"/>
<path d="M72.8678 132.502C72.8678 132.588 72.8424 132.671 72.795 132.742C72.7475 132.813 72.6801 132.868 72.6012 132.9C72.5224 132.932 72.4357 132.94 72.3522 132.923C72.2687 132.906 72.1922 132.865 72.1323 132.804C72.0724 132.744 72.032 132.667 72.016 132.583C72.0001 132.499 72.0094 132.413 72.0428 132.334C72.0761 132.256 72.1321 132.189 72.2035 132.142C72.2749 132.096 72.3585 132.072 72.4437 132.073C72.4999 132.073 72.5555 132.084 72.6073 132.106C72.6591 132.127 72.7061 132.159 72.7456 132.199C72.785 132.239 72.8161 132.286 72.8371 132.338C72.8581 132.391 72.8685 132.446 72.8678 132.502Z" fill="#FFEEF2"/>
<path d="M72.6724 133.686L72.7896 141.018L74.3018 142.235L74.9491 140.41L72.6724 133.686Z" fill="#FFEEF2"/>
</svg>
