<svg width="320" height="330" viewBox="0 0 320 330" fill="none" xmlns="http://www.w3.org/2000/svg">
<path fill-rule="evenodd" clip-rule="evenodd" d="M108.709 275.035C83.2413 270.974 49.4403 278.969 36.5758 253.954C23.638 228.797 47.041 193.869 50.888 162.604C54.3384 134.563 43.7451 104.972 57.9133 80.5452C72.2648 55.8027 98.8394 45.6251 122.726 38.7534C144.486 32.4935 164.569 40.028 185.682 43.7884C210.319 48.1765 237.99 44.2672 256.257 62.5366C276.913 83.1951 291.048 114.35 290.219 148.34C289.374 183.01 274.774 219.505 251.817 244.595C230.54 267.848 200.888 269.994 173.594 275.799C151.253 280.552 130.353 278.486 108.709 275.035Z" fill="#E1F0EE"/>
<path d="M183.701 174.237L149.442 246.384L150.38 255.856L193.14 215.245L185.688 214.763L209.478 193.135C207.102 190.999 204.878 188.7 202.82 186.256C196.769 178.992 193.414 170.654 190.847 161.866L192.593 161.417C192.216 155.816 191.213 150.274 189.603 144.896L176.457 175.924L183.701 174.237Z" fill="#093636"/>
<path d="M241.77 208.776L155.845 250.39C154.308 250.097 152.797 249.778 151.331 249.439V249.257L198.775 211.558L191.238 210.372L217.536 190.38C219.295 192.317 221.124 194.193 223.022 196.008C225.152 198.067 227.354 200.073 229.536 202.053C231.529 203.845 233.093 205.669 235.907 206.412C237.982 206.861 239.964 207.66 241.77 208.776Z" fill="#093636"/>
<path d="M241.118 212.737C240.596 212.122 239.991 211.583 239.32 211.134L155.129 251.146C164.633 253.028 175.193 254.09 184.802 253.471C214.826 249.849 230.578 238.886 240.434 222.248L243.555 220.352C243.888 220.176 244.177 219.928 244.4 219.624C244.624 219.321 244.776 218.972 244.846 218.602C244.915 218.232 244.9 217.851 244.802 217.487C244.704 217.123 244.524 216.787 244.278 216.502L241.118 212.737Z" fill="#093636"/>
<path d="M95.1378 210.079L94.8902 217.134L81.8615 207.688C83.7921 213.767 86.2306 219.672 89.151 225.342C97.8998 241.739 113.482 258.461 142.523 261.445C145.982 261.803 150.992 261.484 156.816 260.552L156.093 258.194L95.1378 210.079Z" fill="#093636"/>
<path d="M115.932 88.5403L112.023 58.0139C108.828 61.0092 106.211 64.5666 104.303 68.5086C92.6232 92.2274 96.6686 105.497 112.857 115.223L113.463 115.575L106.629 83.4069L115.932 88.5403Z" fill="#6DA4CD"/>
<path d="M189.134 134.551L212.09 77.7329V92.273L189.134 134.551Z" fill="#093636"/>
<path d="M218.729 176.882L248.545 138.03L245.437 149.228L218.729 176.882Z" fill="#6DA4CD"/>
<path d="M87.1577 135.372L73.9074 105.869L72.5394 113.262L87.1577 135.372Z" fill="#6DA4CD"/>
<path d="M101.34 209.389L153.318 266.35L151.872 255.237L112.948 190.842L113.372 196.529L96.2778 174.224L107 175.989L88.3564 142.883C86.3571 146.326 85.343 150.251 85.4249 154.231C85.7767 171.208 86.363 189.409 88.6821 204.952L99.9194 216.294L101.34 209.389Z" fill="#6DA4CD"/>
<path d="M123.944 138.688L137.866 227.479L146.491 99.8623L140.315 103.83L138.843 52.4246C130.413 52.2487 121.482 54.7698 114.446 61.0431L118.029 91.6607L108.746 86.2863L115.222 118.598C118.898 120.837 122.773 122.732 126.798 124.259C126.55 124.91 126.309 125.516 126.068 126.122C122.937 125.802 119.789 125.658 116.642 125.692L119.73 141.131L123.944 138.688Z" fill="#093636"/>
<path d="M97.8867 170.934L112.87 194.536L112.974 188.836L145.82 256.149L144.855 228.137L122.856 143.515L118.863 146.219L115.502 128.174C113.977 128.298 112.42 128.454 110.811 128.662C107.266 129.064 103.843 130.198 100.759 131.992C97.6752 133.786 94.9978 136.202 92.8967 139.085L108.414 173.612L97.8867 170.934Z" fill="#093636"/>
<path d="M168.848 108.97L162.333 128.904C170.314 128.591 177.16 127.49 181.531 126.148C175.805 122.813 174.138 113.354 174.509 103.634L169.239 112.324L168.848 108.97Z" fill="#6DA4CD"/>
<path d="M169.851 136.369L169.806 136.336C169.493 136.141 169.154 135.945 168.848 135.763C163.161 132.578 157.852 129.705 152.432 127.333C151.934 126.527 151.565 125.648 151.337 124.728C154.529 125.21 157.637 125.529 160.607 125.718L169.2 105.159L169.252 108.781L175.434 100.071C176.254 94.1577 177.657 88.3402 179.623 82.7035C184.365 69.3816 174.411 60.2354 169.33 61.4601C166.184 53.5777 155.422 47.9558 143.611 47.604L143.207 94.8202L149.435 90.9116L140.465 222.632L145.24 255.732L176.281 182.074L169.115 184.061L180.887 152.459C178.659 146.238 175.2 139.822 169.851 136.369Z" fill="#093636"/>
<path d="M140.725 160.212C135.045 171.846 136.745 178.55 144.197 183.618C153.891 190.21 167.577 190.386 173.154 188.907C169.024 185.572 170.326 174.192 172.281 167.579C174.235 160.967 169.538 156.622 167.258 157.274C164.177 149.671 147.227 146.883 140.725 160.212Z" fill="#093636"/>
<path opacity="0.6" d="M140.725 160.212C135.045 171.846 136.745 178.55 144.197 183.618C153.891 190.21 167.577 190.386 173.154 188.907C169.024 185.572 170.326 174.192 172.281 167.579C174.235 160.967 169.538 156.622 167.258 157.274C164.177 149.671 147.227 146.883 140.725 160.212Z" fill="white"/>
<path d="M171.831 199.878L172.125 201.18L172.45 202.561L173.154 205.33C173.649 207.174 174.157 209.011 174.737 210.802C175.317 212.594 175.922 214.366 176.606 216.059C177.252 217.72 178.004 219.337 178.86 220.899C179.258 221.631 179.693 222.342 180.163 223.03C180.385 223.375 180.619 223.681 180.847 223.981L181.616 224.938C182.76 226.282 183.996 227.545 185.316 228.717C186.684 229.935 188.15 231.127 189.674 232.293C190.052 232.58 190.436 232.873 190.827 233.153C191.218 233.433 191.602 233.726 191.993 234.013L194.319 235.681L194.488 235.798C195.016 236.172 195.398 236.717 195.567 237.341C195.737 237.965 195.685 238.629 195.419 239.218C195.154 239.808 194.691 240.287 194.112 240.573C193.532 240.859 192.871 240.935 192.241 240.788C191.101 240.527 190.104 240.247 189.068 239.915C188.033 239.583 187.029 239.218 186.026 238.807C184.001 237.989 182.041 237.017 180.163 235.902C178.182 234.745 176.319 233.396 174.6 231.876C174.164 231.459 173.727 231.055 173.297 230.625C172.867 230.195 172.45 229.7 172.072 229.225C171.317 228.305 170.61 227.346 169.955 226.352C167.581 222.591 165.653 218.566 164.21 214.359C163.499 212.327 162.855 210.288 162.307 208.222C162.027 207.193 161.767 206.157 161.532 205.115C161.421 204.594 161.298 204.073 161.2 203.539L160.887 201.877C160.623 200.446 160.93 198.967 161.743 197.759C162.555 196.551 163.808 195.709 165.234 195.413C166.66 195.118 168.144 195.392 169.37 196.178C170.596 196.964 171.465 198.198 171.792 199.617L171.831 199.878Z" fill="#FFBE9D"/>
<path d="M168.053 194.77C174.541 198.529 176.124 212.209 176.124 212.209C171.206 212.574 165.174 214.769 160.405 218.124C160.405 218.124 158.229 209.812 158.399 205.682C158.568 201.402 164.34 192.627 168.053 194.77Z" fill="white"/>
<path d="M199.309 244.39L201.863 241.745C202.008 241.595 202.122 241.418 202.199 241.223C202.275 241.029 202.312 240.821 202.308 240.612C202.304 240.403 202.258 240.197 202.174 240.006C202.09 239.815 201.968 239.642 201.817 239.498L199.902 237.661C199.15 236.96 198.202 236.506 197.185 236.358L190.886 235.4L189.134 238.918C191.739 241.654 193.602 242.442 193.602 242.442L197.361 244.657C197.669 244.838 198.028 244.909 198.381 244.861C198.735 244.813 199.061 244.647 199.309 244.39Z" fill="#FFBE9D"/>
<path d="M159.721 233.804L137.181 237.941C135.129 249.732 140.263 264.884 160.516 264.884C185.179 264.884 207.198 260.676 203.7 249.341C199.485 235.706 159.721 233.804 159.721 233.804Z" fill="#6DA4CD"/>
<path d="M126.4 237.941C124.348 249.732 129.482 268.793 149.735 268.793C182.958 268.793 202.364 269.321 205.061 257.771C207.758 246.221 162.829 242.827 162.829 242.827C162.829 242.827 164.34 239.289 162.079 231.446C140.146 231.83 126.4 237.941 126.4 237.941Z" fill="#6DA4CD"/>
<path opacity="0.1" d="M126.4 237.941C124.348 249.732 129.482 268.793 149.735 268.793C182.958 268.793 202.364 269.321 205.061 257.771C207.758 246.221 162.829 242.827 162.829 242.827C162.829 242.827 164.34 239.289 162.079 231.446C140.146 231.83 126.4 237.941 126.4 237.941Z" fill="white"/>
<path d="M168.053 194.77C160.001 190.047 153.611 186.751 142.901 187.552C140.104 187.786 137.467 188.954 135.414 190.868C133.362 192.782 132.013 195.332 131.586 198.106C129.527 211.063 126.055 226.196 126.374 237.941C149.174 247.374 162.418 238.951 162.053 231.427C156.666 217.323 170.183 210.502 170.867 202.444C171.245 198.34 170.717 196.327 168.053 194.77Z" fill="white"/>
<path d="M151.057 175.566C152.36 180.38 150.516 184.888 149.285 188.347C152.554 193.037 155.444 197.98 157.93 203.128C164.965 197.773 162.36 192.705 162.36 192.705C158.06 190.008 159.408 185.709 161.324 182.719L151.057 175.566Z" fill="#FFBE9D"/>
<path opacity="0.2" d="M157.949 177.064L161.324 182.712C160.866 183.401 160.469 184.129 160.138 184.888C157.884 185.135 154.855 182.093 155.129 180.015C155.259 179.038 157.65 177.448 157.949 177.064Z" fill="black"/>
<path d="M146.81 168.029C148.634 175.195 149.246 178.289 153.624 181.325C160.203 185.885 168.607 182.087 168.991 174.504C169.323 167.683 166.288 157.078 158.627 155.534C156.939 155.186 155.191 155.274 153.548 155.791C151.904 156.308 150.42 157.237 149.236 158.488C148.052 159.74 147.208 161.274 146.783 162.943C146.359 164.613 146.368 166.364 146.81 168.029Z" fill="#FFBE9D"/>
<path d="M165.337 157.488C165.48 159.879 158.327 160.472 154.334 160.211C151.761 160.042 149.52 161.514 149.878 163.788C150.223 165.925 152.158 167.332 153.611 166.778C155.109 171.338 149.051 176.191 143.676 172.745C138.302 169.299 147.826 145.385 165.337 157.488Z" fill="#093636"/>
<path opacity="0.6" d="M165.337 157.488C165.48 159.879 158.327 160.472 154.334 160.211C151.761 160.042 149.52 161.514 149.878 163.788C150.223 165.925 152.158 167.332 153.611 166.778C155.109 171.338 149.051 176.191 143.676 172.745C138.302 169.299 147.826 145.385 165.337 157.488Z" fill="white"/>
<path opacity="0.2" d="M157.884 167.664C157.561 167.573 157.222 167.553 156.89 167.605C156.559 167.656 156.242 167.779 155.962 167.964C156.617 167.998 157.271 167.896 157.884 167.664Z" fill="black"/>
<path opacity="0.2" d="M157.884 168.166C157.57 168.156 157.259 168.217 156.972 168.345C156.686 168.472 156.432 168.662 156.229 168.902C156.828 168.779 157.392 168.528 157.884 168.166Z" fill="black"/>
<path opacity="0.2" d="M163.122 175.344C162.852 175.185 162.55 175.088 162.237 175.061C161.925 175.034 161.611 175.077 161.317 175.188C161.9 175.372 162.516 175.425 163.122 175.344Z" fill="black"/>
<path opacity="0.2" d="M163.35 160.211C163.35 160.211 159.656 160.439 157.832 161.514C159.709 161.259 161.557 160.823 163.35 160.211Z" fill="black"/>
<path d="M158.764 167.768C158.881 168.361 159.285 168.237 159.669 168.165C160.053 168.094 160.281 168.094 160.164 167.514C160.047 166.934 159.65 166.504 159.265 166.576C158.881 166.648 158.653 167.175 158.764 167.768Z" fill="#093636"/>
<path d="M165.454 166.504C165.565 167.091 165.89 167.006 166.275 166.934C166.659 166.863 166.965 166.83 166.854 166.237C166.744 165.645 166.34 165.228 165.955 165.299C165.571 165.371 165.343 165.912 165.454 166.504Z" fill="#093636"/>
<path d="M165.786 165.364L167.134 164.713C167.134 164.713 166.613 165.957 165.786 165.364Z" fill="#093636"/>
<path d="M146.113 174.563C147.038 175.658 148.359 176.341 149.787 176.465C151.683 176.608 152.262 174.823 151.429 173.208C150.673 171.768 148.784 169.95 147.031 170.563C145.279 171.175 144.992 173.214 146.113 174.563Z" fill="#FFBE9D"/>
<path d="M158.679 162.641C158.605 162.654 158.537 162.689 158.486 162.743C158.434 162.797 158.401 162.867 158.392 162.941C158.171 164.563 156.314 165.547 156.295 165.547C156.253 165.567 156.216 165.596 156.185 165.632C156.155 165.667 156.132 165.708 156.118 165.753C156.104 165.797 156.099 165.844 156.104 165.89C156.109 165.937 156.122 165.981 156.145 166.022C156.166 166.063 156.195 166.1 156.231 166.13C156.266 166.16 156.307 166.182 156.351 166.196C156.396 166.21 156.442 166.215 156.488 166.211C156.534 166.207 156.579 166.194 156.62 166.172C156.712 166.127 158.829 165 159.089 163.019C159.097 162.973 159.095 162.926 159.083 162.881C159.072 162.836 159.052 162.794 159.024 162.757C158.996 162.72 158.961 162.689 158.921 162.665C158.88 162.642 158.836 162.627 158.79 162.622L158.679 162.641Z" fill="#093636"/>
<path d="M164.353 161.703C164.292 161.701 164.232 161.715 164.178 161.743C164.124 161.772 164.079 161.814 164.047 161.866C164.022 161.906 164.005 161.95 163.998 161.996C163.99 162.042 163.992 162.089 164.003 162.135C164.014 162.18 164.033 162.223 164.061 162.261C164.089 162.299 164.124 162.331 164.164 162.355C164.635 162.66 165.173 162.848 165.732 162.903C166.29 162.957 166.854 162.876 167.375 162.667C167.418 162.648 167.457 162.62 167.489 162.585C167.521 162.551 167.546 162.51 167.562 162.466C167.578 162.422 167.586 162.375 167.584 162.328C167.582 162.281 167.571 162.235 167.551 162.192C167.532 162.149 167.504 162.111 167.469 162.079C167.435 162.047 167.394 162.022 167.35 162.005C167.306 161.989 167.259 161.982 167.212 161.983C167.165 161.985 167.119 161.996 167.076 162.016C166.661 162.175 166.214 162.233 165.773 162.186C165.331 162.138 164.907 161.986 164.535 161.742C164.48 161.712 164.416 161.698 164.353 161.703Z" fill="#093636"/>
<path d="M159.102 166.609L160.444 165.957C160.444 165.957 159.923 167.195 159.102 166.609Z" fill="#093636"/>
<path d="M144.666 195.194C145.129 197.734 145.65 200.405 146.171 203.011C146.692 205.617 147.265 208.223 147.871 210.828C148.477 213.434 149.135 215.955 149.826 218.437C150.505 220.819 151.341 223.154 152.327 225.427C152.444 225.688 152.562 225.948 152.685 226.183C152.809 226.417 152.946 226.71 153.011 226.834L153.128 227.056L153.304 227.31C153.43 227.498 153.567 227.679 153.715 227.85C154.424 228.701 155.202 229.492 156.04 230.215C157.968 231.859 159.996 233.382 162.112 234.775C166.457 237.707 171.18 240.443 175.792 243.12L175.851 243.159C176.435 243.498 176.876 244.038 177.091 244.678C177.306 245.319 177.28 246.015 177.018 246.638C176.756 247.261 176.276 247.766 175.667 248.06C175.059 248.354 174.365 248.416 173.714 248.234C170.945 247.459 168.32 246.553 165.669 245.537C163.017 244.521 160.457 243.394 157.851 242.136C155.184 240.841 152.623 239.338 150.19 237.642C148.842 236.703 147.579 235.645 146.419 234.482C146.106 234.156 145.8 233.831 145.494 233.459L145.031 232.899L144.582 232.248C144.249 231.785 144.067 231.459 143.852 231.101C143.637 230.743 143.435 230.391 143.246 230.046C141.823 227.38 140.616 224.605 139.637 221.746C138.66 219.01 137.846 216.268 137.103 213.525C136.36 210.783 135.709 208.034 135.149 205.278C134.589 202.523 134.061 199.793 133.644 196.914C133.454 195.48 133.828 194.029 134.688 192.867C135.548 191.705 136.827 190.923 138.253 190.686C139.679 190.449 141.141 190.776 142.331 191.598C143.521 192.42 144.344 193.672 144.627 195.09L144.666 195.194Z" fill="#FFBE9D"/>
<path d="M140.953 189.122C148.021 191.572 148.94 207.408 148.94 207.408C145.188 206.581 135.859 212.548 133.957 215.981C133.957 215.981 130.921 205.936 131.091 201.812C131.273 197.513 135.657 187.292 140.953 189.122Z" fill="white"/>
<path d="M180.209 252.748L183.192 250.318C183.362 250.18 183.503 250.01 183.607 249.817C183.711 249.624 183.776 249.413 183.798 249.195C183.819 248.977 183.798 248.757 183.734 248.547C183.671 248.337 183.566 248.142 183.427 247.973L181.655 245.83C180.971 244.996 180.044 244.395 179.004 244.11L172.574 242.332L170.313 245.797C172.672 248.963 174.515 250.019 174.515 250.019L178.15 252.781C178.448 253.005 178.812 253.124 179.185 253.118C179.558 253.112 179.918 252.982 180.209 252.748Z" fill="#FFBE9D"/>
<path d="M160.718 173.677C160.334 173.742 159.957 173.84 159.591 173.97C159.541 173.989 159.5 174.027 159.477 174.075C159.454 174.124 159.45 174.179 159.467 174.23C159.486 174.281 159.524 174.322 159.573 174.345C159.621 174.368 159.677 174.371 159.728 174.354C160.531 174.045 161.397 173.93 162.253 174.017C163.11 174.104 163.934 174.391 164.659 174.856C164.702 174.887 164.755 174.901 164.807 174.893C164.86 174.886 164.907 174.859 164.939 174.817C164.956 174.795 164.968 174.771 164.975 174.745C164.982 174.719 164.984 174.692 164.98 174.665C164.977 174.638 164.968 174.613 164.954 174.59C164.94 174.566 164.922 174.546 164.9 174.53C163.67 173.712 162.17 173.406 160.718 173.677Z" fill="#093636"/>
<path d="M163.061 171.937C163.061 171.913 163.683 171.883 164.68 171.856C164.933 171.856 165.175 171.837 165.228 171.759C165.27 171.639 165.23 171.516 165.113 171.407C164.918 171.12 164.73 170.821 164.503 170.506C163.66 169.224 163.065 168.173 163.18 168.157C163.295 168.141 164.066 169.17 164.91 170.446L165.489 171.353C165.624 171.497 165.646 171.658 165.55 171.809C165.508 171.848 165.447 171.883 165.371 171.91C165.296 171.937 165.207 171.955 165.113 171.964C164.972 171.976 164.828 171.981 164.684 171.978C163.683 171.981 163.061 171.964 163.061 171.937Z" fill="#263238"/>
</svg>
