<svg width="274" height="278" viewBox="0 0 274 278" fill="none" xmlns="http://www.w3.org/2000/svg">
<path fill-rule="evenodd" clip-rule="evenodd" d="M70.838 2.45555C56.3698 1.01031 29.2743 -3.27122 17.2203 4.65562C5.05884 12.6531 2.78466 28.0242 0.439934 42.1333C-1.66564 54.8033 4.29472 66.6164 7.57549 79.0472C11.1396 92.5515 3.74394 109.959 14.0893 119.596C24.8846 129.652 51.4374 129.055 66.2198 126.963C80.1663 124.99 84.661 115.012 96.2221 107.162C108.115 99.0869 111.859 109.349 116.162 95.8643C120.469 82.3694 122.03 57.6053 116.162 44.681C111.038 33.3946 108.638 20.5876 98.863 12.7359C88.7574 4.61845 83.8682 3.75717 70.838 2.45555Z" fill="#E1F0EE"/>
<path d="M45.5355 43.1389L38.3457 51.1268M45.5355 43.1389V86.2778V43.1389ZM45.5355 43.1389L52.7253 51.1268L45.5355 43.1389Z" stroke="#00325A" stroke-width="4.79321" stroke-linecap="round" stroke-linejoin="round"/>
<path d="M64.7084 86.2778H83.8812L81.4846 76.6914H64.7084V86.2778Z" stroke="#00325A" stroke-width="4.79321" stroke-miterlimit="5.759" stroke-linecap="round" stroke-linejoin="round"/>
<path d="M64.7084 69.5015H79.088L76.6914 59.915H64.7084V69.5015Z" stroke="#00325A" stroke-width="4.79321" stroke-miterlimit="5.759" stroke-linecap="round" stroke-linejoin="round"/>
<path d="M64.7084 52.7253H74.2948L71.8982 43.1389H64.7084V52.7253Z" stroke="#00325A" stroke-width="4.79321" stroke-miterlimit="5.759" stroke-linecap="round" stroke-linejoin="round"/>
<path d="M1.62012 188V173.8H12.8401V188H10.5801V175.78H3.86012V188H1.62012ZM20.4732 188.2C19.6466 188.2 18.9066 188.06 18.2532 187.78C17.5999 187.487 17.0332 187.087 16.5532 186.58C16.0866 186.073 15.7266 185.5 15.4732 184.86C15.2199 184.207 15.0932 183.513 15.0932 182.78C15.0932 182.047 15.2199 181.353 15.4732 180.7C15.7266 180.047 16.0866 179.473 16.5532 178.98C17.0332 178.473 17.5999 178.08 18.2532 177.8C18.9199 177.507 19.6599 177.36 20.4732 177.36C21.2866 177.36 22.0199 177.507 22.6732 177.8C23.3399 178.08 23.9066 178.473 24.3732 178.98C24.8532 179.473 25.2199 180.047 25.4732 180.7C25.7266 181.353 25.8532 182.047 25.8532 182.78C25.8532 183.513 25.7266 184.207 25.4732 184.86C25.2199 185.5 24.8532 186.073 24.3732 186.58C23.9066 187.087 23.3399 187.487 22.6732 187.78C22.0199 188.06 21.2866 188.2 20.4732 188.2ZM17.3532 182.8C17.3532 183.467 17.4932 184.067 17.7732 184.6C18.0532 185.133 18.4266 185.553 18.8932 185.86C19.3599 186.167 19.8866 186.32 20.4732 186.32C21.0466 186.32 21.5666 186.167 22.0332 185.86C22.5132 185.54 22.8932 185.113 23.1732 184.58C23.4532 184.033 23.5932 183.433 23.5932 182.78C23.5932 182.113 23.4532 181.513 23.1732 180.98C22.8932 180.447 22.5132 180.027 22.0332 179.72C21.5666 179.4 21.0466 179.24 20.4732 179.24C19.8866 179.24 19.3599 179.4 18.8932 179.72C18.4266 180.04 18.0532 180.467 17.7732 181C17.4932 181.52 17.3532 182.12 17.3532 182.8ZM30.2845 188V179.48H26.8245V177.54H35.9645V179.48H32.4845V188H30.2845ZM42.3492 188.2C41.5359 188.2 40.7959 188.06 40.1292 187.78C39.4759 187.487 38.9092 187.093 38.4292 186.6C37.9492 186.093 37.5759 185.52 37.3092 184.88C37.0559 184.227 36.9292 183.533 36.9292 182.8C36.9292 181.813 37.1559 180.913 37.6092 180.1C38.0625 179.273 38.6959 178.613 39.5092 178.12C40.3225 177.613 41.2759 177.36 42.3692 177.36C43.4625 177.36 44.4025 177.613 45.1892 178.12C45.9892 178.613 46.6092 179.267 47.0492 180.08C47.4892 180.893 47.7092 181.767 47.7092 182.7C47.7092 182.86 47.7025 183.013 47.6892 183.16C47.6759 183.293 47.6625 183.407 47.6492 183.5H39.2692C39.3092 184.113 39.4759 184.653 39.7692 185.12C40.0759 185.573 40.4625 185.933 40.9292 186.2C41.3959 186.453 41.8959 186.58 42.4292 186.58C43.0159 186.58 43.5692 186.433 44.0892 186.14C44.6225 185.847 44.9825 185.46 45.1692 184.98L47.0492 185.52C46.8225 186.027 46.4759 186.487 46.0092 186.9C45.5559 187.3 45.0159 187.62 44.3892 187.86C43.7625 188.087 43.0825 188.2 42.3492 188.2ZM39.2092 182.04H45.5292C45.4892 181.44 45.3159 180.913 45.0092 180.46C44.7159 179.993 44.3359 179.633 43.8692 179.38C43.4159 179.113 42.9092 178.98 42.3492 178.98C41.8025 178.98 41.2959 179.113 40.8292 179.38C40.3759 179.633 40.0025 179.993 39.7092 180.46C39.4159 180.913 39.2492 181.44 39.2092 182.04ZM49.5037 188V177.54H51.7037V181.7H56.5637V177.54H58.7637V188H56.5637V183.6H51.7037V188H49.5037ZM69.6178 190.5V188H61.4178V177.54H63.6178V186.08H67.8978V177.54H70.0978V186.08H71.5578V190.5H69.6178ZM73.41 188V177.56H75.61V185.06L80.91 177.54H82.91V188H80.71V180.66L75.47 188H73.41ZM84.7789 184.94C84.7789 184.273 84.9655 183.693 85.3389 183.2C85.7255 182.693 86.2522 182.307 86.9189 182.04C87.5855 181.76 88.3589 181.62 89.2389 181.62C89.7055 181.62 90.1789 181.653 90.6589 181.72C91.1522 181.787 91.5855 181.893 91.9589 182.04V181.38C91.9589 180.647 91.7389 180.073 91.2989 179.66C90.8589 179.247 90.2255 179.04 89.3989 179.04C88.8122 179.04 88.2589 179.147 87.7389 179.36C87.2189 179.56 86.6655 179.847 86.0789 180.22L85.3389 178.74C86.0322 178.273 86.7255 177.927 87.4189 177.7C88.1255 177.473 88.8655 177.36 89.6389 177.36C91.0389 177.36 92.1389 177.733 92.9389 178.48C93.7522 179.213 94.1589 180.26 94.1589 181.62V185.52C94.1589 185.773 94.1989 185.953 94.2789 186.06C94.3722 186.167 94.5255 186.227 94.7389 186.24V188C94.5389 188.04 94.3589 188.067 94.1989 188.08C94.0389 188.093 93.9055 188.1 93.7989 188.1C93.3322 188.1 92.9789 187.987 92.7389 187.76C92.4989 187.533 92.3589 187.267 92.3189 186.96L92.2589 186.36C91.8055 186.947 91.2255 187.4 90.5189 187.72C89.8122 188.04 89.0989 188.2 88.3789 188.2C87.6855 188.2 87.0655 188.06 86.5189 187.78C85.9722 187.487 85.5455 187.093 85.2389 186.6C84.9322 186.107 84.7789 185.553 84.7789 184.94ZM91.4389 185.58C91.5989 185.407 91.7255 185.233 91.8189 185.06C91.9122 184.887 91.9589 184.733 91.9589 184.6V183.4C91.5855 183.253 91.1922 183.147 90.7789 183.08C90.3655 183 89.9589 182.96 89.5589 182.96C88.7589 182.96 88.1055 183.12 87.5989 183.44C87.1055 183.76 86.8589 184.2 86.8589 184.76C86.8589 185.067 86.9389 185.36 87.0989 185.64C87.2722 185.92 87.5122 186.147 87.8189 186.32C88.1389 186.493 88.5322 186.58 88.9989 186.58C89.4789 186.58 89.9389 186.487 90.3789 186.3C90.8189 186.113 91.1722 185.873 91.4389 185.58ZM95.9879 188.1V186.14C96.3213 186.14 96.6213 186.06 96.8879 185.9C97.1546 185.727 97.3879 185.447 97.5879 185.06C97.7879 184.66 97.9479 184.107 98.0679 183.4C98.1879 182.693 98.2679 181.793 98.3079 180.7L98.4479 177.54H105.908V188H103.708V179.48H100.388L100.348 180.9C100.295 182.3 100.168 183.467 99.9679 184.4C99.7679 185.32 99.4879 186.053 99.1279 186.6C98.7813 187.133 98.3413 187.52 97.8079 187.76C97.2879 187.987 96.6813 188.1 95.9879 188.1Z" fill="#093636"/>
<path d="M2.048 228.112C1.83467 228.112 1.66933 228.053 1.552 227.936C1.44533 227.808 1.392 227.637 1.392 227.424V217.392C1.392 217.168 1.45067 217.003 1.568 216.896C1.68533 216.779 1.85067 216.72 2.064 216.72H5.856C7.06133 216.72 7.98933 217.019 8.64 217.616C9.29067 218.203 9.616 219.035 9.616 220.112C9.616 221.179 9.29067 222.011 8.64 222.608C7.98933 223.205 7.06133 223.504 5.856 223.504H2.704V227.424C2.704 227.637 2.65067 227.808 2.544 227.936C2.43733 228.053 2.272 228.112 2.048 228.112ZM2.704 222.4H5.696C6.56 222.4 7.21067 222.208 7.648 221.824C8.096 221.429 8.32 220.859 8.32 220.112C8.32 219.355 8.096 218.784 7.648 218.4C7.21067 218.005 6.56 217.808 5.696 217.808H2.704V222.4ZM13.6971 228.144C13.1638 228.144 12.6838 228.043 12.2571 227.84C11.8411 227.627 11.5105 227.339 11.2651 226.976C11.0198 226.613 10.8971 226.208 10.8971 225.76C10.8971 225.184 11.0411 224.731 11.3291 224.4C11.6278 224.069 12.1131 223.835 12.7851 223.696C13.4678 223.557 14.3958 223.488 15.5691 223.488H16.2891V224.336H15.5851C14.7211 224.336 14.0385 224.379 13.5371 224.464C13.0465 224.539 12.6998 224.672 12.4971 224.864C12.3051 225.056 12.2091 225.328 12.2091 225.68C12.2091 226.117 12.3585 226.475 12.6571 226.752C12.9665 227.029 13.3825 227.168 13.9051 227.168C14.3318 227.168 14.7051 227.067 15.0251 226.864C15.3558 226.661 15.6118 226.384 15.7931 226.032C15.9851 225.68 16.0811 225.275 16.0811 224.816V222.992C16.0811 222.331 15.9478 221.856 15.6811 221.568C15.4145 221.269 14.9771 221.12 14.3691 221.12C13.9958 221.12 13.6225 221.168 13.2491 221.264C12.8758 221.36 12.4811 221.515 12.0651 221.728C11.9158 221.803 11.7878 221.829 11.6811 221.808C11.5745 221.776 11.4891 221.717 11.4251 221.632C11.3611 221.547 11.3238 221.451 11.3131 221.344C11.3025 221.227 11.3238 221.115 11.3771 221.008C11.4411 220.901 11.5371 220.816 11.6651 220.752C12.1345 220.517 12.5985 220.347 13.0571 220.24C13.5158 220.133 13.9531 220.08 14.3691 220.08C15.0411 220.08 15.5958 220.192 16.0331 220.416C16.4705 220.629 16.7958 220.96 17.0091 221.408C17.2225 221.845 17.3291 222.411 17.3291 223.104V227.44C17.3291 227.653 17.2758 227.819 17.1691 227.936C17.0731 228.053 16.9291 228.112 16.7371 228.112C16.5345 228.112 16.3798 228.053 16.2731 227.936C16.1665 227.819 16.1131 227.653 16.1131 227.44V226.192H16.2571C16.1718 226.597 16.0065 226.944 15.7611 227.232C15.5265 227.52 15.2331 227.744 14.8811 227.904C14.5291 228.064 14.1345 228.144 13.6971 228.144ZM23.1381 228.144C22.3701 228.144 21.7035 227.979 21.1381 227.648C20.5835 227.307 20.1515 226.805 19.8421 226.144C19.5435 225.483 19.3941 224.672 19.3941 223.712V222.512C19.3941 221.477 19.5275 220.613 19.7941 219.92C20.0715 219.227 20.4875 218.667 21.0421 218.24C21.6075 217.813 22.3061 217.488 23.1381 217.264L25.4741 216.608C25.6661 216.555 25.8261 216.56 25.9541 216.624C26.0928 216.688 26.1781 216.805 26.2101 216.976C26.2528 217.157 26.2261 217.312 26.1301 217.44C26.0448 217.568 25.9061 217.659 25.7141 217.712L23.2341 218.384C22.6581 218.544 22.1781 218.784 21.7941 219.104C21.4101 219.424 21.1221 219.819 20.9301 220.288C20.7381 220.747 20.6421 221.269 20.6421 221.856V222.48H20.4181C20.5461 222.011 20.7488 221.605 21.0261 221.264C21.3035 220.923 21.6448 220.661 22.0501 220.48C22.4661 220.288 22.9248 220.192 23.4261 220.192C24.0981 220.192 24.6901 220.352 25.2021 220.672C25.7141 220.992 26.1088 221.445 26.3861 222.032C26.6741 222.619 26.8181 223.317 26.8181 224.128C26.8181 224.939 26.6635 225.648 26.3541 226.256C26.0555 226.853 25.6288 227.317 25.0741 227.648C24.5301 227.979 23.8848 228.144 23.1381 228.144ZM23.0901 227.104C23.6021 227.104 24.0341 226.992 24.3861 226.768C24.7488 226.533 25.0261 226.197 25.2181 225.76C25.4101 225.323 25.5061 224.789 25.5061 224.16C25.5061 223.232 25.2928 222.512 24.8661 222C24.4395 221.488 23.8528 221.232 23.1061 221.232C22.6048 221.232 22.1728 221.344 21.8101 221.568C21.4581 221.792 21.1861 222.117 20.9941 222.544C20.8021 222.96 20.7061 223.461 20.7061 224.048C20.7061 225.051 20.9141 225.813 21.3301 226.336C21.7568 226.848 22.3435 227.104 23.0901 227.104ZM32.1686 228.144C31.4113 228.144 30.7553 227.979 30.2006 227.648C29.646 227.317 29.214 226.853 28.9046 226.256C28.606 225.648 28.4566 224.933 28.4566 224.112C28.4566 223.493 28.542 222.939 28.7126 222.448C28.8833 221.947 29.134 221.52 29.4646 221.168C29.7953 220.816 30.1846 220.549 30.6326 220.368C31.0913 220.176 31.6033 220.08 32.1686 220.08C32.926 220.08 33.582 220.245 34.1366 220.576C34.6913 220.907 35.118 221.376 35.4166 221.984C35.726 222.581 35.8806 223.291 35.8806 224.112C35.8806 224.731 35.7953 225.285 35.6246 225.776C35.454 226.267 35.2033 226.693 34.8726 227.056C34.542 227.408 34.1473 227.68 33.6886 227.872C33.2406 228.053 32.734 228.144 32.1686 228.144ZM32.1686 227.104C32.6486 227.104 33.07 226.987 33.4326 226.752C33.7953 226.517 34.0726 226.176 34.2646 225.728C34.4673 225.28 34.5686 224.741 34.5686 224.112C34.5686 223.141 34.35 222.4 33.9126 221.888C33.486 221.376 32.9046 221.12 32.1686 221.12C31.678 221.12 31.2513 221.237 30.8886 221.472C30.5366 221.696 30.2593 222.032 30.0566 222.48C29.8646 222.917 29.7686 223.461 29.7686 224.112C29.7686 225.072 29.9873 225.813 30.4246 226.336C30.862 226.848 31.4433 227.104 32.1686 227.104ZM40.2551 228.112C40.0525 228.112 39.8925 228.053 39.7751 227.936C39.6578 227.819 39.5991 227.653 39.5991 227.44V221.264H37.2631C36.8578 221.264 36.6551 221.088 36.6551 220.736C36.6551 220.576 36.7085 220.453 36.8151 220.368C36.9218 220.272 37.0711 220.224 37.2631 220.224H43.2471C43.6418 220.224 43.8391 220.395 43.8391 220.736C43.8391 220.907 43.7858 221.04 43.6791 221.136C43.5831 221.221 43.4391 221.264 43.2471 221.264H40.8951V227.44C40.8951 227.653 40.8418 227.819 40.7351 227.936C40.6391 228.053 40.4791 228.112 40.2551 228.112ZM47.5565 228.144C47.0232 228.144 46.5432 228.043 46.1165 227.84C45.7005 227.627 45.3698 227.339 45.1245 226.976C44.8792 226.613 44.7565 226.208 44.7565 225.76C44.7565 225.184 44.9005 224.731 45.1885 224.4C45.4872 224.069 45.9725 223.835 46.6445 223.696C47.3272 223.557 48.2552 223.488 49.4285 223.488H50.1485V224.336H49.4445C48.5805 224.336 47.8978 224.379 47.3965 224.464C46.9058 224.539 46.5592 224.672 46.3565 224.864C46.1645 225.056 46.0685 225.328 46.0685 225.68C46.0685 226.117 46.2178 226.475 46.5165 226.752C46.8258 227.029 47.2418 227.168 47.7645 227.168C48.1912 227.168 48.5645 227.067 48.8845 226.864C49.2152 226.661 49.4712 226.384 49.6525 226.032C49.8445 225.68 49.9405 225.275 49.9405 224.816V222.992C49.9405 222.331 49.8072 221.856 49.5405 221.568C49.2738 221.269 48.8365 221.12 48.2285 221.12C47.8552 221.12 47.4818 221.168 47.1085 221.264C46.7352 221.36 46.3405 221.515 45.9245 221.728C45.7752 221.803 45.6472 221.829 45.5405 221.808C45.4338 221.776 45.3485 221.717 45.2845 221.632C45.2205 221.547 45.1832 221.451 45.1725 221.344C45.1618 221.227 45.1832 221.115 45.2365 221.008C45.3005 220.901 45.3965 220.816 45.5245 220.752C45.9938 220.517 46.4578 220.347 46.9165 220.24C47.3752 220.133 47.8125 220.08 48.2285 220.08C48.9005 220.08 49.4552 220.192 49.8925 220.416C50.3298 220.629 50.6552 220.96 50.8685 221.408C51.0818 221.845 51.1885 222.411 51.1885 223.104V227.44C51.1885 227.653 51.1352 227.819 51.0285 227.936C50.9325 228.053 50.7885 228.112 50.5965 228.112C50.3938 228.112 50.2392 228.053 50.1325 227.936C50.0258 227.819 49.9725 227.653 49.9725 227.44V226.192H50.1165C50.0312 226.597 49.8658 226.944 49.6205 227.232C49.3858 227.52 49.0925 227.744 48.7405 227.904C48.3885 228.064 47.9938 228.144 47.5565 228.144ZM57.2375 228.144C56.4162 228.144 55.7068 227.984 55.1095 227.664C54.5228 227.333 54.0642 226.869 53.7335 226.272C53.4135 225.675 53.2535 224.96 53.2535 224.128C53.2535 223.317 53.4135 222.613 53.7335 222.016C54.0535 221.408 54.4908 220.933 55.0455 220.592C55.6108 220.251 56.2615 220.08 56.9975 220.08C57.5202 220.08 57.9895 220.171 58.4055 220.352C58.8215 220.523 59.1735 220.773 59.4615 221.104C59.7602 221.435 59.9842 221.835 60.1335 222.304C60.2935 222.773 60.3735 223.301 60.3735 223.888C60.3735 224.059 60.3255 224.187 60.2295 224.272C60.1335 224.347 59.9948 224.384 59.8135 224.384H54.2455V223.536H59.5095L59.2535 223.744C59.2535 223.168 59.1682 222.683 58.9975 222.288C58.8268 221.883 58.5762 221.573 58.2455 221.36C57.9255 221.147 57.5202 221.04 57.0295 221.04C56.4855 221.04 56.0215 221.168 55.6375 221.424C55.2642 221.669 54.9815 222.016 54.7895 222.464C54.5975 222.901 54.5015 223.413 54.5015 224V224.096C54.5015 225.077 54.7362 225.824 55.2055 226.336C55.6855 226.848 56.3628 227.104 57.2375 227.104C57.6002 227.104 57.9575 227.056 58.3095 226.96C58.6722 226.864 59.0242 226.704 59.3655 226.48C59.5148 226.384 59.6482 226.341 59.7655 226.352C59.8935 226.352 59.9948 226.389 60.0695 226.464C60.1442 226.528 60.1922 226.613 60.2135 226.72C60.2455 226.816 60.2348 226.923 60.1815 227.04C60.1388 227.157 60.0482 227.259 59.9095 227.344C59.5575 227.6 59.1415 227.797 58.6615 227.936C58.1815 228.075 57.7068 228.144 57.2375 228.144ZM62.9654 228.112C62.784 228.112 62.64 228.059 62.5334 227.952C62.4374 227.835 62.3894 227.68 62.3894 227.488V220.8C62.3894 220.651 62.4107 220.528 62.4534 220.432C62.496 220.325 62.56 220.245 62.6454 220.192C62.7307 220.139 62.8374 220.112 62.9654 220.112C63.0934 220.112 63.2 220.133 63.2854 220.176C63.3707 220.208 63.4454 220.261 63.5094 220.336C63.5734 220.4 63.6267 220.48 63.6694 220.576L66.3894 225.424L69.1094 220.576C69.152 220.48 69.2054 220.4 69.2694 220.336C69.3334 220.261 69.408 220.208 69.4934 220.176C69.5787 220.133 69.68 220.112 69.7974 220.112C69.9894 220.112 70.1334 220.171 70.2294 220.288C70.3254 220.395 70.3734 220.565 70.3734 220.8V227.488C70.3734 227.68 70.3254 227.835 70.2294 227.952C70.1334 228.059 69.9894 228.112 69.7974 228.112C69.616 228.112 69.472 228.059 69.3654 227.952C69.2694 227.835 69.2214 227.68 69.2214 227.488V221.712H69.5894L66.8534 226.512C66.8107 226.597 66.752 226.672 66.6774 226.736C66.6027 226.789 66.5067 226.816 66.3894 226.816C66.2614 226.816 66.16 226.784 66.0854 226.72C66.0214 226.656 65.9627 226.587 65.9094 226.512L63.1734 221.712H63.5414V227.488C63.5414 227.68 63.488 227.835 63.3814 227.952C63.2854 228.059 63.1467 228.112 62.9654 228.112ZM77.7173 228.112C77.5039 228.112 77.3386 228.053 77.2213 227.936C77.1146 227.819 77.0613 227.653 77.0613 227.44V220.768C77.0613 220.544 77.1146 220.379 77.2213 220.272C77.3386 220.165 77.5039 220.112 77.7173 220.112C77.9199 220.112 78.0746 220.165 78.1813 220.272C78.2986 220.379 78.3573 220.544 78.3573 220.768V223.456H82.5973V220.768C82.5973 220.544 82.6506 220.379 82.7573 220.272C82.8746 220.165 83.0346 220.112 83.2373 220.112C83.4399 220.112 83.5999 220.165 83.7173 220.272C83.8346 220.379 83.8933 220.544 83.8933 220.768V227.44C83.8933 227.653 83.8346 227.819 83.7173 227.936C83.5999 228.053 83.4399 228.112 83.2373 228.112C83.0346 228.112 82.8746 228.053 82.7573 227.936C82.6506 227.819 82.5973 227.653 82.5973 227.44V224.512H78.3573V227.44C78.3573 227.653 78.3039 227.819 78.1973 227.936C78.0906 228.053 77.9306 228.112 77.7173 228.112ZM89.9719 228.144C89.1505 228.144 88.4412 227.984 87.8439 227.664C87.2572 227.333 86.7985 226.869 86.4679 226.272C86.1479 225.675 85.9879 224.96 85.9879 224.128C85.9879 223.317 86.1479 222.613 86.4679 222.016C86.7879 221.408 87.2252 220.933 87.7799 220.592C88.3452 220.251 88.9959 220.08 89.7319 220.08C90.2545 220.08 90.7239 220.171 91.1399 220.352C91.5559 220.523 91.9079 220.773 92.1959 221.104C92.4945 221.435 92.7185 221.835 92.8679 222.304C93.0279 222.773 93.1079 223.301 93.1079 223.888C93.1079 224.059 93.0599 224.187 92.9639 224.272C92.8679 224.347 92.7292 224.384 92.5479 224.384H86.9799V223.536H92.2439L91.9879 223.744C91.9879 223.168 91.9025 222.683 91.7319 222.288C91.5612 221.883 91.3105 221.573 90.9799 221.36C90.6599 221.147 90.2545 221.04 89.7639 221.04C89.2199 221.04 88.7559 221.168 88.3719 221.424C87.9985 221.669 87.7159 222.016 87.5239 222.464C87.3319 222.901 87.2359 223.413 87.2359 224V224.096C87.2359 225.077 87.4705 225.824 87.9399 226.336C88.4199 226.848 89.0972 227.104 89.9719 227.104C90.3345 227.104 90.6919 227.056 91.0439 226.96C91.4065 226.864 91.7585 226.704 92.0999 226.48C92.2492 226.384 92.3825 226.341 92.4999 226.352C92.6279 226.352 92.7292 226.389 92.8039 226.464C92.8785 226.528 92.9265 226.613 92.9479 226.72C92.9799 226.816 92.9692 226.923 92.9159 227.04C92.8732 227.157 92.7825 227.259 92.6439 227.344C92.2919 227.6 91.8759 227.797 91.3959 227.936C90.9159 228.075 90.4412 228.144 89.9719 228.144ZM102.561 228.144C101.782 228.144 101.11 227.973 100.545 227.632C99.9794 227.291 99.5421 226.816 99.2328 226.208C98.9341 225.589 98.7848 224.875 98.7848 224.064C98.7848 223.445 98.8701 222.891 99.0408 222.4C99.2114 221.909 99.4621 221.493 99.7928 221.152C100.123 220.8 100.518 220.533 100.977 220.352C101.446 220.171 101.974 220.08 102.561 220.08C102.945 220.08 103.345 220.139 103.761 220.256C104.177 220.373 104.555 220.576 104.897 220.864C105.003 220.939 105.073 221.029 105.105 221.136C105.137 221.243 105.137 221.349 105.105 221.456C105.073 221.552 105.019 221.637 104.945 221.712C104.87 221.776 104.774 221.813 104.657 221.824C104.55 221.835 104.438 221.797 104.321 221.712C104.043 221.499 103.761 221.349 103.473 221.264C103.185 221.179 102.907 221.136 102.641 221.136C102.225 221.136 101.862 221.205 101.553 221.344C101.243 221.472 100.982 221.659 100.769 221.904C100.555 222.149 100.39 222.453 100.273 222.816C100.166 223.179 100.113 223.6 100.113 224.08C100.113 225.008 100.331 225.744 100.769 226.288C101.206 226.821 101.83 227.088 102.641 227.088C102.907 227.088 103.179 227.045 103.457 226.96C103.745 226.875 104.033 226.725 104.321 226.512C104.438 226.427 104.55 226.389 104.657 226.4C104.763 226.411 104.854 226.453 104.929 226.528C105.003 226.592 105.051 226.677 105.073 226.784C105.105 226.891 105.105 226.997 105.073 227.104C105.041 227.2 104.971 227.285 104.865 227.36C104.523 227.637 104.15 227.84 103.745 227.968C103.339 228.085 102.945 228.144 102.561 228.144ZM109.083 228.112C108.881 228.112 108.721 228.053 108.603 227.936C108.486 227.819 108.427 227.653 108.427 227.44V221.264H106.091C105.686 221.264 105.483 221.088 105.483 220.736C105.483 220.576 105.537 220.453 105.643 220.368C105.75 220.272 105.899 220.224 106.091 220.224H112.075C112.47 220.224 112.667 220.395 112.667 220.736C112.667 220.907 112.614 221.04 112.507 221.136C112.411 221.221 112.267 221.264 112.075 221.264H109.723V227.44C109.723 227.653 109.67 227.819 109.563 227.936C109.467 228.053 109.307 228.112 109.083 228.112ZM117.137 228.144C116.38 228.144 115.724 227.979 115.169 227.648C114.615 227.317 114.183 226.853 113.873 226.256C113.575 225.648 113.425 224.933 113.425 224.112C113.425 223.493 113.511 222.939 113.681 222.448C113.852 221.947 114.103 221.52 114.433 221.168C114.764 220.816 115.153 220.549 115.601 220.368C116.06 220.176 116.572 220.08 117.137 220.08C117.895 220.08 118.551 220.245 119.105 220.576C119.66 220.907 120.087 221.376 120.385 221.984C120.695 222.581 120.849 223.291 120.849 224.112C120.849 224.731 120.764 225.285 120.593 225.776C120.423 226.267 120.172 226.693 119.841 227.056C119.511 227.408 119.116 227.68 118.657 227.872C118.209 228.053 117.703 228.144 117.137 228.144ZM117.137 227.104C117.617 227.104 118.039 226.987 118.401 226.752C118.764 226.517 119.041 226.176 119.233 225.728C119.436 225.28 119.537 224.741 119.537 224.112C119.537 223.141 119.319 222.4 118.881 221.888C118.455 221.376 117.873 221.12 117.137 221.12C116.647 221.12 116.22 221.237 115.857 221.472C115.505 221.696 115.228 222.032 115.025 222.48C114.833 222.917 114.737 223.461 114.737 224.112C114.737 225.072 114.956 225.813 115.393 226.336C115.831 226.848 116.412 227.104 117.137 227.104ZM128.764 228.112C128.561 228.112 128.401 228.053 128.284 227.936C128.177 227.819 128.124 227.653 128.124 227.44V221.264H124.988V222.256C124.988 223.088 124.945 223.824 124.86 224.464C124.785 225.093 124.662 225.637 124.492 226.096C124.321 226.555 124.092 226.939 123.804 227.248C123.526 227.557 123.18 227.819 122.764 228.032C122.625 228.096 122.492 228.112 122.364 228.08C122.236 228.059 122.129 228.011 122.044 227.936C121.969 227.851 121.916 227.749 121.884 227.632C121.862 227.515 121.878 227.397 121.932 227.28C121.985 227.163 122.081 227.067 122.22 226.992C122.529 226.821 122.78 226.608 122.972 226.352C123.174 226.096 123.334 225.776 123.452 225.392C123.569 225.008 123.649 224.56 123.692 224.048C123.745 223.525 123.772 222.912 123.772 222.208V220.96C123.772 220.715 123.836 220.533 123.964 220.416C124.092 220.288 124.273 220.224 124.508 220.224H128.684C128.918 220.224 129.1 220.288 129.228 220.416C129.356 220.533 129.42 220.715 129.42 220.96V227.44C129.42 227.653 129.361 227.819 129.244 227.936C129.137 228.053 128.977 228.112 128.764 228.112ZM132.655 228C132.442 228 132.276 227.941 132.159 227.824C132.042 227.707 131.983 227.541 131.983 227.328V220.768C131.983 220.544 132.036 220.379 132.143 220.272C132.26 220.165 132.426 220.112 132.639 220.112C132.842 220.112 132.996 220.165 133.103 220.272C133.22 220.379 133.279 220.544 133.279 220.768V222.992H135.631C136.623 222.992 137.375 223.211 137.887 223.648C138.399 224.075 138.655 224.683 138.655 225.472C138.655 225.995 138.532 226.448 138.287 226.832C138.052 227.205 137.711 227.493 137.263 227.696C136.826 227.899 136.282 228 135.631 228H132.655ZM133.279 227.072H135.503C136.111 227.072 136.58 226.944 136.911 226.688C137.242 226.421 137.407 226.021 137.407 225.488C137.407 224.944 137.242 224.549 136.911 224.304C136.58 224.048 136.111 223.92 135.503 223.92H133.279V227.072ZM141.233 228.112C141.02 228.112 140.854 228.053 140.737 227.936C140.63 227.819 140.577 227.653 140.577 227.44V220.816C140.577 220.592 140.63 220.427 140.737 220.32C140.854 220.203 141.02 220.144 141.233 220.144C141.436 220.144 141.59 220.203 141.697 220.32C141.814 220.427 141.873 220.592 141.873 220.816V223.472H143.329L145.697 220.432C145.804 220.304 145.921 220.224 146.049 220.192C146.177 220.149 146.294 220.149 146.401 220.192C146.518 220.224 146.609 220.288 146.673 220.384C146.748 220.469 146.785 220.576 146.785 220.704C146.785 220.832 146.737 220.965 146.641 221.104L144.385 224L144.017 223.584C144.316 223.616 144.577 223.691 144.801 223.808C145.025 223.925 145.238 224.101 145.441 224.336C145.644 224.571 145.862 224.896 146.097 225.312L147.249 227.216C147.324 227.365 147.35 227.499 147.329 227.616C147.318 227.733 147.265 227.84 147.169 227.936C147.073 228.021 146.961 228.075 146.833 228.096C146.716 228.117 146.598 228.101 146.481 228.048C146.364 227.995 146.257 227.899 146.161 227.76L144.897 225.648C144.716 225.349 144.545 225.12 144.385 224.96C144.225 224.789 144.044 224.672 143.841 224.608C143.638 224.544 143.388 224.512 143.089 224.512H141.873V227.44C141.873 227.653 141.814 227.819 141.697 227.936C141.59 228.053 141.436 228.112 141.233 228.112ZM152.247 228.144C151.489 228.144 150.833 227.979 150.279 227.648C149.724 227.317 149.292 226.853 148.983 226.256C148.684 225.648 148.535 224.933 148.535 224.112C148.535 223.493 148.62 222.939 148.791 222.448C148.961 221.947 149.212 221.52 149.543 221.168C149.873 220.816 150.263 220.549 150.711 220.368C151.169 220.176 151.681 220.08 152.247 220.08C153.004 220.08 153.66 220.245 154.215 220.576C154.769 220.907 155.196 221.376 155.495 221.984C155.804 222.581 155.959 223.291 155.959 224.112C155.959 224.731 155.873 225.285 155.703 225.776C155.532 226.267 155.281 226.693 154.951 227.056C154.62 227.408 154.225 227.68 153.767 227.872C153.319 228.053 152.812 228.144 152.247 228.144ZM152.247 227.104C152.727 227.104 153.148 226.987 153.511 226.752C153.873 226.517 154.151 226.176 154.343 225.728C154.545 225.28 154.647 224.741 154.647 224.112C154.647 223.141 154.428 222.4 153.991 221.888C153.564 221.376 152.983 221.12 152.247 221.12C151.756 221.12 151.329 221.237 150.967 221.472C150.615 221.696 150.337 222.032 150.135 222.48C149.943 222.917 149.847 223.461 149.847 224.112C149.847 225.072 150.065 225.813 150.503 226.336C150.94 226.848 151.521 227.104 152.247 227.104ZM165.498 228.144C164.72 228.144 164.048 227.973 163.482 227.632C162.917 227.291 162.48 226.816 162.17 226.208C161.872 225.589 161.722 224.875 161.722 224.064C161.722 223.445 161.808 222.891 161.978 222.4C162.149 221.909 162.4 221.493 162.73 221.152C163.061 220.8 163.456 220.533 163.914 220.352C164.384 220.171 164.912 220.08 165.498 220.08C165.882 220.08 166.282 220.139 166.698 220.256C167.114 220.373 167.493 220.576 167.834 220.864C167.941 220.939 168.01 221.029 168.042 221.136C168.074 221.243 168.074 221.349 168.042 221.456C168.01 221.552 167.957 221.637 167.882 221.712C167.808 221.776 167.712 221.813 167.594 221.824C167.488 221.835 167.376 221.797 167.258 221.712C166.981 221.499 166.698 221.349 166.41 221.264C166.122 221.179 165.845 221.136 165.578 221.136C165.162 221.136 164.8 221.205 164.49 221.344C164.181 221.472 163.92 221.659 163.706 221.904C163.493 222.149 163.328 222.453 163.21 222.816C163.104 223.179 163.05 223.6 163.05 224.08C163.05 225.008 163.269 225.744 163.706 226.288C164.144 226.821 164.768 227.088 165.578 227.088C165.845 227.088 166.117 227.045 166.394 226.96C166.682 226.875 166.97 226.725 167.258 226.512C167.376 226.427 167.488 226.389 167.594 226.4C167.701 226.411 167.792 226.453 167.866 226.528C167.941 226.592 167.989 226.677 168.01 226.784C168.042 226.891 168.042 226.997 168.01 227.104C167.978 227.2 167.909 227.285 167.802 227.36C167.461 227.637 167.088 227.84 166.682 227.968C166.277 228.085 165.882 228.144 165.498 228.144ZM174.53 228.112C174.316 228.112 174.151 228.053 174.034 227.936C173.927 227.819 173.874 227.653 173.874 227.44V220.96C173.874 220.715 173.938 220.533 174.066 220.416C174.194 220.288 174.375 220.224 174.61 220.224H179.922C180.156 220.224 180.338 220.288 180.466 220.416C180.594 220.533 180.658 220.715 180.658 220.96V227.44C180.658 227.653 180.599 227.819 180.482 227.936C180.364 228.053 180.204 228.112 180.002 228.112C179.799 228.112 179.639 228.053 179.522 227.936C179.415 227.819 179.362 227.653 179.362 227.44V221.264H175.17V227.44C175.17 227.653 175.116 227.819 175.01 227.936C174.903 228.053 174.743 228.112 174.53 228.112ZM183.874 230.992C183.66 230.992 183.5 230.933 183.394 230.816C183.287 230.709 183.234 230.549 183.234 230.336V220.768C183.234 220.555 183.287 220.395 183.394 220.288C183.5 220.171 183.655 220.112 183.858 220.112C184.071 220.112 184.231 220.171 184.338 220.288C184.455 220.395 184.514 220.555 184.514 220.768V222.288L184.338 222.064C184.508 221.456 184.844 220.976 185.346 220.624C185.858 220.261 186.466 220.08 187.17 220.08C187.863 220.08 188.466 220.245 188.978 220.576C189.5 220.896 189.9 221.36 190.178 221.968C190.466 222.565 190.61 223.28 190.61 224.112C190.61 224.933 190.466 225.648 190.178 226.256C189.9 226.853 189.506 227.317 188.994 227.648C188.482 227.979 187.874 228.144 187.17 228.144C186.466 228.144 185.863 227.968 185.362 227.616C184.86 227.253 184.519 226.773 184.338 226.176H184.53V230.336C184.53 230.549 184.471 230.709 184.354 230.816C184.236 230.933 184.076 230.992 183.874 230.992ZM186.898 227.104C187.388 227.104 187.81 226.987 188.162 226.752C188.524 226.517 188.802 226.176 188.994 225.728C189.196 225.28 189.298 224.741 189.298 224.112C189.298 223.141 189.079 222.4 188.642 221.888C188.215 221.376 187.634 221.12 186.898 221.12C186.418 221.12 185.996 221.237 185.634 221.472C185.271 221.696 184.988 222.032 184.786 222.48C184.594 222.917 184.498 223.461 184.498 224.112C184.498 225.072 184.716 225.813 185.154 226.336C185.591 226.848 186.172 227.104 186.898 227.104ZM195.95 228.144C195.193 228.144 194.537 227.979 193.982 227.648C193.427 227.317 192.995 226.853 192.686 226.256C192.387 225.648 192.238 224.933 192.238 224.112C192.238 223.493 192.323 222.939 192.494 222.448C192.665 221.947 192.915 221.52 193.246 221.168C193.577 220.816 193.966 220.549 194.414 220.368C194.873 220.176 195.385 220.08 195.95 220.08C196.707 220.08 197.363 220.245 197.918 220.576C198.473 220.907 198.899 221.376 199.198 221.984C199.507 222.581 199.662 223.291 199.662 224.112C199.662 224.731 199.577 225.285 199.406 225.776C199.235 226.267 198.985 226.693 198.654 227.056C198.323 227.408 197.929 227.68 197.47 227.872C197.022 228.053 196.515 228.144 195.95 228.144ZM195.95 227.104C196.43 227.104 196.851 226.987 197.214 226.752C197.577 226.517 197.854 226.176 198.046 225.728C198.249 225.28 198.35 224.741 198.35 224.112C198.35 223.141 198.131 222.4 197.694 221.888C197.267 221.376 196.686 221.12 195.95 221.12C195.459 221.12 195.033 221.237 194.67 221.472C194.318 221.696 194.041 222.032 193.838 222.48C193.646 222.917 193.55 223.461 193.55 224.112C193.55 225.072 193.769 225.813 194.206 226.336C194.643 226.848 195.225 227.104 195.95 227.104ZM205.044 228.144C204.276 228.144 203.61 227.979 203.044 227.648C202.49 227.307 202.058 226.805 201.748 226.144C201.45 225.483 201.3 224.672 201.3 223.712V222.512C201.3 221.477 201.434 220.613 201.7 219.92C201.978 219.227 202.394 218.667 202.948 218.24C203.514 217.813 204.212 217.488 205.044 217.264L207.38 216.608C207.572 216.555 207.732 216.56 207.86 216.624C207.999 216.688 208.084 216.805 208.116 216.976C208.159 217.157 208.132 217.312 208.036 217.44C207.951 217.568 207.812 217.659 207.62 217.712L205.14 218.384C204.564 218.544 204.084 218.784 203.7 219.104C203.316 219.424 203.028 219.819 202.836 220.288C202.644 220.747 202.548 221.269 202.548 221.856V222.48H202.324C202.452 222.011 202.655 221.605 202.932 221.264C203.21 220.923 203.551 220.661 203.956 220.48C204.372 220.288 204.831 220.192 205.332 220.192C206.004 220.192 206.596 220.352 207.108 220.672C207.62 220.992 208.015 221.445 208.292 222.032C208.58 222.619 208.724 223.317 208.724 224.128C208.724 224.939 208.57 225.648 208.26 226.256C207.962 226.853 207.535 227.317 206.98 227.648C206.436 227.979 205.791 228.144 205.044 228.144ZM204.996 227.104C205.508 227.104 205.94 226.992 206.292 226.768C206.655 226.533 206.932 226.197 207.124 225.76C207.316 225.323 207.412 224.789 207.412 224.16C207.412 223.232 207.199 222.512 206.772 222C206.346 221.488 205.759 221.232 205.012 221.232C204.511 221.232 204.079 221.344 203.716 221.568C203.364 221.792 203.092 222.117 202.9 222.544C202.708 222.96 202.612 223.461 202.612 224.048C202.612 225.051 202.82 225.813 203.236 226.336C203.663 226.848 204.25 227.104 204.996 227.104ZM216.639 228.112C216.436 228.112 216.276 228.053 216.159 227.936C216.052 227.819 215.999 227.653 215.999 227.44V221.264H212.863V222.256C212.863 223.088 212.82 223.824 212.735 224.464C212.66 225.093 212.537 225.637 212.367 226.096C212.196 226.555 211.967 226.939 211.679 227.248C211.401 227.557 211.055 227.819 210.639 228.032C210.5 228.096 210.367 228.112 210.239 228.08C210.111 228.059 210.004 228.011 209.919 227.936C209.844 227.851 209.791 227.749 209.759 227.632C209.737 227.515 209.753 227.397 209.807 227.28C209.86 227.163 209.956 227.067 210.095 226.992C210.404 226.821 210.655 226.608 210.847 226.352C211.049 226.096 211.209 225.776 211.327 225.392C211.444 225.008 211.524 224.56 211.567 224.048C211.62 223.525 211.647 222.912 211.647 222.208V220.96C211.647 220.715 211.711 220.533 211.839 220.416C211.967 220.288 212.148 220.224 212.383 220.224H216.559C216.793 220.224 216.975 220.288 217.103 220.416C217.231 220.533 217.295 220.715 217.295 220.96V227.44C217.295 227.653 217.236 227.819 217.119 227.936C217.012 228.053 216.852 228.112 216.639 228.112ZM223.378 228.144C222.557 228.144 221.847 227.984 221.25 227.664C220.663 227.333 220.205 226.869 219.874 226.272C219.554 225.675 219.394 224.96 219.394 224.128C219.394 223.317 219.554 222.613 219.874 222.016C220.194 221.408 220.631 220.933 221.186 220.592C221.751 220.251 222.402 220.08 223.138 220.08C223.661 220.08 224.13 220.171 224.546 220.352C224.962 220.523 225.314 220.773 225.602 221.104C225.901 221.435 226.125 221.835 226.274 222.304C226.434 222.773 226.514 223.301 226.514 223.888C226.514 224.059 226.466 224.187 226.37 224.272C226.274 224.347 226.135 224.384 225.954 224.384H220.386V223.536H225.65L225.394 223.744C225.394 223.168 225.309 222.683 225.138 222.288C224.967 221.883 224.717 221.573 224.386 221.36C224.066 221.147 223.661 221.04 223.17 221.04C222.626 221.04 222.162 221.168 221.778 221.424C221.405 221.669 221.122 222.016 220.93 222.464C220.738 222.901 220.642 223.413 220.642 224V224.096C220.642 225.077 220.877 225.824 221.346 226.336C221.826 226.848 222.503 227.104 223.378 227.104C223.741 227.104 224.098 227.056 224.45 226.96C224.813 226.864 225.165 226.704 225.506 226.48C225.655 226.384 225.789 226.341 225.906 226.352C226.034 226.352 226.135 226.389 226.21 226.464C226.285 226.528 226.333 226.613 226.354 226.72C226.386 226.816 226.375 226.923 226.322 227.04C226.279 227.157 226.189 227.259 226.05 227.344C225.698 227.6 225.282 227.797 224.802 227.936C224.322 228.075 223.847 228.144 223.378 228.144ZM229.106 228.112C228.925 228.112 228.781 228.059 228.674 227.952C228.578 227.835 228.53 227.68 228.53 227.488V220.8C228.53 220.651 228.551 220.528 228.594 220.432C228.637 220.325 228.701 220.245 228.786 220.192C228.871 220.139 228.978 220.112 229.106 220.112C229.234 220.112 229.341 220.133 229.426 220.176C229.511 220.208 229.586 220.261 229.65 220.336C229.714 220.4 229.767 220.48 229.81 220.576L232.53 225.424L235.25 220.576C235.293 220.48 235.346 220.4 235.41 220.336C235.474 220.261 235.549 220.208 235.634 220.176C235.719 220.133 235.821 220.112 235.938 220.112C236.13 220.112 236.274 220.171 236.37 220.288C236.466 220.395 236.514 220.565 236.514 220.8V227.488C236.514 227.68 236.466 227.835 236.37 227.952C236.274 228.059 236.13 228.112 235.938 228.112C235.757 228.112 235.613 228.059 235.506 227.952C235.41 227.835 235.362 227.68 235.362 227.488V221.712H235.73L232.994 226.512C232.951 226.597 232.893 226.672 232.818 226.736C232.743 226.789 232.647 226.816 232.53 226.816C232.402 226.816 232.301 226.784 232.226 226.72C232.162 226.656 232.103 226.587 232.05 226.512L229.314 221.712H229.682V227.488C229.682 227.68 229.629 227.835 229.522 227.952C229.426 228.059 229.287 228.112 229.106 228.112ZM242.325 228.144C241.568 228.144 240.912 227.979 240.357 227.648C239.802 227.317 239.37 226.853 239.061 226.256C238.762 225.648 238.613 224.933 238.613 224.112C238.613 223.493 238.698 222.939 238.869 222.448C239.04 221.947 239.29 221.52 239.621 221.168C239.952 220.816 240.341 220.549 240.789 220.368C241.248 220.176 241.76 220.08 242.325 220.08C243.082 220.08 243.738 220.245 244.293 220.576C244.848 220.907 245.274 221.376 245.573 221.984C245.882 222.581 246.037 223.291 246.037 224.112C246.037 224.731 245.952 225.285 245.781 225.776C245.61 226.267 245.36 226.693 245.029 227.056C244.698 227.408 244.304 227.68 243.845 227.872C243.397 228.053 242.89 228.144 242.325 228.144ZM242.325 227.104C242.805 227.104 243.226 226.987 243.589 226.752C243.952 226.517 244.229 226.176 244.421 225.728C244.624 225.28 244.725 224.741 244.725 224.112C244.725 223.141 244.506 222.4 244.069 221.888C243.642 221.376 243.061 221.12 242.325 221.12C241.834 221.12 241.408 221.237 241.045 221.472C240.693 221.696 240.416 222.032 240.213 222.48C240.021 222.917 239.925 223.461 239.925 224.112C239.925 225.072 240.144 225.813 240.581 226.336C241.018 226.848 241.6 227.104 242.325 227.104ZM248.731 228.112C248.614 228.112 248.507 228.085 248.411 228.032C248.326 227.989 248.257 227.915 248.203 227.808C248.161 227.701 248.139 227.568 248.139 227.408V220.752C248.139 220.539 248.193 220.379 248.299 220.272C248.406 220.165 248.55 220.112 248.731 220.112C248.923 220.112 249.067 220.165 249.163 220.272C249.27 220.379 249.323 220.539 249.323 220.752V226.768H248.923L253.579 220.528C253.665 220.411 253.766 220.315 253.883 220.24C254.001 220.155 254.15 220.112 254.331 220.112C254.459 220.112 254.566 220.133 254.651 220.176C254.737 220.219 254.801 220.293 254.843 220.4C254.897 220.496 254.923 220.629 254.923 220.8V227.472C254.923 227.675 254.87 227.835 254.763 227.952C254.667 228.059 254.523 228.112 254.331 228.112C254.139 228.112 253.99 228.059 253.883 227.952C253.787 227.835 253.739 227.675 253.739 227.472V221.44H254.139L249.467 227.696C249.393 227.803 249.297 227.899 249.179 227.984C249.073 228.069 248.923 228.112 248.731 228.112ZM251.531 219.216C250.966 219.216 250.443 219.072 249.963 218.784C249.494 218.496 249.142 218.059 248.907 217.472C248.854 217.312 248.849 217.184 248.891 217.088C248.934 216.981 249.014 216.907 249.131 216.864C249.249 216.821 249.355 216.827 249.451 216.88C249.547 216.923 249.627 217.019 249.691 217.168C249.883 217.573 250.129 217.883 250.427 218.096C250.737 218.299 251.105 218.4 251.531 218.4C251.969 218.4 252.337 218.299 252.635 218.096C252.934 217.883 253.179 217.573 253.371 217.168C253.446 217.019 253.531 216.923 253.627 216.88C253.723 216.827 253.825 216.821 253.931 216.864C254.059 216.907 254.139 216.981 254.171 217.088C254.214 217.184 254.203 217.312 254.139 217.472C253.894 218.059 253.537 218.496 253.067 218.784C252.609 219.072 252.097 219.216 251.531 219.216ZM258.187 229.52C258.08 229.659 257.968 229.739 257.851 229.76C257.734 229.781 257.632 229.76 257.547 229.696C257.462 229.632 257.414 229.541 257.403 229.424C257.403 229.307 257.456 229.179 257.563 229.04C257.734 228.816 257.851 228.587 257.915 228.352C257.979 228.128 258.011 227.92 258.011 227.728L258.075 228.064C257.798 228.064 257.574 227.984 257.403 227.824C257.243 227.653 257.163 227.44 257.163 227.184C257.163 226.928 257.238 226.72 257.387 226.56C257.547 226.389 257.755 226.304 258.011 226.304C258.288 226.304 258.507 226.4 258.667 226.592C258.827 226.773 258.907 227.04 258.907 227.392C258.907 227.616 258.886 227.845 258.843 228.08C258.8 228.325 258.726 228.571 258.619 228.816C258.512 229.061 258.368 229.296 258.187 229.52ZM4.592 250.144C3.81333 250.144 3.14133 249.973 2.576 249.632C2.01067 249.291 1.57333 248.816 1.264 248.208C0.965333 247.589 0.816 246.875 0.816 246.064C0.816 245.445 0.901333 244.891 1.072 244.4C1.24267 243.909 1.49333 243.493 1.824 243.152C2.15467 242.8 2.54933 242.533 3.008 242.352C3.47733 242.171 4.00533 242.08 4.592 242.08C4.976 242.08 5.376 242.139 5.792 242.256C6.208 242.373 6.58667 242.576 6.928 242.864C7.03467 242.939 7.104 243.029 7.136 243.136C7.168 243.243 7.168 243.349 7.136 243.456C7.104 243.552 7.05067 243.637 6.976 243.712C6.90133 243.776 6.80533 243.813 6.688 243.824C6.58133 243.835 6.46933 243.797 6.352 243.712C6.07467 243.499 5.792 243.349 5.504 243.264C5.216 243.179 4.93867 243.136 4.672 243.136C4.256 243.136 3.89333 243.205 3.584 243.344C3.27467 243.472 3.01333 243.659 2.8 243.904C2.58667 244.149 2.42133 244.453 2.304 244.816C2.19733 245.179 2.144 245.6 2.144 246.08C2.144 247.008 2.36267 247.744 2.8 248.288C3.23733 248.821 3.86133 249.088 4.672 249.088C4.93867 249.088 5.21067 249.045 5.488 248.96C5.776 248.875 6.064 248.725 6.352 248.512C6.46933 248.427 6.58133 248.389 6.688 248.4C6.79467 248.411 6.88533 248.453 6.96 248.528C7.03467 248.592 7.08267 248.677 7.104 248.784C7.136 248.891 7.136 248.997 7.104 249.104C7.072 249.2 7.00267 249.285 6.896 249.36C6.55467 249.637 6.18133 249.84 5.776 249.968C5.37067 250.085 4.976 250.144 4.592 250.144ZM9.4985 250.112C9.28517 250.112 9.11983 250.053 9.0025 249.936C8.89583 249.819 8.8425 249.653 8.8425 249.44V242.816C8.8425 242.592 8.89583 242.427 9.0025 242.32C9.11983 242.203 9.28517 242.144 9.4985 242.144C9.70117 242.144 9.85583 242.203 9.9625 242.32C10.0798 242.427 10.1385 242.592 10.1385 242.816V245.472H11.5945L13.9625 242.432C14.0692 242.304 14.1865 242.224 14.3145 242.192C14.4425 242.149 14.5598 242.149 14.6665 242.192C14.7838 242.224 14.8745 242.288 14.9385 242.384C15.0132 242.469 15.0505 242.576 15.0505 242.704C15.0505 242.832 15.0025 242.965 14.9065 243.104L12.6505 246L12.2825 245.584C12.5812 245.616 12.8425 245.691 13.0665 245.808C13.2905 245.925 13.5038 246.101 13.7065 246.336C13.9092 246.571 14.1278 246.896 14.3625 247.312L15.5145 249.216C15.5892 249.365 15.6158 249.499 15.5945 249.616C15.5838 249.733 15.5305 249.84 15.4345 249.936C15.3385 250.021 15.2265 250.075 15.0985 250.096C14.9812 250.117 14.8638 250.101 14.7465 250.048C14.6292 249.995 14.5225 249.899 14.4265 249.76L13.1625 247.648C12.9812 247.349 12.8105 247.12 12.6505 246.96C12.4905 246.789 12.3092 246.672 12.1065 246.608C11.9038 246.544 11.6532 246.512 11.3545 246.512H10.1385V249.44C10.1385 249.653 10.0798 249.819 9.9625 249.936C9.85583 250.053 9.70117 250.112 9.4985 250.112ZM20.5124 250.144C19.755 250.144 19.099 249.979 18.5444 249.648C17.9897 249.317 17.5577 248.853 17.2484 248.256C16.9497 247.648 16.8004 246.933 16.8004 246.112C16.8004 245.493 16.8857 244.939 17.0564 244.448C17.227 243.947 17.4777 243.52 17.8084 243.168C18.139 242.816 18.5284 242.549 18.9764 242.368C19.435 242.176 19.947 242.08 20.5124 242.08C21.2697 242.08 21.9257 242.245 22.4804 242.576C23.035 242.907 23.4617 243.376 23.7604 243.984C24.0697 244.581 24.2244 245.291 24.2244 246.112C24.2244 246.731 24.139 247.285 23.9684 247.776C23.7977 248.267 23.547 248.693 23.2164 249.056C22.8857 249.408 22.491 249.68 22.0324 249.872C21.5844 250.053 21.0777 250.144 20.5124 250.144ZM20.5124 249.104C20.9924 249.104 21.4137 248.987 21.7764 248.752C22.139 248.517 22.4164 248.176 22.6084 247.728C22.811 247.28 22.9124 246.741 22.9124 246.112C22.9124 245.141 22.6937 244.4 22.2564 243.888C21.8297 243.376 21.2484 243.12 20.5124 243.12C20.0217 243.12 19.595 243.237 19.2324 243.472C18.8804 243.696 18.603 244.032 18.4004 244.48C18.2084 244.917 18.1124 245.461 18.1124 246.112C18.1124 247.072 18.331 247.813 18.7684 248.336C19.2057 248.848 19.787 249.104 20.5124 249.104ZM32.1386 250.112C31.936 250.112 31.776 250.053 31.6586 249.936C31.552 249.819 31.4986 249.653 31.4986 249.44V243.264H28.3626V244.256C28.3626 245.088 28.32 245.824 28.2346 246.464C28.16 247.093 28.0373 247.637 27.8666 248.096C27.696 248.555 27.4666 248.939 27.1786 249.248C26.9013 249.557 26.5546 249.819 26.1386 250.032C26 250.096 25.8666 250.112 25.7386 250.08C25.6106 250.059 25.504 250.011 25.4186 249.936C25.344 249.851 25.2906 249.749 25.2586 249.632C25.2373 249.515 25.2533 249.397 25.3066 249.28C25.36 249.163 25.456 249.067 25.5946 248.992C25.904 248.821 26.1546 248.608 26.3466 248.352C26.5493 248.096 26.7093 247.776 26.8266 247.392C26.944 247.008 27.024 246.56 27.0666 246.048C27.12 245.525 27.1466 244.912 27.1466 244.208V242.96C27.1466 242.715 27.2106 242.533 27.3386 242.416C27.4666 242.288 27.648 242.224 27.8826 242.224H32.0586C32.2933 242.224 32.4746 242.288 32.6026 242.416C32.7306 242.533 32.7946 242.715 32.7946 242.96V249.44C32.7946 249.653 32.736 249.819 32.6186 249.936C32.512 250.053 32.352 250.112 32.1386 250.112ZM36.0301 250C35.8168 250 35.6515 249.941 35.5341 249.824C35.4168 249.707 35.3581 249.541 35.3581 249.328V242.768C35.3581 242.544 35.4115 242.379 35.5181 242.272C35.6355 242.165 35.8008 242.112 36.0141 242.112C36.2168 242.112 36.3715 242.165 36.4781 242.272C36.5955 242.379 36.6541 242.544 36.6541 242.768V244.992H39.0061C39.9981 244.992 40.7501 245.211 41.2621 245.648C41.7741 246.075 42.0301 246.683 42.0301 247.472C42.0301 247.995 41.9075 248.448 41.6621 248.832C41.4275 249.205 41.0861 249.493 40.6381 249.696C40.2008 249.899 39.6568 250 39.0061 250H36.0301ZM36.6541 249.072H38.8781C39.4861 249.072 39.9555 248.944 40.2861 248.688C40.6168 248.421 40.7821 248.021 40.7821 247.488C40.7821 246.944 40.6168 246.549 40.2861 246.304C39.9555 246.048 39.4861 245.92 38.8781 245.92H36.6541V249.072ZM44.6079 250.112C44.3945 250.112 44.2292 250.053 44.1119 249.936C44.0052 249.819 43.9519 249.653 43.9519 249.44V242.816C43.9519 242.592 44.0052 242.427 44.1119 242.32C44.2292 242.203 44.3945 242.144 44.6079 242.144C44.8105 242.144 44.9652 242.203 45.0719 242.32C45.1892 242.427 45.2479 242.592 45.2479 242.816V245.472H46.7039L49.0719 242.432C49.1785 242.304 49.2959 242.224 49.4239 242.192C49.5519 242.149 49.6692 242.149 49.7759 242.192C49.8932 242.224 49.9839 242.288 50.0479 242.384C50.1225 242.469 50.1599 242.576 50.1599 242.704C50.1599 242.832 50.1119 242.965 50.0159 243.104L47.7599 246L47.3919 245.584C47.6905 245.616 47.9519 245.691 48.1759 245.808C48.3999 245.925 48.6132 246.101 48.8159 246.336C49.0185 246.571 49.2372 246.896 49.4719 247.312L50.6239 249.216C50.6985 249.365 50.7252 249.499 50.7039 249.616C50.6932 249.733 50.6399 249.84 50.5439 249.936C50.4479 250.021 50.3359 250.075 50.2079 250.096C50.0905 250.117 49.9732 250.101 49.8559 250.048C49.7385 249.995 49.6319 249.899 49.5359 249.76L48.2719 247.648C48.0905 247.349 47.9199 247.12 47.7599 246.96C47.5999 246.789 47.4185 246.672 47.2159 246.608C47.0132 246.544 46.7625 246.512 46.4639 246.512H45.2479V249.44C45.2479 249.653 45.1892 249.819 45.0719 249.936C44.9652 250.053 44.8105 250.112 44.6079 250.112ZM55.6218 250.144C54.8644 250.144 54.2084 249.979 53.6538 249.648C53.0991 249.317 52.6671 248.853 52.3578 248.256C52.0591 247.648 51.9098 246.933 51.9098 246.112C51.9098 245.493 51.9951 244.939 52.1658 244.448C52.3364 243.947 52.5871 243.52 52.9178 243.168C53.2484 242.816 53.6378 242.549 54.0858 242.368C54.5444 242.176 55.0564 242.08 55.6218 242.08C56.3791 242.08 57.0351 242.245 57.5898 242.576C58.1444 242.907 58.5711 243.376 58.8698 243.984C59.1791 244.581 59.3338 245.291 59.3338 246.112C59.3338 246.731 59.2484 247.285 59.0778 247.776C58.9071 248.267 58.6564 248.693 58.3258 249.056C57.9951 249.408 57.6004 249.68 57.1418 249.872C56.6938 250.053 56.1871 250.144 55.6218 250.144ZM55.6218 249.104C56.1018 249.104 56.5231 248.987 56.8858 248.752C57.2484 248.517 57.5258 248.176 57.7178 247.728C57.9204 247.28 58.0218 246.741 58.0218 246.112C58.0218 245.141 57.8031 244.4 57.3658 243.888C56.9391 243.376 56.3578 243.12 55.6218 243.12C55.1311 243.12 54.7044 243.237 54.3418 243.472C53.9898 243.696 53.7124 244.032 53.5098 244.48C53.3178 244.917 53.2218 245.461 53.2218 246.112C53.2218 247.072 53.4404 247.813 53.8778 248.336C54.3151 248.848 54.8964 249.104 55.6218 249.104ZM68.8733 250.144C68.0946 250.144 67.4226 249.973 66.8573 249.632C66.2919 249.291 65.8546 248.816 65.5453 248.208C65.2466 247.589 65.0973 246.875 65.0973 246.064C65.0973 245.445 65.1826 244.891 65.3533 244.4C65.5239 243.909 65.7746 243.493 66.1053 243.152C66.4359 242.8 66.8306 242.533 67.2893 242.352C67.7586 242.171 68.2866 242.08 68.8733 242.08C69.2573 242.08 69.6573 242.139 70.0733 242.256C70.4893 242.373 70.8679 242.576 71.2093 242.864C71.3159 242.939 71.3853 243.029 71.4173 243.136C71.4493 243.243 71.4493 243.349 71.4173 243.456C71.3853 243.552 71.3319 243.637 71.2573 243.712C71.1826 243.776 71.0866 243.813 70.9693 243.824C70.8626 243.835 70.7506 243.797 70.6333 243.712C70.3559 243.499 70.0733 243.349 69.7853 243.264C69.4973 243.179 69.2199 243.136 68.9533 243.136C68.5373 243.136 68.1746 243.205 67.8653 243.344C67.5559 243.472 67.2946 243.659 67.0813 243.904C66.8679 244.149 66.7026 244.453 66.5853 244.816C66.4786 245.179 66.4253 245.6 66.4253 246.08C66.4253 247.008 66.6439 247.744 67.0813 248.288C67.5186 248.821 68.1426 249.088 68.9533 249.088C69.2199 249.088 69.4919 249.045 69.7693 248.96C70.0573 248.875 70.3453 248.725 70.6333 248.512C70.7506 248.427 70.8626 248.389 70.9693 248.4C71.0759 248.411 71.1666 248.453 71.2413 248.528C71.3159 248.592 71.3639 248.677 71.3853 248.784C71.4173 248.891 71.4173 248.997 71.3853 249.104C71.3533 249.2 71.2839 249.285 71.1773 249.36C70.8359 249.637 70.4626 249.84 70.0573 249.968C69.6519 250.085 69.2573 250.144 68.8733 250.144ZM77.9048 252.992C77.6914 252.992 77.5314 252.933 77.4248 252.816C77.3181 252.709 77.2648 252.549 77.2648 252.336V242.768C77.2648 242.555 77.3181 242.395 77.4248 242.288C77.5314 242.171 77.6861 242.112 77.8888 242.112C78.1021 242.112 78.2621 242.171 78.3688 242.288C78.4861 242.395 78.5448 242.555 78.5448 242.768V244.288L78.3688 244.064C78.5394 243.456 78.8754 242.976 79.3768 242.624C79.8888 242.261 80.4968 242.08 81.2008 242.08C81.8941 242.08 82.4968 242.245 83.0088 242.576C83.5314 242.896 83.9314 243.36 84.2088 243.968C84.4968 244.565 84.6408 245.28 84.6408 246.112C84.6408 246.933 84.4968 247.648 84.2088 248.256C83.9314 248.853 83.5368 249.317 83.0248 249.648C82.5128 249.979 81.9048 250.144 81.2008 250.144C80.4968 250.144 79.8941 249.968 79.3928 249.616C78.8914 249.253 78.5501 248.773 78.3688 248.176H78.5608V252.336C78.5608 252.549 78.5021 252.709 78.3848 252.816C78.2674 252.933 78.1074 252.992 77.9048 252.992ZM80.9288 249.104C81.4194 249.104 81.8408 248.987 82.1928 248.752C82.5554 248.517 82.8328 248.176 83.0248 247.728C83.2274 247.28 83.3288 246.741 83.3288 246.112C83.3288 245.141 83.1101 244.4 82.6728 243.888C82.2461 243.376 81.6648 243.12 80.9288 243.12C80.4488 243.12 80.0274 243.237 79.6648 243.472C79.3021 243.696 79.0194 244.032 78.8168 244.48C78.6248 244.917 78.5288 245.461 78.5288 246.112C78.5288 247.072 78.7474 247.813 79.1848 248.336C79.6221 248.848 80.2034 249.104 80.9288 249.104ZM89.1971 250.144C88.6638 250.144 88.1838 250.043 87.7571 249.84C87.3411 249.627 87.0105 249.339 86.7651 248.976C86.5198 248.613 86.3971 248.208 86.3971 247.76C86.3971 247.184 86.5411 246.731 86.8291 246.4C87.1278 246.069 87.6131 245.835 88.2851 245.696C88.9678 245.557 89.8958 245.488 91.0691 245.488H91.7891V246.336H91.0851C90.2211 246.336 89.5385 246.379 89.0371 246.464C88.5465 246.539 88.1998 246.672 87.9971 246.864C87.8051 247.056 87.7091 247.328 87.7091 247.68C87.7091 248.117 87.8585 248.475 88.1571 248.752C88.4665 249.029 88.8825 249.168 89.4051 249.168C89.8318 249.168 90.2051 249.067 90.5251 248.864C90.8558 248.661 91.1118 248.384 91.2931 248.032C91.4851 247.68 91.5811 247.275 91.5811 246.816V244.992C91.5811 244.331 91.4478 243.856 91.1811 243.568C90.9145 243.269 90.4771 243.12 89.8691 243.12C89.4958 243.12 89.1225 243.168 88.7491 243.264C88.3758 243.36 87.9811 243.515 87.5651 243.728C87.4158 243.803 87.2878 243.829 87.1811 243.808C87.0745 243.776 86.9891 243.717 86.9251 243.632C86.8611 243.547 86.8238 243.451 86.8131 243.344C86.8025 243.227 86.8238 243.115 86.8771 243.008C86.9411 242.901 87.0371 242.816 87.1651 242.752C87.6345 242.517 88.0985 242.347 88.5571 242.24C89.0158 242.133 89.4531 242.08 89.8691 242.08C90.5411 242.08 91.0958 242.192 91.5331 242.416C91.9705 242.629 92.2958 242.96 92.5091 243.408C92.7225 243.845 92.8291 244.411 92.8291 245.104V249.44C92.8291 249.653 92.7758 249.819 92.6691 249.936C92.5731 250.053 92.4291 250.112 92.2371 250.112C92.0345 250.112 91.8798 250.053 91.7731 249.936C91.6665 249.819 91.6131 249.653 91.6131 249.44V248.192H91.7571C91.6718 248.597 91.5065 248.944 91.2611 249.232C91.0265 249.52 90.7331 249.744 90.3811 249.904C90.0291 250.064 89.6345 250.144 89.1971 250.144ZM98.6701 250.144C97.8915 250.144 97.2195 249.973 96.6541 249.632C96.0888 249.291 95.6515 248.816 95.3421 248.208C95.0435 247.589 94.8941 246.875 94.8941 246.064C94.8941 245.445 94.9795 244.891 95.1501 244.4C95.3208 243.909 95.5715 243.493 95.9021 243.152C96.2328 242.8 96.6275 242.533 97.0861 242.352C97.5555 242.171 98.0835 242.08 98.6701 242.08C99.0541 242.08 99.4541 242.139 99.8701 242.256C100.286 242.373 100.665 242.576 101.006 242.864C101.113 242.939 101.182 243.029 101.214 243.136C101.246 243.243 101.246 243.349 101.214 243.456C101.182 243.552 101.129 243.637 101.054 243.712C100.979 243.776 100.883 243.813 100.766 243.824C100.659 243.835 100.547 243.797 100.43 243.712C100.153 243.499 99.8701 243.349 99.5821 243.264C99.2941 243.179 99.0168 243.136 98.7501 243.136C98.3341 243.136 97.9715 243.205 97.6621 243.344C97.3528 243.472 97.0915 243.659 96.8781 243.904C96.6648 244.149 96.4995 244.453 96.3821 244.816C96.2755 245.179 96.2221 245.6 96.2221 246.08C96.2221 247.008 96.4408 247.744 96.8781 248.288C97.3155 248.821 97.9395 249.088 98.7501 249.088C99.0168 249.088 99.2888 249.045 99.5661 248.96C99.8541 248.875 100.142 248.725 100.43 248.512C100.547 248.427 100.659 248.389 100.766 248.4C100.873 248.411 100.963 248.453 101.038 248.528C101.113 248.592 101.161 248.677 101.182 248.784C101.214 248.891 101.214 248.997 101.182 249.104C101.15 249.2 101.081 249.285 100.974 249.36C100.633 249.637 100.259 249.84 99.8541 249.968C99.4488 250.085 99.0541 250.144 98.6701 250.144ZM103.577 250.112C103.363 250.112 103.198 250.053 103.081 249.936C102.974 249.819 102.921 249.653 102.921 249.44V242.816C102.921 242.592 102.974 242.427 103.081 242.32C103.198 242.203 103.363 242.144 103.577 242.144C103.779 242.144 103.934 242.203 104.041 242.32C104.158 242.427 104.217 242.592 104.217 242.816V245.472H105.673L108.041 242.432C108.147 242.304 108.265 242.224 108.393 242.192C108.521 242.149 108.638 242.149 108.745 242.192C108.862 242.224 108.953 242.288 109.017 242.384C109.091 242.469 109.129 242.576 109.129 242.704C109.129 242.832 109.081 242.965 108.985 243.104L106.729 246L106.361 245.584C106.659 245.616 106.921 245.691 107.145 245.808C107.369 245.925 107.582 246.101 107.785 246.336C107.987 246.571 108.206 246.896 108.441 247.312L109.593 249.216C109.667 249.365 109.694 249.499 109.673 249.616C109.662 249.733 109.609 249.84 109.513 249.936C109.417 250.021 109.305 250.075 109.177 250.096C109.059 250.117 108.942 250.101 108.825 250.048C108.707 249.995 108.601 249.899 108.505 249.76L107.241 247.648C107.059 247.349 106.889 247.12 106.729 246.96C106.569 246.789 106.387 246.672 106.185 246.608C105.982 246.544 105.731 246.512 105.433 246.512H104.217V249.44C104.217 249.653 104.158 249.819 104.041 249.936C103.934 250.053 103.779 250.112 103.577 250.112ZM111.999 252.992C111.785 252.992 111.625 252.933 111.519 252.816C111.412 252.709 111.359 252.549 111.359 252.336V242.768C111.359 242.555 111.412 242.395 111.519 242.288C111.625 242.171 111.78 242.112 111.983 242.112C112.196 242.112 112.356 242.171 112.463 242.288C112.58 242.395 112.639 242.555 112.639 242.768V244.288L112.463 244.064C112.633 243.456 112.969 242.976 113.471 242.624C113.983 242.261 114.591 242.08 115.295 242.08C115.988 242.08 116.591 242.245 117.103 242.576C117.625 242.896 118.025 243.36 118.303 243.968C118.591 244.565 118.735 245.28 118.735 246.112C118.735 246.933 118.591 247.648 118.303 248.256C118.025 248.853 117.631 249.317 117.119 249.648C116.607 249.979 115.999 250.144 115.295 250.144C114.591 250.144 113.988 249.968 113.487 249.616C112.985 249.253 112.644 248.773 112.463 248.176H112.655V252.336C112.655 252.549 112.596 252.709 112.479 252.816C112.361 252.933 112.201 252.992 111.999 252.992ZM115.023 249.104C115.513 249.104 115.935 248.987 116.287 248.752C116.649 248.517 116.927 248.176 117.119 247.728C117.321 247.28 117.423 246.741 117.423 246.112C117.423 245.141 117.204 244.4 116.767 243.888C116.34 243.376 115.759 243.12 115.023 243.12C114.543 243.12 114.121 243.237 113.759 243.472C113.396 243.696 113.113 244.032 112.911 244.48C112.719 244.917 112.623 245.461 112.623 246.112C112.623 247.072 112.841 247.813 113.279 248.336C113.716 248.848 114.297 249.104 115.023 249.104ZM121.499 250C121.286 250 121.12 249.941 121.003 249.824C120.886 249.707 120.827 249.541 120.827 249.328V242.768C120.827 242.544 120.88 242.379 120.987 242.272C121.104 242.165 121.27 242.112 121.483 242.112C121.686 242.112 121.84 242.165 121.947 242.272C122.064 242.379 122.123 242.544 122.123 242.768V244.992H124.475C125.467 244.992 126.219 245.211 126.731 245.648C127.243 246.075 127.499 246.683 127.499 247.472C127.499 247.995 127.376 248.448 127.131 248.832C126.896 249.205 126.555 249.493 126.107 249.696C125.67 249.899 125.126 250 124.475 250H121.499ZM122.123 249.072H124.347C124.955 249.072 125.424 248.944 125.755 248.688C126.086 248.421 126.251 248.021 126.251 247.488C126.251 246.944 126.086 246.549 125.755 246.304C125.424 246.048 124.955 245.92 124.347 245.92H122.123V249.072ZM129.291 250.112C129.088 250.112 128.928 250.053 128.811 249.936C128.704 249.819 128.651 249.653 128.651 249.44V242.768C128.651 242.544 128.704 242.379 128.811 242.272C128.928 242.165 129.088 242.112 129.291 242.112C129.504 242.112 129.664 242.165 129.771 242.272C129.888 242.379 129.947 242.544 129.947 242.768V249.44C129.947 249.888 129.728 250.112 129.291 250.112ZM134.786 250.112C134.584 250.112 134.424 250.053 134.306 249.936C134.189 249.819 134.13 249.653 134.13 249.44V243.264H131.794C131.389 243.264 131.186 243.088 131.186 242.736C131.186 242.576 131.24 242.453 131.346 242.368C131.453 242.272 131.602 242.224 131.794 242.224H137.778C138.173 242.224 138.37 242.395 138.37 242.736C138.37 242.907 138.317 243.04 138.21 243.136C138.114 243.221 137.97 243.264 137.778 243.264H135.426V249.44C135.426 249.653 135.373 249.819 135.266 249.936C135.17 250.053 135.01 250.112 134.786 250.112ZM140.216 250.112C140.098 250.112 139.992 250.085 139.896 250.032C139.81 249.989 139.741 249.915 139.688 249.808C139.645 249.701 139.624 249.568 139.624 249.408V242.752C139.624 242.539 139.677 242.379 139.784 242.272C139.89 242.165 140.034 242.112 140.216 242.112C140.408 242.112 140.552 242.165 140.648 242.272C140.754 242.379 140.808 242.539 140.808 242.752V248.768H140.408L145.064 242.528C145.149 242.411 145.25 242.315 145.368 242.24C145.485 242.155 145.634 242.112 145.816 242.112C145.944 242.112 146.05 242.133 146.136 242.176C146.221 242.219 146.285 242.293 146.328 242.4C146.381 242.496 146.408 242.629 146.408 242.8V249.472C146.408 249.675 146.354 249.835 146.248 249.952C146.152 250.059 146.008 250.112 145.816 250.112C145.624 250.112 145.474 250.059 145.368 249.952C145.272 249.835 145.224 249.675 145.224 249.472V243.44H145.624L140.952 249.696C140.877 249.803 140.781 249.899 140.664 249.984C140.557 250.069 140.408 250.112 140.216 250.112ZM152.488 250.144C151.666 250.144 150.957 249.984 150.36 249.664C149.773 249.333 149.314 248.869 148.984 248.272C148.664 247.675 148.504 246.96 148.504 246.128C148.504 245.317 148.664 244.613 148.984 244.016C149.304 243.408 149.741 242.933 150.296 242.592C150.861 242.251 151.512 242.08 152.248 242.08C152.77 242.08 153.24 242.171 153.656 242.352C154.072 242.523 154.424 242.773 154.712 243.104C155.01 243.435 155.234 243.835 155.384 244.304C155.544 244.773 155.624 245.301 155.624 245.888C155.624 246.059 155.576 246.187 155.48 246.272C155.384 246.347 155.245 246.384 155.064 246.384H149.496V245.536H154.76L154.504 245.744C154.504 245.168 154.418 244.683 154.248 244.288C154.077 243.883 153.826 243.573 153.496 243.36C153.176 243.147 152.77 243.04 152.28 243.04C151.736 243.04 151.272 243.168 150.888 243.424C150.514 243.669 150.232 244.016 150.039 244.464C149.848 244.901 149.752 245.413 149.752 246V246.096C149.752 247.077 149.986 247.824 150.456 248.336C150.936 248.848 151.613 249.104 152.488 249.104C152.85 249.104 153.208 249.056 153.56 248.96C153.922 248.864 154.274 248.704 154.616 248.48C154.765 248.384 154.898 248.341 155.016 248.352C155.144 248.352 155.245 248.389 155.32 248.464C155.394 248.528 155.442 248.613 155.464 248.72C155.496 248.816 155.485 248.923 155.432 249.04C155.389 249.157 155.298 249.259 155.16 249.344C154.808 249.6 154.392 249.797 153.912 249.936C153.432 250.075 152.957 250.144 152.488 250.144ZM158.215 250.112C158.034 250.112 157.89 250.059 157.783 249.952C157.687 249.835 157.639 249.68 157.639 249.488V242.8C157.639 242.651 157.661 242.528 157.703 242.432C157.746 242.325 157.81 242.245 157.895 242.192C157.981 242.139 158.087 242.112 158.215 242.112C158.343 242.112 158.45 242.133 158.535 242.176C158.621 242.208 158.695 242.261 158.759 242.336C158.823 242.4 158.877 242.48 158.919 242.576L161.639 247.424L164.359 242.576C164.402 242.48 164.455 242.4 164.519 242.336C164.583 242.261 164.658 242.208 164.743 242.176C164.829 242.133 164.93 242.112 165.047 242.112C165.239 242.112 165.383 242.171 165.479 242.288C165.575 242.395 165.623 242.565 165.623 242.8V249.488C165.623 249.68 165.575 249.835 165.479 249.952C165.383 250.059 165.239 250.112 165.047 250.112C164.866 250.112 164.722 250.059 164.615 249.952C164.519 249.835 164.471 249.68 164.471 249.488V243.712H164.839L162.103 248.512C162.061 248.597 162.002 248.672 161.927 248.736C161.853 248.789 161.757 248.816 161.639 248.816C161.511 248.816 161.41 248.784 161.335 248.72C161.271 248.656 161.213 248.587 161.159 248.512L158.423 243.712H158.791V249.488C158.791 249.68 158.738 249.835 158.631 249.952C158.535 250.059 158.397 250.112 158.215 250.112ZM172.967 250.112C172.754 250.112 172.589 250.053 172.471 249.936C172.365 249.819 172.311 249.653 172.311 249.44V242.96C172.311 242.715 172.375 242.533 172.503 242.416C172.631 242.288 172.813 242.224 173.047 242.224H178.359C178.594 242.224 178.775 242.288 178.903 242.416C179.031 242.533 179.095 242.715 179.095 242.96V249.44C179.095 249.653 179.037 249.819 178.919 249.936C178.802 250.053 178.642 250.112 178.439 250.112C178.237 250.112 178.077 250.053 177.959 249.936C177.853 249.819 177.799 249.653 177.799 249.44V243.264H173.607V249.44C173.607 249.653 173.554 249.819 173.447 249.936C173.341 250.053 173.181 250.112 172.967 250.112ZM184.903 250.144C184.146 250.144 183.49 249.979 182.935 249.648C182.38 249.317 181.948 248.853 181.639 248.256C181.34 247.648 181.191 246.933 181.191 246.112C181.191 245.493 181.276 244.939 181.447 244.448C181.618 243.947 181.868 243.52 182.199 243.168C182.53 242.816 182.919 242.549 183.367 242.368C183.826 242.176 184.338 242.08 184.903 242.08C185.66 242.08 186.316 242.245 186.871 242.576C187.426 242.907 187.852 243.376 188.151 243.984C188.46 244.581 188.615 245.291 188.615 246.112C188.615 246.731 188.53 247.285 188.359 247.776C188.188 248.267 187.938 248.693 187.607 249.056C187.276 249.408 186.882 249.68 186.423 249.872C185.975 250.053 185.468 250.144 184.903 250.144ZM184.903 249.104C185.383 249.104 185.804 248.987 186.167 248.752C186.53 248.517 186.807 248.176 186.999 247.728C187.202 247.28 187.303 246.741 187.303 246.112C187.303 245.141 187.084 244.4 186.647 243.888C186.22 243.376 185.639 243.12 184.903 243.12C184.412 243.12 183.986 243.237 183.623 243.472C183.271 243.696 182.994 244.032 182.791 244.48C182.599 244.917 182.503 245.461 182.503 246.112C182.503 247.072 182.722 247.813 183.159 248.336C183.596 248.848 184.178 249.104 184.903 249.104ZM192.99 250.112C192.787 250.112 192.627 250.053 192.51 249.936C192.392 249.819 192.334 249.653 192.334 249.44V243.264H189.998C189.592 243.264 189.389 243.088 189.389 242.736C189.389 242.576 189.443 242.453 189.55 242.368C189.656 242.272 189.806 242.224 189.998 242.224H195.982C196.376 242.224 196.574 242.395 196.574 242.736C196.574 242.907 196.52 243.04 196.414 243.136C196.318 243.221 196.174 243.264 195.982 243.264H193.63V249.44C193.63 249.653 193.576 249.819 193.47 249.936C193.374 250.053 193.214 250.112 192.99 250.112ZM201.316 250.144C200.494 250.144 199.785 249.984 199.188 249.664C198.601 249.333 198.142 248.869 197.812 248.272C197.492 247.675 197.332 246.96 197.332 246.128C197.332 245.317 197.492 244.613 197.812 244.016C198.132 243.408 198.569 242.933 199.124 242.592C199.689 242.251 200.34 242.08 201.076 242.08C201.598 242.08 202.068 242.171 202.484 242.352C202.9 242.523 203.252 242.773 203.54 243.104C203.838 243.435 204.062 243.835 204.212 244.304C204.372 244.773 204.452 245.301 204.452 245.888C204.452 246.059 204.404 246.187 204.308 246.272C204.212 246.347 204.073 246.384 203.892 246.384H198.324V245.536H203.588L203.332 245.744C203.332 245.168 203.246 244.683 203.076 244.288C202.905 243.883 202.654 243.573 202.324 243.36C202.004 243.147 201.598 243.04 201.108 243.04C200.564 243.04 200.1 243.168 199.716 243.424C199.342 243.669 199.06 244.016 198.868 244.464C198.676 244.901 198.58 245.413 198.58 246V246.096C198.58 247.077 198.814 247.824 199.284 248.336C199.764 248.848 200.441 249.104 201.316 249.104C201.678 249.104 202.036 249.056 202.388 248.96C202.75 248.864 203.102 248.704 203.444 248.48C203.593 248.384 203.726 248.341 203.844 248.352C203.972 248.352 204.073 248.389 204.148 248.464C204.222 248.528 204.27 248.613 204.292 248.72C204.324 248.816 204.313 248.923 204.26 249.04C204.217 249.157 204.126 249.259 203.988 249.344C203.636 249.6 203.22 249.797 202.74 249.936C202.26 250.075 201.785 250.144 201.316 250.144ZM207.124 250.112C206.91 250.112 206.745 250.053 206.628 249.936C206.521 249.819 206.468 249.653 206.468 249.44V242.768C206.468 242.544 206.521 242.379 206.628 242.272C206.745 242.165 206.91 242.112 207.124 242.112C207.326 242.112 207.481 242.165 207.588 242.272C207.705 242.379 207.764 242.544 207.764 242.768V245.456H212.004V242.768C212.004 242.544 212.057 242.379 212.164 242.272C212.281 242.165 212.441 242.112 212.644 242.112C212.846 242.112 213.006 242.165 213.124 242.272C213.241 242.379 213.3 242.544 213.3 242.768V249.44C213.3 249.653 213.241 249.819 213.124 249.936C213.006 250.053 212.846 250.112 212.644 250.112C212.441 250.112 212.281 250.053 212.164 249.936C212.057 249.819 212.004 249.653 212.004 249.44V246.512H207.764V249.44C207.764 249.653 207.71 249.819 207.604 249.936C207.497 250.053 207.337 250.112 207.124 250.112ZM223.138 252.192C222.957 252.192 222.818 252.139 222.722 252.032C222.626 251.936 222.578 251.792 222.578 251.6V250H216.53C216.317 250 216.151 249.941 216.034 249.824C215.917 249.707 215.858 249.541 215.858 249.328V242.768C215.858 242.544 215.911 242.379 216.018 242.272C216.135 242.165 216.301 242.112 216.514 242.112C216.717 242.112 216.871 242.165 216.978 242.272C217.095 242.379 217.154 242.544 217.154 242.768V248.96H221.17V242.768C221.17 242.544 221.223 242.379 221.33 242.272C221.447 242.165 221.613 242.112 221.826 242.112C222.029 242.112 222.183 242.165 222.29 242.272C222.407 242.379 222.466 242.544 222.466 242.768V249.568L221.874 248.96H223.042C223.255 248.96 223.415 249.013 223.522 249.12C223.639 249.227 223.698 249.387 223.698 249.6V251.6C223.698 251.995 223.511 252.192 223.138 252.192ZM226.013 250.112C225.895 250.112 225.789 250.085 225.693 250.032C225.607 249.989 225.538 249.915 225.485 249.808C225.442 249.701 225.421 249.568 225.421 249.408V242.752C225.421 242.539 225.474 242.379 225.581 242.272C225.687 242.165 225.831 242.112 226.013 242.112C226.205 242.112 226.349 242.165 226.445 242.272C226.551 242.379 226.605 242.539 226.605 242.752V248.768H226.205L230.861 242.528C230.946 242.411 231.047 242.315 231.165 242.24C231.282 242.155 231.431 242.112 231.613 242.112C231.741 242.112 231.847 242.133 231.933 242.176C232.018 242.219 232.082 242.293 232.125 242.4C232.178 242.496 232.205 242.629 232.205 242.8V249.472C232.205 249.675 232.151 249.835 232.045 249.952C231.949 250.059 231.805 250.112 231.613 250.112C231.421 250.112 231.271 250.059 231.165 249.952C231.069 249.835 231.021 249.675 231.021 249.472V243.44H231.421L226.749 249.696C226.674 249.803 226.578 249.899 226.461 249.984C226.354 250.069 226.205 250.112 226.013 250.112ZM237.228 250.144C236.695 250.144 236.215 250.043 235.788 249.84C235.372 249.627 235.042 249.339 234.796 248.976C234.551 248.613 234.428 248.208 234.428 247.76C234.428 247.184 234.572 246.731 234.86 246.4C235.159 246.069 235.644 245.835 236.316 245.696C236.999 245.557 237.927 245.488 239.1 245.488H239.82V246.336H239.116C238.252 246.336 237.57 246.379 237.068 246.464C236.578 246.539 236.231 246.672 236.028 246.864C235.836 247.056 235.74 247.328 235.74 247.68C235.74 248.117 235.89 248.475 236.188 248.752C236.498 249.029 236.914 249.168 237.436 249.168C237.863 249.168 238.236 249.067 238.556 248.864C238.887 248.661 239.143 248.384 239.324 248.032C239.516 247.68 239.612 247.275 239.612 246.816V244.992C239.612 244.331 239.479 243.856 239.212 243.568C238.946 243.269 238.508 243.12 237.9 243.12C237.527 243.12 237.154 243.168 236.78 243.264C236.407 243.36 236.012 243.515 235.596 243.728C235.447 243.803 235.319 243.829 235.212 243.808C235.106 243.776 235.02 243.717 234.956 243.632C234.892 243.547 234.855 243.451 234.844 243.344C234.834 243.227 234.855 243.115 234.908 243.008C234.972 242.901 235.068 242.816 235.196 242.752C235.666 242.517 236.13 242.347 236.588 242.24C237.047 242.133 237.484 242.08 237.9 242.08C238.572 242.08 239.127 242.192 239.564 242.416C240.002 242.629 240.327 242.96 240.54 243.408C240.754 243.845 240.86 244.411 240.86 245.104V249.44C240.86 249.653 240.807 249.819 240.7 249.936C240.604 250.053 240.46 250.112 240.268 250.112C240.066 250.112 239.911 250.053 239.804 249.936C239.698 249.819 239.644 249.653 239.644 249.44V248.192H239.788C239.703 248.597 239.538 248.944 239.292 249.232C239.058 249.52 238.764 249.744 238.412 249.904C238.06 250.064 237.666 250.144 237.228 250.144ZM249.357 250.112C249.155 250.112 248.995 250.053 248.877 249.936C248.771 249.819 248.717 249.653 248.717 249.44V243.264H245.581V244.256C245.581 245.088 245.539 245.824 245.453 246.464C245.379 247.093 245.256 247.637 245.085 248.096C244.915 248.555 244.685 248.939 244.397 249.248C244.12 249.557 243.773 249.819 243.357 250.032C243.219 250.096 243.085 250.112 242.957 250.08C242.829 250.059 242.723 250.011 242.637 249.936C242.563 249.851 242.509 249.749 242.477 249.632C242.456 249.515 242.472 249.397 242.525 249.28C242.579 249.163 242.675 249.067 242.813 248.992C243.123 248.821 243.373 248.608 243.565 248.352C243.768 248.096 243.928 247.776 244.045 247.392C244.163 247.008 244.243 246.56 244.285 246.048C244.339 245.525 244.365 244.912 244.365 244.208V242.96C244.365 242.715 244.429 242.533 244.557 242.416C244.685 242.288 244.867 242.224 245.101 242.224H249.277C249.512 242.224 249.693 242.288 249.821 242.416C249.949 242.533 250.013 242.715 250.013 242.96V249.44C250.013 249.653 249.955 249.819 249.837 249.936C249.731 250.053 249.571 250.112 249.357 250.112ZM255.041 250.144C254.508 250.144 254.028 250.043 253.601 249.84C253.185 249.627 252.854 249.339 252.609 248.976C252.364 248.613 252.241 248.208 252.241 247.76C252.241 247.184 252.385 246.731 252.673 246.4C252.972 246.069 253.457 245.835 254.129 245.696C254.812 245.557 255.74 245.488 256.913 245.488H257.633V246.336H256.929C256.065 246.336 255.382 246.379 254.881 246.464C254.39 246.539 254.044 246.672 253.841 246.864C253.649 247.056 253.553 247.328 253.553 247.68C253.553 248.117 253.702 248.475 254.001 248.752C254.31 249.029 254.726 249.168 255.249 249.168C255.676 249.168 256.049 249.067 256.369 248.864C256.7 248.661 256.956 248.384 257.137 248.032C257.329 247.68 257.425 247.275 257.425 246.816V244.992C257.425 244.331 257.292 243.856 257.025 243.568C256.758 243.269 256.321 243.12 255.713 243.12C255.34 243.12 254.966 243.168 254.593 243.264C254.22 243.36 253.825 243.515 253.409 243.728C253.26 243.803 253.132 243.829 253.025 243.808C252.918 243.776 252.833 243.717 252.769 243.632C252.705 243.547 252.668 243.451 252.657 243.344C252.646 243.227 252.668 243.115 252.721 243.008C252.785 242.901 252.881 242.816 253.009 242.752C253.478 242.517 253.942 242.347 254.401 242.24C254.86 242.133 255.297 242.08 255.713 242.08C256.385 242.08 256.94 242.192 257.377 242.416C257.814 242.629 258.14 242.96 258.353 243.408C258.566 243.845 258.673 244.411 258.673 245.104V249.44C258.673 249.653 258.62 249.819 258.513 249.936C258.417 250.053 258.273 250.112 258.081 250.112C257.878 250.112 257.724 250.053 257.617 249.936C257.51 249.819 257.457 249.653 257.457 249.44V248.192H257.601C257.516 248.597 257.35 248.944 257.105 249.232C256.87 249.52 256.577 249.744 256.225 249.904C255.873 250.064 255.478 250.144 255.041 250.144ZM7.248 272.112C7.04533 272.112 6.88533 272.053 6.768 271.936C6.66133 271.819 6.608 271.653 6.608 271.44V265.264H3.472V266.256C3.472 267.088 3.42933 267.824 3.344 268.464C3.26933 269.093 3.14667 269.637 2.976 270.096C2.80533 270.555 2.576 270.939 2.288 271.248C2.01067 271.557 1.664 271.819 1.248 272.032C1.10933 272.096 0.976 272.112 0.848 272.08C0.72 272.059 0.613333 272.011 0.528 271.936C0.453333 271.851 0.4 271.749 0.368 271.632C0.346667 271.515 0.362667 271.397 0.416 271.28C0.469333 271.163 0.565333 271.067 0.704 270.992C1.01333 270.821 1.264 270.608 1.456 270.352C1.65867 270.096 1.81867 269.776 1.936 269.392C2.05333 269.008 2.13333 268.56 2.176 268.048C2.22933 267.525 2.256 266.912 2.256 266.208V264.96C2.256 264.715 2.32 264.533 2.448 264.416C2.576 264.288 2.75733 264.224 2.992 264.224H7.168C7.40267 264.224 7.584 264.288 7.712 264.416C7.84 264.533 7.904 264.715 7.904 264.96V271.44C7.904 271.653 7.84533 271.819 7.728 271.936C7.62133 272.053 7.46133 272.112 7.248 272.112ZM11.0595 272.112C10.9422 272.112 10.8355 272.085 10.7395 272.032C10.6542 271.989 10.5848 271.915 10.5315 271.808C10.4888 271.701 10.4675 271.568 10.4675 271.408V264.752C10.4675 264.539 10.5208 264.379 10.6275 264.272C10.7342 264.165 10.8782 264.112 11.0595 264.112C11.2515 264.112 11.3955 264.165 11.4915 264.272C11.5982 264.379 11.6515 264.539 11.6515 264.752V270.768H11.2515L15.9075 264.528C15.9928 264.411 16.0942 264.315 16.2115 264.24C16.3288 264.155 16.4782 264.112 16.6595 264.112C16.7875 264.112 16.8942 264.133 16.9795 264.176C17.0648 264.219 17.1288 264.293 17.1715 264.4C17.2248 264.496 17.2515 264.629 17.2515 264.8V271.472C17.2515 271.675 17.1982 271.835 17.0915 271.952C16.9955 272.059 16.8515 272.112 16.6595 272.112C16.4675 272.112 16.3182 272.059 16.2115 271.952C16.1155 271.835 16.0675 271.675 16.0675 271.472V265.44H16.4675L11.7955 271.696C11.7208 271.803 11.6248 271.899 11.5075 271.984C11.4008 272.069 11.2515 272.112 11.0595 272.112ZM25.4433 272.112C25.2406 272.112 25.0806 272.053 24.9633 271.936C24.8566 271.808 24.8033 271.637 24.8033 271.424V268.848C24.5046 269.029 24.1793 269.168 23.8273 269.264C23.4859 269.349 23.1233 269.392 22.7393 269.392C21.6299 269.392 20.8086 269.131 20.2753 268.608C19.7419 268.075 19.4753 267.269 19.4753 266.192V264.768C19.4753 264.555 19.5286 264.395 19.6353 264.288C19.7526 264.171 19.9179 264.112 20.1313 264.112C20.3339 264.112 20.4886 264.171 20.5953 264.288C20.7126 264.395 20.7713 264.555 20.7713 264.768V266.096C20.7713 266.864 20.9366 267.424 21.2673 267.776C21.6086 268.128 22.1526 268.304 22.8993 268.304C23.2833 268.304 23.6246 268.261 23.9233 268.176C24.2219 268.091 24.5099 267.952 24.7873 267.76V264.784C24.7873 264.336 25.0006 264.112 25.4273 264.112C25.6406 264.112 25.8006 264.171 25.9073 264.288C26.0246 264.405 26.0833 264.571 26.0833 264.784V271.424C26.0833 271.637 26.0299 271.808 25.9233 271.936C25.8166 272.053 25.6566 272.112 25.4433 272.112ZM29.2954 272.112C29.082 272.112 28.9167 272.053 28.7994 271.936C28.6927 271.819 28.6394 271.653 28.6394 271.44V264.768C28.6394 264.544 28.6927 264.379 28.7994 264.272C28.9167 264.165 29.082 264.112 29.2954 264.112C29.498 264.112 29.6527 264.165 29.7594 264.272C29.8767 264.379 29.9354 264.544 29.9354 264.768V267.456H34.1754V264.768C34.1754 264.544 34.2287 264.379 34.3354 264.272C34.4527 264.165 34.6127 264.112 34.8154 264.112C35.018 264.112 35.178 264.165 35.2954 264.272C35.4127 264.379 35.4714 264.544 35.4714 264.768V271.44C35.4714 271.653 35.4127 271.819 35.2954 271.936C35.178 272.053 35.018 272.112 34.8154 272.112C34.6127 272.112 34.4527 272.053 34.3354 271.936C34.2287 271.819 34.1754 271.653 34.1754 271.44V268.512H29.9354V271.44C29.9354 271.653 29.882 271.819 29.7754 271.936C29.6687 272.053 29.5087 272.112 29.2954 272.112ZM41.278 272.144C40.5207 272.144 39.8647 271.979 39.31 271.648C38.7553 271.317 38.3233 270.853 38.014 270.256C37.7153 269.648 37.566 268.933 37.566 268.112C37.566 267.493 37.6513 266.939 37.822 266.448C37.9927 265.947 38.2433 265.52 38.574 265.168C38.9047 264.816 39.294 264.549 39.742 264.368C40.2007 264.176 40.7127 264.08 41.278 264.08C42.0353 264.08 42.6913 264.245 43.246 264.576C43.8007 264.907 44.2273 265.376 44.526 265.984C44.8353 266.581 44.99 267.291 44.99 268.112C44.99 268.731 44.9047 269.285 44.734 269.776C44.5633 270.267 44.3127 270.693 43.982 271.056C43.6513 271.408 43.2567 271.68 42.798 271.872C42.35 272.053 41.8433 272.144 41.278 272.144ZM41.278 271.104C41.758 271.104 42.1793 270.987 42.542 270.752C42.9047 270.517 43.182 270.176 43.374 269.728C43.5767 269.28 43.678 268.741 43.678 268.112C43.678 267.141 43.4593 266.4 43.022 265.888C42.5953 265.376 42.014 265.12 41.278 265.12C40.7873 265.12 40.3607 265.237 39.998 265.472C39.646 265.696 39.3687 266.032 39.166 266.48C38.974 266.917 38.878 267.461 38.878 268.112C38.878 269.072 39.0967 269.813 39.534 270.336C39.9713 270.848 40.5527 271.104 41.278 271.104ZM50.4045 272.144C49.6258 272.144 48.9538 271.973 48.3885 271.632C47.8232 271.291 47.3858 270.816 47.0765 270.208C46.7778 269.589 46.6285 268.875 46.6285 268.064C46.6285 267.445 46.7138 266.891 46.8845 266.4C47.0552 265.909 47.3058 265.493 47.6365 265.152C47.9672 264.8 48.3618 264.533 48.8205 264.352C49.2898 264.171 49.8178 264.08 50.4045 264.08C50.7885 264.08 51.1885 264.139 51.6045 264.256C52.0205 264.373 52.3992 264.576 52.7405 264.864C52.8472 264.939 52.9165 265.029 52.9485 265.136C52.9805 265.243 52.9805 265.349 52.9485 265.456C52.9165 265.552 52.8632 265.637 52.7885 265.712C52.7138 265.776 52.6178 265.813 52.5005 265.824C52.3938 265.835 52.2818 265.797 52.1645 265.712C51.8872 265.499 51.6045 265.349 51.3165 265.264C51.0285 265.179 50.7512 265.136 50.4845 265.136C50.0685 265.136 49.7058 265.205 49.3965 265.344C49.0872 265.472 48.8258 265.659 48.6125 265.904C48.3992 266.149 48.2338 266.453 48.1165 266.816C48.0098 267.179 47.9565 267.6 47.9565 268.08C47.9565 269.008 48.1752 269.744 48.6125 270.288C49.0498 270.821 49.6738 271.088 50.4845 271.088C50.7512 271.088 51.0232 271.045 51.3005 270.96C51.5885 270.875 51.8765 270.725 52.1645 270.512C52.2818 270.427 52.3938 270.389 52.5005 270.4C52.6072 270.411 52.6978 270.453 52.7725 270.528C52.8472 270.592 52.8952 270.677 52.9165 270.784C52.9485 270.891 52.9485 270.997 52.9165 271.104C52.8845 271.2 52.8152 271.285 52.7085 271.36C52.3672 271.637 51.9938 271.84 51.5885 271.968C51.1832 272.085 50.7885 272.144 50.4045 272.144ZM56.927 272.112C56.7243 272.112 56.5643 272.053 56.447 271.936C56.3297 271.819 56.271 271.653 56.271 271.44V265.264H53.935C53.5297 265.264 53.327 265.088 53.327 264.736C53.327 264.576 53.3803 264.453 53.487 264.368C53.5937 264.272 53.743 264.224 53.935 264.224H59.919C60.3137 264.224 60.511 264.395 60.511 264.736C60.511 264.907 60.4577 265.04 60.351 265.136C60.255 265.221 60.111 265.264 59.919 265.264H57.567V271.44C57.567 271.653 57.5137 271.819 57.407 271.936C57.311 272.053 57.151 272.112 56.927 272.112ZM62.3564 272.112C62.239 272.112 62.1324 272.085 62.0364 272.032C61.951 271.989 61.8817 271.915 61.8284 271.808C61.7857 271.701 61.7644 271.568 61.7644 271.408V264.752C61.7644 264.539 61.8177 264.379 61.9244 264.272C62.031 264.165 62.175 264.112 62.3564 264.112C62.5484 264.112 62.6924 264.165 62.7884 264.272C62.895 264.379 62.9484 264.539 62.9484 264.752V270.768H62.5484L67.2044 264.528C67.2897 264.411 67.391 264.315 67.5084 264.24C67.6257 264.155 67.775 264.112 67.9564 264.112C68.0844 264.112 68.191 264.133 68.2764 264.176C68.3617 264.219 68.4257 264.293 68.4684 264.4C68.5217 264.496 68.5484 264.629 68.5484 264.8V271.472C68.5484 271.675 68.495 271.835 68.3884 271.952C68.2924 272.059 68.1484 272.112 67.9564 272.112C67.7644 272.112 67.615 272.059 67.5084 271.952C67.4124 271.835 67.3644 271.675 67.3644 271.472V265.44H67.7644L63.0924 271.696C63.0177 271.803 62.9217 271.899 62.8044 271.984C62.6977 272.069 62.5484 272.112 62.3564 272.112ZM71.6681 272.064C71.4015 272.064 71.1881 271.984 71.0281 271.824C70.8681 271.653 70.7881 271.44 70.7881 271.184C70.7881 270.928 70.8681 270.72 71.0281 270.56C71.1881 270.389 71.4015 270.304 71.6681 270.304C71.9348 270.304 72.1428 270.389 72.2921 270.56C72.4521 270.72 72.5321 270.928 72.5321 271.184C72.5321 271.44 72.4521 271.653 72.2921 271.824C72.1428 271.984 71.9348 272.064 71.6681 272.064Z" fill="#00325A"/>
</svg>
