<svg width="132" height="50" viewBox="0 0 132 50" fill="none" xmlns="http://www.w3.org/2000/svg">
<g clip-path="url(#clip0_1_319)">
<path d="M128 0H4C1.79086 0 0 1.79086 0 4V46C0 48.2091 1.79086 50 4 50H128C130.209 50 132 48.2091 132 46V4C132 1.79086 130.209 0 128 0Z" fill="white"/>
<path fill-rule="evenodd" clip-rule="evenodd" d="M12 26.3998V15.8998C12 15.2998 12.5 14.7998 13 14.7998C13.5 14.7998 13.7 14.8998 14 15.0998L33.3 25.6998C33.7 25.8998 33.9 26.1998 33.9 26.4998C33.9 26.7998 33.7 27.0998 33.3 27.2998L14 37.7998C13.8 37.8998 13.5 38.0998 13 38.0998C12.5 38.0998 12 37.5998 12 36.9998V26.3998Z" fill="url(#paint0_linear_1_319)"/>
<path fill-rule="evenodd" clip-rule="evenodd" d="M24.4998 26.4998L12.7998 14.7998C12.8998 14.7998 12.8998 14.7998 12.9998 14.7998C13.4998 14.7998 13.6998 14.8998 13.9998 15.0998L28.1998 22.7998L24.4998 26.4998Z" fill="url(#paint1_linear_1_319)"/>
<path fill-rule="evenodd" clip-rule="evenodd" d="M28.1 29.9998L24.5 26.3998L28.2 22.7998L33.3 25.5998C33.7 25.7998 33.9 26.0998 33.9 26.3998C33.9 26.6998 33.7 26.9998 33.3 27.1998L28.1 29.9998Z" fill="url(#paint2_linear_1_319)"/>
<path fill-rule="evenodd" clip-rule="evenodd" d="M12.9004 37.9999L24.5004 26.3999L28.1004 29.9999L14.0004 37.7999C13.7004 37.8999 13.5004 37.9999 12.9004 37.9999C13.0004 37.9999 13.0004 37.9999 12.9004 37.9999Z" fill="url(#paint3_linear_1_319)"/>
<path fill-rule="evenodd" clip-rule="evenodd" d="M73.2996 40.6998C72.7996 40.2998 72.3996 39.5998 72.1996 39.1998L73.7996 38.4998C73.8996 38.6998 74.0996 38.9998 74.2996 39.2998C74.6996 39.6998 75.2996 40.0998 75.8996 40.0998C76.4996 40.0998 77.1996 39.7998 77.5996 39.2998C77.8996 38.7998 78.0996 38.2998 78.0996 37.5998V36.9998C76.8996 38.4998 74.3996 38.2998 72.9996 36.6998C71.4996 35.0998 71.4996 32.3998 72.9996 30.7998C74.4996 29.2998 76.6996 29.0998 77.9996 30.4998V29.7998H79.6996V37.3998C79.6996 39.2998 78.9996 40.3998 78.0996 41.0998C77.4996 41.5998 76.5996 41.7998 75.7996 41.7998C74.8996 41.5998 73.9996 41.2998 73.2996 40.6998ZM115.2 41.0998L116.9 37.0998L113.9 30.1998H115.6L117.7 35.0998L119.8 30.1998H121.5L116.9 41.0998H115.2ZM107.1 37.2998C106.6 36.7998 106.4 36.0998 106.4 35.3998C106.4 34.7998 106.6 34.1998 107 33.7998C107.7 33.0998 108.7 32.7998 109.8 32.7998C110.5 32.7998 111.1 32.8998 111.6 33.1998C111.6 31.9998 110.6 31.4998 109.8 31.4998C109.1 31.4998 108.4 31.8998 108.1 32.5998L106.6 31.9998C106.9 31.2998 107.7 29.9998 109.7 29.9998C110.7 29.9998 111.7 30.2998 112.3 30.9998C112.9 31.6998 113.1 32.4998 113.1 33.5998V37.7998H111.4V37.0998C111.2 37.3998 110.8 37.5998 110.5 37.7998C110.1 37.9998 109.6 38.0998 109.1 38.0998C108.5 37.9998 107.6 37.7998 107.1 37.2998ZM53.7996 33.6998C53.7996 31.6998 55.2996 29.4998 57.9996 29.4998C60.5996 29.4998 62.1996 31.6998 62.1996 33.6998C62.1996 35.6998 60.6996 37.8998 57.9996 37.8998C55.2996 37.8998 53.7996 35.6998 53.7996 33.6998ZM62.7996 33.6998C62.7996 31.6998 64.2996 29.4998 66.9996 29.4998C69.5996 29.4998 71.1996 31.6998 71.1996 33.6998C71.1996 35.6998 69.6996 37.8998 66.9996 37.8998C64.3996 37.8998 62.7996 35.6998 62.7996 33.6998ZM42.4996 35.8998C39.9996 33.3998 40.0996 29.2998 42.5996 26.6998C43.8996 25.3998 45.4996 24.7998 47.1996 24.7998C48.7996 24.7998 50.3996 25.3998 51.5996 26.5998L50.3996 27.8998C48.5996 26.0998 45.6996 26.1998 43.9996 27.9998C42.1996 29.8998 42.1996 32.7998 43.9996 34.6998C45.7996 36.5998 48.7996 36.6998 50.5996 34.7998C51.1996 34.1998 51.3996 33.3998 51.4996 32.5998H47.1996V30.7998H53.0996C53.1996 31.1998 53.1996 31.6998 53.1996 32.1998C53.1996 33.6998 52.5996 35.1998 51.5996 36.1998C50.4996 37.2998 48.8996 37.8998 47.2996 37.8998C45.5996 37.7998 43.7996 37.1998 42.4996 35.8998ZM84.7996 36.5998C83.2996 34.9998 83.2996 32.2998 84.7996 30.5998C86.2996 28.9998 88.7996 28.9998 90.1996 30.5998C90.6996 31.0998 90.9996 31.7998 91.2996 32.4998L85.7996 34.7998C86.0996 35.4998 86.7996 36.0998 87.7996 36.0998C88.6996 36.0998 89.2996 35.7998 89.8996 34.8998L91.3996 35.8998C91.1996 36.0998 90.9996 36.2998 90.8996 36.4998C89.1996 38.1998 86.2996 38.1998 84.7996 36.5998ZM95.1996 37.7998V26.6998H98.7996C100.9 26.6998 102.6 28.1998 102.6 29.9998C102.6 31.7998 101.1 33.2998 99.1996 33.2998H96.9996V37.7998H95.1996ZM103.6 37.7998V26.6998H105.3V37.7998H103.6ZM80.9996 37.5998V25.1998H82.7996V37.5998H80.9996ZM111.5 34.4998C111.1 34.1998 110.5 34.0998 109.9 34.0998C108.7 34.0998 108 34.6998 108 35.3998C108 36.0998 108.7 36.4998 109.4 36.4998C110.4 36.4998 111.5 35.6998 111.5 34.4998ZM60.2996 33.6998C60.2996 32.4998 59.4996 31.1998 57.9996 31.1998C56.4996 31.1998 55.6996 32.4998 55.6996 33.6998C55.6996 34.8998 56.4996 36.1998 57.9996 36.1998C59.3996 36.1998 60.2996 34.8998 60.2996 33.6998ZM69.2996 33.6998C69.2996 32.4998 68.4996 31.1998 66.9996 31.1998C65.4996 31.1998 64.6996 32.4998 64.6996 33.6998C64.6996 34.8998 65.4996 36.1998 66.9996 36.1998C68.4996 36.1998 69.2996 34.8998 69.2996 33.6998ZM78.1996 34.3998C78.1996 34.2998 78.1996 34.1998 78.2996 34.0998C78.2996 33.9998 78.2996 33.7998 78.2996 33.6998C78.2996 33.5998 78.2996 33.3998 78.2996 33.2998V33.1998C78.2996 33.0998 78.1996 32.8998 78.1996 32.7998C77.8996 31.7998 76.9996 31.0998 76.0996 31.0998C74.8996 31.0998 73.8996 32.2998 73.8996 33.5998C73.8996 34.9998 74.8996 36.0998 76.1996 36.0998C76.9996 36.1998 77.7996 35.4998 78.1996 34.3998ZM85.4996 33.4998L89.1996 31.8998C88.7996 31.1998 88.1996 30.9998 87.6996 30.9998C86.1996 31.0998 85.2996 32.6998 85.4996 33.4998ZM100.8 30.0998C100.8 29.0998 99.9996 28.3998 98.8996 28.3998H96.8996V31.8998H98.9996C99.9996 31.8998 100.8 31.0998 100.8 30.0998Z" fill="#31C5A1"/>
<path d="M41.0996 16.9C41.0996 15.1 42.3996 14 43.9996 14C45.0996 14 45.7996 14.5 46.2996 15.2L45.4996 15.7C45.1996 15.2 44.6996 14.8 44.0996 14.8C42.9996 14.8 42.1996 15.6 42.1996 16.8C42.1996 18 42.9996 18.8 44.0996 18.8C44.6996 18.8 45.1996 18.5 45.3996 18.3V17.4H43.6996V16.6H46.3996V18.7C45.8996 19.3 45.0996 19.7 44.0996 19.7C42.3996 19.8 41.0996 18.6 41.0996 16.9Z" fill="#545659"/>
<path d="M47.5996 19.7V14H51.3996V14.9H48.4996V16.3H51.2996V17.2H48.4996V18.8H51.3996V19.7H47.5996Z" fill="#545659"/>
<path d="M54.2 19.7V14.9H52.5V14H56.9V14.9H55.2V19.6H54.2V19.7Z" fill="#545659"/>
<path d="M60.3008 19.7V14H61.3008V19.6H60.3008V19.7Z" fill="#545659"/>
<path d="M64.0008 19.7V14.9H62.3008V14H66.7008V14.9H65.0008V19.6H64.0008V19.7Z" fill="#545659"/>
<path d="M69.9004 16.9C69.9004 15.2 71.1004 14 72.8004 14C74.5004 14 75.7004 15.2 75.7004 16.9C75.7004 18.6 74.4004 19.8 72.7004 19.8C71.1004 19.8 69.9004 18.5 69.9004 16.9ZM74.6004 16.9C74.6004 15.7 73.9004 14.9 72.7004 14.9C71.6004 14.9 70.8004 15.8 70.8004 16.9C70.8004 18.1 71.5004 18.9 72.7004 18.9C73.9004 18.9 74.6004 18 74.6004 16.9Z" fill="#545659"/>
<path d="M80.7008 19.7L77.8008 15.7V19.7H76.8008V14H77.8008L80.7008 17.9V14H81.7008V19.6H80.7008V19.7Z" fill="#545659"/>
</g>
<defs>
<linearGradient id="paint0_linear_1_319" x1="18.4674" y1="13.3734" x2="24.0656" y2="36.3643" gradientUnits="userSpaceOnUse">
<stop stop-color="#006884"/>
<stop offset="1" stop-color="#8AD1D0"/>
</linearGradient>
<linearGradient id="paint1_linear_1_319" x1="11.6405" y1="16.6436" x2="26.8965" y2="24.8911" gradientUnits="userSpaceOnUse">
<stop stop-color="#24BBB6"/>
<stop offset="1" stop-color="#DBE692"/>
</linearGradient>
<linearGradient id="paint2_linear_1_319" x1="29.1944" y1="30.4199" x2="29.1944" y2="22.4715" gradientUnits="userSpaceOnUse">
<stop stop-color="#FCC072"/>
<stop offset="1" stop-color="#F58A5B"/>
</linearGradient>
<linearGradient id="paint3_linear_1_319" x1="14.5951" y1="40.0691" x2="26.6468" y2="27.8038" gradientUnits="userSpaceOnUse">
<stop stop-color="#712B8F"/>
<stop offset="1" stop-color="#EA1D27"/>
</linearGradient>
<clipPath id="clip0_1_319">
<rect width="132" height="50" fill="white"/>
</clipPath>
</defs>
</svg>
