<svg width="147" height="50" viewBox="0 0 147 50" fill="none" xmlns="http://www.w3.org/2000/svg">
<g clip-path="url(#clip0_1_30)">
<path d="M143 0H4C1.79086 0 0 1.79086 0 4V46C0 48.2091 1.79086 50 4 50H143C145.209 50 147 48.2091 147 46V4C147 1.79086 145.209 0 143 0Z" fill="#EEEAFF"/>
<path d="M36.7559 24.1999C36.7559 21.0999 39.3559 19.5999 39.4559 19.4999C37.9559 17.3999 35.7559 17.0999 34.9559 16.9999C33.0559 16.7999 31.1559 18.0999 30.2559 18.0999C29.2559 18.0999 27.7559 16.9999 26.1559 16.9999C24.0559 16.9999 22.1559 18.1999 21.0559 20.0999C18.8559 23.8999 20.4559 29.4999 22.5559 32.5999C23.6559 34.0999 24.8559 35.7999 26.4559 35.6999C28.0559 35.5999 28.6559 34.6999 30.5559 34.6999C32.4559 34.6999 32.9559 35.6999 34.6559 35.6999C36.3559 35.6999 37.4559 34.1999 38.4559 32.6999C39.6559 30.9999 40.1559 29.2999 40.1559 29.1999C40.0559 29.0999 36.7559 27.8999 36.7559 24.1999Z" fill="#582EFF"/>
<path d="M33.656 15C34.456 13.9 35.056 12.5 34.956 11C33.756 11.1 32.156 11.8 31.356 12.9C30.556 13.8 29.856 15.3 30.056 16.7C31.356 16.8 32.756 16 33.656 15Z" fill="#582EFF"/>
<path d="M59.5562 35.5001H57.3562L56.1562 31.7001H51.9562L50.7562 35.5001H48.6562L52.7562 22.6001H55.3562L59.5562 35.5001ZM55.7562 30.1001L54.6562 26.7001C54.5562 26.4001 54.3562 25.5001 53.9562 24.3001C53.8562 24.8001 53.6562 25.7001 53.3562 26.7001L52.2562 30.1001H55.7562Z" fill="#582EFF"/>
<path d="M70.2559 30.8001C70.2559 32.4001 69.8559 33.6001 68.9559 34.6001C68.1559 35.4001 67.2559 35.8001 66.0559 35.8001C64.8559 35.8001 63.9559 35.4001 63.4559 34.5001V39.4001H61.3559V29.4001C61.3559 28.4001 61.3559 27.4001 61.2559 26.3001H63.0559L63.1559 27.8001C63.8559 26.7001 64.8559 26.1001 66.2559 26.1001C67.3559 26.1001 68.2559 26.5001 68.9559 27.4001C69.8559 28.2001 70.2559 29.3001 70.2559 30.8001ZM68.1559 30.8001C68.1559 29.9001 67.9559 29.1001 67.5559 28.6001C67.1559 28.0001 66.5559 27.7001 65.7559 27.7001C65.2559 27.7001 64.7559 27.9001 64.3559 28.2001C63.9559 28.5001 63.6559 29.0001 63.5559 29.5001C63.4559 29.8001 63.4559 30.0001 63.4559 30.1001V31.7001C63.4559 32.4001 63.6559 32.9001 64.0559 33.4001C64.4559 33.9001 65.0559 34.1001 65.6559 34.1001C66.4559 34.1001 67.0559 33.8001 67.4559 33.2001C67.8559 32.6001 68.1559 31.8001 68.1559 30.8001Z" fill="#582EFF"/>
<path d="M80.9551 30.8001C80.9551 32.4001 80.5551 33.6001 79.6551 34.6001C78.8551 35.4001 77.9551 35.8001 76.7551 35.8001C75.5551 35.8001 74.6551 35.4001 74.1551 34.5001V39.4001H72.0551V29.4001C72.0551 28.4001 72.0551 27.4001 71.9551 26.3001H73.7551L73.8551 27.8001C74.5551 26.7001 75.5551 26.1001 76.9551 26.1001C78.0551 26.1001 78.9551 26.5001 79.6551 27.4001C80.5551 28.2001 80.9551 29.3001 80.9551 30.8001ZM78.8551 30.8001C78.8551 29.9001 78.6551 29.1001 78.2551 28.6001C77.8551 28.0001 77.2551 27.7001 76.4551 27.7001C75.9551 27.7001 75.4551 27.9001 75.0551 28.2001C74.6551 28.5001 74.3551 29.0001 74.2551 29.5001C74.1551 29.8001 74.1551 30.0001 74.1551 30.1001V31.7001C74.1551 32.4001 74.3551 32.9001 74.7551 33.4001C75.1551 33.9001 75.7551 34.1001 76.3551 34.1001C77.1551 34.1001 77.7551 33.8001 78.1551 33.2001C78.5551 32.6001 78.8551 31.8001 78.8551 30.8001Z" fill="#582EFF"/>
<path d="M92.8551 31.9C92.8551 33 92.4551 33.9 91.7551 34.6C90.9551 35.4 89.7551 35.7 88.2551 35.7C86.8551 35.7 85.7551 35.4 84.9551 34.9L85.4551 33.2C86.3551 33.7 87.3551 34 88.4551 34C89.2551 34 89.8551 33.8 90.2551 33.5C90.6551 33.1 90.8551 32.7 90.8551 32.1C90.8551 31.6 90.6551 31.1 90.3551 30.8C89.9551 30.4 89.3551 30.1 88.5551 29.8C86.2551 29 85.1551 27.7 85.1551 26.1C85.1551 25 85.5551 24.2 86.3551 23.5C87.1551 22.8 88.1551 22.5 89.5551 22.5C90.7551 22.5 91.6551 22.7 92.4551 23.1L91.9551 24.8C91.2551 24.4 90.4551 24.2 89.4551 24.2C88.7551 24.2 88.1551 24.4 87.7551 24.7C87.4551 25 87.2551 25.4 87.2551 25.9C87.2551 26.4 87.4551 26.8 87.8551 27.2C88.1551 27.5 88.8551 27.8 89.7551 28.2C90.8551 28.6 91.6551 29.2 92.2551 29.8C92.6551 30.3 92.8551 31 92.8551 31.9Z" fill="#582EFF"/>
<path d="M99.7566 27.7999H97.4566V32.2999C97.4566 33.3999 97.8566 33.9999 98.6566 33.9999C99.0566 33.9999 99.3566 33.9999 99.5566 33.8999L99.6566 35.4999C99.2566 35.6999 98.7566 35.6999 98.0566 35.6999C97.2566 35.6999 96.5566 35.4999 96.1566 34.9999C95.6566 34.4999 95.4566 33.6999 95.4566 32.4999V27.7999H94.0566V26.1999H95.4566V24.4999L97.4566 23.8999V26.1999H99.7566V27.7999Z" fill="#582EFF"/>
<path d="M110.055 30.8C110.055 32.2 109.655 33.4 108.855 34.3C107.955 35.2 106.855 35.7 105.455 35.7C104.055 35.7 102.955 35.2 102.155 34.3C101.355 33.4 100.955 32.3 100.955 30.9C100.955 29.5 101.355 28.3 102.255 27.4C103.055 26.5 104.255 26 105.655 26C107.055 26 108.155 26.5 108.955 27.4C109.655 28.3 110.055 29.4 110.055 30.8ZM107.855 30.9C107.855 30 107.655 29.3 107.255 28.7C106.855 28 106.155 27.6 105.355 27.6C104.555 27.6 103.855 28 103.455 28.7C103.055 29.3 102.855 30.1 102.855 30.9C102.855 31.8 103.055 32.5 103.455 33.1C103.855 33.8 104.555 34.2 105.355 34.2C106.155 34.2 106.755 33.8 107.255 33.1C107.655 32.5 107.855 31.7 107.855 30.9Z" fill="#582EFF"/>
<path d="M116.756 27.9999C116.556 27.9999 116.356 27.8999 116.056 27.8999C115.356 27.8999 114.756 28.1999 114.356 28.6999C114.056 29.1999 113.856 29.7999 113.856 30.4999V35.3999H111.756V28.9999C111.756 27.8999 111.756 26.9999 111.656 26.0999H113.456L113.556 27.8999H113.656C113.856 27.2999 114.256 26.7999 114.656 26.3999C115.156 26.0999 115.656 25.8999 116.156 25.8999C116.356 25.8999 116.556 25.8999 116.656 25.8999V27.9999H116.756Z" fill="#582EFF"/>
<path d="M125.956 30.4C125.956 30.8 125.956 31.1 125.856 31.3H119.656C119.656 32.2 119.956 32.9 120.556 33.4C121.056 33.8 121.756 34.1 122.556 34.1C123.456 34.1 124.356 34 125.056 33.7L125.356 35.1C124.456 35.5 123.456 35.7 122.256 35.7C120.856 35.7 119.656 35.3 118.856 34.4C118.056 33.6 117.656 32.4 117.656 31C117.656 29.6 118.056 28.4 118.756 27.5C119.556 26.5 120.656 26 122.056 26C123.356 26 124.456 26.5 125.056 27.5C125.656 28.3 125.956 29.3 125.956 30.4ZM123.956 29.9C123.956 29.3 123.856 28.8 123.556 28.3C123.156 27.7 122.656 27.4 121.956 27.4C121.256 27.4 120.756 27.7 120.356 28.2C120.056 28.6 119.856 29.2 119.756 29.8H123.956V29.9Z" fill="#582EFF"/>
<path d="M55.0555 14.7001C55.0555 15.8001 54.7555 16.7001 54.0555 17.3001C53.4555 17.8001 52.5555 18.1001 51.3555 18.1001C50.7555 18.1001 50.2555 18.1001 49.8555 18.0001V11.7001C50.3555 11.6001 50.9555 11.6001 51.6555 11.6001C52.7555 11.6001 53.5555 11.8001 54.1555 12.3001C54.7555 12.9001 55.0555 13.7001 55.0555 14.7001ZM54.0555 14.7001C54.0555 14.0001 53.8555 13.4001 53.4555 13.0001C53.0555 12.6001 52.4555 12.4001 51.7555 12.4001C51.4555 12.4001 51.1555 12.4001 50.9555 12.5001V17.2001C51.0555 17.2001 51.3555 17.2001 51.6555 17.2001C52.4555 17.2001 53.0555 17.0001 53.4555 16.6001C53.7555 16.2001 54.0555 15.5001 54.0555 14.7001Z" fill="#545659"/>
<path d="M60.7559 15.6998C60.7559 16.3998 60.5559 16.9998 60.1559 17.3998C59.7559 17.8998 59.1559 18.0998 58.4559 18.0998C57.7559 18.0998 57.2559 17.8998 56.8559 17.3998C56.4559 16.9998 56.2559 16.3998 56.2559 15.6998C56.2559 14.9998 56.4559 14.3998 56.8559 13.9998C57.2559 13.4998 57.8559 13.2998 58.5559 13.2998C59.2559 13.2998 59.7559 13.4998 60.1559 13.9998C60.5559 14.3998 60.7559 14.9998 60.7559 15.6998ZM59.7559 15.6998C59.7559 15.2998 59.6559 14.8998 59.4559 14.5998C59.2559 14.1998 58.9559 14.0998 58.5559 14.0998C58.1559 14.0998 57.8559 14.2998 57.6559 14.5998C57.4559 14.8998 57.3559 15.2998 57.3559 15.6998C57.3559 16.0998 57.4559 16.4998 57.6559 16.7998C57.8559 17.1998 58.1559 17.2998 58.5559 17.2998C58.9559 17.2998 59.2559 17.0998 59.4559 16.6998C59.6559 16.4998 59.7559 16.0998 59.7559 15.6998Z" fill="#545659"/>
<path d="M68.3559 13.3999L66.9559 17.9999H66.0559L65.4559 15.9999C65.2559 15.4999 65.1559 14.9999 65.0559 14.4999C64.9559 14.9999 64.8559 15.4999 64.6559 15.9999L64.0559 17.9999H63.1559L61.7559 13.3999H62.7559L63.2559 15.5999C63.3559 16.0999 63.4559 16.5999 63.5559 17.0999C63.6559 16.6999 63.7559 16.1999 63.9559 15.5999L64.6559 13.3999H65.4559L66.0559 15.4999C66.2559 15.9999 66.3559 16.4999 66.4559 16.9999C66.5559 16.4999 66.6559 15.9999 66.7559 15.4999L67.3559 13.3999H68.3559Z" fill="#545659"/>
<path d="M73.6559 17.9998H72.6559V15.3998C72.6559 14.5998 72.3559 14.1998 71.7559 14.1998C71.4559 14.1998 71.2559 14.2998 71.0559 14.4998C70.8559 14.6998 70.7559 14.9998 70.7559 15.2998V17.9998H69.7559V14.6998C69.7559 14.2998 69.7559 13.8998 69.7559 13.3998H70.6559V14.0998C70.7559 13.8998 70.9559 13.6998 71.1559 13.4998C71.4559 13.3998 71.7559 13.2998 72.0559 13.2998C72.4559 13.2998 72.8559 13.3998 73.1559 13.6998C73.5559 13.9998 73.6559 14.4998 73.6559 15.1998V17.9998Z" fill="#545659"/>
<path d="M76.4551 17.9998H75.4551V11.2998H76.4551V17.9998Z" fill="#545659"/>
<path d="M82.4551 15.6998C82.4551 16.3998 82.2551 16.9998 81.8551 17.3998C81.4551 17.8998 80.8551 18.0998 80.1551 18.0998C79.4551 18.0998 78.9551 17.8998 78.5551 17.3998C78.1551 16.9998 77.9551 16.3998 77.9551 15.6998C77.9551 14.9998 78.1551 14.3998 78.5551 13.9998C78.9551 13.4998 79.5551 13.2998 80.2551 13.2998C80.9551 13.2998 81.4551 13.4998 81.8551 13.9998C82.2551 14.3998 82.4551 14.9998 82.4551 15.6998ZM81.3551 15.6998C81.3551 15.2998 81.2551 14.8998 81.0551 14.5998C80.8551 14.1998 80.5551 14.0998 80.1551 14.0998C79.7551 14.0998 79.4551 14.2998 79.2551 14.5998C79.0551 14.8998 78.9551 15.2998 78.9551 15.6998C78.9551 16.0998 79.0551 16.4998 79.2551 16.7998C79.4551 17.1998 79.7551 17.2998 80.1551 17.2998C80.5551 17.2998 80.8551 17.0998 81.0551 16.6998C81.2551 16.4998 81.3551 16.0998 81.3551 15.6998Z" fill="#545659"/>
<path d="M87.3562 17.9998H86.4562L86.3562 17.4998C86.0562 17.8998 85.5563 18.0998 85.0563 18.0998C84.6563 18.0998 84.2563 17.9998 84.0563 17.6998C83.8563 17.3998 83.6562 17.0998 83.6562 16.7998C83.6562 16.1998 83.8562 15.7998 84.3562 15.4998C84.8562 15.1998 85.4562 15.0998 86.3562 15.0998V14.9998C86.3562 14.3998 86.0562 14.0998 85.4562 14.0998C84.9562 14.0998 84.6562 14.1998 84.2562 14.3998L84.0563 13.6998C84.4563 13.3998 84.9562 13.2998 85.6562 13.2998C86.8563 13.2998 87.4562 13.8998 87.4562 15.1998V16.8998C87.2562 17.3998 87.3562 17.6998 87.3562 17.9998ZM86.2562 16.3998V15.6998C85.1562 15.6998 84.5563 15.9998 84.5563 16.5998C84.5563 16.7998 84.6562 16.9998 84.7562 17.0998C84.8562 17.1998 85.0562 17.2998 85.2562 17.2998C85.4562 17.2998 85.6562 17.1998 85.8562 17.0998C86.0562 16.9998 86.1562 16.7998 86.2562 16.5998C86.2562 16.5998 86.2562 16.4998 86.2562 16.3998Z" fill="#545659"/>
<path d="M93.1555 17.9998H92.2555V17.2998C91.9555 17.8998 91.4555 18.0998 90.7555 18.0998C90.1555 18.0998 89.7555 17.8998 89.3555 17.4998C88.9555 17.0998 88.8555 16.4998 88.8555 15.7998C88.8555 15.0998 89.0555 14.4998 89.4555 13.9998C89.7555 13.4998 90.2555 13.2998 90.7555 13.2998C91.3555 13.2998 91.7555 13.4998 92.0555 13.8998V11.2998H93.0555V16.6998C93.0555 17.1998 93.1555 17.5998 93.1555 17.9998ZM92.0555 16.0998V15.2998C92.0555 15.1998 92.0555 15.0998 92.0555 14.9998C91.9555 14.7998 91.8555 14.5998 91.6555 14.3998C91.4555 14.1998 91.2555 14.1998 90.9555 14.1998C90.5555 14.1998 90.2555 14.3998 90.0555 14.6998C89.8555 14.9998 89.7555 15.3998 89.7555 15.8998C89.7555 16.3998 89.8555 16.6998 90.0555 16.9998C90.2555 17.2998 90.5555 17.4998 90.9555 17.4998C91.2555 17.4998 91.5555 17.3998 91.7555 17.0998C91.9555 16.6998 92.0555 16.3998 92.0555 16.0998Z" fill="#545659"/>
<path d="M101.855 15.6998C101.855 16.3998 101.655 16.9998 101.255 17.3998C100.855 17.8998 100.255 18.0998 99.5555 18.0998C98.8555 18.0998 98.3555 17.8998 97.9555 17.3998C97.5555 16.9998 97.3555 16.3998 97.3555 15.6998C97.3555 14.9998 97.5555 14.3998 97.9555 13.9998C98.3555 13.4998 98.9555 13.2998 99.6555 13.2998C100.355 13.2998 100.855 13.4998 101.255 13.9998C101.655 14.3998 101.855 14.9998 101.855 15.6998ZM100.755 15.6998C100.755 15.2998 100.655 14.8998 100.455 14.5998C100.255 14.1998 99.9555 14.0998 99.5555 14.0998C99.1555 14.0998 98.8555 14.2998 98.6555 14.5998C98.4555 14.8998 98.3555 15.2998 98.3555 15.6998C98.3555 16.0998 98.4555 16.4998 98.6555 16.7998C98.8555 17.1998 99.1555 17.2998 99.5555 17.2998C99.9555 17.2998 100.255 17.0998 100.455 16.6998C100.655 16.4998 100.755 16.0998 100.755 15.6998Z" fill="#545659"/>
<path d="M107.255 17.9997H106.255V15.3997C106.255 14.5997 105.955 14.1997 105.355 14.1997C105.055 14.1997 104.855 14.2997 104.655 14.4997C104.455 14.6997 104.355 14.9997 104.355 15.2997V17.9997H103.355V14.6997C103.355 14.2997 103.355 13.8997 103.355 13.3997H104.255V14.0997C104.355 13.8997 104.555 13.6997 104.755 13.4997C105.055 13.2997 105.355 13.1997 105.655 13.1997C106.055 13.1997 106.455 13.2997 106.755 13.5997C107.155 13.8997 107.255 14.3997 107.255 15.0997V17.9997Z" fill="#545659"/>
<path d="M114.155 14.1998H113.055V16.3998C113.055 16.9998 113.255 17.1998 113.655 17.1998C113.855 17.1998 113.955 17.1998 114.155 17.1998V17.9998C113.955 18.0998 113.655 18.0998 113.355 18.0998C112.955 18.0998 112.655 17.9998 112.455 17.6998C112.255 17.4998 112.155 16.9998 112.155 16.4998V14.1998H111.455V13.3998H112.155V12.5998L113.155 12.2998V13.3998H114.255V14.1998H114.155Z" fill="#545659"/>
<path d="M119.556 17.9998H118.556V15.3998C118.556 14.5998 118.256 14.1998 117.656 14.1998C117.156 14.1998 116.856 14.3998 116.656 14.8998C116.656 14.9998 116.656 15.0998 116.656 15.2998V17.9998H115.656V11.2998H116.656V14.0998C116.956 13.5998 117.456 13.2998 118.056 13.2998C118.456 13.2998 118.856 13.3998 119.056 13.6998C119.356 13.9998 119.556 14.5998 119.556 15.1998V17.9998Z" fill="#545659"/>
<path d="M125.057 15.4999C125.057 15.6999 125.057 15.7999 125.057 15.9999H122.057C122.057 16.4999 122.257 16.7999 122.457 16.9999C122.757 17.1999 123.057 17.2999 123.457 17.2999C123.957 17.2999 124.357 17.1999 124.657 17.0999L124.857 17.7999C124.457 17.9999 123.957 18.0999 123.357 18.0999C122.657 18.0999 122.057 17.8999 121.657 17.4999C121.257 17.0999 121.057 16.4999 121.057 15.7999C121.057 15.0999 121.257 14.4999 121.657 14.0999C122.057 13.5999 122.557 13.3999 123.257 13.3999C123.957 13.3999 124.457 13.5999 124.757 14.0999C124.957 14.3999 125.057 14.8999 125.057 15.4999ZM124.057 15.1999C124.057 14.8999 123.957 14.5999 123.857 14.3999C123.657 14.0999 123.457 13.9999 123.057 13.9999C122.757 13.9999 122.457 14.0999 122.257 14.3999C122.057 14.5999 121.957 14.8999 121.957 15.1999H124.057Z" fill="#545659"/>
</g>
<defs>
<clipPath id="clip0_1_30">
<rect width="147" height="50" fill="white"/>
</clipPath>
</defs>
</svg>
