<svg width="132" height="50" viewBox="0 0 132 50" fill="none" xmlns="http://www.w3.org/2000/svg">
<g clip-path="url(#clip0_1_333)">
<path d="M128 0H4C1.79086 0 0 1.79086 0 4V46C0 48.2091 1.79086 50 4 50H128C130.209 50 132 48.2091 132 46V4C132 1.79086 130.209 0 128 0Z" fill="white"/>
<path d="M28.7559 24.1999C28.7559 21.0999 31.3559 19.5999 31.4559 19.4999C29.9559 17.3999 27.7559 17.0999 26.9559 16.9999C25.0559 16.7999 23.1559 18.0999 22.2559 18.0999C21.2559 18.0999 19.7559 16.9999 18.1559 16.9999C16.0559 16.9999 14.1559 18.1999 13.0559 20.0999C10.8559 23.8999 12.4559 29.4999 14.5559 32.5999C15.6559 34.0999 16.8559 35.7999 18.4559 35.6999C20.0559 35.5999 20.6559 34.6999 22.5559 34.6999C24.4559 34.6999 24.9559 35.6999 26.6559 35.6999C28.3559 35.6999 29.4559 34.1999 30.4559 32.6999C31.6559 30.9999 32.1559 29.2999 32.1559 29.1999C32.0559 29.0999 28.7559 27.8999 28.7559 24.1999Z" fill="#31C5A1"/>
<path d="M25.656 15C26.456 13.9 27.056 12.5 26.956 11C25.756 11.1 24.156 11.8 23.356 12.9C22.556 13.8 21.856 15.3 22.056 16.7C23.356 16.8 24.756 16 25.656 15Z" fill="#31C5A1"/>
<path d="M51.5562 35.5001H49.3562L48.1562 31.7001H43.9562L42.7562 35.5001H40.6562L44.7562 22.6001H47.3562L51.5562 35.5001ZM47.7562 30.1001L46.6562 26.7001C46.5563 26.4001 46.3562 25.5001 45.9562 24.3001C45.8562 24.8001 45.6562 25.7001 45.3562 26.7001L44.2562 30.1001H47.7562Z" fill="#31C5A1"/>
<path d="M62.2559 30.8001C62.2559 32.4001 61.8559 33.6001 60.9559 34.6001C60.1559 35.4001 59.2559 35.8001 58.0559 35.8001C56.8559 35.8001 55.9559 35.4001 55.4559 34.5001V39.4001H53.3559V29.4001C53.3559 28.4001 53.3559 27.4001 53.2559 26.3001H55.0559L55.1559 27.8001C55.8559 26.7001 56.8559 26.1001 58.2559 26.1001C59.3559 26.1001 60.2559 26.5001 60.9559 27.4001C61.8559 28.2001 62.2559 29.3001 62.2559 30.8001ZM60.1559 30.8001C60.1559 29.9001 59.9559 29.1001 59.5559 28.6001C59.1559 28.0001 58.5559 27.7001 57.7559 27.7001C57.2559 27.7001 56.7559 27.9001 56.3559 28.2001C55.9559 28.5001 55.6559 29.0001 55.5559 29.5001C55.4559 29.8001 55.4559 30.0001 55.4559 30.1001V31.7001C55.4559 32.4001 55.6559 32.9001 56.0559 33.4001C56.4559 33.9001 57.0559 34.1001 57.6559 34.1001C58.4559 34.1001 59.0559 33.8001 59.4559 33.2001C59.8559 32.6001 60.1559 31.8001 60.1559 30.8001Z" fill="#31C5A1"/>
<path d="M72.9551 30.8001C72.9551 32.4001 72.5551 33.6001 71.6551 34.6001C70.8551 35.4001 69.9551 35.8001 68.7551 35.8001C67.5551 35.8001 66.6551 35.4001 66.1551 34.5001V39.4001H64.0551V29.4001C64.0551 28.4001 64.0551 27.4001 63.9551 26.3001H65.7551L65.8551 27.8001C66.5551 26.7001 67.5551 26.1001 68.9551 26.1001C70.0551 26.1001 70.9551 26.5001 71.6551 27.4001C72.5551 28.2001 72.9551 29.3001 72.9551 30.8001ZM70.8551 30.8001C70.8551 29.9001 70.6551 29.1001 70.2551 28.6001C69.8551 28.0001 69.2551 27.7001 68.4551 27.7001C67.9551 27.7001 67.4551 27.9001 67.0551 28.2001C66.6551 28.5001 66.3551 29.0001 66.2551 29.5001C66.1551 29.8001 66.1551 30.0001 66.1551 30.1001V31.7001C66.1551 32.4001 66.3551 32.9001 66.7551 33.4001C67.1551 33.9001 67.7551 34.1001 68.3551 34.1001C69.1551 34.1001 69.7551 33.8001 70.1551 33.2001C70.5551 32.6001 70.8551 31.8001 70.8551 30.8001Z" fill="#31C5A1"/>
<path d="M84.8551 31.9C84.8551 33 84.4551 33.9 83.7551 34.6C82.9551 35.4 81.7551 35.7 80.2551 35.7C78.8551 35.7 77.7551 35.4 76.9551 34.9L77.4551 33.2C78.3551 33.7 79.3551 34 80.4551 34C81.2551 34 81.8551 33.8 82.2551 33.5C82.6551 33.1 82.8551 32.7 82.8551 32.1C82.8551 31.6 82.6551 31.1 82.3551 30.8C81.9551 30.4 81.3551 30.1 80.5551 29.8C78.2551 29 77.1551 27.7 77.1551 26.1C77.1551 25 77.5551 24.2 78.3551 23.5C79.1551 22.8 80.1551 22.5 81.5551 22.5C82.7551 22.5 83.6551 22.7 84.4551 23.1L83.9551 24.8C83.2551 24.4 82.4551 24.2 81.4551 24.2C80.7551 24.2 80.1551 24.4 79.7551 24.7C79.4551 25 79.2551 25.4 79.2551 25.9C79.2551 26.4 79.4551 26.8 79.8551 27.2C80.1551 27.5 80.8551 27.8 81.7551 28.2C82.8551 28.6 83.6551 29.2 84.2551 29.8C84.6551 30.3 84.8551 31 84.8551 31.9Z" fill="#31C5A1"/>
<path d="M91.7566 27.7999H89.4566V32.2999C89.4566 33.3999 89.8566 33.9999 90.6566 33.9999C91.0566 33.9999 91.3566 33.9999 91.5566 33.8999L91.6566 35.4999C91.2566 35.6999 90.7566 35.6999 90.0566 35.6999C89.2566 35.6999 88.5566 35.4999 88.1566 34.9999C87.6566 34.4999 87.4566 33.6999 87.4566 32.4999V27.7999H86.0566V26.1999H87.4566V24.4999L89.4566 23.8999V26.1999H91.7566V27.7999Z" fill="#31C5A1"/>
<path d="M102.055 30.8C102.055 32.2 101.655 33.4 100.855 34.3C99.9551 35.2 98.8551 35.7 97.4551 35.7C96.0551 35.7 94.9551 35.2 94.1551 34.3C93.3551 33.4 92.9551 32.3 92.9551 30.9C92.9551 29.5 93.3551 28.3 94.2551 27.4C95.0551 26.5 96.2551 26 97.6551 26C99.0551 26 100.155 26.5 100.955 27.4C101.655 28.3 102.055 29.4 102.055 30.8ZM99.8551 30.9C99.8551 30 99.6551 29.3 99.2551 28.7C98.8551 28 98.1551 27.6 97.3551 27.6C96.5551 27.6 95.8551 28 95.4551 28.7C95.0551 29.3 94.8551 30.1 94.8551 30.9C94.8551 31.8 95.0551 32.5 95.4551 33.1C95.8551 33.8 96.5551 34.2 97.3551 34.2C98.1551 34.2 98.7551 33.8 99.2551 33.1C99.6551 32.5 99.8551 31.7 99.8551 30.9Z" fill="#31C5A1"/>
<path d="M108.756 27.9999C108.556 27.9999 108.356 27.8999 108.056 27.8999C107.356 27.8999 106.756 28.1999 106.356 28.6999C106.056 29.1999 105.856 29.7999 105.856 30.4999V35.3999H103.756V28.9999C103.756 27.8999 103.756 26.9999 103.656 26.0999H105.456L105.556 27.8999H105.656C105.856 27.2999 106.256 26.7999 106.656 26.3999C107.156 26.0999 107.656 25.8999 108.156 25.8999C108.356 25.8999 108.556 25.8999 108.656 25.8999V27.9999H108.756Z" fill="#31C5A1"/>
<path d="M117.956 30.4C117.956 30.8 117.956 31.1 117.856 31.3H111.656C111.656 32.2 111.956 32.9 112.556 33.4C113.056 33.8 113.756 34.1 114.556 34.1C115.456 34.1 116.356 34 117.056 33.7L117.356 35.1C116.456 35.5 115.456 35.7 114.256 35.7C112.856 35.7 111.656 35.3 110.856 34.4C110.056 33.6 109.656 32.4 109.656 31C109.656 29.6 110.056 28.4 110.756 27.5C111.556 26.5 112.656 26 114.056 26C115.356 26 116.456 26.5 117.056 27.5C117.656 28.3 117.956 29.3 117.956 30.4ZM115.956 29.9C115.956 29.3 115.856 28.8 115.556 28.3C115.156 27.7 114.656 27.4 113.956 27.4C113.256 27.4 112.756 27.7 112.356 28.2C112.056 28.6 111.856 29.2 111.756 29.8H115.956V29.9Z" fill="#31C5A1"/>
<path d="M47.0555 14.7001C47.0555 15.8001 46.7555 16.7001 46.0555 17.3001C45.4555 17.8001 44.5555 18.1001 43.3555 18.1001C42.7555 18.1001 42.2555 18.1001 41.8555 18.0001V11.7001C42.3555 11.6001 42.9555 11.6001 43.6555 11.6001C44.7555 11.6001 45.5555 11.8001 46.1555 12.3001C46.7555 12.9001 47.0555 13.7001 47.0555 14.7001ZM46.0555 14.7001C46.0555 14.0001 45.8555 13.4001 45.4555 13.0001C45.0555 12.6001 44.4555 12.4001 43.7555 12.4001C43.4555 12.4001 43.1555 12.4001 42.9555 12.5001V17.2001C43.0555 17.2001 43.3555 17.2001 43.6555 17.2001C44.4555 17.2001 45.0555 17.0001 45.4555 16.6001C45.7555 16.2001 46.0555 15.5001 46.0555 14.7001Z" fill="#545659"/>
<path d="M52.7559 15.6998C52.7559 16.3998 52.5559 16.9998 52.1559 17.3998C51.7559 17.8998 51.1559 18.0998 50.4559 18.0998C49.7559 18.0998 49.2559 17.8998 48.8559 17.3998C48.4559 16.9998 48.2559 16.3998 48.2559 15.6998C48.2559 14.9998 48.4559 14.3998 48.8559 13.9998C49.2559 13.4998 49.8559 13.2998 50.5559 13.2998C51.2559 13.2998 51.7559 13.4998 52.1559 13.9998C52.5559 14.3998 52.7559 14.9998 52.7559 15.6998ZM51.7559 15.6998C51.7559 15.2998 51.6559 14.8998 51.4559 14.5998C51.2559 14.1998 50.9559 14.0998 50.5559 14.0998C50.1559 14.0998 49.8559 14.2998 49.6559 14.5998C49.4559 14.8998 49.3559 15.2998 49.3559 15.6998C49.3559 16.0998 49.4559 16.4998 49.6559 16.7998C49.8559 17.1998 50.1559 17.2998 50.5559 17.2998C50.9559 17.2998 51.2559 17.0998 51.4559 16.6998C51.6559 16.4998 51.7559 16.0998 51.7559 15.6998Z" fill="#545659"/>
<path d="M60.3559 13.3999L58.9559 17.9999H58.0559L57.4559 15.9999C57.2559 15.4999 57.1559 14.9999 57.0559 14.4999C56.9559 14.9999 56.8559 15.4999 56.6559 15.9999L56.0559 17.9999H55.1559L53.7559 13.3999H54.7559L55.2559 15.5999C55.3559 16.0999 55.4559 16.5999 55.5559 17.0999C55.6559 16.6999 55.7559 16.1999 55.9559 15.5999L56.6559 13.3999H57.4559L58.0559 15.4999C58.2559 15.9999 58.3559 16.4999 58.4559 16.9999C58.5559 16.4999 58.6559 15.9999 58.7559 15.4999L59.3559 13.3999H60.3559Z" fill="#545659"/>
<path d="M65.6559 17.9998H64.6559V15.3998C64.6559 14.5998 64.3559 14.1998 63.7559 14.1998C63.4559 14.1998 63.2559 14.2998 63.0559 14.4998C62.8559 14.6998 62.7559 14.9998 62.7559 15.2998V17.9998H61.7559V14.6998C61.7559 14.2998 61.7559 13.8998 61.7559 13.3998H62.6559V14.0998C62.7559 13.8998 62.9559 13.6998 63.1559 13.4998C63.4559 13.3998 63.7559 13.2998 64.0559 13.2998C64.4559 13.2998 64.8559 13.3998 65.1559 13.6998C65.5559 13.9998 65.6559 14.4998 65.6559 15.1998V17.9998Z" fill="#545659"/>
<path d="M68.4551 17.9998H67.4551V11.2998H68.4551V17.9998Z" fill="#545659"/>
<path d="M74.4551 15.6998C74.4551 16.3998 74.2551 16.9998 73.8551 17.3998C73.4551 17.8998 72.8551 18.0998 72.1551 18.0998C71.4551 18.0998 70.9551 17.8998 70.5551 17.3998C70.1551 16.9998 69.9551 16.3998 69.9551 15.6998C69.9551 14.9998 70.1551 14.3998 70.5551 13.9998C70.9551 13.4998 71.5551 13.2998 72.2551 13.2998C72.9551 13.2998 73.4551 13.4998 73.8551 13.9998C74.2551 14.3998 74.4551 14.9998 74.4551 15.6998ZM73.3551 15.6998C73.3551 15.2998 73.2551 14.8998 73.0551 14.5998C72.8551 14.1998 72.5551 14.0998 72.1551 14.0998C71.7551 14.0998 71.4551 14.2998 71.2551 14.5998C71.0551 14.8998 70.9551 15.2998 70.9551 15.6998C70.9551 16.0998 71.0551 16.4998 71.2551 16.7998C71.4551 17.1998 71.7551 17.2998 72.1551 17.2998C72.5551 17.2998 72.8551 17.0998 73.0551 16.6998C73.2551 16.4998 73.3551 16.0998 73.3551 15.6998Z" fill="#545659"/>
<path d="M79.3562 17.9998H78.4562L78.3562 17.4998C78.0562 17.8998 77.5563 18.0998 77.0563 18.0998C76.6563 18.0998 76.2563 17.9998 76.0563 17.6998C75.8563 17.3998 75.6562 17.0998 75.6562 16.7998C75.6562 16.1998 75.8562 15.7998 76.3562 15.4998C76.8562 15.1998 77.4562 15.0998 78.3562 15.0998V14.9998C78.3562 14.3998 78.0562 14.0998 77.4562 14.0998C76.9562 14.0998 76.6562 14.1998 76.2562 14.3998L76.0563 13.6998C76.4563 13.3998 76.9562 13.2998 77.6562 13.2998C78.8563 13.2998 79.4562 13.8998 79.4562 15.1998V16.8998C79.2562 17.3998 79.3562 17.6998 79.3562 17.9998ZM78.2562 16.3998V15.6998C77.1562 15.6998 76.5563 15.9998 76.5563 16.5998C76.5563 16.7998 76.6562 16.9998 76.7562 17.0998C76.8562 17.1998 77.0562 17.2998 77.2562 17.2998C77.4562 17.2998 77.6562 17.1998 77.8562 17.0998C78.0562 16.9998 78.1562 16.7998 78.2562 16.5998C78.2562 16.5998 78.2562 16.4998 78.2562 16.3998Z" fill="#545659"/>
<path d="M85.1555 17.9998H84.2555V17.2998C83.9555 17.8998 83.4555 18.0998 82.7555 18.0998C82.1555 18.0998 81.7555 17.8998 81.3555 17.4998C80.9555 17.0998 80.8555 16.4998 80.8555 15.7998C80.8555 15.0998 81.0555 14.4998 81.4555 13.9998C81.7555 13.4998 82.2555 13.2998 82.7555 13.2998C83.3555 13.2998 83.7555 13.4998 84.0555 13.8998V11.2998H85.0555V16.6998C85.0555 17.1998 85.1555 17.5998 85.1555 17.9998ZM84.0555 16.0998V15.2998C84.0555 15.1998 84.0555 15.0998 84.0555 14.9998C83.9555 14.7998 83.8555 14.5998 83.6555 14.3998C83.4555 14.1998 83.2555 14.1998 82.9555 14.1998C82.5555 14.1998 82.2555 14.3998 82.0555 14.6998C81.8555 14.9998 81.7555 15.3998 81.7555 15.8998C81.7555 16.3998 81.8555 16.6998 82.0555 16.9998C82.2555 17.2998 82.5555 17.4998 82.9555 17.4998C83.2555 17.4998 83.5555 17.3998 83.7555 17.0998C83.9555 16.6998 84.0555 16.3998 84.0555 16.0998Z" fill="#545659"/>
<path d="M93.8555 15.6998C93.8555 16.3998 93.6555 16.9998 93.2555 17.3998C92.8555 17.8998 92.2555 18.0998 91.5555 18.0998C90.8555 18.0998 90.3555 17.8998 89.9555 17.3998C89.5555 16.9998 89.3555 16.3998 89.3555 15.6998C89.3555 14.9998 89.5555 14.3998 89.9555 13.9998C90.3555 13.4998 90.9555 13.2998 91.6555 13.2998C92.3555 13.2998 92.8555 13.4998 93.2555 13.9998C93.6555 14.3998 93.8555 14.9998 93.8555 15.6998ZM92.7555 15.6998C92.7555 15.2998 92.6555 14.8998 92.4555 14.5998C92.2555 14.1998 91.9555 14.0998 91.5555 14.0998C91.1555 14.0998 90.8555 14.2998 90.6555 14.5998C90.4555 14.8998 90.3555 15.2998 90.3555 15.6998C90.3555 16.0998 90.4555 16.4998 90.6555 16.7998C90.8555 17.1998 91.1555 17.2998 91.5555 17.2998C91.9555 17.2998 92.2555 17.0998 92.4555 16.6998C92.6555 16.4998 92.7555 16.0998 92.7555 15.6998Z" fill="#545659"/>
<path d="M99.2555 17.9997H98.2555V15.3997C98.2555 14.5997 97.9555 14.1997 97.3555 14.1997C97.0555 14.1997 96.8555 14.2997 96.6555 14.4997C96.4555 14.6997 96.3555 14.9997 96.3555 15.2997V17.9997H95.3555V14.6997C95.3555 14.2997 95.3555 13.8997 95.3555 13.3997H96.2555V14.0997C96.3555 13.8997 96.5555 13.6997 96.7555 13.4997C97.0555 13.2997 97.3555 13.1997 97.6555 13.1997C98.0555 13.1997 98.4555 13.2997 98.7555 13.5997C99.1555 13.8997 99.2555 14.3997 99.2555 15.0997V17.9997Z" fill="#545659"/>
<path d="M106.155 14.1998H105.055V16.3998C105.055 16.9998 105.255 17.1998 105.655 17.1998C105.855 17.1998 105.955 17.1998 106.155 17.1998V17.9998C105.955 18.0998 105.655 18.0998 105.355 18.0998C104.955 18.0998 104.655 17.9998 104.455 17.6998C104.255 17.4998 104.155 16.9998 104.155 16.4998V14.1998H103.455V13.3998H104.155V12.5998L105.155 12.2998V13.3998H106.255V14.1998H106.155Z" fill="#545659"/>
<path d="M111.556 17.9998H110.556V15.3998C110.556 14.5998 110.256 14.1998 109.656 14.1998C109.156 14.1998 108.856 14.3998 108.656 14.8998C108.656 14.9998 108.656 15.0998 108.656 15.2998V17.9998H107.656V11.2998H108.656V14.0998C108.956 13.5998 109.456 13.2998 110.056 13.2998C110.456 13.2998 110.856 13.3998 111.056 13.6998C111.356 13.9998 111.556 14.5998 111.556 15.1998V17.9998Z" fill="#545659"/>
<path d="M117.057 15.4999C117.057 15.6999 117.057 15.7999 117.057 15.9999H114.057C114.057 16.4999 114.257 16.7999 114.457 16.9999C114.757 17.1999 115.057 17.2999 115.457 17.2999C115.957 17.2999 116.357 17.1999 116.657 17.0999L116.857 17.7999C116.457 17.9999 115.957 18.0999 115.357 18.0999C114.657 18.0999 114.057 17.8999 113.657 17.4999C113.257 17.0999 113.057 16.4999 113.057 15.7999C113.057 15.0999 113.257 14.4999 113.657 14.0999C114.057 13.5999 114.557 13.3999 115.257 13.3999C115.957 13.3999 116.457 13.5999 116.757 14.0999C116.957 14.3999 117.057 14.8999 117.057 15.4999ZM116.057 15.1999C116.057 14.8999 115.957 14.5999 115.857 14.3999C115.657 14.0999 115.457 13.9999 115.057 13.9999C114.757 13.9999 114.457 14.0999 114.257 14.3999C114.057 14.5999 113.957 14.8999 113.957 15.1999H116.057Z" fill="#545659"/>
</g>
<defs>
<clipPath id="clip0_1_333">
<rect width="132" height="50" fill="white"/>
</clipPath>
</defs>
</svg>
