<svg width="147" height="50" viewBox="0 0 147 50" fill="none" xmlns="http://www.w3.org/2000/svg">
<g clip-path="url(#clip0_1_16)">
<path d="M143 0H4C1.79086 0 0 1.79086 0 4V46C0 48.2091 1.79086 50 4 50H143C145.209 50 147 48.2091 147 46V4C147 1.79086 145.209 0 143 0Z" fill="#EEEAFF"/>
<path fill-rule="evenodd" clip-rule="evenodd" d="M19 23.3998V12.8998C19 12.2998 19.5 11.7998 20 11.7998C20.5 11.7998 20.7 11.8998 21 12.0998L40.3 22.6998C40.7 22.8998 40.9 23.1998 40.9 23.4998C40.9 23.7998 40.7 24.0998 40.3 24.2998L21 34.7998C20.8 34.8998 20.5 35.0998 20 35.0998C19.5 35.0998 19 34.5998 19 33.9998V23.3998Z" fill="url(#paint0_linear_1_16)"/>
<path fill-rule="evenodd" clip-rule="evenodd" d="M31.5008 23.4998L19.8008 11.7998C19.9008 11.7998 19.9008 11.7998 20.0008 11.7998C20.5008 11.7998 20.7008 11.8998 21.0008 12.0998L35.2008 19.7998L31.5008 23.4998Z" fill="url(#paint1_linear_1_16)"/>
<path fill-rule="evenodd" clip-rule="evenodd" d="M35.1 26.9998L31.5 23.3998L35.2 19.7998L40.3 22.5998C40.7 22.7998 40.9 23.0998 40.9 23.3998C40.9 23.6998 40.7 23.9998 40.3 24.1998L35.1 26.9998Z" fill="url(#paint2_linear_1_16)"/>
<path fill-rule="evenodd" clip-rule="evenodd" d="M19.9004 34.9999L31.5004 23.3999L35.1004 26.9999L21.0004 34.7999C20.7004 34.8999 20.5004 34.9999 19.9004 34.9999C20.0004 34.9999 20.0004 34.9999 19.9004 34.9999Z" fill="url(#paint3_linear_1_16)"/>
<path fill-rule="evenodd" clip-rule="evenodd" d="M80.2996 37.6998C79.7996 37.2998 79.3996 36.5998 79.1996 36.1998L80.7996 35.4998C80.8996 35.6998 81.0996 35.9998 81.2996 36.2998C81.6996 36.6998 82.2996 37.0998 82.8996 37.0998C83.4996 37.0998 84.1996 36.7998 84.5996 36.2998C84.8996 35.7998 85.0996 35.2998 85.0996 34.5998V33.9998C83.8996 35.4998 81.3996 35.2998 79.9996 33.6998C78.4996 32.0998 78.4996 29.3998 79.9996 27.7998C81.4996 26.2998 83.6996 26.0998 84.9996 27.4998V26.7998H86.6996V34.3998C86.6996 36.2998 85.9996 37.3998 85.0996 38.0998C84.4996 38.5998 83.5996 38.7998 82.7996 38.7998C81.8996 38.5998 80.9996 38.2998 80.2996 37.6998ZM122.2 38.0998L123.9 34.0998L120.9 27.1998H122.6L124.7 32.0998L126.8 27.1998H128.5L123.9 38.0998H122.2ZM114.1 34.2998C113.6 33.7998 113.4 33.0998 113.4 32.3998C113.4 31.7998 113.6 31.1998 114 30.7998C114.7 30.0998 115.7 29.7998 116.8 29.7998C117.5 29.7998 118.1 29.8998 118.6 30.1998C118.6 28.9998 117.6 28.4998 116.8 28.4998C116.1 28.4998 115.4 28.8998 115.1 29.5998L113.6 28.9998C113.9 28.2998 114.7 26.9998 116.7 26.9998C117.7 26.9998 118.7 27.2998 119.3 27.9998C119.9 28.6998 120.1 29.4998 120.1 30.5998V34.7998H118.4V34.0998C118.2 34.3998 117.8 34.5998 117.5 34.7998C117.1 34.9998 116.6 35.0998 116.1 35.0998C115.5 34.9998 114.6 34.7998 114.1 34.2998ZM60.7996 30.6998C60.7996 28.6998 62.2996 26.4998 64.9996 26.4998C67.5996 26.4998 69.1996 28.6998 69.1996 30.6998C69.1996 32.6998 67.6996 34.8998 64.9996 34.8998C62.2996 34.8998 60.7996 32.6998 60.7996 30.6998ZM69.7996 30.6998C69.7996 28.6998 71.2996 26.4998 73.9996 26.4998C76.5996 26.4998 78.1996 28.6998 78.1996 30.6998C78.1996 32.6998 76.6996 34.8998 73.9996 34.8998C71.3996 34.8998 69.7996 32.6998 69.7996 30.6998ZM49.4996 32.8998C46.9996 30.3998 47.0996 26.2998 49.5996 23.6998C50.8996 22.3998 52.4996 21.7998 54.1996 21.7998C55.7996 21.7998 57.3996 22.3998 58.5996 23.5998L57.3996 24.8998C55.5996 23.0998 52.6996 23.1998 50.9996 24.9998C49.1996 26.8998 49.1996 29.7998 50.9996 31.6998C52.7996 33.5998 55.7996 33.6998 57.5996 31.7998C58.1996 31.1998 58.3996 30.3998 58.4996 29.5998H54.1996V27.7998H60.0996C60.1996 28.1998 60.1996 28.6998 60.1996 29.1998C60.1996 30.6998 59.5996 32.1998 58.5996 33.1998C57.4996 34.2998 55.8996 34.8998 54.2996 34.8998C52.5996 34.7998 50.7996 34.1998 49.4996 32.8998ZM91.7996 33.5998C90.2996 31.9998 90.2996 29.2998 91.7996 27.5998C93.2996 25.9998 95.7996 25.9998 97.1996 27.5998C97.6996 28.0998 97.9996 28.7998 98.2996 29.4998L92.7996 31.7998C93.0996 32.4998 93.7996 33.0998 94.7996 33.0998C95.6996 33.0998 96.2996 32.7998 96.8996 31.8998L98.3996 32.8998C98.1996 33.0998 97.9996 33.2998 97.8996 33.4998C96.1996 35.1998 93.2996 35.1998 91.7996 33.5998ZM102.2 34.7998V23.6998H105.8C107.9 23.6998 109.6 25.1998 109.6 26.9998C109.6 28.7998 108.1 30.2998 106.2 30.2998H104V34.7998H102.2ZM110.6 34.7998V23.6998H112.3V34.7998H110.6ZM87.9996 34.5998V22.1998H89.7996V34.5998H87.9996ZM118.5 31.4998C118.1 31.1998 117.5 31.0998 116.9 31.0998C115.7 31.0998 115 31.6998 115 32.3998C115 33.0998 115.7 33.4998 116.4 33.4998C117.4 33.4998 118.5 32.6998 118.5 31.4998ZM67.2996 30.6998C67.2996 29.4998 66.4996 28.1998 64.9996 28.1998C63.4996 28.1998 62.6996 29.4998 62.6996 30.6998C62.6996 31.8998 63.4996 33.1998 64.9996 33.1998C66.3996 33.1998 67.2996 31.8998 67.2996 30.6998ZM76.2996 30.6998C76.2996 29.4998 75.4996 28.1998 73.9996 28.1998C72.4996 28.1998 71.6996 29.4998 71.6996 30.6998C71.6996 31.8998 72.4996 33.1998 73.9996 33.1998C75.4996 33.1998 76.2996 31.8998 76.2996 30.6998ZM85.1996 31.3998C85.1996 31.2998 85.1996 31.1998 85.2996 31.0998C85.2996 30.9998 85.2996 30.7998 85.2996 30.6998C85.2996 30.5998 85.2996 30.3998 85.2996 30.2998V30.1998C85.2996 30.0998 85.1996 29.8998 85.1996 29.7998C84.8996 28.7998 83.9996 28.0998 83.0996 28.0998C81.8996 28.0998 80.8996 29.2998 80.8996 30.5998C80.8996 31.9998 81.8996 33.0998 83.1996 33.0998C83.9996 33.1998 84.7996 32.4998 85.1996 31.3998ZM92.4996 30.4998L96.1996 28.8998C95.7996 28.1998 95.1996 27.9998 94.6996 27.9998C93.1996 28.0998 92.2996 29.6998 92.4996 30.4998ZM107.8 27.0998C107.8 26.0998 107 25.3998 105.9 25.3998H103.9V28.8998H106C107 28.8998 107.8 28.0998 107.8 27.0998Z" fill="#582EFF"/>
<path d="M48.0996 13.9C48.0996 12.1 49.3996 11 50.9996 11C52.0996 11 52.7996 11.5 53.2996 12.2L52.4996 12.7C52.1996 12.2 51.6996 11.8 51.0996 11.8C49.9996 11.8 49.1996 12.6 49.1996 13.8C49.1996 15 49.9996 15.8 51.0996 15.8C51.6996 15.8 52.1996 15.5 52.3996 15.3V14.4H50.6996V13.6H53.3996V15.7C52.8996 16.3 52.0996 16.7 51.0996 16.7C49.3996 16.8 48.0996 15.6 48.0996 13.9Z" fill="#545659"/>
<path d="M54.5996 16.7V11H58.3996V11.9H55.4996V13.3H58.2996V14.2H55.4996V15.8H58.3996V16.7H54.5996Z" fill="#545659"/>
<path d="M61.2 16.7V11.9H59.5V11H63.9V11.9H62.2V16.6H61.2V16.7Z" fill="#545659"/>
<path d="M67.3008 16.7V11H68.3008V16.6H67.3008V16.7Z" fill="#545659"/>
<path d="M71.0008 16.7V11.9H69.3008V11H73.7008V11.9H72.0008V16.6H71.0008V16.7Z" fill="#545659"/>
<path d="M76.9004 13.9C76.9004 12.2 78.1004 11 79.8004 11C81.5004 11 82.7004 12.2 82.7004 13.9C82.7004 15.6 81.4004 16.8 79.7004 16.8C78.1004 16.8 76.9004 15.5 76.9004 13.9ZM81.6004 13.9C81.6004 12.7 80.9004 11.9 79.7004 11.9C78.6004 11.9 77.8004 12.8 77.8004 13.9C77.8004 15.1 78.5004 15.9 79.7004 15.9C80.9004 15.9 81.6004 15 81.6004 13.9Z" fill="#545659"/>
<path d="M87.7008 16.7L84.8008 12.7V16.7H83.8008V11H84.8008L87.7008 14.9V11H88.7008V16.6H87.7008V16.7Z" fill="#545659"/>
</g>
<defs>
<linearGradient id="paint0_linear_1_16" x1="25.4674" y1="10.3734" x2="31.0656" y2="33.3643" gradientUnits="userSpaceOnUse">
<stop stop-color="#006884"/>
<stop offset="1" stop-color="#8AD1D0"/>
</linearGradient>
<linearGradient id="paint1_linear_1_16" x1="18.6415" y1="13.6436" x2="33.8975" y2="21.8911" gradientUnits="userSpaceOnUse">
<stop stop-color="#24BBB6"/>
<stop offset="1" stop-color="#DBE692"/>
</linearGradient>
<linearGradient id="paint2_linear_1_16" x1="36.1944" y1="27.4199" x2="36.1944" y2="19.4715" gradientUnits="userSpaceOnUse">
<stop stop-color="#FCC072"/>
<stop offset="1" stop-color="#F58A5B"/>
</linearGradient>
<linearGradient id="paint3_linear_1_16" x1="21.5951" y1="37.0691" x2="33.6468" y2="24.8038" gradientUnits="userSpaceOnUse">
<stop stop-color="#712B8F"/>
<stop offset="1" stop-color="#EA1D27"/>
</linearGradient>
<clipPath id="clip0_1_16">
<rect width="147" height="50" fill="white"/>
</clipPath>
</defs>
</svg>
